M48
;DRILL file {KiCad 4.0.3+e1-6302~38~ubuntu16.04.1-stable} date Tue Aug 30 13:54:12 2016
;FORMAT={-:-/ absolute / metric / decimal}
FMAT,2
METRIC,TZ
T1C0.635
T2C0.650
T3C0.762
T4C1.001
T5C1.100
T6C1.500
T7C3.100
%
G90
G05
M71
T1
X144.975Y-98.968
X154.793Y-99.755
X154.838Y-130.555
X155.14Y-96.992
X157.874Y-119.523
X161.716Y-120.69
X165.22Y-129.694
X166.087Y-127.404
X170.62Y-121.564
X177.671Y-118.431
T2
X156.95Y-103.5
X156.95Y-104.77
X156.95Y-106.04
X156.95Y-107.31
X156.95Y-108.58
X156.95Y-109.85
X156.95Y-111.12
X156.95Y-112.39
X156.95Y-113.66
X156.95Y-114.93
X156.95Y-116.2
X156.95Y-117.47
X159.49Y-118.105
X160.76Y-118.105
X162.03Y-118.105
X163.3Y-118.105
X164.57Y-118.105
X165.84Y-118.105
X167.11Y-118.105
X168.38Y-118.105
X169.65Y-118.105
X170.92Y-118.105
X172.19Y-118.105
X173.46Y-118.105
X176.Y-103.5
X176.Y-104.77
X176.Y-106.04
X176.Y-107.31
X176.Y-108.58
X176.Y-109.85
X176.Y-111.12
X176.Y-112.39
X176.Y-113.66
X176.Y-114.93
X176.Y-116.2
X176.Y-117.47
T3
X157.48Y-121.92
X157.48Y-127.
X162.56Y-121.92
X162.56Y-127.
T4
X140.335Y-96.52
X140.335Y-102.235
X140.335Y-107.95
X142.875Y-96.52
X142.875Y-102.235
X142.875Y-107.95
T5
X133.18Y-121.25
X153.5Y-121.25
T6
X172.72Y-129.54
T7
X134.62Y-96.52
X134.62Y-129.54
X177.8Y-96.52
X177.8Y-129.54
T0
M30
