M48
;DRILL file {KiCad 4.0.2+e4-6225~38~ubuntu15.10.1-stable} date Thu 09 Jun 2016 11:59:51 BST
;FORMAT={-:-/ absolute / metric / decimal}
FMAT,2
METRIC,TZ
T1C0.500
T2C0.635
T3C0.762
T4C1.001
T5C1.500
T6C3.100
%
G90
G05
M71
T1
X157.48Y-103.378
X157.48Y-104.648
X157.48Y-105.918
X157.48Y-107.188
X157.48Y-108.458
X157.48Y-109.728
X157.48Y-110.998
X157.48Y-112.268
X157.48Y-113.538
X157.48Y-114.808
X157.48Y-116.078
X157.48Y-117.348
X160.02Y-117.983
X161.29Y-117.983
X162.56Y-117.983
X163.83Y-117.983
X165.1Y-117.983
X166.37Y-117.983
X167.64Y-117.983
X168.91Y-117.983
X170.18Y-117.983
X171.45Y-117.983
X172.72Y-117.983
X173.99Y-117.983
X176.53Y-103.378
X176.53Y-104.648
X176.53Y-105.918
X176.53Y-107.188
X176.53Y-108.458
X176.53Y-109.728
X176.53Y-110.998
X176.53Y-112.268
X176.53Y-113.538
X176.53Y-114.808
X176.53Y-116.078
X176.53Y-117.348
T2
X149.898Y-109.24
X154.838Y-130.555
X161.388Y-120.714
X165.241Y-129.515
X170.335Y-121.038
X177.401Y-120.562
T3
X132.715Y-121.285
X153.035Y-121.285
X157.48Y-121.92
X157.48Y-127.
X162.56Y-121.92
X162.56Y-127.
T4
X140.335Y-96.52
X140.335Y-102.235
X140.335Y-107.95
X142.875Y-96.52
X142.875Y-102.235
X142.875Y-107.95
T5
X172.72Y-129.54
T6
X134.62Y-96.52
X134.62Y-129.54
X177.8Y-96.52
X177.8Y-129.54
T0
M30
