%TF.GenerationSoftware,KiCad,Pcbnew,4.0.2+e4-6225~38~ubuntu15.10.1-stable*%
%TF.CreationDate,2016-06-09T11:59:05+01:00*%
%TF.ProjectId,igrow-101,6967726F772D3130312E6B696361645F,101*%
%TF.FileFunction,Legend,Top*%
%FSLAX46Y46*%
G04 Gerber Fmt 4.6, Leading zero omitted, Abs format (unit mm)*
G04 Created by KiCad (PCBNEW 4.0.2+e4-6225~38~ubuntu15.10.1-stable) date Thu 09 Jun 2016 11:59:05 BST*
%MOMM*%
G01*
G04 APERTURE LIST*
%ADD10C,0.100000*%
%ADD11C,0.150000*%
G04 APERTURE END LIST*
D10*
D11*
X148625000Y-98775000D02*
X148625000Y-98075000D01*
X149825000Y-98075000D02*
X149825000Y-98775000D01*
X133055360Y-108010960D02*
X133055360Y-108912660D01*
X133055360Y-106713020D02*
X133055360Y-105714800D01*
X131853940Y-110365540D02*
X133055360Y-110365540D01*
X138656060Y-110365540D02*
X137454640Y-110365540D01*
X131853940Y-110914180D02*
X133055360Y-110914180D01*
X138656060Y-110914180D02*
X137454640Y-110914180D01*
X131853940Y-103715820D02*
X133106160Y-103715820D01*
X138656060Y-103715820D02*
X137403840Y-103715820D01*
X133855460Y-108010960D02*
X132255260Y-108010960D01*
X132306060Y-106862880D02*
X133855460Y-106862880D01*
X133055360Y-108013500D02*
X132306060Y-106862880D01*
X133055360Y-108010960D02*
X133855460Y-106860340D01*
X131853940Y-103715820D02*
X131853940Y-110914180D01*
X138656060Y-103715820D02*
X138656060Y-110914180D01*
X168235000Y-127500000D02*
X168235000Y-126500000D01*
X169585000Y-126500000D02*
X169585000Y-127500000D01*
X168140000Y-130850000D02*
X167140000Y-130850000D01*
X167140000Y-129500000D02*
X168140000Y-129500000D01*
X152265000Y-130850000D02*
X151265000Y-130850000D01*
X151265000Y-129500000D02*
X152265000Y-129500000D01*
X149185000Y-118610000D02*
X149185000Y-117610000D01*
X150535000Y-117610000D02*
X150535000Y-118610000D01*
X147360000Y-110625000D02*
X147360000Y-111625000D01*
X146010000Y-111625000D02*
X146010000Y-110625000D01*
X143375000Y-115610000D02*
X142375000Y-115610000D01*
X142375000Y-114260000D02*
X143375000Y-114260000D01*
X147360000Y-104910000D02*
X147360000Y-105910000D01*
X146010000Y-105910000D02*
X146010000Y-104910000D01*
X147360000Y-97925000D02*
X147360000Y-98925000D01*
X146010000Y-98925000D02*
X146010000Y-97925000D01*
X154980000Y-124595000D02*
X154980000Y-125595000D01*
X153630000Y-125595000D02*
X153630000Y-124595000D01*
X164965000Y-124500000D02*
X163965000Y-124500000D01*
X163965000Y-123150000D02*
X164965000Y-123150000D01*
X168140000Y-121960000D02*
X167140000Y-121960000D01*
X167140000Y-120610000D02*
X168140000Y-120610000D01*
X138571000Y-120234000D02*
X138571000Y-119034000D01*
X140321000Y-119034000D02*
X140321000Y-120234000D01*
X178395000Y-117340000D02*
X178395000Y-116340000D01*
X179745000Y-116340000D02*
X179745000Y-117340000D01*
X148360180Y-124510800D02*
X148360180Y-123809760D01*
X148360180Y-123809760D02*
X148609100Y-123809760D01*
X151159160Y-123809760D02*
X151359820Y-123809760D01*
X151359820Y-123809760D02*
X151359820Y-124510800D01*
X158520180Y-122605800D02*
X158520180Y-121904760D01*
X158520180Y-121904760D02*
X158769100Y-121904760D01*
X161319160Y-121904760D02*
X161519820Y-121904760D01*
X161519820Y-121904760D02*
X161519820Y-122605800D01*
X160604200Y-128675180D02*
X161305240Y-128675180D01*
X161305240Y-128675180D02*
X161305240Y-128924100D01*
X161305240Y-131474160D02*
X161305240Y-131674820D01*
X161305240Y-131674820D02*
X160604200Y-131674820D01*
X148312143Y-98591666D02*
X148359762Y-98639285D01*
X148407381Y-98782142D01*
X148407381Y-98877380D01*
X148359762Y-99020238D01*
X148264524Y-99115476D01*
X148169286Y-99163095D01*
X147978810Y-99210714D01*
X147835952Y-99210714D01*
X147645476Y-99163095D01*
X147550238Y-99115476D01*
X147455000Y-99020238D01*
X147407381Y-98877380D01*
X147407381Y-98782142D01*
X147455000Y-98639285D01*
X147502619Y-98591666D01*
X148407381Y-97639285D02*
X148407381Y-98210714D01*
X148407381Y-97925000D02*
X147407381Y-97925000D01*
X147550238Y-98020238D01*
X147645476Y-98115476D01*
X147693095Y-98210714D01*
X135580381Y-108053095D02*
X134580381Y-108053095D01*
X134580381Y-107815000D01*
X134628000Y-107672142D01*
X134723238Y-107576904D01*
X134818476Y-107529285D01*
X135008952Y-107481666D01*
X135151810Y-107481666D01*
X135342286Y-107529285D01*
X135437524Y-107576904D01*
X135532762Y-107672142D01*
X135580381Y-107815000D01*
X135580381Y-108053095D01*
X135580381Y-106529285D02*
X135580381Y-107100714D01*
X135580381Y-106815000D02*
X134580381Y-106815000D01*
X134723238Y-106910238D01*
X134818476Y-107005476D01*
X134866095Y-107100714D01*
X169362381Y-124372666D02*
X168886190Y-124706000D01*
X169362381Y-124944095D02*
X168362381Y-124944095D01*
X168362381Y-124563142D01*
X168410000Y-124467904D01*
X168457619Y-124420285D01*
X168552857Y-124372666D01*
X168695714Y-124372666D01*
X168790952Y-124420285D01*
X168838571Y-124467904D01*
X168886190Y-124563142D01*
X168886190Y-124944095D01*
X169362381Y-123420285D02*
X169362381Y-123991714D01*
X169362381Y-123706000D02*
X168362381Y-123706000D01*
X168505238Y-123801238D01*
X168600476Y-123896476D01*
X168648095Y-123991714D01*
X164552334Y-130627381D02*
X164219000Y-130151190D01*
X163980905Y-130627381D02*
X163980905Y-129627381D01*
X164361858Y-129627381D01*
X164457096Y-129675000D01*
X164504715Y-129722619D01*
X164552334Y-129817857D01*
X164552334Y-129960714D01*
X164504715Y-130055952D01*
X164457096Y-130103571D01*
X164361858Y-130151190D01*
X163980905Y-130151190D01*
X164933286Y-129722619D02*
X164980905Y-129675000D01*
X165076143Y-129627381D01*
X165314239Y-129627381D01*
X165409477Y-129675000D01*
X165457096Y-129722619D01*
X165504715Y-129817857D01*
X165504715Y-129913095D01*
X165457096Y-130055952D01*
X164885667Y-130627381D01*
X165504715Y-130627381D01*
X148804334Y-130627381D02*
X148471000Y-130151190D01*
X148232905Y-130627381D02*
X148232905Y-129627381D01*
X148613858Y-129627381D01*
X148709096Y-129675000D01*
X148756715Y-129722619D01*
X148804334Y-129817857D01*
X148804334Y-129960714D01*
X148756715Y-130055952D01*
X148709096Y-130103571D01*
X148613858Y-130151190D01*
X148232905Y-130151190D01*
X149137667Y-129627381D02*
X149756715Y-129627381D01*
X149423381Y-130008333D01*
X149566239Y-130008333D01*
X149661477Y-130055952D01*
X149709096Y-130103571D01*
X149756715Y-130198810D01*
X149756715Y-130436905D01*
X149709096Y-130532143D01*
X149661477Y-130579762D01*
X149566239Y-130627381D01*
X149280524Y-130627381D01*
X149185286Y-130579762D01*
X149137667Y-130532143D01*
X151582381Y-118022666D02*
X151106190Y-118356000D01*
X151582381Y-118594095D02*
X150582381Y-118594095D01*
X150582381Y-118213142D01*
X150630000Y-118117904D01*
X150677619Y-118070285D01*
X150772857Y-118022666D01*
X150915714Y-118022666D01*
X151010952Y-118070285D01*
X151058571Y-118117904D01*
X151106190Y-118213142D01*
X151106190Y-118594095D01*
X150915714Y-117165523D02*
X151582381Y-117165523D01*
X150534762Y-117403619D02*
X151249048Y-117641714D01*
X151249048Y-117022666D01*
X145867381Y-111545666D02*
X145391190Y-111879000D01*
X145867381Y-112117095D02*
X144867381Y-112117095D01*
X144867381Y-111736142D01*
X144915000Y-111640904D01*
X144962619Y-111593285D01*
X145057857Y-111545666D01*
X145200714Y-111545666D01*
X145295952Y-111593285D01*
X145343571Y-111640904D01*
X145391190Y-111736142D01*
X145391190Y-112117095D01*
X144867381Y-110640904D02*
X144867381Y-111117095D01*
X145343571Y-111164714D01*
X145295952Y-111117095D01*
X145248333Y-111021857D01*
X145248333Y-110783761D01*
X145295952Y-110688523D01*
X145343571Y-110640904D01*
X145438810Y-110593285D01*
X145676905Y-110593285D01*
X145772143Y-110640904D01*
X145819762Y-110688523D01*
X145867381Y-110783761D01*
X145867381Y-111021857D01*
X145819762Y-111117095D01*
X145772143Y-111164714D01*
X139406334Y-115387381D02*
X139073000Y-114911190D01*
X138834905Y-115387381D02*
X138834905Y-114387381D01*
X139215858Y-114387381D01*
X139311096Y-114435000D01*
X139358715Y-114482619D01*
X139406334Y-114577857D01*
X139406334Y-114720714D01*
X139358715Y-114815952D01*
X139311096Y-114863571D01*
X139215858Y-114911190D01*
X138834905Y-114911190D01*
X140263477Y-114387381D02*
X140073000Y-114387381D01*
X139977762Y-114435000D01*
X139930143Y-114482619D01*
X139834905Y-114625476D01*
X139787286Y-114815952D01*
X139787286Y-115196905D01*
X139834905Y-115292143D01*
X139882524Y-115339762D01*
X139977762Y-115387381D01*
X140168239Y-115387381D01*
X140263477Y-115339762D01*
X140311096Y-115292143D01*
X140358715Y-115196905D01*
X140358715Y-114958810D01*
X140311096Y-114863571D01*
X140263477Y-114815952D01*
X140168239Y-114768333D01*
X139977762Y-114768333D01*
X139882524Y-114815952D01*
X139834905Y-114863571D01*
X139787286Y-114958810D01*
X147264381Y-102274666D02*
X146788190Y-102608000D01*
X147264381Y-102846095D02*
X146264381Y-102846095D01*
X146264381Y-102465142D01*
X146312000Y-102369904D01*
X146359619Y-102322285D01*
X146454857Y-102274666D01*
X146597714Y-102274666D01*
X146692952Y-102322285D01*
X146740571Y-102369904D01*
X146788190Y-102465142D01*
X146788190Y-102846095D01*
X146264381Y-101941333D02*
X146264381Y-101274666D01*
X147264381Y-101703238D01*
X145740381Y-98464666D02*
X145264190Y-98798000D01*
X145740381Y-99036095D02*
X144740381Y-99036095D01*
X144740381Y-98655142D01*
X144788000Y-98559904D01*
X144835619Y-98512285D01*
X144930857Y-98464666D01*
X145073714Y-98464666D01*
X145168952Y-98512285D01*
X145216571Y-98559904D01*
X145264190Y-98655142D01*
X145264190Y-99036095D01*
X145168952Y-97893238D02*
X145121333Y-97988476D01*
X145073714Y-98036095D01*
X144978476Y-98083714D01*
X144930857Y-98083714D01*
X144835619Y-98036095D01*
X144788000Y-97988476D01*
X144740381Y-97893238D01*
X144740381Y-97702761D01*
X144788000Y-97607523D01*
X144835619Y-97559904D01*
X144930857Y-97512285D01*
X144978476Y-97512285D01*
X145073714Y-97559904D01*
X145121333Y-97607523D01*
X145168952Y-97702761D01*
X145168952Y-97893238D01*
X145216571Y-97988476D01*
X145264190Y-98036095D01*
X145359429Y-98083714D01*
X145549905Y-98083714D01*
X145645143Y-98036095D01*
X145692762Y-97988476D01*
X145740381Y-97893238D01*
X145740381Y-97702761D01*
X145692762Y-97607523D01*
X145645143Y-97559904D01*
X145549905Y-97512285D01*
X145359429Y-97512285D01*
X145264190Y-97559904D01*
X145216571Y-97607523D01*
X145168952Y-97702761D01*
X153360381Y-125261666D02*
X152884190Y-125595000D01*
X153360381Y-125833095D02*
X152360381Y-125833095D01*
X152360381Y-125452142D01*
X152408000Y-125356904D01*
X152455619Y-125309285D01*
X152550857Y-125261666D01*
X152693714Y-125261666D01*
X152788952Y-125309285D01*
X152836571Y-125356904D01*
X152884190Y-125452142D01*
X152884190Y-125833095D01*
X153360381Y-124785476D02*
X153360381Y-124595000D01*
X153312762Y-124499761D01*
X153265143Y-124452142D01*
X153122286Y-124356904D01*
X152931810Y-124309285D01*
X152550857Y-124309285D01*
X152455619Y-124356904D01*
X152408000Y-124404523D01*
X152360381Y-124499761D01*
X152360381Y-124690238D01*
X152408000Y-124785476D01*
X152455619Y-124833095D01*
X152550857Y-124880714D01*
X152788952Y-124880714D01*
X152884190Y-124833095D01*
X152931810Y-124785476D01*
X152979429Y-124690238D01*
X152979429Y-124499761D01*
X152931810Y-124404523D01*
X152884190Y-124356904D01*
X152788952Y-124309285D01*
X166997143Y-124277381D02*
X166663809Y-123801190D01*
X166425714Y-124277381D02*
X166425714Y-123277381D01*
X166806667Y-123277381D01*
X166901905Y-123325000D01*
X166949524Y-123372619D01*
X166997143Y-123467857D01*
X166997143Y-123610714D01*
X166949524Y-123705952D01*
X166901905Y-123753571D01*
X166806667Y-123801190D01*
X166425714Y-123801190D01*
X167949524Y-124277381D02*
X167378095Y-124277381D01*
X167663809Y-124277381D02*
X167663809Y-123277381D01*
X167568571Y-123420238D01*
X167473333Y-123515476D01*
X167378095Y-123563095D01*
X168568571Y-123277381D02*
X168663810Y-123277381D01*
X168759048Y-123325000D01*
X168806667Y-123372619D01*
X168854286Y-123467857D01*
X168901905Y-123658333D01*
X168901905Y-123896429D01*
X168854286Y-124086905D01*
X168806667Y-124182143D01*
X168759048Y-124229762D01*
X168663810Y-124277381D01*
X168568571Y-124277381D01*
X168473333Y-124229762D01*
X168425714Y-124182143D01*
X168378095Y-124086905D01*
X168330476Y-123896429D01*
X168330476Y-123658333D01*
X168378095Y-123467857D01*
X168425714Y-123372619D01*
X168473333Y-123325000D01*
X168568571Y-123277381D01*
X170045143Y-121737381D02*
X169711809Y-121261190D01*
X169473714Y-121737381D02*
X169473714Y-120737381D01*
X169854667Y-120737381D01*
X169949905Y-120785000D01*
X169997524Y-120832619D01*
X170045143Y-120927857D01*
X170045143Y-121070714D01*
X169997524Y-121165952D01*
X169949905Y-121213571D01*
X169854667Y-121261190D01*
X169473714Y-121261190D01*
X170997524Y-121737381D02*
X170426095Y-121737381D01*
X170711809Y-121737381D02*
X170711809Y-120737381D01*
X170616571Y-120880238D01*
X170521333Y-120975476D01*
X170426095Y-121023095D01*
X171949905Y-121737381D02*
X171378476Y-121737381D01*
X171664190Y-121737381D02*
X171664190Y-120737381D01*
X171568952Y-120880238D01*
X171473714Y-120975476D01*
X171378476Y-121023095D01*
X158020000Y-125067143D02*
X158234286Y-125138571D01*
X158591429Y-125138571D01*
X158734286Y-125067143D01*
X158805715Y-124995714D01*
X158877143Y-124852857D01*
X158877143Y-124710000D01*
X158805715Y-124567143D01*
X158734286Y-124495714D01*
X158591429Y-124424286D01*
X158305715Y-124352857D01*
X158162857Y-124281429D01*
X158091429Y-124210000D01*
X158020000Y-124067143D01*
X158020000Y-123924286D01*
X158091429Y-123781429D01*
X158162857Y-123710000D01*
X158305715Y-123638571D01*
X158662857Y-123638571D01*
X158877143Y-123710000D01*
X159377143Y-123638571D02*
X159734286Y-125138571D01*
X160020000Y-124067143D01*
X160305714Y-125138571D01*
X160662857Y-123638571D01*
X162020000Y-125138571D02*
X161162857Y-125138571D01*
X161591429Y-125138571D02*
X161591429Y-123638571D01*
X161448572Y-123852857D01*
X161305714Y-123995714D01*
X161162857Y-124067143D01*
X151727143Y-94533571D02*
X151727143Y-95747857D01*
X151798571Y-95890714D01*
X151870000Y-95962143D01*
X152012857Y-96033571D01*
X152298571Y-96033571D01*
X152441429Y-95962143D01*
X152512857Y-95890714D01*
X152584286Y-95747857D01*
X152584286Y-94533571D01*
X153227143Y-94676429D02*
X153298572Y-94605000D01*
X153441429Y-94533571D01*
X153798572Y-94533571D01*
X153941429Y-94605000D01*
X154012858Y-94676429D01*
X154084286Y-94819286D01*
X154084286Y-94962143D01*
X154012858Y-95176429D01*
X153155715Y-96033571D01*
X154084286Y-96033571D01*
X141422381Y-121808571D02*
X140422381Y-121808571D01*
X140422381Y-121427618D01*
X140470000Y-121332380D01*
X140517619Y-121284761D01*
X140612857Y-121237142D01*
X140755714Y-121237142D01*
X140850952Y-121284761D01*
X140898571Y-121332380D01*
X140946190Y-121427618D01*
X140946190Y-121808571D01*
X141422381Y-120808571D02*
X140422381Y-120808571D01*
X140898571Y-120332381D02*
X140898571Y-119999047D01*
X141422381Y-119856190D02*
X141422381Y-120332381D01*
X140422381Y-120332381D01*
X140422381Y-119856190D01*
X140422381Y-119522857D02*
X140422381Y-118856190D01*
X141422381Y-119522857D01*
X141422381Y-118856190D01*
X140422381Y-118284762D02*
X140422381Y-118094285D01*
X140470000Y-117999047D01*
X140565238Y-117903809D01*
X140755714Y-117856190D01*
X141089048Y-117856190D01*
X141279524Y-117903809D01*
X141374762Y-117999047D01*
X141422381Y-118094285D01*
X141422381Y-118284762D01*
X141374762Y-118380000D01*
X141279524Y-118475238D01*
X141089048Y-118522857D01*
X140755714Y-118522857D01*
X140565238Y-118475238D01*
X140470000Y-118380000D01*
X140422381Y-118284762D01*
X141422381Y-116903809D02*
X141422381Y-117475238D01*
X141422381Y-117189524D02*
X140422381Y-117189524D01*
X140565238Y-117284762D01*
X140660476Y-117380000D01*
X140708095Y-117475238D01*
X150022858Y-101643571D02*
X150022858Y-100143571D01*
X150594286Y-100143571D01*
X150737144Y-100215000D01*
X150808572Y-100286429D01*
X150880001Y-100429286D01*
X150880001Y-100643571D01*
X150808572Y-100786429D01*
X150737144Y-100857857D01*
X150594286Y-100929286D01*
X150022858Y-100929286D01*
X152308572Y-101643571D02*
X151451429Y-101643571D01*
X151880001Y-101643571D02*
X151880001Y-100143571D01*
X151737144Y-100357857D01*
X151594286Y-100500714D01*
X151451429Y-100572143D01*
X144061571Y-122011142D02*
X142561571Y-122011142D01*
X142561571Y-121653999D01*
X142633000Y-121439714D01*
X142775857Y-121296856D01*
X142918714Y-121225428D01*
X143204429Y-121153999D01*
X143418714Y-121153999D01*
X143704429Y-121225428D01*
X143847286Y-121296856D01*
X143990143Y-121439714D01*
X144061571Y-121653999D01*
X144061571Y-122011142D01*
X142704429Y-120582571D02*
X142633000Y-120511142D01*
X142561571Y-120368285D01*
X142561571Y-120011142D01*
X142633000Y-119868285D01*
X142704429Y-119796856D01*
X142847286Y-119725428D01*
X142990143Y-119725428D01*
X143204429Y-119796856D01*
X144061571Y-120653999D01*
X144061571Y-119725428D01*
X181422381Y-117482857D02*
X180946190Y-117816191D01*
X181422381Y-118054286D02*
X180422381Y-118054286D01*
X180422381Y-117673333D01*
X180470000Y-117578095D01*
X180517619Y-117530476D01*
X180612857Y-117482857D01*
X180755714Y-117482857D01*
X180850952Y-117530476D01*
X180898571Y-117578095D01*
X180946190Y-117673333D01*
X180946190Y-118054286D01*
X181422381Y-116530476D02*
X181422381Y-117101905D01*
X181422381Y-116816191D02*
X180422381Y-116816191D01*
X180565238Y-116911429D01*
X180660476Y-117006667D01*
X180708095Y-117101905D01*
X180517619Y-116149524D02*
X180470000Y-116101905D01*
X180422381Y-116006667D01*
X180422381Y-115768571D01*
X180470000Y-115673333D01*
X180517619Y-115625714D01*
X180612857Y-115578095D01*
X180708095Y-115578095D01*
X180850952Y-115625714D01*
X181422381Y-116197143D01*
X181422381Y-115578095D01*
X133881905Y-97472381D02*
X133881905Y-96472381D01*
X134262858Y-96472381D01*
X134358096Y-96520000D01*
X134405715Y-96567619D01*
X134453334Y-96662857D01*
X134453334Y-96805714D01*
X134405715Y-96900952D01*
X134358096Y-96948571D01*
X134262858Y-96996190D01*
X133881905Y-96996190D01*
X134834286Y-96567619D02*
X134881905Y-96520000D01*
X134977143Y-96472381D01*
X135215239Y-96472381D01*
X135310477Y-96520000D01*
X135358096Y-96567619D01*
X135405715Y-96662857D01*
X135405715Y-96758095D01*
X135358096Y-96900952D01*
X134786667Y-97472381D01*
X135405715Y-97472381D01*
X133881905Y-130492381D02*
X133881905Y-129492381D01*
X134262858Y-129492381D01*
X134358096Y-129540000D01*
X134405715Y-129587619D01*
X134453334Y-129682857D01*
X134453334Y-129825714D01*
X134405715Y-129920952D01*
X134358096Y-129968571D01*
X134262858Y-130016190D01*
X133881905Y-130016190D01*
X134786667Y-129492381D02*
X135405715Y-129492381D01*
X135072381Y-129873333D01*
X135215239Y-129873333D01*
X135310477Y-129920952D01*
X135358096Y-129968571D01*
X135405715Y-130063810D01*
X135405715Y-130301905D01*
X135358096Y-130397143D01*
X135310477Y-130444762D01*
X135215239Y-130492381D01*
X134929524Y-130492381D01*
X134834286Y-130444762D01*
X134786667Y-130397143D01*
X177061905Y-130492381D02*
X177061905Y-129492381D01*
X177442858Y-129492381D01*
X177538096Y-129540000D01*
X177585715Y-129587619D01*
X177633334Y-129682857D01*
X177633334Y-129825714D01*
X177585715Y-129920952D01*
X177538096Y-129968571D01*
X177442858Y-130016190D01*
X177061905Y-130016190D01*
X178490477Y-129825714D02*
X178490477Y-130492381D01*
X178252381Y-129444762D02*
X178014286Y-130159048D01*
X178633334Y-130159048D01*
X177061905Y-97472381D02*
X177061905Y-96472381D01*
X177442858Y-96472381D01*
X177538096Y-96520000D01*
X177585715Y-96567619D01*
X177633334Y-96662857D01*
X177633334Y-96805714D01*
X177585715Y-96900952D01*
X177538096Y-96948571D01*
X177442858Y-96996190D01*
X177061905Y-96996190D01*
X178538096Y-96472381D02*
X178061905Y-96472381D01*
X178014286Y-96948571D01*
X178061905Y-96900952D01*
X178157143Y-96853333D01*
X178395239Y-96853333D01*
X178490477Y-96900952D01*
X178538096Y-96948571D01*
X178585715Y-97043810D01*
X178585715Y-97281905D01*
X178538096Y-97377143D01*
X178490477Y-97424762D01*
X178395239Y-97472381D01*
X178157143Y-97472381D01*
X178061905Y-97424762D01*
X178014286Y-97377143D01*
X149764762Y-121197619D02*
X149669524Y-121150000D01*
X149574286Y-121054762D01*
X149431429Y-120911905D01*
X149336190Y-120864286D01*
X149240952Y-120864286D01*
X149288571Y-121102381D02*
X149193333Y-121054762D01*
X149098095Y-120959524D01*
X149050476Y-120769048D01*
X149050476Y-120435714D01*
X149098095Y-120245238D01*
X149193333Y-120150000D01*
X149288571Y-120102381D01*
X149479048Y-120102381D01*
X149574286Y-120150000D01*
X149669524Y-120245238D01*
X149717143Y-120435714D01*
X149717143Y-120769048D01*
X149669524Y-120959524D01*
X149574286Y-121054762D01*
X149479048Y-121102381D01*
X149288571Y-121102381D01*
X150669524Y-121102381D02*
X150098095Y-121102381D01*
X150383809Y-121102381D02*
X150383809Y-120102381D01*
X150288571Y-120245238D01*
X150193333Y-120340476D01*
X150098095Y-120388095D01*
X159924762Y-119292619D02*
X159829524Y-119245000D01*
X159734286Y-119149762D01*
X159591429Y-119006905D01*
X159496190Y-118959286D01*
X159400952Y-118959286D01*
X159448571Y-119197381D02*
X159353333Y-119149762D01*
X159258095Y-119054524D01*
X159210476Y-118864048D01*
X159210476Y-118530714D01*
X159258095Y-118340238D01*
X159353333Y-118245000D01*
X159448571Y-118197381D01*
X159639048Y-118197381D01*
X159734286Y-118245000D01*
X159829524Y-118340238D01*
X159877143Y-118530714D01*
X159877143Y-118864048D01*
X159829524Y-119054524D01*
X159734286Y-119149762D01*
X159639048Y-119197381D01*
X159448571Y-119197381D01*
X160258095Y-118292619D02*
X160305714Y-118245000D01*
X160400952Y-118197381D01*
X160639048Y-118197381D01*
X160734286Y-118245000D01*
X160781905Y-118292619D01*
X160829524Y-118387857D01*
X160829524Y-118483095D01*
X160781905Y-118625952D01*
X160210476Y-119197381D01*
X160829524Y-119197381D01*
X165012619Y-130270238D02*
X164965000Y-130365476D01*
X164869762Y-130460714D01*
X164726905Y-130603571D01*
X164679286Y-130698810D01*
X164679286Y-130794048D01*
X164917381Y-130746429D02*
X164869762Y-130841667D01*
X164774524Y-130936905D01*
X164584048Y-130984524D01*
X164250714Y-130984524D01*
X164060238Y-130936905D01*
X163965000Y-130841667D01*
X163917381Y-130746429D01*
X163917381Y-130555952D01*
X163965000Y-130460714D01*
X164060238Y-130365476D01*
X164250714Y-130317857D01*
X164584048Y-130317857D01*
X164774524Y-130365476D01*
X164869762Y-130460714D01*
X164917381Y-130555952D01*
X164917381Y-130746429D01*
X163917381Y-129984524D02*
X163917381Y-129365476D01*
X164298333Y-129698810D01*
X164298333Y-129555952D01*
X164345952Y-129460714D01*
X164393571Y-129413095D01*
X164488810Y-129365476D01*
X164726905Y-129365476D01*
X164822143Y-129413095D01*
X164869762Y-129460714D01*
X164917381Y-129555952D01*
X164917381Y-129841667D01*
X164869762Y-129936905D01*
X164822143Y-129984524D01*
X171815238Y-125992381D02*
X172053333Y-126992381D01*
X172243810Y-126278095D01*
X172434286Y-126992381D01*
X172672381Y-125992381D01*
X173577143Y-126992381D02*
X173005714Y-126992381D01*
X173291428Y-126992381D02*
X173291428Y-125992381D01*
X173196190Y-126135238D01*
X173100952Y-126230476D01*
X173005714Y-126278095D01*
M02*
