%TF.GenerationSoftware,KiCad,Pcbnew,4.0.3+e1-6302~38~ubuntu16.04.1-stable*%
%TF.CreationDate,2016-08-30T13:53:10+01:00*%
%TF.ProjectId,igrow-101,6967726F772D3130312E6B696361645F,101*%
%TF.FileFunction,Copper,L2,Bot,Signal*%
%FSLAX46Y46*%
G04 Gerber Fmt 4.6, Leading zero omitted, Abs format (unit mm)*
G04 Created by KiCad (PCBNEW 4.0.3+e1-6302~38~ubuntu16.04.1-stable) date Tue Aug 30 13:53:10 2016*
%MOMM*%
%LPD*%
G01*
G04 APERTURE LIST*
%ADD10C,0.100000*%
%ADD11C,1.524000*%
%ADD12R,1.900000X2.000000*%
%ADD13C,1.900000*%
%ADD14C,4.500000*%
%ADD15C,3.000000*%
%ADD16R,1.198880X1.198880*%
%ADD17C,1.200000*%
%ADD18C,2.500000*%
%ADD19C,0.889000*%
%ADD20C,0.500000*%
%ADD21C,0.381000*%
%ADD22C,0.254000*%
G04 APERTURE END LIST*
D10*
D11*
X162560000Y-127000000D03*
X157480000Y-127000000D03*
X157480000Y-121920000D03*
X162560000Y-121920000D03*
D12*
X142875000Y-107950000D03*
D13*
X140335000Y-107950000D03*
D12*
X142875000Y-102235000D03*
D13*
X140335000Y-102235000D03*
D12*
X142875000Y-96520000D03*
D13*
X140335000Y-96520000D03*
D14*
X134620000Y-96520000D03*
X134620000Y-129540000D03*
X177800000Y-129540000D03*
X177800000Y-96520000D03*
D15*
X172720000Y-129540000D03*
D16*
X172085000Y-124239020D03*
X172085000Y-122140980D03*
X177165000Y-124239020D03*
X177165000Y-122140980D03*
D17*
X176000000Y-103500000D03*
X176000000Y-104770000D03*
X176000000Y-106040000D03*
X176000000Y-107310000D03*
X176000000Y-108580000D03*
X176000000Y-109850000D03*
X176000000Y-111120000D03*
X176000000Y-112390000D03*
X176000000Y-113660000D03*
X176000000Y-114930000D03*
X176000000Y-116200000D03*
X176000000Y-117470000D03*
X173460000Y-118105000D03*
X172190000Y-118105000D03*
X170920000Y-118105000D03*
X169650000Y-118105000D03*
X168380000Y-118105000D03*
X167110000Y-118105000D03*
X165840000Y-118105000D03*
X164570000Y-118105000D03*
X163300000Y-118105000D03*
X162030000Y-118105000D03*
X160760000Y-118105000D03*
X159490000Y-118105000D03*
X156950000Y-117470000D03*
X156950000Y-116200000D03*
X156950000Y-114930000D03*
X156950000Y-113660000D03*
X156950000Y-112390000D03*
X156950000Y-111120000D03*
X156950000Y-109850000D03*
X156950000Y-108580000D03*
X156950000Y-107310000D03*
X156950000Y-106040000D03*
X156950000Y-104770000D03*
X156950000Y-103500000D03*
D18*
X153500000Y-121250000D03*
X133180000Y-121250000D03*
D19*
X166087100Y-127404400D03*
X154837700Y-130554600D03*
X154792900Y-99755000D03*
X155140200Y-96991800D03*
X161715600Y-120689800D03*
X165220400Y-129694000D03*
X144974600Y-98968100D03*
X157873800Y-119523300D03*
X170619800Y-121563900D03*
X177671200Y-118431200D03*
D20*
X140335000Y-107950000D02*
X140335000Y-102235000D01*
X177800000Y-113438600D02*
X176308600Y-114930000D01*
X177800000Y-96520000D02*
X177800000Y-113438600D01*
X176308600Y-114930000D02*
X176000000Y-114930000D01*
X178620000Y-117241400D02*
X176308600Y-114930000D01*
X178620000Y-128720000D02*
X178620000Y-117241400D01*
X177800000Y-129540000D02*
X178620000Y-128720000D01*
X140335000Y-114095000D02*
X140335000Y-107950000D01*
X133180000Y-121250000D02*
X140335000Y-114095000D01*
D21*
X165682700Y-127000000D02*
X166087100Y-127404400D01*
X162560000Y-127000000D02*
X165682700Y-127000000D01*
X154837700Y-126269200D02*
X154837700Y-130554600D01*
X161392900Y-119714000D02*
X154837700Y-126269200D01*
X164492300Y-119714000D02*
X161392900Y-119714000D01*
X165840000Y-118366300D02*
X164492300Y-119714000D01*
X165840000Y-118105000D02*
X165840000Y-118366300D01*
X154792900Y-102874100D02*
X154792900Y-99755000D01*
X156688800Y-104770000D02*
X154792900Y-102874100D01*
X156950000Y-104770000D02*
X156688800Y-104770000D01*
X156950000Y-98801600D02*
X155140200Y-96991800D01*
X156950000Y-103500000D02*
X156950000Y-98801600D01*
X167491600Y-120689800D02*
X161715600Y-120689800D01*
X171040800Y-124239000D02*
X167491600Y-120689800D01*
X172085000Y-124239000D02*
X171040800Y-124239000D01*
X177165000Y-124239000D02*
X176120800Y-124239000D01*
X169631200Y-125283200D02*
X165220400Y-129694000D01*
X175076600Y-125283200D02*
X169631200Y-125283200D01*
X176120800Y-124239000D02*
X175076600Y-125283200D01*
X144974600Y-99379300D02*
X144974600Y-98968100D01*
X156715300Y-111120000D02*
X144974600Y-99379300D01*
X156950000Y-111120000D02*
X156715300Y-111120000D01*
X157873800Y-118217600D02*
X157873800Y-119523300D01*
X159078500Y-117012900D02*
X157873800Y-118217600D01*
X162415800Y-117012900D02*
X159078500Y-117012900D01*
X163300000Y-117897100D02*
X162415800Y-117012900D01*
X163300000Y-118105000D02*
X163300000Y-117897100D01*
X171040800Y-121984900D02*
X170619800Y-121563900D01*
X171040800Y-122141000D02*
X171040800Y-121984900D01*
X172085000Y-122141000D02*
X171040800Y-122141000D01*
X177671200Y-120590600D02*
X177671200Y-118431200D01*
X177165000Y-121096800D02*
X177671200Y-120590600D01*
X177165000Y-122141000D02*
X177165000Y-121096800D01*
D22*
G36*
X132744138Y-94464533D02*
X134620000Y-96340395D01*
X136495862Y-94464533D01*
X136277664Y-94120000D01*
X176142336Y-94120000D01*
X175924138Y-94464533D01*
X177800000Y-96340395D01*
X179675862Y-94464533D01*
X179457664Y-94120000D01*
X180200000Y-94120000D01*
X180200000Y-94862336D01*
X179855467Y-94644138D01*
X177979605Y-96520000D01*
X179855467Y-98395862D01*
X180200000Y-98177664D01*
X180200000Y-127882336D01*
X179855467Y-127664138D01*
X177979605Y-129540000D01*
X179855467Y-131415862D01*
X180200000Y-131197664D01*
X180200000Y-131813000D01*
X179538095Y-131813000D01*
X179675862Y-131595467D01*
X177800000Y-129719605D01*
X175924138Y-131595467D01*
X176061905Y-131813000D01*
X155121744Y-131813000D01*
X155557006Y-131633154D01*
X155914997Y-131275787D01*
X156007103Y-131053970D01*
X171385635Y-131053970D01*
X171545418Y-131372739D01*
X172336187Y-131682723D01*
X173185387Y-131666497D01*
X173894582Y-131372739D01*
X174054365Y-131053970D01*
X172720000Y-129719605D01*
X171385635Y-131053970D01*
X156007103Y-131053970D01*
X156108979Y-130808627D01*
X156109420Y-130302793D01*
X155916254Y-129835294D01*
X155855200Y-129774133D01*
X155855200Y-127980213D01*
X156679392Y-127980213D01*
X156748857Y-128222397D01*
X157272302Y-128409144D01*
X157827368Y-128381362D01*
X158211143Y-128222397D01*
X158280608Y-127980213D01*
X157480000Y-127179605D01*
X156679392Y-127980213D01*
X155855200Y-127980213D01*
X155855200Y-126690662D01*
X156246842Y-126299020D01*
X156070856Y-126792302D01*
X156098638Y-127347368D01*
X156257603Y-127731143D01*
X156499787Y-127800608D01*
X157300395Y-127000000D01*
X157659605Y-127000000D01*
X158460213Y-127800608D01*
X158702397Y-127731143D01*
X158889144Y-127207698D01*
X158861362Y-126652632D01*
X158702397Y-126268857D01*
X158460213Y-126199392D01*
X157659605Y-127000000D01*
X157300395Y-127000000D01*
X157286253Y-126985858D01*
X157465858Y-126806253D01*
X157480000Y-126820395D01*
X158280608Y-126019787D01*
X158211143Y-125777603D01*
X157687698Y-125590856D01*
X157132632Y-125618638D01*
X156781978Y-125763884D01*
X160886683Y-121659179D01*
X160971154Y-121743797D01*
X160970725Y-122234685D01*
X161212126Y-122818920D01*
X161658729Y-123266303D01*
X162242542Y-123508723D01*
X162874685Y-123509275D01*
X163458920Y-123267874D01*
X163906303Y-122821271D01*
X164148723Y-122237458D01*
X164149186Y-121707300D01*
X167070138Y-121707300D01*
X169628980Y-124266142D01*
X169241820Y-124343153D01*
X168911719Y-124563719D01*
X166978163Y-126497275D01*
X166808287Y-126327103D01*
X166341127Y-126133121D01*
X166181375Y-126132982D01*
X166072080Y-126059953D01*
X165682700Y-125982500D01*
X163789501Y-125982500D01*
X163461271Y-125653697D01*
X162877458Y-125411277D01*
X162245315Y-125410725D01*
X161661080Y-125652126D01*
X161213697Y-126098729D01*
X160971277Y-126682542D01*
X160970725Y-127314685D01*
X161212126Y-127898920D01*
X161658729Y-128346303D01*
X162242542Y-128588723D01*
X162874685Y-128589275D01*
X163458920Y-128347874D01*
X163789871Y-128017500D01*
X164964663Y-128017500D01*
X165008546Y-128123706D01*
X165179989Y-128295449D01*
X165053084Y-128422354D01*
X164968593Y-128422280D01*
X164501094Y-128615446D01*
X164143103Y-128972813D01*
X163949121Y-129439973D01*
X163948680Y-129945807D01*
X164141846Y-130413306D01*
X164499213Y-130771297D01*
X164966373Y-130965279D01*
X165472207Y-130965720D01*
X165939706Y-130772554D01*
X166297697Y-130415187D01*
X166491679Y-129948027D01*
X166491754Y-129861608D01*
X167197175Y-129156187D01*
X170577277Y-129156187D01*
X170593503Y-130005387D01*
X170887261Y-130714582D01*
X171206030Y-130874365D01*
X172540395Y-129540000D01*
X172899605Y-129540000D01*
X174233970Y-130874365D01*
X174552739Y-130714582D01*
X174862723Y-129923813D01*
X174846497Y-129074613D01*
X174806250Y-128977446D01*
X174912773Y-128977446D01*
X174917270Y-130125162D01*
X175347831Y-131164625D01*
X175744533Y-131415862D01*
X177620395Y-129540000D01*
X175744533Y-127664138D01*
X175347831Y-127915375D01*
X174912773Y-128977446D01*
X174806250Y-128977446D01*
X174552739Y-128365418D01*
X174233970Y-128205635D01*
X172899605Y-129540000D01*
X172540395Y-129540000D01*
X171206030Y-128205635D01*
X170887261Y-128365418D01*
X170577277Y-129156187D01*
X167197175Y-129156187D01*
X168327332Y-128026030D01*
X171385635Y-128026030D01*
X172720000Y-129360395D01*
X174054365Y-128026030D01*
X173894582Y-127707261D01*
X173326404Y-127484533D01*
X175924138Y-127484533D01*
X177800000Y-129360395D01*
X179675862Y-127484533D01*
X179424625Y-127087831D01*
X178362554Y-126652773D01*
X177214838Y-126657270D01*
X176175375Y-127087831D01*
X175924138Y-127484533D01*
X173326404Y-127484533D01*
X173103813Y-127397277D01*
X172254613Y-127413503D01*
X171545418Y-127707261D01*
X171385635Y-128026030D01*
X168327332Y-128026030D01*
X170052662Y-126300700D01*
X175076600Y-126300700D01*
X175465980Y-126223247D01*
X175796081Y-126002681D01*
X176205442Y-125593320D01*
X176237508Y-125615229D01*
X176565560Y-125681661D01*
X177764440Y-125681661D01*
X178070908Y-125623995D01*
X178352379Y-125442873D01*
X178541209Y-125166512D01*
X178607641Y-124838460D01*
X178607641Y-123639580D01*
X178549975Y-123333112D01*
X178458024Y-123190217D01*
X178541209Y-123068472D01*
X178607641Y-122740420D01*
X178607641Y-121541540D01*
X178549975Y-121235072D01*
X178496415Y-121151838D01*
X178611247Y-120979980D01*
X178688700Y-120590600D01*
X178688700Y-119212080D01*
X178748497Y-119152387D01*
X178942479Y-118685227D01*
X178942920Y-118179393D01*
X178749754Y-117711894D01*
X178392387Y-117353903D01*
X177925227Y-117159921D01*
X177419393Y-117159480D01*
X177416250Y-117160779D01*
X177281549Y-116834781D01*
X177426752Y-116485093D01*
X177427248Y-115917397D01*
X177210457Y-115392725D01*
X177163157Y-115345343D01*
X177247807Y-115098964D01*
X177217482Y-114608587D01*
X177174223Y-114504149D01*
X177209047Y-114469386D01*
X177426752Y-113945093D01*
X177427248Y-113377397D01*
X177281549Y-113024781D01*
X177426752Y-112675093D01*
X177427248Y-112107397D01*
X177281549Y-111754781D01*
X177426752Y-111405093D01*
X177427248Y-110837397D01*
X177281549Y-110484781D01*
X177426752Y-110135093D01*
X177427248Y-109567397D01*
X177281549Y-109214781D01*
X177426752Y-108865093D01*
X177427248Y-108297397D01*
X177281549Y-107944781D01*
X177426752Y-107595093D01*
X177427248Y-107027397D01*
X177281549Y-106674781D01*
X177426752Y-106325093D01*
X177427248Y-105757397D01*
X177281549Y-105404781D01*
X177426752Y-105055093D01*
X177427248Y-104487397D01*
X177281549Y-104134781D01*
X177426752Y-103785093D01*
X177427248Y-103217397D01*
X177210457Y-102692725D01*
X176809386Y-102290953D01*
X176285093Y-102073248D01*
X175717397Y-102072752D01*
X175192725Y-102289543D01*
X174790953Y-102690614D01*
X174573248Y-103214907D01*
X174572752Y-103782603D01*
X174718451Y-104135219D01*
X174573248Y-104484907D01*
X174572752Y-105052603D01*
X174718451Y-105405219D01*
X174573248Y-105754907D01*
X174572752Y-106322603D01*
X174718451Y-106675219D01*
X174573248Y-107024907D01*
X174572752Y-107592603D01*
X174718451Y-107945219D01*
X174573248Y-108294907D01*
X174572752Y-108862603D01*
X174718451Y-109215219D01*
X174573248Y-109564907D01*
X174572752Y-110132603D01*
X174718451Y-110485219D01*
X174573248Y-110834907D01*
X174572752Y-111402603D01*
X174718451Y-111755219D01*
X174573248Y-112104907D01*
X174572752Y-112672603D01*
X174718451Y-113025219D01*
X174573248Y-113374907D01*
X174572752Y-113942603D01*
X174789543Y-114467275D01*
X174836843Y-114514657D01*
X174752193Y-114761036D01*
X174782518Y-115251413D01*
X174825777Y-115355851D01*
X174790953Y-115390614D01*
X174573248Y-115914907D01*
X174572752Y-116482603D01*
X174718451Y-116835219D01*
X174573248Y-117184907D01*
X174573235Y-117200333D01*
X174269386Y-116895953D01*
X173745093Y-116678248D01*
X173177397Y-116677752D01*
X172824781Y-116823451D01*
X172475093Y-116678248D01*
X171907397Y-116677752D01*
X171554781Y-116823451D01*
X171205093Y-116678248D01*
X170637397Y-116677752D01*
X170284781Y-116823451D01*
X169935093Y-116678248D01*
X169367397Y-116677752D01*
X169014781Y-116823451D01*
X168665093Y-116678248D01*
X168097397Y-116677752D01*
X167744781Y-116823451D01*
X167395093Y-116678248D01*
X166827397Y-116677752D01*
X166474781Y-116823451D01*
X166125093Y-116678248D01*
X165557397Y-116677752D01*
X165204781Y-116823451D01*
X164855093Y-116678248D01*
X164287397Y-116677752D01*
X163934781Y-116823451D01*
X163585093Y-116678248D01*
X163520053Y-116678191D01*
X163135281Y-116293419D01*
X162805180Y-116072853D01*
X162415800Y-115995400D01*
X159078500Y-115995400D01*
X158689120Y-116072853D01*
X158376930Y-116281451D01*
X158377248Y-115917397D01*
X158231549Y-115564781D01*
X158376752Y-115215093D01*
X158377248Y-114647397D01*
X158231549Y-114294781D01*
X158376752Y-113945093D01*
X158377248Y-113377397D01*
X158231549Y-113024781D01*
X158376752Y-112675093D01*
X158377248Y-112107397D01*
X158231549Y-111754781D01*
X158376752Y-111405093D01*
X158377248Y-110837397D01*
X158231549Y-110484781D01*
X158376752Y-110135093D01*
X158377248Y-109567397D01*
X158231549Y-109214781D01*
X158376752Y-108865093D01*
X158377248Y-108297397D01*
X158231549Y-107944781D01*
X158376752Y-107595093D01*
X158377248Y-107027397D01*
X158231549Y-106674781D01*
X158376752Y-106325093D01*
X158377248Y-105757397D01*
X158231549Y-105404781D01*
X158376752Y-105055093D01*
X158377248Y-104487397D01*
X158231549Y-104134781D01*
X158376752Y-103785093D01*
X158377248Y-103217397D01*
X158160457Y-102692725D01*
X157967500Y-102499431D01*
X157967500Y-98801600D01*
X157922520Y-98575467D01*
X175924138Y-98575467D01*
X176175375Y-98972169D01*
X177237446Y-99407227D01*
X178385162Y-99402730D01*
X179424625Y-98972169D01*
X179675862Y-98575467D01*
X177800000Y-96699605D01*
X175924138Y-98575467D01*
X157922520Y-98575467D01*
X157890047Y-98412220D01*
X157669481Y-98082119D01*
X156411846Y-96824484D01*
X156411920Y-96739993D01*
X156218754Y-96272494D01*
X155904256Y-95957446D01*
X174912773Y-95957446D01*
X174917270Y-97105162D01*
X175347831Y-98144625D01*
X175744533Y-98395862D01*
X177620395Y-96520000D01*
X175744533Y-94644138D01*
X175347831Y-94895375D01*
X174912773Y-95957446D01*
X155904256Y-95957446D01*
X155861387Y-95914503D01*
X155394227Y-95720521D01*
X154888393Y-95720080D01*
X154420894Y-95913246D01*
X154062903Y-96270613D01*
X153868921Y-96737773D01*
X153868480Y-97243607D01*
X154061646Y-97711106D01*
X154419013Y-98069097D01*
X154886173Y-98263079D01*
X154972592Y-98263154D01*
X155296997Y-98587559D01*
X155046927Y-98483721D01*
X154541093Y-98483280D01*
X154073594Y-98676446D01*
X153715603Y-99033813D01*
X153521621Y-99500973D01*
X153521180Y-100006807D01*
X153714346Y-100474306D01*
X153775400Y-100535467D01*
X153775400Y-102874100D01*
X153852853Y-103263480D01*
X154073419Y-103593581D01*
X155522760Y-105042922D01*
X155522752Y-105052603D01*
X155668451Y-105405219D01*
X155523248Y-105754907D01*
X155522752Y-106322603D01*
X155668451Y-106675219D01*
X155523248Y-107024907D01*
X155522752Y-107592603D01*
X155668451Y-107945219D01*
X155523248Y-108294907D01*
X155523079Y-108488817D01*
X146245888Y-99211626D01*
X146246320Y-98716293D01*
X146053154Y-98248794D01*
X145695787Y-97890803D01*
X145228627Y-97696821D01*
X144722793Y-97696380D01*
X144624237Y-97737102D01*
X144668201Y-97520000D01*
X144668201Y-95520000D01*
X144610535Y-95213532D01*
X144429413Y-94932061D01*
X144153052Y-94743231D01*
X143825000Y-94676799D01*
X141925000Y-94676799D01*
X141618532Y-94734465D01*
X141337061Y-94915587D01*
X141180287Y-95145032D01*
X141179208Y-95141981D01*
X140587602Y-94923812D01*
X139957539Y-94948648D01*
X139490792Y-95141981D01*
X139398255Y-95403650D01*
X140335000Y-96340395D01*
X140349143Y-96326253D01*
X140528748Y-96505858D01*
X140514605Y-96520000D01*
X140528748Y-96534143D01*
X140349143Y-96713748D01*
X140335000Y-96699605D01*
X139398255Y-97636350D01*
X139490792Y-97898019D01*
X140082398Y-98116188D01*
X140712461Y-98091352D01*
X141179208Y-97898019D01*
X141181442Y-97891702D01*
X141320587Y-98107939D01*
X141596948Y-98296769D01*
X141925000Y-98363201D01*
X143825000Y-98363201D01*
X143851051Y-98358299D01*
X143703321Y-98714073D01*
X143702880Y-99219907D01*
X143896046Y-99687406D01*
X144150696Y-99942501D01*
X144255119Y-100098781D01*
X155522784Y-111366446D01*
X155522752Y-111402603D01*
X155668451Y-111755219D01*
X155523248Y-112104907D01*
X155522752Y-112672603D01*
X155668451Y-113025219D01*
X155523248Y-113374907D01*
X155522752Y-113942603D01*
X155668451Y-114295219D01*
X155523248Y-114644907D01*
X155522752Y-115212603D01*
X155668451Y-115565219D01*
X155523248Y-115914907D01*
X155522752Y-116482603D01*
X155668451Y-116835219D01*
X155523248Y-117184907D01*
X155522752Y-117752603D01*
X155739543Y-118277275D01*
X156140614Y-118679047D01*
X156664907Y-118896752D01*
X156757172Y-118896833D01*
X156602521Y-119269273D01*
X156602080Y-119775107D01*
X156795246Y-120242606D01*
X156965592Y-120413249D01*
X156581080Y-120572126D01*
X156133697Y-121018729D01*
X155891277Y-121602542D01*
X155890725Y-122234685D01*
X156132126Y-122818920D01*
X156490259Y-123177679D01*
X154118219Y-125549719D01*
X153897653Y-125879820D01*
X153820200Y-126269200D01*
X153820200Y-129773720D01*
X153760403Y-129833413D01*
X153566421Y-130300573D01*
X153565980Y-130806407D01*
X153759146Y-131273906D01*
X154116513Y-131631897D01*
X154552657Y-131813000D01*
X136358095Y-131813000D01*
X136495862Y-131595467D01*
X134620000Y-129719605D01*
X132744138Y-131595467D01*
X132881905Y-131813000D01*
X132220000Y-131813000D01*
X132220000Y-131197664D01*
X132564533Y-131415862D01*
X134440395Y-129540000D01*
X134799605Y-129540000D01*
X136675467Y-131415862D01*
X137072169Y-131164625D01*
X137507227Y-130102554D01*
X137502730Y-128954838D01*
X137072169Y-127915375D01*
X136675467Y-127664138D01*
X134799605Y-129540000D01*
X134440395Y-129540000D01*
X132564533Y-127664138D01*
X132220000Y-127882336D01*
X132220000Y-127484533D01*
X132744138Y-127484533D01*
X134620000Y-129360395D01*
X136495862Y-127484533D01*
X136244625Y-127087831D01*
X135182554Y-126652773D01*
X134034838Y-126657270D01*
X132995375Y-127087831D01*
X132744138Y-127484533D01*
X132220000Y-127484533D01*
X132220000Y-122900819D01*
X132855806Y-123144388D01*
X133605435Y-123124250D01*
X134204467Y-122876123D01*
X134333715Y-122583320D01*
X133180000Y-121429605D01*
X133165858Y-121443748D01*
X132986253Y-121264143D01*
X133000395Y-121250000D01*
X133359605Y-121250000D01*
X134513320Y-122403715D01*
X134806123Y-122274467D01*
X135041008Y-121661328D01*
X151422640Y-121661328D01*
X151738178Y-122424989D01*
X152321938Y-123009768D01*
X153085047Y-123326639D01*
X153911328Y-123327360D01*
X154674989Y-123011822D01*
X155259768Y-122428062D01*
X155576639Y-121664953D01*
X155577360Y-120838672D01*
X155261822Y-120075011D01*
X154678062Y-119490232D01*
X153914953Y-119173361D01*
X153088672Y-119172640D01*
X152325011Y-119488178D01*
X151740232Y-120071938D01*
X151423361Y-120835047D01*
X151422640Y-121661328D01*
X135041008Y-121661328D01*
X135074388Y-121574194D01*
X135054250Y-120824565D01*
X134806123Y-120225533D01*
X134513320Y-120096285D01*
X133359605Y-121250000D01*
X133000395Y-121250000D01*
X132986253Y-121235858D01*
X133165858Y-121056253D01*
X133180000Y-121070395D01*
X134333715Y-119916680D01*
X134204467Y-119623877D01*
X133504194Y-119355612D01*
X132754565Y-119375750D01*
X132220000Y-119597174D01*
X132220000Y-107697398D01*
X138738812Y-107697398D01*
X138763648Y-108327461D01*
X138956981Y-108794208D01*
X139218650Y-108886745D01*
X140155395Y-107950000D01*
X139218650Y-107013255D01*
X138956981Y-107105792D01*
X138738812Y-107697398D01*
X132220000Y-107697398D01*
X132220000Y-106833650D01*
X139398255Y-106833650D01*
X140335000Y-107770395D01*
X140349143Y-107756253D01*
X140528748Y-107935858D01*
X140514605Y-107950000D01*
X140528748Y-107964143D01*
X140349143Y-108143748D01*
X140335000Y-108129605D01*
X139398255Y-109066350D01*
X139490792Y-109328019D01*
X140082398Y-109546188D01*
X140712461Y-109521352D01*
X141179208Y-109328019D01*
X141181442Y-109321702D01*
X141320587Y-109537939D01*
X141596948Y-109726769D01*
X141925000Y-109793201D01*
X143825000Y-109793201D01*
X144131468Y-109735535D01*
X144412939Y-109554413D01*
X144601769Y-109278052D01*
X144668201Y-108950000D01*
X144668201Y-106950000D01*
X144610535Y-106643532D01*
X144429413Y-106362061D01*
X144153052Y-106173231D01*
X143825000Y-106106799D01*
X141925000Y-106106799D01*
X141618532Y-106164465D01*
X141337061Y-106345587D01*
X141180287Y-106575032D01*
X141179208Y-106571981D01*
X140587602Y-106353812D01*
X139957539Y-106378648D01*
X139490792Y-106571981D01*
X139398255Y-106833650D01*
X132220000Y-106833650D01*
X132220000Y-101982398D01*
X138738812Y-101982398D01*
X138763648Y-102612461D01*
X138956981Y-103079208D01*
X139218650Y-103171745D01*
X140155395Y-102235000D01*
X139218650Y-101298255D01*
X138956981Y-101390792D01*
X138738812Y-101982398D01*
X132220000Y-101982398D01*
X132220000Y-101118650D01*
X139398255Y-101118650D01*
X140335000Y-102055395D01*
X140349143Y-102041253D01*
X140528748Y-102220858D01*
X140514605Y-102235000D01*
X140528748Y-102249143D01*
X140349143Y-102428748D01*
X140335000Y-102414605D01*
X139398255Y-103351350D01*
X139490792Y-103613019D01*
X140082398Y-103831188D01*
X140712461Y-103806352D01*
X141179208Y-103613019D01*
X141181442Y-103606702D01*
X141320587Y-103822939D01*
X141596948Y-104011769D01*
X141925000Y-104078201D01*
X143825000Y-104078201D01*
X144131468Y-104020535D01*
X144412939Y-103839413D01*
X144601769Y-103563052D01*
X144668201Y-103235000D01*
X144668201Y-101235000D01*
X144610535Y-100928532D01*
X144429413Y-100647061D01*
X144153052Y-100458231D01*
X143825000Y-100391799D01*
X141925000Y-100391799D01*
X141618532Y-100449465D01*
X141337061Y-100630587D01*
X141180287Y-100860032D01*
X141179208Y-100856981D01*
X140587602Y-100638812D01*
X139957539Y-100663648D01*
X139490792Y-100856981D01*
X139398255Y-101118650D01*
X132220000Y-101118650D01*
X132220000Y-98575467D01*
X132744138Y-98575467D01*
X132995375Y-98972169D01*
X134057446Y-99407227D01*
X135205162Y-99402730D01*
X136244625Y-98972169D01*
X136495862Y-98575467D01*
X134620000Y-96699605D01*
X132744138Y-98575467D01*
X132220000Y-98575467D01*
X132220000Y-98177664D01*
X132564533Y-98395862D01*
X134440395Y-96520000D01*
X134799605Y-96520000D01*
X136675467Y-98395862D01*
X137072169Y-98144625D01*
X137507227Y-97082554D01*
X137504034Y-96267398D01*
X138738812Y-96267398D01*
X138763648Y-96897461D01*
X138956981Y-97364208D01*
X139218650Y-97456745D01*
X140155395Y-96520000D01*
X139218650Y-95583255D01*
X138956981Y-95675792D01*
X138738812Y-96267398D01*
X137504034Y-96267398D01*
X137502730Y-95934838D01*
X137072169Y-94895375D01*
X136675467Y-94644138D01*
X134799605Y-96520000D01*
X134440395Y-96520000D01*
X132564533Y-94644138D01*
X132220000Y-94862336D01*
X132220000Y-94120000D01*
X132962336Y-94120000D01*
X132744138Y-94464533D01*
X132744138Y-94464533D01*
G37*
X132744138Y-94464533D02*
X134620000Y-96340395D01*
X136495862Y-94464533D01*
X136277664Y-94120000D01*
X176142336Y-94120000D01*
X175924138Y-94464533D01*
X177800000Y-96340395D01*
X179675862Y-94464533D01*
X179457664Y-94120000D01*
X180200000Y-94120000D01*
X180200000Y-94862336D01*
X179855467Y-94644138D01*
X177979605Y-96520000D01*
X179855467Y-98395862D01*
X180200000Y-98177664D01*
X180200000Y-127882336D01*
X179855467Y-127664138D01*
X177979605Y-129540000D01*
X179855467Y-131415862D01*
X180200000Y-131197664D01*
X180200000Y-131813000D01*
X179538095Y-131813000D01*
X179675862Y-131595467D01*
X177800000Y-129719605D01*
X175924138Y-131595467D01*
X176061905Y-131813000D01*
X155121744Y-131813000D01*
X155557006Y-131633154D01*
X155914997Y-131275787D01*
X156007103Y-131053970D01*
X171385635Y-131053970D01*
X171545418Y-131372739D01*
X172336187Y-131682723D01*
X173185387Y-131666497D01*
X173894582Y-131372739D01*
X174054365Y-131053970D01*
X172720000Y-129719605D01*
X171385635Y-131053970D01*
X156007103Y-131053970D01*
X156108979Y-130808627D01*
X156109420Y-130302793D01*
X155916254Y-129835294D01*
X155855200Y-129774133D01*
X155855200Y-127980213D01*
X156679392Y-127980213D01*
X156748857Y-128222397D01*
X157272302Y-128409144D01*
X157827368Y-128381362D01*
X158211143Y-128222397D01*
X158280608Y-127980213D01*
X157480000Y-127179605D01*
X156679392Y-127980213D01*
X155855200Y-127980213D01*
X155855200Y-126690662D01*
X156246842Y-126299020D01*
X156070856Y-126792302D01*
X156098638Y-127347368D01*
X156257603Y-127731143D01*
X156499787Y-127800608D01*
X157300395Y-127000000D01*
X157659605Y-127000000D01*
X158460213Y-127800608D01*
X158702397Y-127731143D01*
X158889144Y-127207698D01*
X158861362Y-126652632D01*
X158702397Y-126268857D01*
X158460213Y-126199392D01*
X157659605Y-127000000D01*
X157300395Y-127000000D01*
X157286253Y-126985858D01*
X157465858Y-126806253D01*
X157480000Y-126820395D01*
X158280608Y-126019787D01*
X158211143Y-125777603D01*
X157687698Y-125590856D01*
X157132632Y-125618638D01*
X156781978Y-125763884D01*
X160886683Y-121659179D01*
X160971154Y-121743797D01*
X160970725Y-122234685D01*
X161212126Y-122818920D01*
X161658729Y-123266303D01*
X162242542Y-123508723D01*
X162874685Y-123509275D01*
X163458920Y-123267874D01*
X163906303Y-122821271D01*
X164148723Y-122237458D01*
X164149186Y-121707300D01*
X167070138Y-121707300D01*
X169628980Y-124266142D01*
X169241820Y-124343153D01*
X168911719Y-124563719D01*
X166978163Y-126497275D01*
X166808287Y-126327103D01*
X166341127Y-126133121D01*
X166181375Y-126132982D01*
X166072080Y-126059953D01*
X165682700Y-125982500D01*
X163789501Y-125982500D01*
X163461271Y-125653697D01*
X162877458Y-125411277D01*
X162245315Y-125410725D01*
X161661080Y-125652126D01*
X161213697Y-126098729D01*
X160971277Y-126682542D01*
X160970725Y-127314685D01*
X161212126Y-127898920D01*
X161658729Y-128346303D01*
X162242542Y-128588723D01*
X162874685Y-128589275D01*
X163458920Y-128347874D01*
X163789871Y-128017500D01*
X164964663Y-128017500D01*
X165008546Y-128123706D01*
X165179989Y-128295449D01*
X165053084Y-128422354D01*
X164968593Y-128422280D01*
X164501094Y-128615446D01*
X164143103Y-128972813D01*
X163949121Y-129439973D01*
X163948680Y-129945807D01*
X164141846Y-130413306D01*
X164499213Y-130771297D01*
X164966373Y-130965279D01*
X165472207Y-130965720D01*
X165939706Y-130772554D01*
X166297697Y-130415187D01*
X166491679Y-129948027D01*
X166491754Y-129861608D01*
X167197175Y-129156187D01*
X170577277Y-129156187D01*
X170593503Y-130005387D01*
X170887261Y-130714582D01*
X171206030Y-130874365D01*
X172540395Y-129540000D01*
X172899605Y-129540000D01*
X174233970Y-130874365D01*
X174552739Y-130714582D01*
X174862723Y-129923813D01*
X174846497Y-129074613D01*
X174806250Y-128977446D01*
X174912773Y-128977446D01*
X174917270Y-130125162D01*
X175347831Y-131164625D01*
X175744533Y-131415862D01*
X177620395Y-129540000D01*
X175744533Y-127664138D01*
X175347831Y-127915375D01*
X174912773Y-128977446D01*
X174806250Y-128977446D01*
X174552739Y-128365418D01*
X174233970Y-128205635D01*
X172899605Y-129540000D01*
X172540395Y-129540000D01*
X171206030Y-128205635D01*
X170887261Y-128365418D01*
X170577277Y-129156187D01*
X167197175Y-129156187D01*
X168327332Y-128026030D01*
X171385635Y-128026030D01*
X172720000Y-129360395D01*
X174054365Y-128026030D01*
X173894582Y-127707261D01*
X173326404Y-127484533D01*
X175924138Y-127484533D01*
X177800000Y-129360395D01*
X179675862Y-127484533D01*
X179424625Y-127087831D01*
X178362554Y-126652773D01*
X177214838Y-126657270D01*
X176175375Y-127087831D01*
X175924138Y-127484533D01*
X173326404Y-127484533D01*
X173103813Y-127397277D01*
X172254613Y-127413503D01*
X171545418Y-127707261D01*
X171385635Y-128026030D01*
X168327332Y-128026030D01*
X170052662Y-126300700D01*
X175076600Y-126300700D01*
X175465980Y-126223247D01*
X175796081Y-126002681D01*
X176205442Y-125593320D01*
X176237508Y-125615229D01*
X176565560Y-125681661D01*
X177764440Y-125681661D01*
X178070908Y-125623995D01*
X178352379Y-125442873D01*
X178541209Y-125166512D01*
X178607641Y-124838460D01*
X178607641Y-123639580D01*
X178549975Y-123333112D01*
X178458024Y-123190217D01*
X178541209Y-123068472D01*
X178607641Y-122740420D01*
X178607641Y-121541540D01*
X178549975Y-121235072D01*
X178496415Y-121151838D01*
X178611247Y-120979980D01*
X178688700Y-120590600D01*
X178688700Y-119212080D01*
X178748497Y-119152387D01*
X178942479Y-118685227D01*
X178942920Y-118179393D01*
X178749754Y-117711894D01*
X178392387Y-117353903D01*
X177925227Y-117159921D01*
X177419393Y-117159480D01*
X177416250Y-117160779D01*
X177281549Y-116834781D01*
X177426752Y-116485093D01*
X177427248Y-115917397D01*
X177210457Y-115392725D01*
X177163157Y-115345343D01*
X177247807Y-115098964D01*
X177217482Y-114608587D01*
X177174223Y-114504149D01*
X177209047Y-114469386D01*
X177426752Y-113945093D01*
X177427248Y-113377397D01*
X177281549Y-113024781D01*
X177426752Y-112675093D01*
X177427248Y-112107397D01*
X177281549Y-111754781D01*
X177426752Y-111405093D01*
X177427248Y-110837397D01*
X177281549Y-110484781D01*
X177426752Y-110135093D01*
X177427248Y-109567397D01*
X177281549Y-109214781D01*
X177426752Y-108865093D01*
X177427248Y-108297397D01*
X177281549Y-107944781D01*
X177426752Y-107595093D01*
X177427248Y-107027397D01*
X177281549Y-106674781D01*
X177426752Y-106325093D01*
X177427248Y-105757397D01*
X177281549Y-105404781D01*
X177426752Y-105055093D01*
X177427248Y-104487397D01*
X177281549Y-104134781D01*
X177426752Y-103785093D01*
X177427248Y-103217397D01*
X177210457Y-102692725D01*
X176809386Y-102290953D01*
X176285093Y-102073248D01*
X175717397Y-102072752D01*
X175192725Y-102289543D01*
X174790953Y-102690614D01*
X174573248Y-103214907D01*
X174572752Y-103782603D01*
X174718451Y-104135219D01*
X174573248Y-104484907D01*
X174572752Y-105052603D01*
X174718451Y-105405219D01*
X174573248Y-105754907D01*
X174572752Y-106322603D01*
X174718451Y-106675219D01*
X174573248Y-107024907D01*
X174572752Y-107592603D01*
X174718451Y-107945219D01*
X174573248Y-108294907D01*
X174572752Y-108862603D01*
X174718451Y-109215219D01*
X174573248Y-109564907D01*
X174572752Y-110132603D01*
X174718451Y-110485219D01*
X174573248Y-110834907D01*
X174572752Y-111402603D01*
X174718451Y-111755219D01*
X174573248Y-112104907D01*
X174572752Y-112672603D01*
X174718451Y-113025219D01*
X174573248Y-113374907D01*
X174572752Y-113942603D01*
X174789543Y-114467275D01*
X174836843Y-114514657D01*
X174752193Y-114761036D01*
X174782518Y-115251413D01*
X174825777Y-115355851D01*
X174790953Y-115390614D01*
X174573248Y-115914907D01*
X174572752Y-116482603D01*
X174718451Y-116835219D01*
X174573248Y-117184907D01*
X174573235Y-117200333D01*
X174269386Y-116895953D01*
X173745093Y-116678248D01*
X173177397Y-116677752D01*
X172824781Y-116823451D01*
X172475093Y-116678248D01*
X171907397Y-116677752D01*
X171554781Y-116823451D01*
X171205093Y-116678248D01*
X170637397Y-116677752D01*
X170284781Y-116823451D01*
X169935093Y-116678248D01*
X169367397Y-116677752D01*
X169014781Y-116823451D01*
X168665093Y-116678248D01*
X168097397Y-116677752D01*
X167744781Y-116823451D01*
X167395093Y-116678248D01*
X166827397Y-116677752D01*
X166474781Y-116823451D01*
X166125093Y-116678248D01*
X165557397Y-116677752D01*
X165204781Y-116823451D01*
X164855093Y-116678248D01*
X164287397Y-116677752D01*
X163934781Y-116823451D01*
X163585093Y-116678248D01*
X163520053Y-116678191D01*
X163135281Y-116293419D01*
X162805180Y-116072853D01*
X162415800Y-115995400D01*
X159078500Y-115995400D01*
X158689120Y-116072853D01*
X158376930Y-116281451D01*
X158377248Y-115917397D01*
X158231549Y-115564781D01*
X158376752Y-115215093D01*
X158377248Y-114647397D01*
X158231549Y-114294781D01*
X158376752Y-113945093D01*
X158377248Y-113377397D01*
X158231549Y-113024781D01*
X158376752Y-112675093D01*
X158377248Y-112107397D01*
X158231549Y-111754781D01*
X158376752Y-111405093D01*
X158377248Y-110837397D01*
X158231549Y-110484781D01*
X158376752Y-110135093D01*
X158377248Y-109567397D01*
X158231549Y-109214781D01*
X158376752Y-108865093D01*
X158377248Y-108297397D01*
X158231549Y-107944781D01*
X158376752Y-107595093D01*
X158377248Y-107027397D01*
X158231549Y-106674781D01*
X158376752Y-106325093D01*
X158377248Y-105757397D01*
X158231549Y-105404781D01*
X158376752Y-105055093D01*
X158377248Y-104487397D01*
X158231549Y-104134781D01*
X158376752Y-103785093D01*
X158377248Y-103217397D01*
X158160457Y-102692725D01*
X157967500Y-102499431D01*
X157967500Y-98801600D01*
X157922520Y-98575467D01*
X175924138Y-98575467D01*
X176175375Y-98972169D01*
X177237446Y-99407227D01*
X178385162Y-99402730D01*
X179424625Y-98972169D01*
X179675862Y-98575467D01*
X177800000Y-96699605D01*
X175924138Y-98575467D01*
X157922520Y-98575467D01*
X157890047Y-98412220D01*
X157669481Y-98082119D01*
X156411846Y-96824484D01*
X156411920Y-96739993D01*
X156218754Y-96272494D01*
X155904256Y-95957446D01*
X174912773Y-95957446D01*
X174917270Y-97105162D01*
X175347831Y-98144625D01*
X175744533Y-98395862D01*
X177620395Y-96520000D01*
X175744533Y-94644138D01*
X175347831Y-94895375D01*
X174912773Y-95957446D01*
X155904256Y-95957446D01*
X155861387Y-95914503D01*
X155394227Y-95720521D01*
X154888393Y-95720080D01*
X154420894Y-95913246D01*
X154062903Y-96270613D01*
X153868921Y-96737773D01*
X153868480Y-97243607D01*
X154061646Y-97711106D01*
X154419013Y-98069097D01*
X154886173Y-98263079D01*
X154972592Y-98263154D01*
X155296997Y-98587559D01*
X155046927Y-98483721D01*
X154541093Y-98483280D01*
X154073594Y-98676446D01*
X153715603Y-99033813D01*
X153521621Y-99500973D01*
X153521180Y-100006807D01*
X153714346Y-100474306D01*
X153775400Y-100535467D01*
X153775400Y-102874100D01*
X153852853Y-103263480D01*
X154073419Y-103593581D01*
X155522760Y-105042922D01*
X155522752Y-105052603D01*
X155668451Y-105405219D01*
X155523248Y-105754907D01*
X155522752Y-106322603D01*
X155668451Y-106675219D01*
X155523248Y-107024907D01*
X155522752Y-107592603D01*
X155668451Y-107945219D01*
X155523248Y-108294907D01*
X155523079Y-108488817D01*
X146245888Y-99211626D01*
X146246320Y-98716293D01*
X146053154Y-98248794D01*
X145695787Y-97890803D01*
X145228627Y-97696821D01*
X144722793Y-97696380D01*
X144624237Y-97737102D01*
X144668201Y-97520000D01*
X144668201Y-95520000D01*
X144610535Y-95213532D01*
X144429413Y-94932061D01*
X144153052Y-94743231D01*
X143825000Y-94676799D01*
X141925000Y-94676799D01*
X141618532Y-94734465D01*
X141337061Y-94915587D01*
X141180287Y-95145032D01*
X141179208Y-95141981D01*
X140587602Y-94923812D01*
X139957539Y-94948648D01*
X139490792Y-95141981D01*
X139398255Y-95403650D01*
X140335000Y-96340395D01*
X140349143Y-96326253D01*
X140528748Y-96505858D01*
X140514605Y-96520000D01*
X140528748Y-96534143D01*
X140349143Y-96713748D01*
X140335000Y-96699605D01*
X139398255Y-97636350D01*
X139490792Y-97898019D01*
X140082398Y-98116188D01*
X140712461Y-98091352D01*
X141179208Y-97898019D01*
X141181442Y-97891702D01*
X141320587Y-98107939D01*
X141596948Y-98296769D01*
X141925000Y-98363201D01*
X143825000Y-98363201D01*
X143851051Y-98358299D01*
X143703321Y-98714073D01*
X143702880Y-99219907D01*
X143896046Y-99687406D01*
X144150696Y-99942501D01*
X144255119Y-100098781D01*
X155522784Y-111366446D01*
X155522752Y-111402603D01*
X155668451Y-111755219D01*
X155523248Y-112104907D01*
X155522752Y-112672603D01*
X155668451Y-113025219D01*
X155523248Y-113374907D01*
X155522752Y-113942603D01*
X155668451Y-114295219D01*
X155523248Y-114644907D01*
X155522752Y-115212603D01*
X155668451Y-115565219D01*
X155523248Y-115914907D01*
X155522752Y-116482603D01*
X155668451Y-116835219D01*
X155523248Y-117184907D01*
X155522752Y-117752603D01*
X155739543Y-118277275D01*
X156140614Y-118679047D01*
X156664907Y-118896752D01*
X156757172Y-118896833D01*
X156602521Y-119269273D01*
X156602080Y-119775107D01*
X156795246Y-120242606D01*
X156965592Y-120413249D01*
X156581080Y-120572126D01*
X156133697Y-121018729D01*
X155891277Y-121602542D01*
X155890725Y-122234685D01*
X156132126Y-122818920D01*
X156490259Y-123177679D01*
X154118219Y-125549719D01*
X153897653Y-125879820D01*
X153820200Y-126269200D01*
X153820200Y-129773720D01*
X153760403Y-129833413D01*
X153566421Y-130300573D01*
X153565980Y-130806407D01*
X153759146Y-131273906D01*
X154116513Y-131631897D01*
X154552657Y-131813000D01*
X136358095Y-131813000D01*
X136495862Y-131595467D01*
X134620000Y-129719605D01*
X132744138Y-131595467D01*
X132881905Y-131813000D01*
X132220000Y-131813000D01*
X132220000Y-131197664D01*
X132564533Y-131415862D01*
X134440395Y-129540000D01*
X134799605Y-129540000D01*
X136675467Y-131415862D01*
X137072169Y-131164625D01*
X137507227Y-130102554D01*
X137502730Y-128954838D01*
X137072169Y-127915375D01*
X136675467Y-127664138D01*
X134799605Y-129540000D01*
X134440395Y-129540000D01*
X132564533Y-127664138D01*
X132220000Y-127882336D01*
X132220000Y-127484533D01*
X132744138Y-127484533D01*
X134620000Y-129360395D01*
X136495862Y-127484533D01*
X136244625Y-127087831D01*
X135182554Y-126652773D01*
X134034838Y-126657270D01*
X132995375Y-127087831D01*
X132744138Y-127484533D01*
X132220000Y-127484533D01*
X132220000Y-122900819D01*
X132855806Y-123144388D01*
X133605435Y-123124250D01*
X134204467Y-122876123D01*
X134333715Y-122583320D01*
X133180000Y-121429605D01*
X133165858Y-121443748D01*
X132986253Y-121264143D01*
X133000395Y-121250000D01*
X133359605Y-121250000D01*
X134513320Y-122403715D01*
X134806123Y-122274467D01*
X135041008Y-121661328D01*
X151422640Y-121661328D01*
X151738178Y-122424989D01*
X152321938Y-123009768D01*
X153085047Y-123326639D01*
X153911328Y-123327360D01*
X154674989Y-123011822D01*
X155259768Y-122428062D01*
X155576639Y-121664953D01*
X155577360Y-120838672D01*
X155261822Y-120075011D01*
X154678062Y-119490232D01*
X153914953Y-119173361D01*
X153088672Y-119172640D01*
X152325011Y-119488178D01*
X151740232Y-120071938D01*
X151423361Y-120835047D01*
X151422640Y-121661328D01*
X135041008Y-121661328D01*
X135074388Y-121574194D01*
X135054250Y-120824565D01*
X134806123Y-120225533D01*
X134513320Y-120096285D01*
X133359605Y-121250000D01*
X133000395Y-121250000D01*
X132986253Y-121235858D01*
X133165858Y-121056253D01*
X133180000Y-121070395D01*
X134333715Y-119916680D01*
X134204467Y-119623877D01*
X133504194Y-119355612D01*
X132754565Y-119375750D01*
X132220000Y-119597174D01*
X132220000Y-107697398D01*
X138738812Y-107697398D01*
X138763648Y-108327461D01*
X138956981Y-108794208D01*
X139218650Y-108886745D01*
X140155395Y-107950000D01*
X139218650Y-107013255D01*
X138956981Y-107105792D01*
X138738812Y-107697398D01*
X132220000Y-107697398D01*
X132220000Y-106833650D01*
X139398255Y-106833650D01*
X140335000Y-107770395D01*
X140349143Y-107756253D01*
X140528748Y-107935858D01*
X140514605Y-107950000D01*
X140528748Y-107964143D01*
X140349143Y-108143748D01*
X140335000Y-108129605D01*
X139398255Y-109066350D01*
X139490792Y-109328019D01*
X140082398Y-109546188D01*
X140712461Y-109521352D01*
X141179208Y-109328019D01*
X141181442Y-109321702D01*
X141320587Y-109537939D01*
X141596948Y-109726769D01*
X141925000Y-109793201D01*
X143825000Y-109793201D01*
X144131468Y-109735535D01*
X144412939Y-109554413D01*
X144601769Y-109278052D01*
X144668201Y-108950000D01*
X144668201Y-106950000D01*
X144610535Y-106643532D01*
X144429413Y-106362061D01*
X144153052Y-106173231D01*
X143825000Y-106106799D01*
X141925000Y-106106799D01*
X141618532Y-106164465D01*
X141337061Y-106345587D01*
X141180287Y-106575032D01*
X141179208Y-106571981D01*
X140587602Y-106353812D01*
X139957539Y-106378648D01*
X139490792Y-106571981D01*
X139398255Y-106833650D01*
X132220000Y-106833650D01*
X132220000Y-101982398D01*
X138738812Y-101982398D01*
X138763648Y-102612461D01*
X138956981Y-103079208D01*
X139218650Y-103171745D01*
X140155395Y-102235000D01*
X139218650Y-101298255D01*
X138956981Y-101390792D01*
X138738812Y-101982398D01*
X132220000Y-101982398D01*
X132220000Y-101118650D01*
X139398255Y-101118650D01*
X140335000Y-102055395D01*
X140349143Y-102041253D01*
X140528748Y-102220858D01*
X140514605Y-102235000D01*
X140528748Y-102249143D01*
X140349143Y-102428748D01*
X140335000Y-102414605D01*
X139398255Y-103351350D01*
X139490792Y-103613019D01*
X140082398Y-103831188D01*
X140712461Y-103806352D01*
X141179208Y-103613019D01*
X141181442Y-103606702D01*
X141320587Y-103822939D01*
X141596948Y-104011769D01*
X141925000Y-104078201D01*
X143825000Y-104078201D01*
X144131468Y-104020535D01*
X144412939Y-103839413D01*
X144601769Y-103563052D01*
X144668201Y-103235000D01*
X144668201Y-101235000D01*
X144610535Y-100928532D01*
X144429413Y-100647061D01*
X144153052Y-100458231D01*
X143825000Y-100391799D01*
X141925000Y-100391799D01*
X141618532Y-100449465D01*
X141337061Y-100630587D01*
X141180287Y-100860032D01*
X141179208Y-100856981D01*
X140587602Y-100638812D01*
X139957539Y-100663648D01*
X139490792Y-100856981D01*
X139398255Y-101118650D01*
X132220000Y-101118650D01*
X132220000Y-98575467D01*
X132744138Y-98575467D01*
X132995375Y-98972169D01*
X134057446Y-99407227D01*
X135205162Y-99402730D01*
X136244625Y-98972169D01*
X136495862Y-98575467D01*
X134620000Y-96699605D01*
X132744138Y-98575467D01*
X132220000Y-98575467D01*
X132220000Y-98177664D01*
X132564533Y-98395862D01*
X134440395Y-96520000D01*
X134799605Y-96520000D01*
X136675467Y-98395862D01*
X137072169Y-98144625D01*
X137507227Y-97082554D01*
X137504034Y-96267398D01*
X138738812Y-96267398D01*
X138763648Y-96897461D01*
X138956981Y-97364208D01*
X139218650Y-97456745D01*
X140155395Y-96520000D01*
X139218650Y-95583255D01*
X138956981Y-95675792D01*
X138738812Y-96267398D01*
X137504034Y-96267398D01*
X137502730Y-95934838D01*
X137072169Y-94895375D01*
X136675467Y-94644138D01*
X134799605Y-96520000D01*
X134440395Y-96520000D01*
X132564533Y-94644138D01*
X132220000Y-94862336D01*
X132220000Y-94120000D01*
X132962336Y-94120000D01*
X132744138Y-94464533D01*
M02*
