%TF.GenerationSoftware,KiCad,Pcbnew,4.0.2+e4-6225~38~ubuntu15.10.1-stable*%
%TF.CreationDate,2016-06-09T11:59:05+01:00*%
%TF.ProjectId,igrow-101,6967726F772D3130312E6B696361645F,101*%
%TF.FileFunction,Copper,L2,Bot,Signal*%
%FSLAX46Y46*%
G04 Gerber Fmt 4.6, Leading zero omitted, Abs format (unit mm)*
G04 Created by KiCad (PCBNEW 4.0.2+e4-6225~38~ubuntu15.10.1-stable) date Thu 09 Jun 2016 11:59:05 BST*
%MOMM*%
G01*
G04 APERTURE LIST*
%ADD10C,0.100000*%
%ADD11C,1.524000*%
%ADD12C,1.000000*%
%ADD13R,1.900000X2.000000*%
%ADD14C,1.900000*%
%ADD15C,4.500000*%
%ADD16C,3.000000*%
%ADD17R,1.198880X1.198880*%
%ADD18C,0.889000*%
%ADD19C,0.381000*%
%ADD20C,0.254000*%
G04 APERTURE END LIST*
D10*
D11*
X162560000Y-127000000D03*
X157480000Y-127000000D03*
X157480000Y-121920000D03*
X162560000Y-121920000D03*
D12*
X176530000Y-103378000D03*
X176530000Y-104648000D03*
X176530000Y-105918000D03*
X176530000Y-107188000D03*
X176530000Y-108458000D03*
X176530000Y-109728000D03*
X176530000Y-110998000D03*
X176530000Y-112268000D03*
X176530000Y-113538000D03*
X176530000Y-114808000D03*
X176530000Y-116078000D03*
X176530000Y-117348000D03*
X173990000Y-117983000D03*
X172720000Y-117983000D03*
X171450000Y-117983000D03*
X170180000Y-117983000D03*
X168910000Y-117983000D03*
X167640000Y-117983000D03*
X166370000Y-117983000D03*
X165100000Y-117983000D03*
X163830000Y-117983000D03*
X162560000Y-117983000D03*
X161290000Y-117983000D03*
X160020000Y-117983000D03*
X157480000Y-117348000D03*
X157480000Y-116078000D03*
X157480000Y-114808000D03*
X157480000Y-113538000D03*
X157480000Y-112268000D03*
X157480000Y-110998000D03*
X157480000Y-109728000D03*
X157480000Y-108458000D03*
X157480000Y-107188000D03*
X157480000Y-105918000D03*
X157480000Y-104648000D03*
X157480000Y-103378000D03*
D11*
X153035000Y-121285000D03*
X132715000Y-121285000D03*
D13*
X142875000Y-107950000D03*
D14*
X140335000Y-107950000D03*
D13*
X142875000Y-102235000D03*
D14*
X140335000Y-102235000D03*
D13*
X142875000Y-96520000D03*
D14*
X140335000Y-96520000D03*
D15*
X134620000Y-96520000D03*
X134620000Y-129540000D03*
X177800000Y-129540000D03*
X177800000Y-96520000D03*
D16*
X172720000Y-129540000D03*
D17*
X172085000Y-124239020D03*
X172085000Y-122140980D03*
X177165000Y-124239020D03*
X177165000Y-122140980D03*
D18*
X149897800Y-109239600D03*
X154837700Y-130554600D03*
X161388300Y-120714100D03*
X165240600Y-129514600D03*
X170334800Y-121037800D03*
X177400900Y-120562100D03*
D19*
X154920500Y-121285000D02*
X153035000Y-121285000D01*
X160127500Y-116078000D02*
X154920500Y-121285000D01*
X176530000Y-116078000D02*
X160127500Y-116078000D01*
X150679400Y-108458000D02*
X149897800Y-109239600D01*
X154471700Y-108458000D02*
X150679400Y-108458000D01*
X154472000Y-108457700D02*
X154471700Y-108458000D01*
X154998200Y-108457700D02*
X154472000Y-108457700D01*
X154998500Y-108458000D02*
X154998200Y-108457700D01*
X157480000Y-108458000D02*
X154998500Y-108458000D01*
X154837700Y-126320700D02*
X154837700Y-130554600D01*
X158686900Y-122471500D02*
X154837700Y-126320700D01*
X158686900Y-122148000D02*
X158686900Y-122471500D01*
X161269200Y-119565700D02*
X158686900Y-122148000D01*
X164905500Y-119565700D02*
X161269200Y-119565700D01*
X166370000Y-118101200D02*
X164905500Y-119565700D01*
X166370000Y-117983000D02*
X166370000Y-118101200D01*
X161398500Y-120703900D02*
X161388300Y-120714100D01*
X167505700Y-120703900D02*
X161398500Y-120703900D01*
X171040800Y-124239000D02*
X167505700Y-120703900D01*
X172085000Y-124239000D02*
X171040800Y-124239000D01*
X169472000Y-125283200D02*
X165240600Y-129514600D01*
X175076600Y-125283200D02*
X169472000Y-125283200D01*
X176120800Y-124239000D02*
X175076600Y-125283200D01*
X177165000Y-124239000D02*
X176120800Y-124239000D01*
X171040800Y-121743800D02*
X170334800Y-121037800D01*
X171040800Y-122141000D02*
X171040800Y-121743800D01*
X172085000Y-122141000D02*
X171040800Y-122141000D01*
X177400900Y-120860900D02*
X177400900Y-120562100D01*
X177165000Y-121096800D02*
X177400900Y-120860900D01*
X177165000Y-122141000D02*
X177165000Y-121096800D01*
D20*
G36*
X132995375Y-94067831D02*
X132744138Y-94464533D01*
X134620000Y-96340395D01*
X136495862Y-94464533D01*
X136244625Y-94067831D01*
X135903267Y-93928000D01*
X176512956Y-93928000D01*
X176175375Y-94067831D01*
X175924138Y-94464533D01*
X177800000Y-96340395D01*
X179675862Y-94464533D01*
X179424625Y-94067831D01*
X179083267Y-93928000D01*
X180392000Y-93928000D01*
X180392000Y-95232956D01*
X180252169Y-94895375D01*
X179855467Y-94644138D01*
X177979605Y-96520000D01*
X179855467Y-98395862D01*
X180252169Y-98144625D01*
X180392000Y-97803267D01*
X180392000Y-128252956D01*
X180252169Y-127915375D01*
X179855467Y-127664138D01*
X177979605Y-129540000D01*
X179855467Y-131415862D01*
X180252169Y-131164625D01*
X180392000Y-130823267D01*
X180392000Y-132005000D01*
X179393648Y-132005000D01*
X179424625Y-131992169D01*
X179675862Y-131595467D01*
X177800000Y-129719605D01*
X175924138Y-131595467D01*
X176175375Y-131992169D01*
X176206698Y-132005000D01*
X136213648Y-132005000D01*
X136244625Y-131992169D01*
X136495862Y-131595467D01*
X134620000Y-129719605D01*
X132744138Y-131595467D01*
X132995375Y-131992169D01*
X133026698Y-132005000D01*
X132028000Y-132005000D01*
X132028000Y-130827044D01*
X132167831Y-131164625D01*
X132564533Y-131415862D01*
X134440395Y-129540000D01*
X134799605Y-129540000D01*
X136675467Y-131415862D01*
X137072169Y-131164625D01*
X137507227Y-130102554D01*
X137502730Y-128954838D01*
X137072169Y-127915375D01*
X136675467Y-127664138D01*
X134799605Y-129540000D01*
X134440395Y-129540000D01*
X132564533Y-127664138D01*
X132167831Y-127915375D01*
X132028000Y-128256733D01*
X132028000Y-127484533D01*
X132744138Y-127484533D01*
X134620000Y-129360395D01*
X136495862Y-127484533D01*
X136244625Y-127087831D01*
X135182554Y-126652773D01*
X134034838Y-126657270D01*
X132995375Y-127087831D01*
X132744138Y-127484533D01*
X132028000Y-127484533D01*
X132028000Y-122523146D01*
X132507302Y-122694144D01*
X133062368Y-122666362D01*
X133446143Y-122507397D01*
X133515608Y-122265213D01*
X132715000Y-121464605D01*
X132700858Y-121478748D01*
X132521253Y-121299143D01*
X132535395Y-121285000D01*
X132894605Y-121285000D01*
X133695213Y-122085608D01*
X133937397Y-122016143D01*
X134124144Y-121492698D01*
X134096362Y-120937632D01*
X133937397Y-120553857D01*
X133695213Y-120484392D01*
X132894605Y-121285000D01*
X132535395Y-121285000D01*
X132521253Y-121270858D01*
X132700858Y-121091253D01*
X132715000Y-121105395D01*
X133515608Y-120304787D01*
X133446143Y-120062603D01*
X132922698Y-119875856D01*
X132367632Y-119903638D01*
X132028000Y-120044318D01*
X132028000Y-107697398D01*
X138738812Y-107697398D01*
X138763648Y-108327461D01*
X138956981Y-108794208D01*
X139218650Y-108886745D01*
X140155395Y-107950000D01*
X139218650Y-107013255D01*
X138956981Y-107105792D01*
X138738812Y-107697398D01*
X132028000Y-107697398D01*
X132028000Y-106833650D01*
X139398255Y-106833650D01*
X140335000Y-107770395D01*
X140349143Y-107756253D01*
X140528748Y-107935858D01*
X140514605Y-107950000D01*
X140528748Y-107964143D01*
X140349143Y-108143748D01*
X140335000Y-108129605D01*
X139398255Y-109066350D01*
X139490792Y-109328019D01*
X140082398Y-109546188D01*
X140712461Y-109521352D01*
X141179208Y-109328019D01*
X141271744Y-109066352D01*
X141305875Y-109100483D01*
X141321838Y-109185317D01*
X141460910Y-109401441D01*
X141673110Y-109546431D01*
X141925000Y-109597440D01*
X143825000Y-109597440D01*
X144060317Y-109553162D01*
X144215376Y-109453384D01*
X148818113Y-109453384D01*
X148982111Y-109850289D01*
X149285514Y-110154222D01*
X149682132Y-110318913D01*
X150111584Y-110319287D01*
X150508489Y-110155289D01*
X150812422Y-109851886D01*
X150977113Y-109455268D01*
X150977224Y-109327609D01*
X151021333Y-109283500D01*
X154471700Y-109283500D01*
X154473208Y-109283200D01*
X154996992Y-109283200D01*
X154998500Y-109283500D01*
X156435613Y-109283500D01*
X156345197Y-109501244D01*
X156344803Y-109952775D01*
X156514510Y-110363495D01*
X156345197Y-110771244D01*
X156344803Y-111222775D01*
X156514510Y-111633495D01*
X156345197Y-112041244D01*
X156344803Y-112492775D01*
X156514510Y-112903495D01*
X156345197Y-113311244D01*
X156344803Y-113762775D01*
X156514510Y-114173495D01*
X156345197Y-114581244D01*
X156344803Y-115032775D01*
X156514510Y-115443495D01*
X156345197Y-115851244D01*
X156344803Y-116302775D01*
X156514510Y-116713495D01*
X156345197Y-117121244D01*
X156344803Y-117572775D01*
X156517233Y-117990086D01*
X156782375Y-118255691D01*
X154578566Y-120459500D01*
X154184874Y-120459500D01*
X153827370Y-120101371D01*
X153314100Y-119888243D01*
X152758339Y-119887758D01*
X152244697Y-120099990D01*
X151851371Y-120492630D01*
X151638243Y-121005900D01*
X151637758Y-121561661D01*
X151849990Y-122075303D01*
X152242630Y-122468629D01*
X152755900Y-122681757D01*
X153311661Y-122682242D01*
X153825303Y-122470010D01*
X154185441Y-122110500D01*
X154920500Y-122110500D01*
X155236406Y-122047663D01*
X155504217Y-121868717D01*
X158966774Y-118406160D01*
X159057233Y-118625086D01*
X159376235Y-118944645D01*
X159793244Y-119117803D01*
X160244775Y-119118197D01*
X160655495Y-118948490D01*
X160704904Y-118969006D01*
X160685483Y-118981983D01*
X160685481Y-118981986D01*
X158601445Y-121066021D01*
X158272370Y-120736371D01*
X157759100Y-120523243D01*
X157203339Y-120522758D01*
X156689697Y-120734990D01*
X156296371Y-121127630D01*
X156083243Y-121640900D01*
X156082758Y-122196661D01*
X156294990Y-122710303D01*
X156687630Y-123103629D01*
X156828742Y-123162224D01*
X154253983Y-125736983D01*
X154075037Y-126004794D01*
X154034691Y-126207630D01*
X154012200Y-126320700D01*
X154012200Y-129853347D01*
X153923078Y-129942314D01*
X153758387Y-130338932D01*
X153758013Y-130768384D01*
X153922011Y-131165289D01*
X154225414Y-131469222D01*
X154622032Y-131633913D01*
X155051484Y-131634287D01*
X155448389Y-131470289D01*
X155752322Y-131166886D01*
X155799209Y-131053970D01*
X171385635Y-131053970D01*
X171545418Y-131372739D01*
X172336187Y-131682723D01*
X173185387Y-131666497D01*
X173894582Y-131372739D01*
X174054365Y-131053970D01*
X172720000Y-129719605D01*
X171385635Y-131053970D01*
X155799209Y-131053970D01*
X155917013Y-130770268D01*
X155917387Y-130340816D01*
X155753389Y-129943911D01*
X155663200Y-129853564D01*
X155663200Y-127980213D01*
X156679392Y-127980213D01*
X156748857Y-128222397D01*
X157272302Y-128409144D01*
X157827368Y-128381362D01*
X158211143Y-128222397D01*
X158280608Y-127980213D01*
X157480000Y-127179605D01*
X156679392Y-127980213D01*
X155663200Y-127980213D01*
X155663200Y-126792302D01*
X156070856Y-126792302D01*
X156098638Y-127347368D01*
X156257603Y-127731143D01*
X156499787Y-127800608D01*
X157300395Y-127000000D01*
X157659605Y-127000000D01*
X158460213Y-127800608D01*
X158702397Y-127731143D01*
X158864540Y-127276661D01*
X161162758Y-127276661D01*
X161374990Y-127790303D01*
X161767630Y-128183629D01*
X162280900Y-128396757D01*
X162836661Y-128397242D01*
X163350303Y-128185010D01*
X163743629Y-127792370D01*
X163956757Y-127279100D01*
X163957242Y-126723339D01*
X163745010Y-126209697D01*
X163352370Y-125816371D01*
X162839100Y-125603243D01*
X162283339Y-125602758D01*
X161769697Y-125814990D01*
X161376371Y-126207630D01*
X161163243Y-126720900D01*
X161162758Y-127276661D01*
X158864540Y-127276661D01*
X158889144Y-127207698D01*
X158861362Y-126652632D01*
X158702397Y-126268857D01*
X158460213Y-126199392D01*
X157659605Y-127000000D01*
X157300395Y-127000000D01*
X156499787Y-126199392D01*
X156257603Y-126268857D01*
X156070856Y-126792302D01*
X155663200Y-126792302D01*
X155663200Y-126662634D01*
X156306047Y-126019787D01*
X156679392Y-126019787D01*
X157480000Y-126820395D01*
X158280608Y-126019787D01*
X158211143Y-125777603D01*
X157687698Y-125590856D01*
X157132632Y-125618638D01*
X156748857Y-125777603D01*
X156679392Y-126019787D01*
X156306047Y-126019787D01*
X159270617Y-123055217D01*
X159449563Y-122787406D01*
X159507824Y-122494510D01*
X160574988Y-121427345D01*
X160776014Y-121628722D01*
X161163113Y-121789460D01*
X161162758Y-122196661D01*
X161374990Y-122710303D01*
X161767630Y-123103629D01*
X162280900Y-123316757D01*
X162836661Y-123317242D01*
X163350303Y-123105010D01*
X163743629Y-122712370D01*
X163956757Y-122199100D01*
X163957242Y-121643339D01*
X163910163Y-121529400D01*
X167163766Y-121529400D01*
X170092067Y-124457700D01*
X169472000Y-124457700D01*
X169156094Y-124520537D01*
X169048824Y-124592213D01*
X168888283Y-124699483D01*
X168888281Y-124699486D01*
X165152743Y-128435023D01*
X165026816Y-128434913D01*
X164629911Y-128598911D01*
X164325978Y-128902314D01*
X164161287Y-129298932D01*
X164160913Y-129728384D01*
X164324911Y-130125289D01*
X164628314Y-130429222D01*
X165024932Y-130593913D01*
X165454384Y-130594287D01*
X165851289Y-130430289D01*
X166155222Y-130126886D01*
X166319913Y-129730268D01*
X166320024Y-129602610D01*
X166766446Y-129156187D01*
X170577277Y-129156187D01*
X170593503Y-130005387D01*
X170887261Y-130714582D01*
X171206030Y-130874365D01*
X172540395Y-129540000D01*
X172899605Y-129540000D01*
X174233970Y-130874365D01*
X174552739Y-130714582D01*
X174862723Y-129923813D01*
X174846497Y-129074613D01*
X174806250Y-128977446D01*
X174912773Y-128977446D01*
X174917270Y-130125162D01*
X175347831Y-131164625D01*
X175744533Y-131415862D01*
X177620395Y-129540000D01*
X175744533Y-127664138D01*
X175347831Y-127915375D01*
X174912773Y-128977446D01*
X174806250Y-128977446D01*
X174552739Y-128365418D01*
X174233970Y-128205635D01*
X172899605Y-129540000D01*
X172540395Y-129540000D01*
X171206030Y-128205635D01*
X170887261Y-128365418D01*
X170577277Y-129156187D01*
X166766446Y-129156187D01*
X167896603Y-128026030D01*
X171385635Y-128026030D01*
X172720000Y-129360395D01*
X174054365Y-128026030D01*
X173894582Y-127707261D01*
X173326404Y-127484533D01*
X175924138Y-127484533D01*
X177800000Y-129360395D01*
X179675862Y-127484533D01*
X179424625Y-127087831D01*
X178362554Y-126652773D01*
X177214838Y-126657270D01*
X176175375Y-127087831D01*
X175924138Y-127484533D01*
X173326404Y-127484533D01*
X173103813Y-127397277D01*
X172254613Y-127413503D01*
X171545418Y-127707261D01*
X171385635Y-128026030D01*
X167896603Y-128026030D01*
X169813933Y-126108700D01*
X175076600Y-126108700D01*
X175392506Y-126045863D01*
X175660317Y-125866917D01*
X176182184Y-125345050D01*
X176313670Y-125434891D01*
X176565560Y-125485900D01*
X177764440Y-125485900D01*
X177999757Y-125441622D01*
X178215881Y-125302550D01*
X178360871Y-125090350D01*
X178411880Y-124838460D01*
X178411880Y-123639580D01*
X178367602Y-123404263D01*
X178228530Y-123188139D01*
X178227533Y-123187457D01*
X178360871Y-122992310D01*
X178411880Y-122740420D01*
X178411880Y-121541540D01*
X178367602Y-121306223D01*
X178295578Y-121194295D01*
X178315522Y-121174386D01*
X178480213Y-120777768D01*
X178480587Y-120348316D01*
X178316589Y-119951411D01*
X178013186Y-119647478D01*
X177616568Y-119482787D01*
X177187116Y-119482413D01*
X176790211Y-119646411D01*
X176486278Y-119949814D01*
X176321587Y-120346432D01*
X176321213Y-120775884D01*
X176376647Y-120910045D01*
X176372597Y-120930409D01*
X176330243Y-120938378D01*
X176114119Y-121077450D01*
X175969129Y-121289650D01*
X175918120Y-121541540D01*
X175918120Y-122740420D01*
X175962398Y-122975737D01*
X176101470Y-123191861D01*
X176102467Y-123192543D01*
X175969129Y-123387690D01*
X175957317Y-123446018D01*
X175804895Y-123476337D01*
X175537083Y-123655283D01*
X174734666Y-124457700D01*
X173331880Y-124457700D01*
X173331880Y-123639580D01*
X173287602Y-123404263D01*
X173148530Y-123188139D01*
X173147533Y-123187457D01*
X173280871Y-122992310D01*
X173331880Y-122740420D01*
X173331880Y-121541540D01*
X173287602Y-121306223D01*
X173148530Y-121090099D01*
X172936330Y-120945109D01*
X172684440Y-120894100D01*
X171485560Y-120894100D01*
X171414414Y-120907487D01*
X171414487Y-120824016D01*
X171250489Y-120427111D01*
X170947086Y-120123178D01*
X170550468Y-119958487D01*
X170121016Y-119958113D01*
X169724111Y-120122111D01*
X169420178Y-120425514D01*
X169255487Y-120822132D01*
X169255113Y-121251584D01*
X169279262Y-121310028D01*
X168089417Y-120120183D01*
X167821606Y-119941237D01*
X167505700Y-119878400D01*
X165760234Y-119878400D01*
X166520501Y-119118132D01*
X166594775Y-119118197D01*
X167005495Y-118948490D01*
X167413244Y-119117803D01*
X167864775Y-119118197D01*
X168275495Y-118948490D01*
X168683244Y-119117803D01*
X169134775Y-119118197D01*
X169545495Y-118948490D01*
X169953244Y-119117803D01*
X170404775Y-119118197D01*
X170815495Y-118948490D01*
X171223244Y-119117803D01*
X171674775Y-119118197D01*
X172085495Y-118948490D01*
X172493244Y-119117803D01*
X172944775Y-119118197D01*
X173355495Y-118948490D01*
X173763244Y-119117803D01*
X174214775Y-119118197D01*
X174632086Y-118945767D01*
X174951645Y-118626765D01*
X175124803Y-118209756D01*
X175125197Y-117758225D01*
X174952767Y-117340914D01*
X174633765Y-117021355D01*
X174349940Y-116903500D01*
X175485613Y-116903500D01*
X175395197Y-117121244D01*
X175394803Y-117572775D01*
X175567233Y-117990086D01*
X175886235Y-118309645D01*
X176303244Y-118482803D01*
X176754775Y-118483197D01*
X177172086Y-118310767D01*
X177491645Y-117991765D01*
X177664803Y-117574756D01*
X177665197Y-117123225D01*
X177495490Y-116712505D01*
X177664803Y-116304756D01*
X177665197Y-115853225D01*
X177492767Y-115435914D01*
X177452551Y-115395627D01*
X177535217Y-115381352D01*
X177678112Y-114953028D01*
X177646217Y-114502625D01*
X177535217Y-114234648D01*
X177452908Y-114220434D01*
X177491645Y-114181765D01*
X177664803Y-113764756D01*
X177665197Y-113313225D01*
X177495490Y-112902505D01*
X177664803Y-112494756D01*
X177665197Y-112043225D01*
X177495490Y-111632505D01*
X177664803Y-111224756D01*
X177665197Y-110773225D01*
X177495490Y-110362505D01*
X177664803Y-109954756D01*
X177665197Y-109503225D01*
X177495490Y-109092505D01*
X177664803Y-108684756D01*
X177665197Y-108233225D01*
X177495490Y-107822505D01*
X177664803Y-107414756D01*
X177665197Y-106963225D01*
X177495490Y-106552505D01*
X177664803Y-106144756D01*
X177665197Y-105693225D01*
X177495490Y-105282505D01*
X177664803Y-104874756D01*
X177665197Y-104423225D01*
X177495490Y-104012505D01*
X177664803Y-103604756D01*
X177665197Y-103153225D01*
X177492767Y-102735914D01*
X177173765Y-102416355D01*
X176756756Y-102243197D01*
X176305225Y-102242803D01*
X175887914Y-102415233D01*
X175568355Y-102734235D01*
X175395197Y-103151244D01*
X175394803Y-103602775D01*
X175564510Y-104013495D01*
X175395197Y-104421244D01*
X175394803Y-104872775D01*
X175564510Y-105283495D01*
X175395197Y-105691244D01*
X175394803Y-106142775D01*
X175564510Y-106553495D01*
X175395197Y-106961244D01*
X175394803Y-107412775D01*
X175564510Y-107823495D01*
X175395197Y-108231244D01*
X175394803Y-108682775D01*
X175564510Y-109093495D01*
X175395197Y-109501244D01*
X175394803Y-109952775D01*
X175564510Y-110363495D01*
X175395197Y-110771244D01*
X175394803Y-111222775D01*
X175564510Y-111633495D01*
X175395197Y-112041244D01*
X175394803Y-112492775D01*
X175564510Y-112903495D01*
X175395197Y-113311244D01*
X175394803Y-113762775D01*
X175567233Y-114180086D01*
X175607449Y-114220373D01*
X175524783Y-114234648D01*
X175381888Y-114662972D01*
X175413783Y-115113375D01*
X175471411Y-115252500D01*
X160127500Y-115252500D01*
X159811594Y-115315337D01*
X159543783Y-115494283D01*
X158530651Y-116507415D01*
X158614803Y-116304756D01*
X158615197Y-115853225D01*
X158445490Y-115442505D01*
X158614803Y-115034756D01*
X158615197Y-114583225D01*
X158445490Y-114172505D01*
X158614803Y-113764756D01*
X158615197Y-113313225D01*
X158445490Y-112902505D01*
X158614803Y-112494756D01*
X158615197Y-112043225D01*
X158445490Y-111632505D01*
X158614803Y-111224756D01*
X158615197Y-110773225D01*
X158445490Y-110362505D01*
X158614803Y-109954756D01*
X158615197Y-109503225D01*
X158445490Y-109092505D01*
X158614803Y-108684756D01*
X158615197Y-108233225D01*
X158445490Y-107822505D01*
X158614803Y-107414756D01*
X158615197Y-106963225D01*
X158445490Y-106552505D01*
X158614803Y-106144756D01*
X158615197Y-105693225D01*
X158445490Y-105282505D01*
X158614803Y-104874756D01*
X158615197Y-104423225D01*
X158445490Y-104012505D01*
X158614803Y-103604756D01*
X158615197Y-103153225D01*
X158442767Y-102735914D01*
X158123765Y-102416355D01*
X157706756Y-102243197D01*
X157255225Y-102242803D01*
X156837914Y-102415233D01*
X156518355Y-102734235D01*
X156345197Y-103151244D01*
X156344803Y-103602775D01*
X156514510Y-104013495D01*
X156345197Y-104421244D01*
X156344803Y-104872775D01*
X156514510Y-105283495D01*
X156345197Y-105691244D01*
X156344803Y-106142775D01*
X156514510Y-106553495D01*
X156345197Y-106961244D01*
X156344803Y-107412775D01*
X156435592Y-107632500D01*
X154999708Y-107632500D01*
X154998200Y-107632200D01*
X154472000Y-107632200D01*
X154470492Y-107632500D01*
X150679400Y-107632500D01*
X150363494Y-107695337D01*
X150360410Y-107697398D01*
X150095683Y-107874283D01*
X150095681Y-107874286D01*
X149809944Y-108160023D01*
X149684016Y-108159913D01*
X149287111Y-108323911D01*
X148983178Y-108627314D01*
X148818487Y-109023932D01*
X148818113Y-109453384D01*
X144215376Y-109453384D01*
X144276441Y-109414090D01*
X144421431Y-109201890D01*
X144472440Y-108950000D01*
X144472440Y-106950000D01*
X144428162Y-106714683D01*
X144289090Y-106498559D01*
X144076890Y-106353569D01*
X143825000Y-106302560D01*
X141925000Y-106302560D01*
X141689683Y-106346838D01*
X141473559Y-106485910D01*
X141328569Y-106698110D01*
X141308582Y-106796810D01*
X141271744Y-106833648D01*
X141179208Y-106571981D01*
X140587602Y-106353812D01*
X139957539Y-106378648D01*
X139490792Y-106571981D01*
X139398255Y-106833650D01*
X132028000Y-106833650D01*
X132028000Y-101982398D01*
X138738812Y-101982398D01*
X138763648Y-102612461D01*
X138956981Y-103079208D01*
X139218650Y-103171745D01*
X140155395Y-102235000D01*
X139218650Y-101298255D01*
X138956981Y-101390792D01*
X138738812Y-101982398D01*
X132028000Y-101982398D01*
X132028000Y-101118650D01*
X139398255Y-101118650D01*
X140335000Y-102055395D01*
X140349143Y-102041253D01*
X140528748Y-102220858D01*
X140514605Y-102235000D01*
X140528748Y-102249143D01*
X140349143Y-102428748D01*
X140335000Y-102414605D01*
X139398255Y-103351350D01*
X139490792Y-103613019D01*
X140082398Y-103831188D01*
X140712461Y-103806352D01*
X141179208Y-103613019D01*
X141271744Y-103351352D01*
X141305875Y-103385483D01*
X141321838Y-103470317D01*
X141460910Y-103686441D01*
X141673110Y-103831431D01*
X141925000Y-103882440D01*
X143825000Y-103882440D01*
X144060317Y-103838162D01*
X144276441Y-103699090D01*
X144421431Y-103486890D01*
X144472440Y-103235000D01*
X144472440Y-101235000D01*
X144428162Y-100999683D01*
X144289090Y-100783559D01*
X144076890Y-100638569D01*
X143825000Y-100587560D01*
X141925000Y-100587560D01*
X141689683Y-100631838D01*
X141473559Y-100770910D01*
X141328569Y-100983110D01*
X141308582Y-101081810D01*
X141271744Y-101118648D01*
X141179208Y-100856981D01*
X140587602Y-100638812D01*
X139957539Y-100663648D01*
X139490792Y-100856981D01*
X139398255Y-101118650D01*
X132028000Y-101118650D01*
X132028000Y-98575467D01*
X132744138Y-98575467D01*
X132995375Y-98972169D01*
X134057446Y-99407227D01*
X135205162Y-99402730D01*
X136244625Y-98972169D01*
X136495862Y-98575467D01*
X175924138Y-98575467D01*
X176175375Y-98972169D01*
X177237446Y-99407227D01*
X178385162Y-99402730D01*
X179424625Y-98972169D01*
X179675862Y-98575467D01*
X177800000Y-96699605D01*
X175924138Y-98575467D01*
X136495862Y-98575467D01*
X134620000Y-96699605D01*
X132744138Y-98575467D01*
X132028000Y-98575467D01*
X132028000Y-97807044D01*
X132167831Y-98144625D01*
X132564533Y-98395862D01*
X134440395Y-96520000D01*
X134799605Y-96520000D01*
X136675467Y-98395862D01*
X137072169Y-98144625D01*
X137507227Y-97082554D01*
X137504034Y-96267398D01*
X138738812Y-96267398D01*
X138763648Y-96897461D01*
X138956981Y-97364208D01*
X139218650Y-97456745D01*
X140155395Y-96520000D01*
X139218650Y-95583255D01*
X138956981Y-95675792D01*
X138738812Y-96267398D01*
X137504034Y-96267398D01*
X137502730Y-95934838D01*
X137282705Y-95403650D01*
X139398255Y-95403650D01*
X140335000Y-96340395D01*
X140349143Y-96326253D01*
X140528748Y-96505858D01*
X140514605Y-96520000D01*
X140528748Y-96534143D01*
X140349143Y-96713748D01*
X140335000Y-96699605D01*
X139398255Y-97636350D01*
X139490792Y-97898019D01*
X140082398Y-98116188D01*
X140712461Y-98091352D01*
X141179208Y-97898019D01*
X141271744Y-97636352D01*
X141305875Y-97670483D01*
X141321838Y-97755317D01*
X141460910Y-97971441D01*
X141673110Y-98116431D01*
X141925000Y-98167440D01*
X143825000Y-98167440D01*
X144060317Y-98123162D01*
X144276441Y-97984090D01*
X144421431Y-97771890D01*
X144472440Y-97520000D01*
X144472440Y-95957446D01*
X174912773Y-95957446D01*
X174917270Y-97105162D01*
X175347831Y-98144625D01*
X175744533Y-98395862D01*
X177620395Y-96520000D01*
X175744533Y-94644138D01*
X175347831Y-94895375D01*
X174912773Y-95957446D01*
X144472440Y-95957446D01*
X144472440Y-95520000D01*
X144428162Y-95284683D01*
X144289090Y-95068559D01*
X144076890Y-94923569D01*
X143825000Y-94872560D01*
X141925000Y-94872560D01*
X141689683Y-94916838D01*
X141473559Y-95055910D01*
X141328569Y-95268110D01*
X141308582Y-95366810D01*
X141271744Y-95403648D01*
X141179208Y-95141981D01*
X140587602Y-94923812D01*
X139957539Y-94948648D01*
X139490792Y-95141981D01*
X139398255Y-95403650D01*
X137282705Y-95403650D01*
X137072169Y-94895375D01*
X136675467Y-94644138D01*
X134799605Y-96520000D01*
X134440395Y-96520000D01*
X132564533Y-94644138D01*
X132167831Y-94895375D01*
X132028000Y-95236733D01*
X132028000Y-93928000D01*
X133332956Y-93928000D01*
X132995375Y-94067831D01*
X132995375Y-94067831D01*
G37*
X132995375Y-94067831D02*
X132744138Y-94464533D01*
X134620000Y-96340395D01*
X136495862Y-94464533D01*
X136244625Y-94067831D01*
X135903267Y-93928000D01*
X176512956Y-93928000D01*
X176175375Y-94067831D01*
X175924138Y-94464533D01*
X177800000Y-96340395D01*
X179675862Y-94464533D01*
X179424625Y-94067831D01*
X179083267Y-93928000D01*
X180392000Y-93928000D01*
X180392000Y-95232956D01*
X180252169Y-94895375D01*
X179855467Y-94644138D01*
X177979605Y-96520000D01*
X179855467Y-98395862D01*
X180252169Y-98144625D01*
X180392000Y-97803267D01*
X180392000Y-128252956D01*
X180252169Y-127915375D01*
X179855467Y-127664138D01*
X177979605Y-129540000D01*
X179855467Y-131415862D01*
X180252169Y-131164625D01*
X180392000Y-130823267D01*
X180392000Y-132005000D01*
X179393648Y-132005000D01*
X179424625Y-131992169D01*
X179675862Y-131595467D01*
X177800000Y-129719605D01*
X175924138Y-131595467D01*
X176175375Y-131992169D01*
X176206698Y-132005000D01*
X136213648Y-132005000D01*
X136244625Y-131992169D01*
X136495862Y-131595467D01*
X134620000Y-129719605D01*
X132744138Y-131595467D01*
X132995375Y-131992169D01*
X133026698Y-132005000D01*
X132028000Y-132005000D01*
X132028000Y-130827044D01*
X132167831Y-131164625D01*
X132564533Y-131415862D01*
X134440395Y-129540000D01*
X134799605Y-129540000D01*
X136675467Y-131415862D01*
X137072169Y-131164625D01*
X137507227Y-130102554D01*
X137502730Y-128954838D01*
X137072169Y-127915375D01*
X136675467Y-127664138D01*
X134799605Y-129540000D01*
X134440395Y-129540000D01*
X132564533Y-127664138D01*
X132167831Y-127915375D01*
X132028000Y-128256733D01*
X132028000Y-127484533D01*
X132744138Y-127484533D01*
X134620000Y-129360395D01*
X136495862Y-127484533D01*
X136244625Y-127087831D01*
X135182554Y-126652773D01*
X134034838Y-126657270D01*
X132995375Y-127087831D01*
X132744138Y-127484533D01*
X132028000Y-127484533D01*
X132028000Y-122523146D01*
X132507302Y-122694144D01*
X133062368Y-122666362D01*
X133446143Y-122507397D01*
X133515608Y-122265213D01*
X132715000Y-121464605D01*
X132700858Y-121478748D01*
X132521253Y-121299143D01*
X132535395Y-121285000D01*
X132894605Y-121285000D01*
X133695213Y-122085608D01*
X133937397Y-122016143D01*
X134124144Y-121492698D01*
X134096362Y-120937632D01*
X133937397Y-120553857D01*
X133695213Y-120484392D01*
X132894605Y-121285000D01*
X132535395Y-121285000D01*
X132521253Y-121270858D01*
X132700858Y-121091253D01*
X132715000Y-121105395D01*
X133515608Y-120304787D01*
X133446143Y-120062603D01*
X132922698Y-119875856D01*
X132367632Y-119903638D01*
X132028000Y-120044318D01*
X132028000Y-107697398D01*
X138738812Y-107697398D01*
X138763648Y-108327461D01*
X138956981Y-108794208D01*
X139218650Y-108886745D01*
X140155395Y-107950000D01*
X139218650Y-107013255D01*
X138956981Y-107105792D01*
X138738812Y-107697398D01*
X132028000Y-107697398D01*
X132028000Y-106833650D01*
X139398255Y-106833650D01*
X140335000Y-107770395D01*
X140349143Y-107756253D01*
X140528748Y-107935858D01*
X140514605Y-107950000D01*
X140528748Y-107964143D01*
X140349143Y-108143748D01*
X140335000Y-108129605D01*
X139398255Y-109066350D01*
X139490792Y-109328019D01*
X140082398Y-109546188D01*
X140712461Y-109521352D01*
X141179208Y-109328019D01*
X141271744Y-109066352D01*
X141305875Y-109100483D01*
X141321838Y-109185317D01*
X141460910Y-109401441D01*
X141673110Y-109546431D01*
X141925000Y-109597440D01*
X143825000Y-109597440D01*
X144060317Y-109553162D01*
X144215376Y-109453384D01*
X148818113Y-109453384D01*
X148982111Y-109850289D01*
X149285514Y-110154222D01*
X149682132Y-110318913D01*
X150111584Y-110319287D01*
X150508489Y-110155289D01*
X150812422Y-109851886D01*
X150977113Y-109455268D01*
X150977224Y-109327609D01*
X151021333Y-109283500D01*
X154471700Y-109283500D01*
X154473208Y-109283200D01*
X154996992Y-109283200D01*
X154998500Y-109283500D01*
X156435613Y-109283500D01*
X156345197Y-109501244D01*
X156344803Y-109952775D01*
X156514510Y-110363495D01*
X156345197Y-110771244D01*
X156344803Y-111222775D01*
X156514510Y-111633495D01*
X156345197Y-112041244D01*
X156344803Y-112492775D01*
X156514510Y-112903495D01*
X156345197Y-113311244D01*
X156344803Y-113762775D01*
X156514510Y-114173495D01*
X156345197Y-114581244D01*
X156344803Y-115032775D01*
X156514510Y-115443495D01*
X156345197Y-115851244D01*
X156344803Y-116302775D01*
X156514510Y-116713495D01*
X156345197Y-117121244D01*
X156344803Y-117572775D01*
X156517233Y-117990086D01*
X156782375Y-118255691D01*
X154578566Y-120459500D01*
X154184874Y-120459500D01*
X153827370Y-120101371D01*
X153314100Y-119888243D01*
X152758339Y-119887758D01*
X152244697Y-120099990D01*
X151851371Y-120492630D01*
X151638243Y-121005900D01*
X151637758Y-121561661D01*
X151849990Y-122075303D01*
X152242630Y-122468629D01*
X152755900Y-122681757D01*
X153311661Y-122682242D01*
X153825303Y-122470010D01*
X154185441Y-122110500D01*
X154920500Y-122110500D01*
X155236406Y-122047663D01*
X155504217Y-121868717D01*
X158966774Y-118406160D01*
X159057233Y-118625086D01*
X159376235Y-118944645D01*
X159793244Y-119117803D01*
X160244775Y-119118197D01*
X160655495Y-118948490D01*
X160704904Y-118969006D01*
X160685483Y-118981983D01*
X160685481Y-118981986D01*
X158601445Y-121066021D01*
X158272370Y-120736371D01*
X157759100Y-120523243D01*
X157203339Y-120522758D01*
X156689697Y-120734990D01*
X156296371Y-121127630D01*
X156083243Y-121640900D01*
X156082758Y-122196661D01*
X156294990Y-122710303D01*
X156687630Y-123103629D01*
X156828742Y-123162224D01*
X154253983Y-125736983D01*
X154075037Y-126004794D01*
X154034691Y-126207630D01*
X154012200Y-126320700D01*
X154012200Y-129853347D01*
X153923078Y-129942314D01*
X153758387Y-130338932D01*
X153758013Y-130768384D01*
X153922011Y-131165289D01*
X154225414Y-131469222D01*
X154622032Y-131633913D01*
X155051484Y-131634287D01*
X155448389Y-131470289D01*
X155752322Y-131166886D01*
X155799209Y-131053970D01*
X171385635Y-131053970D01*
X171545418Y-131372739D01*
X172336187Y-131682723D01*
X173185387Y-131666497D01*
X173894582Y-131372739D01*
X174054365Y-131053970D01*
X172720000Y-129719605D01*
X171385635Y-131053970D01*
X155799209Y-131053970D01*
X155917013Y-130770268D01*
X155917387Y-130340816D01*
X155753389Y-129943911D01*
X155663200Y-129853564D01*
X155663200Y-127980213D01*
X156679392Y-127980213D01*
X156748857Y-128222397D01*
X157272302Y-128409144D01*
X157827368Y-128381362D01*
X158211143Y-128222397D01*
X158280608Y-127980213D01*
X157480000Y-127179605D01*
X156679392Y-127980213D01*
X155663200Y-127980213D01*
X155663200Y-126792302D01*
X156070856Y-126792302D01*
X156098638Y-127347368D01*
X156257603Y-127731143D01*
X156499787Y-127800608D01*
X157300395Y-127000000D01*
X157659605Y-127000000D01*
X158460213Y-127800608D01*
X158702397Y-127731143D01*
X158864540Y-127276661D01*
X161162758Y-127276661D01*
X161374990Y-127790303D01*
X161767630Y-128183629D01*
X162280900Y-128396757D01*
X162836661Y-128397242D01*
X163350303Y-128185010D01*
X163743629Y-127792370D01*
X163956757Y-127279100D01*
X163957242Y-126723339D01*
X163745010Y-126209697D01*
X163352370Y-125816371D01*
X162839100Y-125603243D01*
X162283339Y-125602758D01*
X161769697Y-125814990D01*
X161376371Y-126207630D01*
X161163243Y-126720900D01*
X161162758Y-127276661D01*
X158864540Y-127276661D01*
X158889144Y-127207698D01*
X158861362Y-126652632D01*
X158702397Y-126268857D01*
X158460213Y-126199392D01*
X157659605Y-127000000D01*
X157300395Y-127000000D01*
X156499787Y-126199392D01*
X156257603Y-126268857D01*
X156070856Y-126792302D01*
X155663200Y-126792302D01*
X155663200Y-126662634D01*
X156306047Y-126019787D01*
X156679392Y-126019787D01*
X157480000Y-126820395D01*
X158280608Y-126019787D01*
X158211143Y-125777603D01*
X157687698Y-125590856D01*
X157132632Y-125618638D01*
X156748857Y-125777603D01*
X156679392Y-126019787D01*
X156306047Y-126019787D01*
X159270617Y-123055217D01*
X159449563Y-122787406D01*
X159507824Y-122494510D01*
X160574988Y-121427345D01*
X160776014Y-121628722D01*
X161163113Y-121789460D01*
X161162758Y-122196661D01*
X161374990Y-122710303D01*
X161767630Y-123103629D01*
X162280900Y-123316757D01*
X162836661Y-123317242D01*
X163350303Y-123105010D01*
X163743629Y-122712370D01*
X163956757Y-122199100D01*
X163957242Y-121643339D01*
X163910163Y-121529400D01*
X167163766Y-121529400D01*
X170092067Y-124457700D01*
X169472000Y-124457700D01*
X169156094Y-124520537D01*
X169048824Y-124592213D01*
X168888283Y-124699483D01*
X168888281Y-124699486D01*
X165152743Y-128435023D01*
X165026816Y-128434913D01*
X164629911Y-128598911D01*
X164325978Y-128902314D01*
X164161287Y-129298932D01*
X164160913Y-129728384D01*
X164324911Y-130125289D01*
X164628314Y-130429222D01*
X165024932Y-130593913D01*
X165454384Y-130594287D01*
X165851289Y-130430289D01*
X166155222Y-130126886D01*
X166319913Y-129730268D01*
X166320024Y-129602610D01*
X166766446Y-129156187D01*
X170577277Y-129156187D01*
X170593503Y-130005387D01*
X170887261Y-130714582D01*
X171206030Y-130874365D01*
X172540395Y-129540000D01*
X172899605Y-129540000D01*
X174233970Y-130874365D01*
X174552739Y-130714582D01*
X174862723Y-129923813D01*
X174846497Y-129074613D01*
X174806250Y-128977446D01*
X174912773Y-128977446D01*
X174917270Y-130125162D01*
X175347831Y-131164625D01*
X175744533Y-131415862D01*
X177620395Y-129540000D01*
X175744533Y-127664138D01*
X175347831Y-127915375D01*
X174912773Y-128977446D01*
X174806250Y-128977446D01*
X174552739Y-128365418D01*
X174233970Y-128205635D01*
X172899605Y-129540000D01*
X172540395Y-129540000D01*
X171206030Y-128205635D01*
X170887261Y-128365418D01*
X170577277Y-129156187D01*
X166766446Y-129156187D01*
X167896603Y-128026030D01*
X171385635Y-128026030D01*
X172720000Y-129360395D01*
X174054365Y-128026030D01*
X173894582Y-127707261D01*
X173326404Y-127484533D01*
X175924138Y-127484533D01*
X177800000Y-129360395D01*
X179675862Y-127484533D01*
X179424625Y-127087831D01*
X178362554Y-126652773D01*
X177214838Y-126657270D01*
X176175375Y-127087831D01*
X175924138Y-127484533D01*
X173326404Y-127484533D01*
X173103813Y-127397277D01*
X172254613Y-127413503D01*
X171545418Y-127707261D01*
X171385635Y-128026030D01*
X167896603Y-128026030D01*
X169813933Y-126108700D01*
X175076600Y-126108700D01*
X175392506Y-126045863D01*
X175660317Y-125866917D01*
X176182184Y-125345050D01*
X176313670Y-125434891D01*
X176565560Y-125485900D01*
X177764440Y-125485900D01*
X177999757Y-125441622D01*
X178215881Y-125302550D01*
X178360871Y-125090350D01*
X178411880Y-124838460D01*
X178411880Y-123639580D01*
X178367602Y-123404263D01*
X178228530Y-123188139D01*
X178227533Y-123187457D01*
X178360871Y-122992310D01*
X178411880Y-122740420D01*
X178411880Y-121541540D01*
X178367602Y-121306223D01*
X178295578Y-121194295D01*
X178315522Y-121174386D01*
X178480213Y-120777768D01*
X178480587Y-120348316D01*
X178316589Y-119951411D01*
X178013186Y-119647478D01*
X177616568Y-119482787D01*
X177187116Y-119482413D01*
X176790211Y-119646411D01*
X176486278Y-119949814D01*
X176321587Y-120346432D01*
X176321213Y-120775884D01*
X176376647Y-120910045D01*
X176372597Y-120930409D01*
X176330243Y-120938378D01*
X176114119Y-121077450D01*
X175969129Y-121289650D01*
X175918120Y-121541540D01*
X175918120Y-122740420D01*
X175962398Y-122975737D01*
X176101470Y-123191861D01*
X176102467Y-123192543D01*
X175969129Y-123387690D01*
X175957317Y-123446018D01*
X175804895Y-123476337D01*
X175537083Y-123655283D01*
X174734666Y-124457700D01*
X173331880Y-124457700D01*
X173331880Y-123639580D01*
X173287602Y-123404263D01*
X173148530Y-123188139D01*
X173147533Y-123187457D01*
X173280871Y-122992310D01*
X173331880Y-122740420D01*
X173331880Y-121541540D01*
X173287602Y-121306223D01*
X173148530Y-121090099D01*
X172936330Y-120945109D01*
X172684440Y-120894100D01*
X171485560Y-120894100D01*
X171414414Y-120907487D01*
X171414487Y-120824016D01*
X171250489Y-120427111D01*
X170947086Y-120123178D01*
X170550468Y-119958487D01*
X170121016Y-119958113D01*
X169724111Y-120122111D01*
X169420178Y-120425514D01*
X169255487Y-120822132D01*
X169255113Y-121251584D01*
X169279262Y-121310028D01*
X168089417Y-120120183D01*
X167821606Y-119941237D01*
X167505700Y-119878400D01*
X165760234Y-119878400D01*
X166520501Y-119118132D01*
X166594775Y-119118197D01*
X167005495Y-118948490D01*
X167413244Y-119117803D01*
X167864775Y-119118197D01*
X168275495Y-118948490D01*
X168683244Y-119117803D01*
X169134775Y-119118197D01*
X169545495Y-118948490D01*
X169953244Y-119117803D01*
X170404775Y-119118197D01*
X170815495Y-118948490D01*
X171223244Y-119117803D01*
X171674775Y-119118197D01*
X172085495Y-118948490D01*
X172493244Y-119117803D01*
X172944775Y-119118197D01*
X173355495Y-118948490D01*
X173763244Y-119117803D01*
X174214775Y-119118197D01*
X174632086Y-118945767D01*
X174951645Y-118626765D01*
X175124803Y-118209756D01*
X175125197Y-117758225D01*
X174952767Y-117340914D01*
X174633765Y-117021355D01*
X174349940Y-116903500D01*
X175485613Y-116903500D01*
X175395197Y-117121244D01*
X175394803Y-117572775D01*
X175567233Y-117990086D01*
X175886235Y-118309645D01*
X176303244Y-118482803D01*
X176754775Y-118483197D01*
X177172086Y-118310767D01*
X177491645Y-117991765D01*
X177664803Y-117574756D01*
X177665197Y-117123225D01*
X177495490Y-116712505D01*
X177664803Y-116304756D01*
X177665197Y-115853225D01*
X177492767Y-115435914D01*
X177452551Y-115395627D01*
X177535217Y-115381352D01*
X177678112Y-114953028D01*
X177646217Y-114502625D01*
X177535217Y-114234648D01*
X177452908Y-114220434D01*
X177491645Y-114181765D01*
X177664803Y-113764756D01*
X177665197Y-113313225D01*
X177495490Y-112902505D01*
X177664803Y-112494756D01*
X177665197Y-112043225D01*
X177495490Y-111632505D01*
X177664803Y-111224756D01*
X177665197Y-110773225D01*
X177495490Y-110362505D01*
X177664803Y-109954756D01*
X177665197Y-109503225D01*
X177495490Y-109092505D01*
X177664803Y-108684756D01*
X177665197Y-108233225D01*
X177495490Y-107822505D01*
X177664803Y-107414756D01*
X177665197Y-106963225D01*
X177495490Y-106552505D01*
X177664803Y-106144756D01*
X177665197Y-105693225D01*
X177495490Y-105282505D01*
X177664803Y-104874756D01*
X177665197Y-104423225D01*
X177495490Y-104012505D01*
X177664803Y-103604756D01*
X177665197Y-103153225D01*
X177492767Y-102735914D01*
X177173765Y-102416355D01*
X176756756Y-102243197D01*
X176305225Y-102242803D01*
X175887914Y-102415233D01*
X175568355Y-102734235D01*
X175395197Y-103151244D01*
X175394803Y-103602775D01*
X175564510Y-104013495D01*
X175395197Y-104421244D01*
X175394803Y-104872775D01*
X175564510Y-105283495D01*
X175395197Y-105691244D01*
X175394803Y-106142775D01*
X175564510Y-106553495D01*
X175395197Y-106961244D01*
X175394803Y-107412775D01*
X175564510Y-107823495D01*
X175395197Y-108231244D01*
X175394803Y-108682775D01*
X175564510Y-109093495D01*
X175395197Y-109501244D01*
X175394803Y-109952775D01*
X175564510Y-110363495D01*
X175395197Y-110771244D01*
X175394803Y-111222775D01*
X175564510Y-111633495D01*
X175395197Y-112041244D01*
X175394803Y-112492775D01*
X175564510Y-112903495D01*
X175395197Y-113311244D01*
X175394803Y-113762775D01*
X175567233Y-114180086D01*
X175607449Y-114220373D01*
X175524783Y-114234648D01*
X175381888Y-114662972D01*
X175413783Y-115113375D01*
X175471411Y-115252500D01*
X160127500Y-115252500D01*
X159811594Y-115315337D01*
X159543783Y-115494283D01*
X158530651Y-116507415D01*
X158614803Y-116304756D01*
X158615197Y-115853225D01*
X158445490Y-115442505D01*
X158614803Y-115034756D01*
X158615197Y-114583225D01*
X158445490Y-114172505D01*
X158614803Y-113764756D01*
X158615197Y-113313225D01*
X158445490Y-112902505D01*
X158614803Y-112494756D01*
X158615197Y-112043225D01*
X158445490Y-111632505D01*
X158614803Y-111224756D01*
X158615197Y-110773225D01*
X158445490Y-110362505D01*
X158614803Y-109954756D01*
X158615197Y-109503225D01*
X158445490Y-109092505D01*
X158614803Y-108684756D01*
X158615197Y-108233225D01*
X158445490Y-107822505D01*
X158614803Y-107414756D01*
X158615197Y-106963225D01*
X158445490Y-106552505D01*
X158614803Y-106144756D01*
X158615197Y-105693225D01*
X158445490Y-105282505D01*
X158614803Y-104874756D01*
X158615197Y-104423225D01*
X158445490Y-104012505D01*
X158614803Y-103604756D01*
X158615197Y-103153225D01*
X158442767Y-102735914D01*
X158123765Y-102416355D01*
X157706756Y-102243197D01*
X157255225Y-102242803D01*
X156837914Y-102415233D01*
X156518355Y-102734235D01*
X156345197Y-103151244D01*
X156344803Y-103602775D01*
X156514510Y-104013495D01*
X156345197Y-104421244D01*
X156344803Y-104872775D01*
X156514510Y-105283495D01*
X156345197Y-105691244D01*
X156344803Y-106142775D01*
X156514510Y-106553495D01*
X156345197Y-106961244D01*
X156344803Y-107412775D01*
X156435592Y-107632500D01*
X154999708Y-107632500D01*
X154998200Y-107632200D01*
X154472000Y-107632200D01*
X154470492Y-107632500D01*
X150679400Y-107632500D01*
X150363494Y-107695337D01*
X150360410Y-107697398D01*
X150095683Y-107874283D01*
X150095681Y-107874286D01*
X149809944Y-108160023D01*
X149684016Y-108159913D01*
X149287111Y-108323911D01*
X148983178Y-108627314D01*
X148818487Y-109023932D01*
X148818113Y-109453384D01*
X144215376Y-109453384D01*
X144276441Y-109414090D01*
X144421431Y-109201890D01*
X144472440Y-108950000D01*
X144472440Y-106950000D01*
X144428162Y-106714683D01*
X144289090Y-106498559D01*
X144076890Y-106353569D01*
X143825000Y-106302560D01*
X141925000Y-106302560D01*
X141689683Y-106346838D01*
X141473559Y-106485910D01*
X141328569Y-106698110D01*
X141308582Y-106796810D01*
X141271744Y-106833648D01*
X141179208Y-106571981D01*
X140587602Y-106353812D01*
X139957539Y-106378648D01*
X139490792Y-106571981D01*
X139398255Y-106833650D01*
X132028000Y-106833650D01*
X132028000Y-101982398D01*
X138738812Y-101982398D01*
X138763648Y-102612461D01*
X138956981Y-103079208D01*
X139218650Y-103171745D01*
X140155395Y-102235000D01*
X139218650Y-101298255D01*
X138956981Y-101390792D01*
X138738812Y-101982398D01*
X132028000Y-101982398D01*
X132028000Y-101118650D01*
X139398255Y-101118650D01*
X140335000Y-102055395D01*
X140349143Y-102041253D01*
X140528748Y-102220858D01*
X140514605Y-102235000D01*
X140528748Y-102249143D01*
X140349143Y-102428748D01*
X140335000Y-102414605D01*
X139398255Y-103351350D01*
X139490792Y-103613019D01*
X140082398Y-103831188D01*
X140712461Y-103806352D01*
X141179208Y-103613019D01*
X141271744Y-103351352D01*
X141305875Y-103385483D01*
X141321838Y-103470317D01*
X141460910Y-103686441D01*
X141673110Y-103831431D01*
X141925000Y-103882440D01*
X143825000Y-103882440D01*
X144060317Y-103838162D01*
X144276441Y-103699090D01*
X144421431Y-103486890D01*
X144472440Y-103235000D01*
X144472440Y-101235000D01*
X144428162Y-100999683D01*
X144289090Y-100783559D01*
X144076890Y-100638569D01*
X143825000Y-100587560D01*
X141925000Y-100587560D01*
X141689683Y-100631838D01*
X141473559Y-100770910D01*
X141328569Y-100983110D01*
X141308582Y-101081810D01*
X141271744Y-101118648D01*
X141179208Y-100856981D01*
X140587602Y-100638812D01*
X139957539Y-100663648D01*
X139490792Y-100856981D01*
X139398255Y-101118650D01*
X132028000Y-101118650D01*
X132028000Y-98575467D01*
X132744138Y-98575467D01*
X132995375Y-98972169D01*
X134057446Y-99407227D01*
X135205162Y-99402730D01*
X136244625Y-98972169D01*
X136495862Y-98575467D01*
X175924138Y-98575467D01*
X176175375Y-98972169D01*
X177237446Y-99407227D01*
X178385162Y-99402730D01*
X179424625Y-98972169D01*
X179675862Y-98575467D01*
X177800000Y-96699605D01*
X175924138Y-98575467D01*
X136495862Y-98575467D01*
X134620000Y-96699605D01*
X132744138Y-98575467D01*
X132028000Y-98575467D01*
X132028000Y-97807044D01*
X132167831Y-98144625D01*
X132564533Y-98395862D01*
X134440395Y-96520000D01*
X134799605Y-96520000D01*
X136675467Y-98395862D01*
X137072169Y-98144625D01*
X137507227Y-97082554D01*
X137504034Y-96267398D01*
X138738812Y-96267398D01*
X138763648Y-96897461D01*
X138956981Y-97364208D01*
X139218650Y-97456745D01*
X140155395Y-96520000D01*
X139218650Y-95583255D01*
X138956981Y-95675792D01*
X138738812Y-96267398D01*
X137504034Y-96267398D01*
X137502730Y-95934838D01*
X137282705Y-95403650D01*
X139398255Y-95403650D01*
X140335000Y-96340395D01*
X140349143Y-96326253D01*
X140528748Y-96505858D01*
X140514605Y-96520000D01*
X140528748Y-96534143D01*
X140349143Y-96713748D01*
X140335000Y-96699605D01*
X139398255Y-97636350D01*
X139490792Y-97898019D01*
X140082398Y-98116188D01*
X140712461Y-98091352D01*
X141179208Y-97898019D01*
X141271744Y-97636352D01*
X141305875Y-97670483D01*
X141321838Y-97755317D01*
X141460910Y-97971441D01*
X141673110Y-98116431D01*
X141925000Y-98167440D01*
X143825000Y-98167440D01*
X144060317Y-98123162D01*
X144276441Y-97984090D01*
X144421431Y-97771890D01*
X144472440Y-97520000D01*
X144472440Y-95957446D01*
X174912773Y-95957446D01*
X174917270Y-97105162D01*
X175347831Y-98144625D01*
X175744533Y-98395862D01*
X177620395Y-96520000D01*
X175744533Y-94644138D01*
X175347831Y-94895375D01*
X174912773Y-95957446D01*
X144472440Y-95957446D01*
X144472440Y-95520000D01*
X144428162Y-95284683D01*
X144289090Y-95068559D01*
X144076890Y-94923569D01*
X143825000Y-94872560D01*
X141925000Y-94872560D01*
X141689683Y-94916838D01*
X141473559Y-95055910D01*
X141328569Y-95268110D01*
X141308582Y-95366810D01*
X141271744Y-95403648D01*
X141179208Y-95141981D01*
X140587602Y-94923812D01*
X139957539Y-94948648D01*
X139490792Y-95141981D01*
X139398255Y-95403650D01*
X137282705Y-95403650D01*
X137072169Y-94895375D01*
X136675467Y-94644138D01*
X134799605Y-96520000D01*
X134440395Y-96520000D01*
X132564533Y-94644138D01*
X132167831Y-94895375D01*
X132028000Y-95236733D01*
X132028000Y-93928000D01*
X133332956Y-93928000D01*
X132995375Y-94067831D01*
G36*
X176602955Y-114673065D02*
X176723748Y-114793858D01*
X176709605Y-114808000D01*
X176723748Y-114822143D01*
X176602827Y-114943063D01*
X176457045Y-114942935D01*
X176336253Y-114822143D01*
X176350395Y-114808000D01*
X176336253Y-114793858D01*
X176457173Y-114672937D01*
X176602955Y-114673065D01*
X176602955Y-114673065D01*
G37*
X176602955Y-114673065D02*
X176723748Y-114793858D01*
X176709605Y-114808000D01*
X176723748Y-114822143D01*
X176602827Y-114943063D01*
X176457045Y-114942935D01*
X176336253Y-114822143D01*
X176350395Y-114808000D01*
X176336253Y-114793858D01*
X176457173Y-114672937D01*
X176602955Y-114673065D01*
M02*
