%TF.GenerationSoftware,KiCad,Pcbnew,4.0.3+e1-6302~38~ubuntu16.04.1-stable*%
%TF.CreationDate,2016-08-30T13:53:10+01:00*%
%TF.ProjectId,igrow-101,6967726F772D3130312E6B696361645F,101*%
%TF.FileFunction,Legend,Bot*%
%FSLAX46Y46*%
G04 Gerber Fmt 4.6, Leading zero omitted, Abs format (unit mm)*
G04 Created by KiCad (PCBNEW 4.0.3+e1-6302~38~ubuntu16.04.1-stable) date Tue Aug 30 13:53:10 2016*
%MOMM*%
%LPD*%
G01*
G04 APERTURE LIST*
%ADD10C,0.100000*%
%ADD11C,0.187500*%
%ADD12C,0.150000*%
G04 APERTURE END LIST*
D10*
D11*
X152696429Y-100276786D02*
X152696429Y-99776786D01*
X152696429Y-99526786D02*
X152732143Y-99562500D01*
X152696429Y-99598214D01*
X152660714Y-99562500D01*
X152696429Y-99526786D01*
X152696429Y-99598214D01*
X151946428Y-99562500D02*
X152017857Y-99526786D01*
X152125000Y-99526786D01*
X152232143Y-99562500D01*
X152303571Y-99633929D01*
X152339286Y-99705357D01*
X152375000Y-99848214D01*
X152375000Y-99955357D01*
X152339286Y-100098214D01*
X152303571Y-100169643D01*
X152232143Y-100241071D01*
X152125000Y-100276786D01*
X152053571Y-100276786D01*
X151946428Y-100241071D01*
X151910714Y-100205357D01*
X151910714Y-99955357D01*
X152053571Y-99955357D01*
X151589286Y-100276786D02*
X151589286Y-99776786D01*
X151589286Y-99919643D02*
X151553571Y-99848214D01*
X151517857Y-99812500D01*
X151446428Y-99776786D01*
X151375000Y-99776786D01*
X151017857Y-100276786D02*
X151089285Y-100241071D01*
X151125000Y-100205357D01*
X151160714Y-100133929D01*
X151160714Y-99919643D01*
X151125000Y-99848214D01*
X151089285Y-99812500D01*
X151017857Y-99776786D01*
X150910714Y-99776786D01*
X150839285Y-99812500D01*
X150803571Y-99848214D01*
X150767857Y-99919643D01*
X150767857Y-100133929D01*
X150803571Y-100205357D01*
X150839285Y-100241071D01*
X150910714Y-100276786D01*
X151017857Y-100276786D01*
X150517857Y-99776786D02*
X150375000Y-100276786D01*
X150232143Y-99919643D01*
X150089286Y-100276786D01*
X149946429Y-99776786D01*
X148696428Y-100276786D02*
X149125000Y-100276786D01*
X148910714Y-100276786D02*
X148910714Y-99526786D01*
X148982143Y-99633929D01*
X149053571Y-99705357D01*
X149125000Y-99741071D01*
X148232142Y-99526786D02*
X148160714Y-99526786D01*
X148089285Y-99562500D01*
X148053571Y-99598214D01*
X148017857Y-99669643D01*
X147982142Y-99812500D01*
X147982142Y-99991071D01*
X148017857Y-100133929D01*
X148053571Y-100205357D01*
X148089285Y-100241071D01*
X148160714Y-100276786D01*
X148232142Y-100276786D01*
X148303571Y-100241071D01*
X148339285Y-100205357D01*
X148375000Y-100133929D01*
X148410714Y-99991071D01*
X148410714Y-99812500D01*
X148375000Y-99669643D01*
X148339285Y-99598214D01*
X148303571Y-99562500D01*
X148232142Y-99526786D01*
X147267856Y-100276786D02*
X147696428Y-100276786D01*
X147482142Y-100276786D02*
X147482142Y-99526786D01*
X147553571Y-99633929D01*
X147624999Y-99705357D01*
X147696428Y-99741071D01*
X152142858Y-101875000D02*
X152178572Y-101839286D01*
X152250001Y-101732143D01*
X152285715Y-101660714D01*
X152321429Y-101553571D01*
X152357144Y-101375000D01*
X152357144Y-101232143D01*
X152321429Y-101053571D01*
X152285715Y-100946429D01*
X152250001Y-100875000D01*
X152178572Y-100767857D01*
X152142858Y-100732143D01*
X151535715Y-101553571D02*
X151607144Y-101589286D01*
X151750001Y-101589286D01*
X151821429Y-101553571D01*
X151857144Y-101517857D01*
X151892858Y-101446429D01*
X151892858Y-101232143D01*
X151857144Y-101160714D01*
X151821429Y-101125000D01*
X151750001Y-101089286D01*
X151607144Y-101089286D01*
X151535715Y-101125000D01*
X151285715Y-101875000D02*
X151250001Y-101839286D01*
X151178572Y-101732143D01*
X151142858Y-101660714D01*
X151107144Y-101553571D01*
X151071429Y-101375000D01*
X151071429Y-101232143D01*
X151107144Y-101053571D01*
X151142858Y-100946429D01*
X151178572Y-100875000D01*
X151250001Y-100767857D01*
X151285715Y-100732143D01*
X150178572Y-100910714D02*
X150142858Y-100875000D01*
X150071429Y-100839286D01*
X149892858Y-100839286D01*
X149821429Y-100875000D01*
X149785715Y-100910714D01*
X149750000Y-100982143D01*
X149750000Y-101053571D01*
X149785715Y-101160714D01*
X150214286Y-101589286D01*
X149750000Y-101589286D01*
X149285714Y-100839286D02*
X149214286Y-100839286D01*
X149142857Y-100875000D01*
X149107143Y-100910714D01*
X149071429Y-100982143D01*
X149035714Y-101125000D01*
X149035714Y-101303571D01*
X149071429Y-101446429D01*
X149107143Y-101517857D01*
X149142857Y-101553571D01*
X149214286Y-101589286D01*
X149285714Y-101589286D01*
X149357143Y-101553571D01*
X149392857Y-101517857D01*
X149428572Y-101446429D01*
X149464286Y-101303571D01*
X149464286Y-101125000D01*
X149428572Y-100982143D01*
X149392857Y-100910714D01*
X149357143Y-100875000D01*
X149285714Y-100839286D01*
X148321428Y-101589286D02*
X148750000Y-101589286D01*
X148535714Y-101589286D02*
X148535714Y-100839286D01*
X148607143Y-100946429D01*
X148678571Y-101017857D01*
X148750000Y-101053571D01*
X147678571Y-100839286D02*
X147821428Y-100839286D01*
X147892857Y-100875000D01*
X147928571Y-100910714D01*
X148000000Y-101017857D01*
X148035714Y-101160714D01*
X148035714Y-101446429D01*
X148000000Y-101517857D01*
X147964285Y-101553571D01*
X147892857Y-101589286D01*
X147750000Y-101589286D01*
X147678571Y-101553571D01*
X147642857Y-101517857D01*
X147607142Y-101446429D01*
X147607142Y-101267857D01*
X147642857Y-101196429D01*
X147678571Y-101160714D01*
X147750000Y-101125000D01*
X147892857Y-101125000D01*
X147964285Y-101160714D01*
X148000000Y-101196429D01*
X148035714Y-101267857D01*
X154267856Y-102687500D02*
X153910713Y-102687500D01*
X154339284Y-102901786D02*
X154089284Y-102151786D01*
X153839284Y-102901786D01*
X153589285Y-102901786D02*
X153589285Y-102401786D01*
X153589285Y-102544643D02*
X153553570Y-102473214D01*
X153517856Y-102437500D01*
X153446427Y-102401786D01*
X153374999Y-102401786D01*
X152803570Y-102401786D02*
X152803570Y-103008929D01*
X152839284Y-103080357D01*
X152874999Y-103116071D01*
X152946427Y-103151786D01*
X153053570Y-103151786D01*
X153124999Y-103116071D01*
X152803570Y-102866071D02*
X152874999Y-102901786D01*
X153017856Y-102901786D01*
X153089284Y-102866071D01*
X153124999Y-102830357D01*
X153160713Y-102758929D01*
X153160713Y-102544643D01*
X153124999Y-102473214D01*
X153089284Y-102437500D01*
X153017856Y-102401786D01*
X152874999Y-102401786D01*
X152803570Y-102437500D01*
X152124999Y-102401786D02*
X152124999Y-102901786D01*
X152446428Y-102401786D02*
X152446428Y-102794643D01*
X152410713Y-102866071D01*
X152339285Y-102901786D01*
X152232142Y-102901786D01*
X152160713Y-102866071D01*
X152124999Y-102830357D01*
X151803571Y-102866071D02*
X151732142Y-102901786D01*
X151589285Y-102901786D01*
X151517857Y-102866071D01*
X151482142Y-102794643D01*
X151482142Y-102758929D01*
X151517857Y-102687500D01*
X151589285Y-102651786D01*
X151696428Y-102651786D01*
X151767857Y-102616071D01*
X151803571Y-102544643D01*
X151803571Y-102508929D01*
X151767857Y-102437500D01*
X151696428Y-102401786D01*
X151589285Y-102401786D01*
X151517857Y-102437500D01*
X150839285Y-102901786D02*
X150839285Y-102508929D01*
X150874999Y-102437500D01*
X150946428Y-102401786D01*
X151089285Y-102401786D01*
X151160714Y-102437500D01*
X150839285Y-102866071D02*
X150910714Y-102901786D01*
X151089285Y-102901786D01*
X151160714Y-102866071D01*
X151196428Y-102794643D01*
X151196428Y-102723214D01*
X151160714Y-102651786D01*
X151089285Y-102616071D01*
X150910714Y-102616071D01*
X150839285Y-102580357D01*
X150589285Y-102401786D02*
X150303571Y-102401786D01*
X150482143Y-102151786D02*
X150482143Y-102794643D01*
X150446428Y-102866071D01*
X150375000Y-102901786D01*
X150303571Y-102901786D01*
X149125000Y-102901786D02*
X149482143Y-102901786D01*
X149482143Y-102151786D01*
X148875000Y-102901786D02*
X148875000Y-102401786D01*
X148875000Y-102151786D02*
X148910714Y-102187500D01*
X148875000Y-102223214D01*
X148839285Y-102187500D01*
X148875000Y-102151786D01*
X148875000Y-102223214D01*
X148517857Y-102901786D02*
X148517857Y-102401786D01*
X148517857Y-102473214D02*
X148482142Y-102437500D01*
X148410714Y-102401786D01*
X148303571Y-102401786D01*
X148232142Y-102437500D01*
X148196428Y-102508929D01*
X148196428Y-102901786D01*
X148196428Y-102508929D02*
X148160714Y-102437500D01*
X148089285Y-102401786D01*
X147982142Y-102401786D01*
X147910714Y-102437500D01*
X147874999Y-102508929D01*
X147874999Y-102901786D01*
X147517857Y-102901786D02*
X147517857Y-102401786D01*
X147517857Y-102151786D02*
X147553571Y-102187500D01*
X147517857Y-102223214D01*
X147482142Y-102187500D01*
X147517857Y-102151786D01*
X147517857Y-102223214D01*
X147267856Y-102401786D02*
X146982142Y-102401786D01*
X147160714Y-102151786D02*
X147160714Y-102794643D01*
X147124999Y-102866071D01*
X147053571Y-102901786D01*
X146982142Y-102901786D01*
X146446428Y-102866071D02*
X146517857Y-102901786D01*
X146660714Y-102901786D01*
X146732143Y-102866071D01*
X146767857Y-102794643D01*
X146767857Y-102508929D01*
X146732143Y-102437500D01*
X146660714Y-102401786D01*
X146517857Y-102401786D01*
X146446428Y-102437500D01*
X146410714Y-102508929D01*
X146410714Y-102580357D01*
X146767857Y-102651786D01*
X145767857Y-102901786D02*
X145767857Y-102151786D01*
X145767857Y-102866071D02*
X145839286Y-102901786D01*
X145982143Y-102901786D01*
X146053571Y-102866071D01*
X146089286Y-102830357D01*
X146125000Y-102758929D01*
X146125000Y-102544643D01*
X146089286Y-102473214D01*
X146053571Y-102437500D01*
X145982143Y-102401786D01*
X145839286Y-102401786D01*
X145767857Y-102437500D01*
D12*
X144089888Y-109474904D02*
G75*
G02X144105000Y-106450000I-2484888J1524904D01*
G01*
X144105000Y-109450000D02*
X144105000Y-106450000D01*
X144122936Y-107950000D02*
G75*
G03X144122936Y-107950000I-2517936J0D01*
G01*
X144089888Y-103759904D02*
G75*
G02X144105000Y-100735000I-2484888J1524904D01*
G01*
X144105000Y-103735000D02*
X144105000Y-100735000D01*
X144122936Y-102235000D02*
G75*
G03X144122936Y-102235000I-2517936J0D01*
G01*
X144089888Y-98044904D02*
G75*
G02X144105000Y-95020000I-2484888J1524904D01*
G01*
X144105000Y-98020000D02*
X144105000Y-95020000D01*
X144122936Y-96520000D02*
G75*
G03X144122936Y-96520000I-2517936J0D01*
G01*
X172835000Y-121590000D02*
X172835000Y-124290000D01*
X171335000Y-121590000D02*
X171335000Y-124290000D01*
X172235000Y-123090000D02*
X171985000Y-123090000D01*
X171985000Y-123090000D02*
X172135000Y-122940000D01*
X171735000Y-122840000D02*
X172435000Y-122840000D01*
X172085000Y-123190000D02*
X172085000Y-123540000D01*
X172085000Y-122840000D02*
X171735000Y-123190000D01*
X171735000Y-123190000D02*
X172435000Y-123190000D01*
X172435000Y-123190000D02*
X172085000Y-122840000D01*
X177915000Y-121590000D02*
X177915000Y-124290000D01*
X176415000Y-121590000D02*
X176415000Y-124290000D01*
X177315000Y-123090000D02*
X177065000Y-123090000D01*
X177065000Y-123090000D02*
X177215000Y-122940000D01*
X176815000Y-122840000D02*
X177515000Y-122840000D01*
X177165000Y-123190000D02*
X177165000Y-123540000D01*
X177165000Y-122840000D02*
X176815000Y-123190000D01*
X176815000Y-123190000D02*
X177515000Y-123190000D01*
X177515000Y-123190000D02*
X177165000Y-122840000D01*
X174730000Y-102230000D02*
X174730000Y-116835000D01*
X174730000Y-116835000D02*
X158220000Y-116835000D01*
X158220000Y-116835000D02*
X158220000Y-102230000D01*
X177270000Y-102230000D02*
X155680000Y-102230000D01*
X155680000Y-93340000D02*
X177270000Y-93340000D01*
X177270000Y-93340000D02*
X177270000Y-119375000D01*
X155680000Y-119375000D02*
X155680000Y-93340000D01*
X177270000Y-119375000D02*
X155680000Y-119375000D01*
X155582051Y-121250000D02*
G75*
G03X155582051Y-121250000I-10337051J0D01*
G01*
X145488095Y-105952381D02*
X145488095Y-104952381D01*
X145250000Y-104952381D01*
X145107142Y-105000000D01*
X145011904Y-105095238D01*
X144964285Y-105190476D01*
X144916666Y-105380952D01*
X144916666Y-105523810D01*
X144964285Y-105714286D01*
X145011904Y-105809524D01*
X145107142Y-105904762D01*
X145250000Y-105952381D01*
X145488095Y-105952381D01*
X144583333Y-104952381D02*
X143964285Y-104952381D01*
X144297619Y-105333333D01*
X144154761Y-105333333D01*
X144059523Y-105380952D01*
X144011904Y-105428571D01*
X143964285Y-105523810D01*
X143964285Y-105761905D01*
X144011904Y-105857143D01*
X144059523Y-105904762D01*
X144154761Y-105952381D01*
X144440476Y-105952381D01*
X144535714Y-105904762D01*
X144583333Y-105857143D01*
X145041905Y-110307381D02*
X145041905Y-109307381D01*
X144470476Y-110307381D02*
X144899048Y-109735952D01*
X144470476Y-109307381D02*
X145041905Y-109878810D01*
X138738095Y-100202381D02*
X138738095Y-99202381D01*
X138500000Y-99202381D01*
X138357142Y-99250000D01*
X138261904Y-99345238D01*
X138214285Y-99440476D01*
X138166666Y-99630952D01*
X138166666Y-99773810D01*
X138214285Y-99964286D01*
X138261904Y-100059524D01*
X138357142Y-100154762D01*
X138500000Y-100202381D01*
X138738095Y-100202381D01*
X137309523Y-99535714D02*
X137309523Y-100202381D01*
X137547619Y-99154762D02*
X137785714Y-99869048D01*
X137166666Y-99869048D01*
X145041905Y-104592381D02*
X145041905Y-103592381D01*
X144470476Y-104592381D02*
X144899048Y-104020952D01*
X144470476Y-103592381D02*
X145041905Y-104163810D01*
X138738095Y-94702381D02*
X138738095Y-93702381D01*
X138500000Y-93702381D01*
X138357142Y-93750000D01*
X138261904Y-93845238D01*
X138214285Y-93940476D01*
X138166666Y-94130952D01*
X138166666Y-94273810D01*
X138214285Y-94464286D01*
X138261904Y-94559524D01*
X138357142Y-94654762D01*
X138500000Y-94702381D01*
X138738095Y-94702381D01*
X137261904Y-93702381D02*
X137738095Y-93702381D01*
X137785714Y-94178571D01*
X137738095Y-94130952D01*
X137642857Y-94083333D01*
X137404761Y-94083333D01*
X137309523Y-94130952D01*
X137261904Y-94178571D01*
X137214285Y-94273810D01*
X137214285Y-94511905D01*
X137261904Y-94607143D01*
X137309523Y-94654762D01*
X137404761Y-94702381D01*
X137642857Y-94702381D01*
X137738095Y-94654762D01*
X137785714Y-94607143D01*
X145041905Y-98877381D02*
X145041905Y-97877381D01*
X144470476Y-98877381D02*
X144899048Y-98305952D01*
X144470476Y-97877381D02*
X145041905Y-98448810D01*
X170787381Y-122451905D02*
X169787381Y-122451905D01*
X169787381Y-122690000D01*
X169835000Y-122832858D01*
X169930238Y-122928096D01*
X170025476Y-122975715D01*
X170215952Y-123023334D01*
X170358810Y-123023334D01*
X170549286Y-122975715D01*
X170644524Y-122928096D01*
X170739762Y-122832858D01*
X170787381Y-122690000D01*
X170787381Y-122451905D01*
X169787381Y-123880477D02*
X169787381Y-123690000D01*
X169835000Y-123594762D01*
X169882619Y-123547143D01*
X170025476Y-123451905D01*
X170215952Y-123404286D01*
X170596905Y-123404286D01*
X170692143Y-123451905D01*
X170739762Y-123499524D01*
X170787381Y-123594762D01*
X170787381Y-123785239D01*
X170739762Y-123880477D01*
X170692143Y-123928096D01*
X170596905Y-123975715D01*
X170358810Y-123975715D01*
X170263571Y-123928096D01*
X170215952Y-123880477D01*
X170168333Y-123785239D01*
X170168333Y-123594762D01*
X170215952Y-123499524D01*
X170263571Y-123451905D01*
X170358810Y-123404286D01*
X175867381Y-122451905D02*
X174867381Y-122451905D01*
X174867381Y-122690000D01*
X174915000Y-122832858D01*
X175010238Y-122928096D01*
X175105476Y-122975715D01*
X175295952Y-123023334D01*
X175438810Y-123023334D01*
X175629286Y-122975715D01*
X175724524Y-122928096D01*
X175819762Y-122832858D01*
X175867381Y-122690000D01*
X175867381Y-122451905D01*
X174867381Y-123356667D02*
X174867381Y-124023334D01*
X175867381Y-123594762D01*
X167617857Y-96963571D02*
X167617857Y-98177857D01*
X167546429Y-98320714D01*
X167475000Y-98392143D01*
X167332143Y-98463571D01*
X167046429Y-98463571D01*
X166903571Y-98392143D01*
X166832143Y-98320714D01*
X166760714Y-98177857D01*
X166760714Y-96963571D01*
X165260714Y-98463571D02*
X166117857Y-98463571D01*
X165689285Y-98463571D02*
X165689285Y-96963571D01*
X165832142Y-97177857D01*
X165975000Y-97320714D01*
X166117857Y-97392143D01*
X177260714Y-115608571D02*
X177260714Y-114108571D01*
X176403571Y-115608571D01*
X176403571Y-114108571D01*
X174832142Y-115608571D02*
X175332142Y-114894286D01*
X175689285Y-115608571D02*
X175689285Y-114108571D01*
X175117857Y-114108571D01*
X174974999Y-114180000D01*
X174903571Y-114251429D01*
X174832142Y-114394286D01*
X174832142Y-114608571D01*
X174903571Y-114751429D01*
X174974999Y-114822857D01*
X175117857Y-114894286D01*
X175689285Y-114894286D01*
X173689285Y-114822857D02*
X174189285Y-114822857D01*
X174189285Y-115608571D02*
X174189285Y-114108571D01*
X173474999Y-114108571D01*
X172189285Y-114108571D02*
X172903571Y-114108571D01*
X172975000Y-114822857D01*
X172903571Y-114751429D01*
X172760714Y-114680000D01*
X172403571Y-114680000D01*
X172260714Y-114751429D01*
X172189285Y-114822857D01*
X172117857Y-114965714D01*
X172117857Y-115322857D01*
X172189285Y-115465714D01*
X172260714Y-115537143D01*
X172403571Y-115608571D01*
X172760714Y-115608571D01*
X172903571Y-115537143D01*
X172975000Y-115465714D01*
X170689286Y-115608571D02*
X171546429Y-115608571D01*
X171117857Y-115608571D02*
X171117857Y-114108571D01*
X171260714Y-114322857D01*
X171403572Y-114465714D01*
X171546429Y-114537143D01*
X169832143Y-114751429D02*
X169975001Y-114680000D01*
X170046429Y-114608571D01*
X170117858Y-114465714D01*
X170117858Y-114394286D01*
X170046429Y-114251429D01*
X169975001Y-114180000D01*
X169832143Y-114108571D01*
X169546429Y-114108571D01*
X169403572Y-114180000D01*
X169332143Y-114251429D01*
X169260715Y-114394286D01*
X169260715Y-114465714D01*
X169332143Y-114608571D01*
X169403572Y-114680000D01*
X169546429Y-114751429D01*
X169832143Y-114751429D01*
X169975001Y-114822857D01*
X170046429Y-114894286D01*
X170117858Y-115037143D01*
X170117858Y-115322857D01*
X170046429Y-115465714D01*
X169975001Y-115537143D01*
X169832143Y-115608571D01*
X169546429Y-115608571D01*
X169403572Y-115537143D01*
X169332143Y-115465714D01*
X169260715Y-115322857D01*
X169260715Y-115037143D01*
X169332143Y-114894286D01*
X169403572Y-114822857D01*
X169546429Y-114751429D01*
X168689287Y-114251429D02*
X168617858Y-114180000D01*
X168475001Y-114108571D01*
X168117858Y-114108571D01*
X167975001Y-114180000D01*
X167903572Y-114251429D01*
X167832144Y-114394286D01*
X167832144Y-114537143D01*
X167903572Y-114751429D01*
X168760715Y-115608571D01*
X167832144Y-115608571D01*
X167260716Y-114251429D02*
X167189287Y-114180000D01*
X167046430Y-114108571D01*
X166689287Y-114108571D01*
X166546430Y-114180000D01*
X166475001Y-114251429D01*
X166403573Y-114394286D01*
X166403573Y-114537143D01*
X166475001Y-114751429D01*
X167332144Y-115608571D01*
X166403573Y-115608571D01*
X165760716Y-115037143D02*
X164617859Y-115037143D01*
X163903573Y-115608571D02*
X163903573Y-114108571D01*
X163403573Y-115180000D01*
X162903573Y-114108571D01*
X162903573Y-115608571D01*
X161903573Y-114108571D02*
X161617859Y-114108571D01*
X161475001Y-114180000D01*
X161332144Y-114322857D01*
X161260716Y-114608571D01*
X161260716Y-115108571D01*
X161332144Y-115394286D01*
X161475001Y-115537143D01*
X161617859Y-115608571D01*
X161903573Y-115608571D01*
X162046430Y-115537143D01*
X162189287Y-115394286D01*
X162260716Y-115108571D01*
X162260716Y-114608571D01*
X162189287Y-114322857D01*
X162046430Y-114180000D01*
X161903573Y-114108571D01*
X160617858Y-115608571D02*
X160617858Y-114108571D01*
X160260715Y-114108571D01*
X160046430Y-114180000D01*
X159903572Y-114322857D01*
X159832144Y-114465714D01*
X159760715Y-114751429D01*
X159760715Y-114965714D01*
X159832144Y-115251429D01*
X159903572Y-115394286D01*
X160046430Y-115537143D01*
X160260715Y-115608571D01*
X160617858Y-115608571D01*
X159117858Y-114108571D02*
X159117858Y-115322857D01*
X159046430Y-115465714D01*
X158975001Y-115537143D01*
X158832144Y-115608571D01*
X158546430Y-115608571D01*
X158403572Y-115537143D01*
X158332144Y-115465714D01*
X158260715Y-115322857D01*
X158260715Y-114108571D01*
X156832143Y-115608571D02*
X157546429Y-115608571D01*
X157546429Y-114108571D01*
X156332143Y-114822857D02*
X155832143Y-114822857D01*
X155617857Y-115608571D02*
X156332143Y-115608571D01*
X156332143Y-114108571D01*
X155617857Y-114108571D01*
X148312857Y-120071429D02*
X148384286Y-120285715D01*
X148455714Y-120357143D01*
X148598571Y-120428572D01*
X148812857Y-120428572D01*
X148955714Y-120357143D01*
X149027143Y-120285715D01*
X149098571Y-120142857D01*
X149098571Y-119571429D01*
X147598571Y-119571429D01*
X147598571Y-120071429D01*
X147670000Y-120214286D01*
X147741429Y-120285715D01*
X147884286Y-120357143D01*
X148027143Y-120357143D01*
X148170000Y-120285715D01*
X148241429Y-120214286D01*
X148312857Y-120071429D01*
X148312857Y-119571429D01*
X147598571Y-120857143D02*
X147598571Y-121714286D01*
X149098571Y-121285715D02*
X147598571Y-121285715D01*
X149098571Y-123000000D02*
X149098571Y-122142857D01*
X149098571Y-122571429D02*
X147598571Y-122571429D01*
X147812857Y-122428572D01*
X147955714Y-122285714D01*
X148027143Y-122142857D01*
M02*
