%TF.GenerationSoftware,KiCad,Pcbnew,4.0.2+e4-6225~38~ubuntu15.10.1-stable*%
%TF.CreationDate,2016-06-09T11:59:05+01:00*%
%TF.ProjectId,igrow-101,6967726F772D3130312E6B696361645F,101*%
%TF.FileFunction,Paste,Top*%
%FSLAX46Y46*%
G04 Gerber Fmt 4.6, Leading zero omitted, Abs format (unit mm)*
G04 Created by KiCad (PCBNEW 4.0.2+e4-6225~38~ubuntu15.10.1-stable) date Thu 09 Jun 2016 11:59:05 BST*
%MOMM*%
G01*
G04 APERTURE LIST*
%ADD10C,0.100000*%
%ADD11R,0.750000X1.200000*%
%ADD12R,3.299460X4.500880*%
%ADD13R,3.299460X4.498340*%
%ADD14R,0.900000X1.200000*%
%ADD15R,1.200000X0.900000*%
%ADD16R,0.400000X0.600000*%
%ADD17R,2.400000X1.500000*%
%ADD18R,1.300000X1.500000*%
%ADD19R,2.400000X0.740000*%
%ADD20R,1.220000X0.910000*%
%ADD21R,0.800100X1.800860*%
%ADD22R,1.800860X0.800100*%
G04 APERTURE END LIST*
D10*
D11*
X149225000Y-99375000D03*
X149225000Y-97475000D03*
D12*
X135255000Y-102915720D03*
D13*
X135255000Y-111714280D03*
D14*
X168910000Y-125900000D03*
X168910000Y-128100000D03*
D15*
X166540000Y-130175000D03*
X168740000Y-130175000D03*
X150665000Y-130175000D03*
X152865000Y-130175000D03*
D14*
X149860000Y-117010000D03*
X149860000Y-119210000D03*
X146685000Y-112225000D03*
X146685000Y-110025000D03*
D15*
X141775000Y-114935000D03*
X143975000Y-114935000D03*
D14*
X146685000Y-106510000D03*
X146685000Y-104310000D03*
X146685000Y-99525000D03*
X146685000Y-97325000D03*
X154305000Y-126195000D03*
X154305000Y-123995000D03*
D15*
X163365000Y-123825000D03*
X165565000Y-123825000D03*
X166540000Y-121285000D03*
X168740000Y-121285000D03*
D16*
X153670000Y-97155000D03*
X152670000Y-97155000D03*
X151670000Y-97155000D03*
X151670000Y-99555000D03*
X152670000Y-99555000D03*
X153670000Y-99555000D03*
D17*
X152670000Y-98355000D03*
D18*
X139446000Y-118284000D03*
X139446000Y-120984000D03*
D19*
X153670000Y-107950000D03*
X149860000Y-107950000D03*
X153670000Y-106680000D03*
X149860000Y-106680000D03*
X153670000Y-105410000D03*
X149860000Y-105410000D03*
X153670000Y-104140000D03*
X149860000Y-104140000D03*
X153670000Y-102870000D03*
X149860000Y-102870000D03*
D20*
X145288000Y-119634000D03*
X145288000Y-122910600D03*
D14*
X179070000Y-115740000D03*
X179070000Y-117940000D03*
D21*
X148910000Y-125961140D03*
X150810000Y-125961140D03*
X149860000Y-122958860D03*
X159070000Y-124056140D03*
X160970000Y-124056140D03*
X160020000Y-121053860D03*
D22*
X159153860Y-129225000D03*
X159153860Y-131125000D03*
X162156140Y-130175000D03*
M02*
