%TF.GenerationSoftware,KiCad,Pcbnew,4.0.2+e4-6225~38~ubuntu15.10.1-stable*%
%TF.CreationDate,2016-06-09T11:59:05+01:00*%
%TF.ProjectId,igrow-101,6967726F772D3130312E6B696361645F,101*%
%TF.FileFunction,Soldermask,Top*%
%FSLAX46Y46*%
G04 Gerber Fmt 4.6, Leading zero omitted, Abs format (unit mm)*
G04 Created by KiCad (PCBNEW 4.0.2+e4-6225~38~ubuntu15.10.1-stable) date Thu 09 Jun 2016 11:59:05 BST*
%MOMM*%
G01*
G04 APERTURE LIST*
%ADD10C,0.100000*%
%ADD11R,1.150000X1.600000*%
%ADD12R,3.699460X4.900880*%
%ADD13R,3.699460X4.898340*%
%ADD14R,1.300000X1.600000*%
%ADD15R,1.600000X1.300000*%
%ADD16C,1.924000*%
%ADD17C,1.400000*%
%ADD18R,0.800000X1.000000*%
%ADD19R,2.800000X1.900000*%
%ADD20R,1.700000X1.900000*%
%ADD21R,2.800000X1.140000*%
%ADD22R,1.620000X1.310000*%
%ADD23R,2.300000X2.400000*%
%ADD24C,2.300000*%
%ADD25C,4.900000*%
%ADD26R,1.200100X2.200860*%
%ADD27R,2.200860X1.200100*%
%ADD28C,3.400000*%
G04 APERTURE END LIST*
D10*
D11*
X149225000Y-99375000D03*
X149225000Y-97475000D03*
D12*
X135255000Y-102915720D03*
D13*
X135255000Y-111714280D03*
D14*
X168910000Y-125900000D03*
X168910000Y-128100000D03*
D15*
X166540000Y-130175000D03*
X168740000Y-130175000D03*
X150665000Y-130175000D03*
X152865000Y-130175000D03*
D14*
X149860000Y-117010000D03*
X149860000Y-119210000D03*
X146685000Y-112225000D03*
X146685000Y-110025000D03*
D15*
X141775000Y-114935000D03*
X143975000Y-114935000D03*
D14*
X146685000Y-106510000D03*
X146685000Y-104310000D03*
X146685000Y-99525000D03*
X146685000Y-97325000D03*
X154305000Y-126195000D03*
X154305000Y-123995000D03*
D15*
X163365000Y-123825000D03*
X165565000Y-123825000D03*
X166540000Y-121285000D03*
X168740000Y-121285000D03*
D16*
X162560000Y-127000000D03*
X157480000Y-127000000D03*
X157480000Y-121920000D03*
X162560000Y-121920000D03*
D17*
X176530000Y-103378000D03*
X176530000Y-104648000D03*
X176530000Y-105918000D03*
X176530000Y-107188000D03*
X176530000Y-108458000D03*
X176530000Y-109728000D03*
X176530000Y-110998000D03*
X176530000Y-112268000D03*
X176530000Y-113538000D03*
X176530000Y-114808000D03*
X176530000Y-116078000D03*
X176530000Y-117348000D03*
X173990000Y-117983000D03*
X172720000Y-117983000D03*
X171450000Y-117983000D03*
X170180000Y-117983000D03*
X168910000Y-117983000D03*
X167640000Y-117983000D03*
X166370000Y-117983000D03*
X165100000Y-117983000D03*
X163830000Y-117983000D03*
X162560000Y-117983000D03*
X161290000Y-117983000D03*
X160020000Y-117983000D03*
X157480000Y-117348000D03*
X157480000Y-116078000D03*
X157480000Y-114808000D03*
X157480000Y-113538000D03*
X157480000Y-112268000D03*
X157480000Y-110998000D03*
X157480000Y-109728000D03*
X157480000Y-108458000D03*
X157480000Y-107188000D03*
X157480000Y-105918000D03*
X157480000Y-104648000D03*
X157480000Y-103378000D03*
D18*
X153670000Y-97155000D03*
X152670000Y-97155000D03*
X151670000Y-97155000D03*
X151670000Y-99555000D03*
X152670000Y-99555000D03*
X153670000Y-99555000D03*
D19*
X152670000Y-98355000D03*
D16*
X153035000Y-121285000D03*
X132715000Y-121285000D03*
D20*
X139446000Y-118284000D03*
X139446000Y-120984000D03*
D21*
X153670000Y-107950000D03*
X149860000Y-107950000D03*
X153670000Y-106680000D03*
X149860000Y-106680000D03*
X153670000Y-105410000D03*
X149860000Y-105410000D03*
X153670000Y-104140000D03*
X149860000Y-104140000D03*
X153670000Y-102870000D03*
X149860000Y-102870000D03*
D22*
X145288000Y-119634000D03*
X145288000Y-122910600D03*
D23*
X142875000Y-107950000D03*
D24*
X140335000Y-107950000D03*
D23*
X142875000Y-102235000D03*
D24*
X140335000Y-102235000D03*
D23*
X142875000Y-96520000D03*
D24*
X140335000Y-96520000D03*
D14*
X179070000Y-115740000D03*
X179070000Y-117940000D03*
D25*
X134620000Y-96520000D03*
X134620000Y-129540000D03*
X177800000Y-129540000D03*
X177800000Y-96520000D03*
D26*
X148910000Y-125961140D03*
X150810000Y-125961140D03*
X149860000Y-122958860D03*
X159070000Y-124056140D03*
X160970000Y-124056140D03*
X160020000Y-121053860D03*
D27*
X159153860Y-129225000D03*
X159153860Y-131125000D03*
X162156140Y-130175000D03*
D28*
X172720000Y-129540000D03*
M02*
