%FSLAX45Y45*%
G04 Gerber Fmt 4.5, Leading zero omitted, Abs format (unit mm)*
G04 Created by KiCad (PCBNEW 4.0.3+e1-6302~38~ubuntu16.04.1-stable) date Tue Aug 30 13:58:22 2016*
%MOMM*%
%LPD*%
G01*
G04 APERTURE LIST*
%ADD10C,0.127000*%
%ADD11C,0.150000*%
%ADD12C,0.200000*%
%ADD13C,0.300000*%
G04 APERTURE END LIST*
D10*
D11*
X18110200Y-13271500D02*
X13131800Y-13271500D01*
X18110200Y-9321800D02*
X18110200Y-13271500D01*
X13131800Y-9321800D02*
X18110200Y-9321800D01*
X13131800Y-13271500D02*
X13131800Y-9321800D01*
D12*
X14465710Y-9865060D02*
X14529210Y-9928560D01*
X14529210Y-9865060D02*
X14465710Y-9928560D01*
X15447540Y-9943750D02*
X15511040Y-10007250D01*
X15511040Y-9943750D02*
X15447540Y-10007250D01*
X15452020Y-13023710D02*
X15515520Y-13087210D01*
X15515520Y-13023710D02*
X15452020Y-13087210D01*
X15482270Y-9667430D02*
X15545770Y-9730930D01*
X15545770Y-9667430D02*
X15482270Y-9730930D01*
X15755630Y-11920580D02*
X15819130Y-11984080D01*
X15819130Y-11920580D02*
X15755630Y-11984080D01*
X16139810Y-12037230D02*
X16203310Y-12100730D01*
X16203310Y-12037230D02*
X16139810Y-12100730D01*
X16490290Y-12937650D02*
X16553790Y-13001150D01*
X16553790Y-12937650D02*
X16490290Y-13001150D01*
X16576960Y-12708690D02*
X16640460Y-12772190D01*
X16640460Y-12708690D02*
X16576960Y-12772190D01*
X17030230Y-12124640D02*
X17093730Y-12188140D01*
X17093730Y-12124640D02*
X17030230Y-12188140D01*
X17735370Y-11811370D02*
X17798870Y-11874870D01*
X17798870Y-11811370D02*
X17735370Y-11874870D01*
X15727500Y-10350000D02*
G75*
G03X15727500Y-10350000I-32500J0D01*
G01*
X15727500Y-10477000D02*
G75*
G03X15727500Y-10477000I-32500J0D01*
G01*
X15727500Y-10604000D02*
G75*
G03X15727500Y-10604000I-32500J0D01*
G01*
X15727500Y-10731000D02*
G75*
G03X15727500Y-10731000I-32500J0D01*
G01*
X15727500Y-10858000D02*
G75*
G03X15727500Y-10858000I-32500J0D01*
G01*
X15727500Y-10985000D02*
G75*
G03X15727500Y-10985000I-32500J0D01*
G01*
X15727500Y-11112000D02*
G75*
G03X15727500Y-11112000I-32500J0D01*
G01*
X15727500Y-11239000D02*
G75*
G03X15727500Y-11239000I-32500J0D01*
G01*
X15727500Y-11366000D02*
G75*
G03X15727500Y-11366000I-32500J0D01*
G01*
X15727500Y-11493000D02*
G75*
G03X15727500Y-11493000I-32500J0D01*
G01*
X15727500Y-11620000D02*
G75*
G03X15727500Y-11620000I-32500J0D01*
G01*
X15727500Y-11747000D02*
G75*
G03X15727500Y-11747000I-32500J0D01*
G01*
X15981500Y-11810500D02*
G75*
G03X15981500Y-11810500I-32500J0D01*
G01*
X16108500Y-11810500D02*
G75*
G03X16108500Y-11810500I-32500J0D01*
G01*
X16235500Y-11810500D02*
G75*
G03X16235500Y-11810500I-32500J0D01*
G01*
X16362500Y-11810500D02*
G75*
G03X16362500Y-11810500I-32500J0D01*
G01*
X16489500Y-11810500D02*
G75*
G03X16489500Y-11810500I-32500J0D01*
G01*
X16616500Y-11810500D02*
G75*
G03X16616500Y-11810500I-32500J0D01*
G01*
X16743500Y-11810500D02*
G75*
G03X16743500Y-11810500I-32500J0D01*
G01*
X16870500Y-11810500D02*
G75*
G03X16870500Y-11810500I-32500J0D01*
G01*
X16997500Y-11810500D02*
G75*
G03X16997500Y-11810500I-32500J0D01*
G01*
X17124500Y-11810500D02*
G75*
G03X17124500Y-11810500I-32500J0D01*
G01*
X17251500Y-11810500D02*
G75*
G03X17251500Y-11810500I-32500J0D01*
G01*
X17378500Y-11810500D02*
G75*
G03X17378500Y-11810500I-32500J0D01*
G01*
X17632500Y-10350000D02*
G75*
G03X17632500Y-10350000I-32500J0D01*
G01*
X17632500Y-10477000D02*
G75*
G03X17632500Y-10477000I-32500J0D01*
G01*
X17632500Y-10604000D02*
G75*
G03X17632500Y-10604000I-32500J0D01*
G01*
X17632500Y-10731000D02*
G75*
G03X17632500Y-10731000I-32500J0D01*
G01*
X17632500Y-10858000D02*
G75*
G03X17632500Y-10858000I-32500J0D01*
G01*
X17632500Y-10985000D02*
G75*
G03X17632500Y-10985000I-32500J0D01*
G01*
X17632500Y-11112000D02*
G75*
G03X17632500Y-11112000I-32500J0D01*
G01*
X17632500Y-11239000D02*
G75*
G03X17632500Y-11239000I-32500J0D01*
G01*
X17632500Y-11366000D02*
G75*
G03X17632500Y-11366000I-32500J0D01*
G01*
X17632500Y-11493000D02*
G75*
G03X17632500Y-11493000I-32500J0D01*
G01*
X17632500Y-11620000D02*
G75*
G03X17632500Y-11620000I-32500J0D01*
G01*
X17632500Y-11747000D02*
G75*
G03X17632500Y-11747000I-32500J0D01*
G01*
X15748000Y-12153900D02*
X15748000Y-12230100D01*
X15709900Y-12192000D02*
X15786100Y-12192000D01*
X15748000Y-12661900D02*
X15748000Y-12738100D01*
X15709900Y-12700000D02*
X15786100Y-12700000D01*
X16256000Y-12153900D02*
X16256000Y-12230100D01*
X16217900Y-12192000D02*
X16294100Y-12192000D01*
X16256000Y-12661900D02*
X16256000Y-12738100D01*
X16217900Y-12700000D02*
X16294100Y-12700000D01*
X14068882Y-9687383D02*
X14068882Y-9616618D01*
X13998117Y-9616618D01*
X13998117Y-9687383D01*
X14068882Y-9687383D01*
X14068882Y-10258883D02*
X14068882Y-10188118D01*
X13998117Y-10188118D01*
X13998117Y-10258883D01*
X14068882Y-10258883D01*
X14068882Y-10830383D02*
X14068882Y-10759618D01*
X13998117Y-10759618D01*
X13998117Y-10830383D01*
X14068882Y-10830383D01*
X14322882Y-9687383D02*
X14322882Y-9616618D01*
X14252117Y-9616618D01*
X14252117Y-9687383D01*
X14322882Y-9687383D01*
X14322882Y-10258883D02*
X14322882Y-10188118D01*
X14252117Y-10188118D01*
X14252117Y-10258883D01*
X14322882Y-10258883D01*
X14322882Y-10830383D02*
X14322882Y-10759618D01*
X14252117Y-10759618D01*
X14252117Y-10830383D01*
X14322882Y-10830383D01*
X13318000Y-12180000D02*
X13373000Y-12125000D01*
X13318000Y-12070000D01*
X13263000Y-12125000D01*
X13318000Y-12180000D01*
X15350000Y-12180000D02*
X15405000Y-12125000D01*
X15350000Y-12070000D01*
X15295000Y-12125000D01*
X15350000Y-12180000D01*
X17197000Y-12879000D02*
X17347000Y-13029000D01*
X17347000Y-12879000D02*
X17197000Y-13029000D01*
X17347000Y-12954000D02*
G75*
G03X17347000Y-12954000I-75000J0D01*
G01*
X13307000Y-9497000D02*
X13617000Y-9807000D01*
X13617000Y-9497000D02*
X13307000Y-9807000D01*
X13462000Y-9497000D02*
X13462000Y-9807000D01*
X13307000Y-9652000D02*
X13617000Y-9652000D01*
X13307000Y-12799000D02*
X13617000Y-13109000D01*
X13617000Y-12799000D02*
X13307000Y-13109000D01*
X13462000Y-12799000D02*
X13462000Y-13109000D01*
X13307000Y-12954000D02*
X13617000Y-12954000D01*
X17625000Y-9497000D02*
X17935000Y-9807000D01*
X17935000Y-9497000D02*
X17625000Y-9807000D01*
X17780000Y-9497000D02*
X17780000Y-9807000D01*
X17625000Y-9652000D02*
X17935000Y-9652000D01*
X17625000Y-12799000D02*
X17935000Y-13109000D01*
X17935000Y-12799000D02*
X17625000Y-13109000D01*
X17780000Y-12799000D02*
X17780000Y-13109000D01*
X17625000Y-12954000D02*
X17935000Y-12954000D01*
D13*
X13395728Y-13744714D02*
X13395728Y-13444714D01*
X13467157Y-13444714D01*
X13510014Y-13459000D01*
X13538586Y-13487571D01*
X13552871Y-13516143D01*
X13567157Y-13573286D01*
X13567157Y-13616143D01*
X13552871Y-13673286D01*
X13538586Y-13701857D01*
X13510014Y-13730429D01*
X13467157Y-13744714D01*
X13395728Y-13744714D01*
X13695728Y-13744714D02*
X13695728Y-13544714D01*
X13695728Y-13601857D02*
X13710014Y-13573286D01*
X13724300Y-13559000D01*
X13752871Y-13544714D01*
X13781443Y-13544714D01*
X13881443Y-13744714D02*
X13881443Y-13544714D01*
X13881443Y-13444714D02*
X13867157Y-13459000D01*
X13881443Y-13473286D01*
X13895728Y-13459000D01*
X13881443Y-13444714D01*
X13881443Y-13473286D01*
X14067157Y-13744714D02*
X14038586Y-13730429D01*
X14024300Y-13701857D01*
X14024300Y-13444714D01*
X14224300Y-13744714D02*
X14195728Y-13730429D01*
X14181443Y-13701857D01*
X14181443Y-13444714D01*
X14567157Y-13744714D02*
X14567157Y-13444714D01*
X14667157Y-13659000D01*
X14767157Y-13444714D01*
X14767157Y-13744714D01*
X15038586Y-13744714D02*
X15038586Y-13587571D01*
X15024300Y-13559000D01*
X14995728Y-13544714D01*
X14938586Y-13544714D01*
X14910014Y-13559000D01*
X15038586Y-13730429D02*
X15010014Y-13744714D01*
X14938586Y-13744714D01*
X14910014Y-13730429D01*
X14895728Y-13701857D01*
X14895728Y-13673286D01*
X14910014Y-13644714D01*
X14938586Y-13630429D01*
X15010014Y-13630429D01*
X15038586Y-13616143D01*
X15181443Y-13544714D02*
X15181443Y-13844714D01*
X15181443Y-13559000D02*
X15210014Y-13544714D01*
X15267157Y-13544714D01*
X15295728Y-13559000D01*
X15310014Y-13573286D01*
X15324300Y-13601857D01*
X15324300Y-13687571D01*
X15310014Y-13716143D01*
X15295728Y-13730429D01*
X15267157Y-13744714D01*
X15210014Y-13744714D01*
X15181443Y-13730429D01*
X15452871Y-13716143D02*
X15467157Y-13730429D01*
X15452871Y-13744714D01*
X15438586Y-13730429D01*
X15452871Y-13716143D01*
X15452871Y-13744714D01*
X15452871Y-13559000D02*
X15467157Y-13573286D01*
X15452871Y-13587571D01*
X15438586Y-13573286D01*
X15452871Y-13559000D01*
X15452871Y-13587571D01*
X13060800Y-14207250D02*
X13124300Y-14270750D01*
X13124300Y-14207250D02*
X13060800Y-14270750D01*
X13452871Y-14074714D02*
X13481443Y-14074714D01*
X13510014Y-14089000D01*
X13524300Y-14103286D01*
X13538586Y-14131857D01*
X13552871Y-14189000D01*
X13552871Y-14260429D01*
X13538586Y-14317571D01*
X13524300Y-14346143D01*
X13510014Y-14360429D01*
X13481443Y-14374714D01*
X13452871Y-14374714D01*
X13424300Y-14360429D01*
X13410014Y-14346143D01*
X13395728Y-14317571D01*
X13381443Y-14260429D01*
X13381443Y-14189000D01*
X13395728Y-14131857D01*
X13410014Y-14103286D01*
X13424300Y-14089000D01*
X13452871Y-14074714D01*
X13681443Y-14346143D02*
X13695728Y-14360429D01*
X13681443Y-14374714D01*
X13667157Y-14360429D01*
X13681443Y-14346143D01*
X13681443Y-14374714D01*
X13952871Y-14074714D02*
X13895728Y-14074714D01*
X13867157Y-14089000D01*
X13852871Y-14103286D01*
X13824300Y-14146143D01*
X13810014Y-14203286D01*
X13810014Y-14317571D01*
X13824300Y-14346143D01*
X13838586Y-14360429D01*
X13867157Y-14374714D01*
X13924300Y-14374714D01*
X13952871Y-14360429D01*
X13967157Y-14346143D01*
X13981443Y-14317571D01*
X13981443Y-14246143D01*
X13967157Y-14217571D01*
X13952871Y-14203286D01*
X13924300Y-14189000D01*
X13867157Y-14189000D01*
X13838586Y-14203286D01*
X13824300Y-14217571D01*
X13810014Y-14246143D01*
X14238586Y-14174714D02*
X14238586Y-14374714D01*
X14167157Y-14060429D02*
X14095728Y-14274714D01*
X14281443Y-14274714D01*
X14395728Y-14374714D02*
X14395728Y-14174714D01*
X14395728Y-14203286D02*
X14410014Y-14189000D01*
X14438586Y-14174714D01*
X14481443Y-14174714D01*
X14510014Y-14189000D01*
X14524300Y-14217571D01*
X14524300Y-14374714D01*
X14524300Y-14217571D02*
X14538586Y-14189000D01*
X14567157Y-14174714D01*
X14610014Y-14174714D01*
X14638586Y-14189000D01*
X14652871Y-14217571D01*
X14652871Y-14374714D01*
X14795728Y-14374714D02*
X14795728Y-14174714D01*
X14795728Y-14203286D02*
X14810014Y-14189000D01*
X14838586Y-14174714D01*
X14881443Y-14174714D01*
X14910014Y-14189000D01*
X14924300Y-14217571D01*
X14924300Y-14374714D01*
X14924300Y-14217571D02*
X14938586Y-14189000D01*
X14967157Y-14174714D01*
X15010014Y-14174714D01*
X15038586Y-14189000D01*
X15052871Y-14217571D01*
X15052871Y-14374714D01*
X15638586Y-14060429D02*
X15381443Y-14446143D01*
X16024300Y-14074714D02*
X16052871Y-14074714D01*
X16081443Y-14089000D01*
X16095728Y-14103286D01*
X16110014Y-14131857D01*
X16124300Y-14189000D01*
X16124300Y-14260429D01*
X16110014Y-14317571D01*
X16095728Y-14346143D01*
X16081443Y-14360429D01*
X16052871Y-14374714D01*
X16024300Y-14374714D01*
X15995728Y-14360429D01*
X15981443Y-14346143D01*
X15967157Y-14317571D01*
X15952871Y-14260429D01*
X15952871Y-14189000D01*
X15967157Y-14131857D01*
X15981443Y-14103286D01*
X15995728Y-14089000D01*
X16024300Y-14074714D01*
X16252871Y-14346143D02*
X16267157Y-14360429D01*
X16252871Y-14374714D01*
X16238586Y-14360429D01*
X16252871Y-14346143D01*
X16252871Y-14374714D01*
X16452871Y-14074714D02*
X16481443Y-14074714D01*
X16510014Y-14089000D01*
X16524300Y-14103286D01*
X16538585Y-14131857D01*
X16552871Y-14189000D01*
X16552871Y-14260429D01*
X16538585Y-14317571D01*
X16524300Y-14346143D01*
X16510014Y-14360429D01*
X16481443Y-14374714D01*
X16452871Y-14374714D01*
X16424300Y-14360429D01*
X16410014Y-14346143D01*
X16395728Y-14317571D01*
X16381443Y-14260429D01*
X16381443Y-14189000D01*
X16395728Y-14131857D01*
X16410014Y-14103286D01*
X16424300Y-14089000D01*
X16452871Y-14074714D01*
X16667157Y-14103286D02*
X16681443Y-14089000D01*
X16710014Y-14074714D01*
X16781443Y-14074714D01*
X16810014Y-14089000D01*
X16824300Y-14103286D01*
X16838586Y-14131857D01*
X16838586Y-14160429D01*
X16824300Y-14203286D01*
X16652871Y-14374714D01*
X16838586Y-14374714D01*
X17110014Y-14074714D02*
X16967157Y-14074714D01*
X16952871Y-14217571D01*
X16967157Y-14203286D01*
X16995728Y-14189000D01*
X17067157Y-14189000D01*
X17095728Y-14203286D01*
X17110014Y-14217571D01*
X17124300Y-14246143D01*
X17124300Y-14317571D01*
X17110014Y-14346143D01*
X17095728Y-14360429D01*
X17067157Y-14374714D01*
X16995728Y-14374714D01*
X16967157Y-14360429D01*
X16952871Y-14346143D01*
X17238586Y-14074714D02*
X17238586Y-14131857D01*
X17352871Y-14074714D02*
X17352871Y-14131857D01*
X17795728Y-14489000D02*
X17781443Y-14474714D01*
X17752871Y-14431857D01*
X17738586Y-14403286D01*
X17724300Y-14360429D01*
X17710014Y-14289000D01*
X17710014Y-14231857D01*
X17724300Y-14160429D01*
X17738586Y-14117571D01*
X17752871Y-14089000D01*
X17781443Y-14046143D01*
X17795728Y-14031857D01*
X18067157Y-14374714D02*
X17895728Y-14374714D01*
X17981443Y-14374714D02*
X17981443Y-14074714D01*
X17952871Y-14117571D01*
X17924300Y-14146143D01*
X17895728Y-14160429D01*
X18252871Y-14074714D02*
X18281443Y-14074714D01*
X18310014Y-14089000D01*
X18324300Y-14103286D01*
X18338586Y-14131857D01*
X18352871Y-14189000D01*
X18352871Y-14260429D01*
X18338586Y-14317571D01*
X18324300Y-14346143D01*
X18310014Y-14360429D01*
X18281443Y-14374714D01*
X18252871Y-14374714D01*
X18224300Y-14360429D01*
X18210014Y-14346143D01*
X18195728Y-14317571D01*
X18181443Y-14260429D01*
X18181443Y-14189000D01*
X18195728Y-14131857D01*
X18210014Y-14103286D01*
X18224300Y-14089000D01*
X18252871Y-14074714D01*
X18710014Y-14374714D02*
X18710014Y-14074714D01*
X18838586Y-14374714D02*
X18838586Y-14217571D01*
X18824300Y-14189000D01*
X18795728Y-14174714D01*
X18752871Y-14174714D01*
X18724300Y-14189000D01*
X18710014Y-14203286D01*
X19024300Y-14374714D02*
X18995728Y-14360429D01*
X18981443Y-14346143D01*
X18967157Y-14317571D01*
X18967157Y-14231857D01*
X18981443Y-14203286D01*
X18995728Y-14189000D01*
X19024300Y-14174714D01*
X19067157Y-14174714D01*
X19095728Y-14189000D01*
X19110014Y-14203286D01*
X19124300Y-14231857D01*
X19124300Y-14317571D01*
X19110014Y-14346143D01*
X19095728Y-14360429D01*
X19067157Y-14374714D01*
X19024300Y-14374714D01*
X19295728Y-14374714D02*
X19267157Y-14360429D01*
X19252871Y-14331857D01*
X19252871Y-14074714D01*
X19524300Y-14360429D02*
X19495729Y-14374714D01*
X19438586Y-14374714D01*
X19410014Y-14360429D01*
X19395729Y-14331857D01*
X19395729Y-14217571D01*
X19410014Y-14189000D01*
X19438586Y-14174714D01*
X19495729Y-14174714D01*
X19524300Y-14189000D01*
X19538586Y-14217571D01*
X19538586Y-14246143D01*
X19395729Y-14274714D01*
X19652871Y-14360429D02*
X19681443Y-14374714D01*
X19738586Y-14374714D01*
X19767157Y-14360429D01*
X19781443Y-14331857D01*
X19781443Y-14317571D01*
X19767157Y-14289000D01*
X19738586Y-14274714D01*
X19695729Y-14274714D01*
X19667157Y-14260429D01*
X19652871Y-14231857D01*
X19652871Y-14217571D01*
X19667157Y-14189000D01*
X19695729Y-14174714D01*
X19738586Y-14174714D01*
X19767157Y-14189000D01*
X19881443Y-14489000D02*
X19895729Y-14474714D01*
X19924300Y-14431857D01*
X19938586Y-14403286D01*
X19952871Y-14360429D01*
X19967157Y-14289000D01*
X19967157Y-14231857D01*
X19952871Y-14160429D01*
X19938586Y-14117571D01*
X19924300Y-14089000D01*
X19895729Y-14046143D01*
X19881443Y-14031857D01*
X13124300Y-14635000D02*
G75*
G03X13124300Y-14635000I-32500J0D01*
G01*
X13452871Y-14470714D02*
X13481443Y-14470714D01*
X13510014Y-14485000D01*
X13524300Y-14499286D01*
X13538586Y-14527857D01*
X13552871Y-14585000D01*
X13552871Y-14656429D01*
X13538586Y-14713571D01*
X13524300Y-14742143D01*
X13510014Y-14756429D01*
X13481443Y-14770714D01*
X13452871Y-14770714D01*
X13424300Y-14756429D01*
X13410014Y-14742143D01*
X13395728Y-14713571D01*
X13381443Y-14656429D01*
X13381443Y-14585000D01*
X13395728Y-14527857D01*
X13410014Y-14499286D01*
X13424300Y-14485000D01*
X13452871Y-14470714D01*
X13681443Y-14742143D02*
X13695728Y-14756429D01*
X13681443Y-14770714D01*
X13667157Y-14756429D01*
X13681443Y-14742143D01*
X13681443Y-14770714D01*
X13952871Y-14470714D02*
X13895728Y-14470714D01*
X13867157Y-14485000D01*
X13852871Y-14499286D01*
X13824300Y-14542143D01*
X13810014Y-14599286D01*
X13810014Y-14713571D01*
X13824300Y-14742143D01*
X13838586Y-14756429D01*
X13867157Y-14770714D01*
X13924300Y-14770714D01*
X13952871Y-14756429D01*
X13967157Y-14742143D01*
X13981443Y-14713571D01*
X13981443Y-14642143D01*
X13967157Y-14613571D01*
X13952871Y-14599286D01*
X13924300Y-14585000D01*
X13867157Y-14585000D01*
X13838586Y-14599286D01*
X13824300Y-14613571D01*
X13810014Y-14642143D01*
X14252871Y-14470714D02*
X14110014Y-14470714D01*
X14095728Y-14613571D01*
X14110014Y-14599286D01*
X14138586Y-14585000D01*
X14210014Y-14585000D01*
X14238586Y-14599286D01*
X14252871Y-14613571D01*
X14267157Y-14642143D01*
X14267157Y-14713571D01*
X14252871Y-14742143D01*
X14238586Y-14756429D01*
X14210014Y-14770714D01*
X14138586Y-14770714D01*
X14110014Y-14756429D01*
X14095728Y-14742143D01*
X14395728Y-14770714D02*
X14395728Y-14570714D01*
X14395728Y-14599286D02*
X14410014Y-14585000D01*
X14438586Y-14570714D01*
X14481443Y-14570714D01*
X14510014Y-14585000D01*
X14524300Y-14613571D01*
X14524300Y-14770714D01*
X14524300Y-14613571D02*
X14538586Y-14585000D01*
X14567157Y-14570714D01*
X14610014Y-14570714D01*
X14638586Y-14585000D01*
X14652871Y-14613571D01*
X14652871Y-14770714D01*
X14795728Y-14770714D02*
X14795728Y-14570714D01*
X14795728Y-14599286D02*
X14810014Y-14585000D01*
X14838586Y-14570714D01*
X14881443Y-14570714D01*
X14910014Y-14585000D01*
X14924300Y-14613571D01*
X14924300Y-14770714D01*
X14924300Y-14613571D02*
X14938586Y-14585000D01*
X14967157Y-14570714D01*
X15010014Y-14570714D01*
X15038586Y-14585000D01*
X15052871Y-14613571D01*
X15052871Y-14770714D01*
X15638586Y-14456429D02*
X15381443Y-14842143D01*
X16024300Y-14470714D02*
X16052871Y-14470714D01*
X16081443Y-14485000D01*
X16095728Y-14499286D01*
X16110014Y-14527857D01*
X16124300Y-14585000D01*
X16124300Y-14656429D01*
X16110014Y-14713571D01*
X16095728Y-14742143D01*
X16081443Y-14756429D01*
X16052871Y-14770714D01*
X16024300Y-14770714D01*
X15995728Y-14756429D01*
X15981443Y-14742143D01*
X15967157Y-14713571D01*
X15952871Y-14656429D01*
X15952871Y-14585000D01*
X15967157Y-14527857D01*
X15981443Y-14499286D01*
X15995728Y-14485000D01*
X16024300Y-14470714D01*
X16252871Y-14742143D02*
X16267157Y-14756429D01*
X16252871Y-14770714D01*
X16238586Y-14756429D01*
X16252871Y-14742143D01*
X16252871Y-14770714D01*
X16452871Y-14470714D02*
X16481443Y-14470714D01*
X16510014Y-14485000D01*
X16524300Y-14499286D01*
X16538585Y-14527857D01*
X16552871Y-14585000D01*
X16552871Y-14656429D01*
X16538585Y-14713571D01*
X16524300Y-14742143D01*
X16510014Y-14756429D01*
X16481443Y-14770714D01*
X16452871Y-14770714D01*
X16424300Y-14756429D01*
X16410014Y-14742143D01*
X16395728Y-14713571D01*
X16381443Y-14656429D01*
X16381443Y-14585000D01*
X16395728Y-14527857D01*
X16410014Y-14499286D01*
X16424300Y-14485000D01*
X16452871Y-14470714D01*
X16667157Y-14499286D02*
X16681443Y-14485000D01*
X16710014Y-14470714D01*
X16781443Y-14470714D01*
X16810014Y-14485000D01*
X16824300Y-14499286D01*
X16838586Y-14527857D01*
X16838586Y-14556429D01*
X16824300Y-14599286D01*
X16652871Y-14770714D01*
X16838586Y-14770714D01*
X17095728Y-14470714D02*
X17038586Y-14470714D01*
X17010014Y-14485000D01*
X16995728Y-14499286D01*
X16967157Y-14542143D01*
X16952871Y-14599286D01*
X16952871Y-14713571D01*
X16967157Y-14742143D01*
X16981443Y-14756429D01*
X17010014Y-14770714D01*
X17067157Y-14770714D01*
X17095728Y-14756429D01*
X17110014Y-14742143D01*
X17124300Y-14713571D01*
X17124300Y-14642143D01*
X17110014Y-14613571D01*
X17095728Y-14599286D01*
X17067157Y-14585000D01*
X17010014Y-14585000D01*
X16981443Y-14599286D01*
X16967157Y-14613571D01*
X16952871Y-14642143D01*
X17238586Y-14470714D02*
X17238586Y-14527857D01*
X17352871Y-14470714D02*
X17352871Y-14527857D01*
X17795728Y-14885000D02*
X17781443Y-14870714D01*
X17752871Y-14827857D01*
X17738586Y-14799286D01*
X17724300Y-14756429D01*
X17710014Y-14685000D01*
X17710014Y-14627857D01*
X17724300Y-14556429D01*
X17738586Y-14513571D01*
X17752871Y-14485000D01*
X17781443Y-14442143D01*
X17795728Y-14427857D01*
X17881443Y-14470714D02*
X18067157Y-14470714D01*
X17967157Y-14585000D01*
X18010014Y-14585000D01*
X18038586Y-14599286D01*
X18052871Y-14613571D01*
X18067157Y-14642143D01*
X18067157Y-14713571D01*
X18052871Y-14742143D01*
X18038586Y-14756429D01*
X18010014Y-14770714D01*
X17924300Y-14770714D01*
X17895728Y-14756429D01*
X17881443Y-14742143D01*
X18324300Y-14470714D02*
X18267157Y-14470714D01*
X18238586Y-14485000D01*
X18224300Y-14499286D01*
X18195728Y-14542143D01*
X18181443Y-14599286D01*
X18181443Y-14713571D01*
X18195728Y-14742143D01*
X18210014Y-14756429D01*
X18238586Y-14770714D01*
X18295728Y-14770714D01*
X18324300Y-14756429D01*
X18338586Y-14742143D01*
X18352871Y-14713571D01*
X18352871Y-14642143D01*
X18338586Y-14613571D01*
X18324300Y-14599286D01*
X18295728Y-14585000D01*
X18238586Y-14585000D01*
X18210014Y-14599286D01*
X18195728Y-14613571D01*
X18181443Y-14642143D01*
X18710014Y-14770714D02*
X18710014Y-14470714D01*
X18838586Y-14770714D02*
X18838586Y-14613571D01*
X18824300Y-14585000D01*
X18795728Y-14570714D01*
X18752871Y-14570714D01*
X18724300Y-14585000D01*
X18710014Y-14599286D01*
X19024300Y-14770714D02*
X18995728Y-14756429D01*
X18981443Y-14742143D01*
X18967157Y-14713571D01*
X18967157Y-14627857D01*
X18981443Y-14599286D01*
X18995728Y-14585000D01*
X19024300Y-14570714D01*
X19067157Y-14570714D01*
X19095728Y-14585000D01*
X19110014Y-14599286D01*
X19124300Y-14627857D01*
X19124300Y-14713571D01*
X19110014Y-14742143D01*
X19095728Y-14756429D01*
X19067157Y-14770714D01*
X19024300Y-14770714D01*
X19295728Y-14770714D02*
X19267157Y-14756429D01*
X19252871Y-14727857D01*
X19252871Y-14470714D01*
X19524300Y-14756429D02*
X19495729Y-14770714D01*
X19438586Y-14770714D01*
X19410014Y-14756429D01*
X19395729Y-14727857D01*
X19395729Y-14613571D01*
X19410014Y-14585000D01*
X19438586Y-14570714D01*
X19495729Y-14570714D01*
X19524300Y-14585000D01*
X19538586Y-14613571D01*
X19538586Y-14642143D01*
X19395729Y-14670714D01*
X19652871Y-14756429D02*
X19681443Y-14770714D01*
X19738586Y-14770714D01*
X19767157Y-14756429D01*
X19781443Y-14727857D01*
X19781443Y-14713571D01*
X19767157Y-14685000D01*
X19738586Y-14670714D01*
X19695729Y-14670714D01*
X19667157Y-14656429D01*
X19652871Y-14627857D01*
X19652871Y-14613571D01*
X19667157Y-14585000D01*
X19695729Y-14570714D01*
X19738586Y-14570714D01*
X19767157Y-14585000D01*
X19881443Y-14885000D02*
X19895729Y-14870714D01*
X19924300Y-14827857D01*
X19938586Y-14799286D01*
X19952871Y-14756429D01*
X19967157Y-14685000D01*
X19967157Y-14627857D01*
X19952871Y-14556429D01*
X19938586Y-14513571D01*
X19924300Y-14485000D01*
X19895729Y-14442143D01*
X19881443Y-14427857D01*
X13086200Y-14992900D02*
X13086200Y-15069100D01*
X13048100Y-15031000D02*
X13124300Y-15031000D01*
X13452871Y-14866714D02*
X13481443Y-14866714D01*
X13510014Y-14881000D01*
X13524300Y-14895286D01*
X13538586Y-14923857D01*
X13552871Y-14981000D01*
X13552871Y-15052429D01*
X13538586Y-15109571D01*
X13524300Y-15138143D01*
X13510014Y-15152429D01*
X13481443Y-15166714D01*
X13452871Y-15166714D01*
X13424300Y-15152429D01*
X13410014Y-15138143D01*
X13395728Y-15109571D01*
X13381443Y-15052429D01*
X13381443Y-14981000D01*
X13395728Y-14923857D01*
X13410014Y-14895286D01*
X13424300Y-14881000D01*
X13452871Y-14866714D01*
X13681443Y-15138143D02*
X13695728Y-15152429D01*
X13681443Y-15166714D01*
X13667157Y-15152429D01*
X13681443Y-15138143D01*
X13681443Y-15166714D01*
X13795728Y-14866714D02*
X13995728Y-14866714D01*
X13867157Y-15166714D01*
X14238586Y-14866714D02*
X14181443Y-14866714D01*
X14152871Y-14881000D01*
X14138586Y-14895286D01*
X14110014Y-14938143D01*
X14095728Y-14995286D01*
X14095728Y-15109571D01*
X14110014Y-15138143D01*
X14124300Y-15152429D01*
X14152871Y-15166714D01*
X14210014Y-15166714D01*
X14238586Y-15152429D01*
X14252871Y-15138143D01*
X14267157Y-15109571D01*
X14267157Y-15038143D01*
X14252871Y-15009571D01*
X14238586Y-14995286D01*
X14210014Y-14981000D01*
X14152871Y-14981000D01*
X14124300Y-14995286D01*
X14110014Y-15009571D01*
X14095728Y-15038143D01*
X14395728Y-15166714D02*
X14395728Y-14966714D01*
X14395728Y-14995286D02*
X14410014Y-14981000D01*
X14438586Y-14966714D01*
X14481443Y-14966714D01*
X14510014Y-14981000D01*
X14524300Y-15009571D01*
X14524300Y-15166714D01*
X14524300Y-15009571D02*
X14538586Y-14981000D01*
X14567157Y-14966714D01*
X14610014Y-14966714D01*
X14638586Y-14981000D01*
X14652871Y-15009571D01*
X14652871Y-15166714D01*
X14795728Y-15166714D02*
X14795728Y-14966714D01*
X14795728Y-14995286D02*
X14810014Y-14981000D01*
X14838586Y-14966714D01*
X14881443Y-14966714D01*
X14910014Y-14981000D01*
X14924300Y-15009571D01*
X14924300Y-15166714D01*
X14924300Y-15009571D02*
X14938586Y-14981000D01*
X14967157Y-14966714D01*
X15010014Y-14966714D01*
X15038586Y-14981000D01*
X15052871Y-15009571D01*
X15052871Y-15166714D01*
X15638586Y-14852429D02*
X15381443Y-15238143D01*
X16024300Y-14866714D02*
X16052871Y-14866714D01*
X16081443Y-14881000D01*
X16095728Y-14895286D01*
X16110014Y-14923857D01*
X16124300Y-14981000D01*
X16124300Y-15052429D01*
X16110014Y-15109571D01*
X16095728Y-15138143D01*
X16081443Y-15152429D01*
X16052871Y-15166714D01*
X16024300Y-15166714D01*
X15995728Y-15152429D01*
X15981443Y-15138143D01*
X15967157Y-15109571D01*
X15952871Y-15052429D01*
X15952871Y-14981000D01*
X15967157Y-14923857D01*
X15981443Y-14895286D01*
X15995728Y-14881000D01*
X16024300Y-14866714D01*
X16252871Y-15138143D02*
X16267157Y-15152429D01*
X16252871Y-15166714D01*
X16238586Y-15152429D01*
X16252871Y-15138143D01*
X16252871Y-15166714D01*
X16452871Y-14866714D02*
X16481443Y-14866714D01*
X16510014Y-14881000D01*
X16524300Y-14895286D01*
X16538585Y-14923857D01*
X16552871Y-14981000D01*
X16552871Y-15052429D01*
X16538585Y-15109571D01*
X16524300Y-15138143D01*
X16510014Y-15152429D01*
X16481443Y-15166714D01*
X16452871Y-15166714D01*
X16424300Y-15152429D01*
X16410014Y-15138143D01*
X16395728Y-15109571D01*
X16381443Y-15052429D01*
X16381443Y-14981000D01*
X16395728Y-14923857D01*
X16410014Y-14895286D01*
X16424300Y-14881000D01*
X16452871Y-14866714D01*
X16652871Y-14866714D02*
X16838586Y-14866714D01*
X16738585Y-14981000D01*
X16781443Y-14981000D01*
X16810014Y-14995286D01*
X16824300Y-15009571D01*
X16838586Y-15038143D01*
X16838586Y-15109571D01*
X16824300Y-15138143D01*
X16810014Y-15152429D01*
X16781443Y-15166714D01*
X16695728Y-15166714D01*
X16667157Y-15152429D01*
X16652871Y-15138143D01*
X17024300Y-14866714D02*
X17052871Y-14866714D01*
X17081443Y-14881000D01*
X17095728Y-14895286D01*
X17110014Y-14923857D01*
X17124300Y-14981000D01*
X17124300Y-15052429D01*
X17110014Y-15109571D01*
X17095728Y-15138143D01*
X17081443Y-15152429D01*
X17052871Y-15166714D01*
X17024300Y-15166714D01*
X16995728Y-15152429D01*
X16981443Y-15138143D01*
X16967157Y-15109571D01*
X16952871Y-15052429D01*
X16952871Y-14981000D01*
X16967157Y-14923857D01*
X16981443Y-14895286D01*
X16995728Y-14881000D01*
X17024300Y-14866714D01*
X17238586Y-14866714D02*
X17238586Y-14923857D01*
X17352871Y-14866714D02*
X17352871Y-14923857D01*
X17795728Y-15281000D02*
X17781443Y-15266714D01*
X17752871Y-15223857D01*
X17738586Y-15195286D01*
X17724300Y-15152429D01*
X17710014Y-15081000D01*
X17710014Y-15023857D01*
X17724300Y-14952429D01*
X17738586Y-14909571D01*
X17752871Y-14881000D01*
X17781443Y-14838143D01*
X17795728Y-14823857D01*
X18038586Y-14966714D02*
X18038586Y-15166714D01*
X17967157Y-14852429D02*
X17895728Y-15066714D01*
X18081443Y-15066714D01*
X18424300Y-15166714D02*
X18424300Y-14866714D01*
X18552871Y-15166714D02*
X18552871Y-15009571D01*
X18538586Y-14981000D01*
X18510014Y-14966714D01*
X18467157Y-14966714D01*
X18438586Y-14981000D01*
X18424300Y-14995286D01*
X18738586Y-15166714D02*
X18710014Y-15152429D01*
X18695728Y-15138143D01*
X18681443Y-15109571D01*
X18681443Y-15023857D01*
X18695728Y-14995286D01*
X18710014Y-14981000D01*
X18738586Y-14966714D01*
X18781443Y-14966714D01*
X18810014Y-14981000D01*
X18824300Y-14995286D01*
X18838586Y-15023857D01*
X18838586Y-15109571D01*
X18824300Y-15138143D01*
X18810014Y-15152429D01*
X18781443Y-15166714D01*
X18738586Y-15166714D01*
X19010014Y-15166714D02*
X18981443Y-15152429D01*
X18967157Y-15123857D01*
X18967157Y-14866714D01*
X19238586Y-15152429D02*
X19210014Y-15166714D01*
X19152871Y-15166714D01*
X19124300Y-15152429D01*
X19110014Y-15123857D01*
X19110014Y-15009571D01*
X19124300Y-14981000D01*
X19152871Y-14966714D01*
X19210014Y-14966714D01*
X19238586Y-14981000D01*
X19252871Y-15009571D01*
X19252871Y-15038143D01*
X19110014Y-15066714D01*
X19367157Y-15152429D02*
X19395729Y-15166714D01*
X19452871Y-15166714D01*
X19481443Y-15152429D01*
X19495729Y-15123857D01*
X19495729Y-15109571D01*
X19481443Y-15081000D01*
X19452871Y-15066714D01*
X19410014Y-15066714D01*
X19381443Y-15052429D01*
X19367157Y-15023857D01*
X19367157Y-15009571D01*
X19381443Y-14981000D01*
X19410014Y-14966714D01*
X19452871Y-14966714D01*
X19481443Y-14981000D01*
X19595728Y-15281000D02*
X19610014Y-15266714D01*
X19638586Y-15223857D01*
X19652871Y-15195286D01*
X19667157Y-15152429D01*
X19681443Y-15081000D01*
X19681443Y-15023857D01*
X19667157Y-14952429D01*
X19652871Y-14909571D01*
X19638586Y-14881000D01*
X19610014Y-14838143D01*
X19595728Y-14823857D01*
X13109644Y-15462383D02*
X13109644Y-15391618D01*
X13038879Y-15391618D01*
X13038879Y-15462383D01*
X13109644Y-15462383D01*
X13552871Y-15562714D02*
X13381443Y-15562714D01*
X13467157Y-15562714D02*
X13467157Y-15262714D01*
X13438586Y-15305571D01*
X13410014Y-15334143D01*
X13381443Y-15348429D01*
X13681443Y-15534143D02*
X13695728Y-15548429D01*
X13681443Y-15562714D01*
X13667157Y-15548429D01*
X13681443Y-15534143D01*
X13681443Y-15562714D01*
X13881443Y-15262714D02*
X13910014Y-15262714D01*
X13938586Y-15277000D01*
X13952871Y-15291286D01*
X13967157Y-15319857D01*
X13981443Y-15377000D01*
X13981443Y-15448429D01*
X13967157Y-15505571D01*
X13952871Y-15534143D01*
X13938586Y-15548429D01*
X13910014Y-15562714D01*
X13881443Y-15562714D01*
X13852871Y-15548429D01*
X13838586Y-15534143D01*
X13824300Y-15505571D01*
X13810014Y-15448429D01*
X13810014Y-15377000D01*
X13824300Y-15319857D01*
X13838586Y-15291286D01*
X13852871Y-15277000D01*
X13881443Y-15262714D01*
X14167157Y-15262714D02*
X14195728Y-15262714D01*
X14224300Y-15277000D01*
X14238586Y-15291286D01*
X14252871Y-15319857D01*
X14267157Y-15377000D01*
X14267157Y-15448429D01*
X14252871Y-15505571D01*
X14238586Y-15534143D01*
X14224300Y-15548429D01*
X14195728Y-15562714D01*
X14167157Y-15562714D01*
X14138586Y-15548429D01*
X14124300Y-15534143D01*
X14110014Y-15505571D01*
X14095728Y-15448429D01*
X14095728Y-15377000D01*
X14110014Y-15319857D01*
X14124300Y-15291286D01*
X14138586Y-15277000D01*
X14167157Y-15262714D01*
X14395728Y-15562714D02*
X14395728Y-15362714D01*
X14395728Y-15391286D02*
X14410014Y-15377000D01*
X14438586Y-15362714D01*
X14481443Y-15362714D01*
X14510014Y-15377000D01*
X14524300Y-15405571D01*
X14524300Y-15562714D01*
X14524300Y-15405571D02*
X14538586Y-15377000D01*
X14567157Y-15362714D01*
X14610014Y-15362714D01*
X14638586Y-15377000D01*
X14652871Y-15405571D01*
X14652871Y-15562714D01*
X14795728Y-15562714D02*
X14795728Y-15362714D01*
X14795728Y-15391286D02*
X14810014Y-15377000D01*
X14838586Y-15362714D01*
X14881443Y-15362714D01*
X14910014Y-15377000D01*
X14924300Y-15405571D01*
X14924300Y-15562714D01*
X14924300Y-15405571D02*
X14938586Y-15377000D01*
X14967157Y-15362714D01*
X15010014Y-15362714D01*
X15038586Y-15377000D01*
X15052871Y-15405571D01*
X15052871Y-15562714D01*
X15638586Y-15248429D02*
X15381443Y-15634143D01*
X16024300Y-15262714D02*
X16052871Y-15262714D01*
X16081443Y-15277000D01*
X16095728Y-15291286D01*
X16110014Y-15319857D01*
X16124300Y-15377000D01*
X16124300Y-15448429D01*
X16110014Y-15505571D01*
X16095728Y-15534143D01*
X16081443Y-15548429D01*
X16052871Y-15562714D01*
X16024300Y-15562714D01*
X15995728Y-15548429D01*
X15981443Y-15534143D01*
X15967157Y-15505571D01*
X15952871Y-15448429D01*
X15952871Y-15377000D01*
X15967157Y-15319857D01*
X15981443Y-15291286D01*
X15995728Y-15277000D01*
X16024300Y-15262714D01*
X16252871Y-15534143D02*
X16267157Y-15548429D01*
X16252871Y-15562714D01*
X16238586Y-15548429D01*
X16252871Y-15534143D01*
X16252871Y-15562714D01*
X16452871Y-15262714D02*
X16481443Y-15262714D01*
X16510014Y-15277000D01*
X16524300Y-15291286D01*
X16538585Y-15319857D01*
X16552871Y-15377000D01*
X16552871Y-15448429D01*
X16538585Y-15505571D01*
X16524300Y-15534143D01*
X16510014Y-15548429D01*
X16481443Y-15562714D01*
X16452871Y-15562714D01*
X16424300Y-15548429D01*
X16410014Y-15534143D01*
X16395728Y-15505571D01*
X16381443Y-15448429D01*
X16381443Y-15377000D01*
X16395728Y-15319857D01*
X16410014Y-15291286D01*
X16424300Y-15277000D01*
X16452871Y-15262714D01*
X16652871Y-15262714D02*
X16838586Y-15262714D01*
X16738585Y-15377000D01*
X16781443Y-15377000D01*
X16810014Y-15391286D01*
X16824300Y-15405571D01*
X16838586Y-15434143D01*
X16838586Y-15505571D01*
X16824300Y-15534143D01*
X16810014Y-15548429D01*
X16781443Y-15562714D01*
X16695728Y-15562714D01*
X16667157Y-15548429D01*
X16652871Y-15534143D01*
X16981443Y-15562714D02*
X17038586Y-15562714D01*
X17067157Y-15548429D01*
X17081443Y-15534143D01*
X17110014Y-15491286D01*
X17124300Y-15434143D01*
X17124300Y-15319857D01*
X17110014Y-15291286D01*
X17095728Y-15277000D01*
X17067157Y-15262714D01*
X17010014Y-15262714D01*
X16981443Y-15277000D01*
X16967157Y-15291286D01*
X16952871Y-15319857D01*
X16952871Y-15391286D01*
X16967157Y-15419857D01*
X16981443Y-15434143D01*
X17010014Y-15448429D01*
X17067157Y-15448429D01*
X17095728Y-15434143D01*
X17110014Y-15419857D01*
X17124300Y-15391286D01*
X17238586Y-15262714D02*
X17238586Y-15319857D01*
X17352871Y-15262714D02*
X17352871Y-15319857D01*
X17795728Y-15677000D02*
X17781443Y-15662714D01*
X17752871Y-15619857D01*
X17738586Y-15591286D01*
X17724300Y-15548429D01*
X17710014Y-15477000D01*
X17710014Y-15419857D01*
X17724300Y-15348429D01*
X17738586Y-15305571D01*
X17752871Y-15277000D01*
X17781443Y-15234143D01*
X17795728Y-15219857D01*
X18038586Y-15262714D02*
X17981443Y-15262714D01*
X17952871Y-15277000D01*
X17938586Y-15291286D01*
X17910014Y-15334143D01*
X17895728Y-15391286D01*
X17895728Y-15505571D01*
X17910014Y-15534143D01*
X17924300Y-15548429D01*
X17952871Y-15562714D01*
X18010014Y-15562714D01*
X18038586Y-15548429D01*
X18052871Y-15534143D01*
X18067157Y-15505571D01*
X18067157Y-15434143D01*
X18052871Y-15405571D01*
X18038586Y-15391286D01*
X18010014Y-15377000D01*
X17952871Y-15377000D01*
X17924300Y-15391286D01*
X17910014Y-15405571D01*
X17895728Y-15434143D01*
X18424300Y-15562714D02*
X18424300Y-15262714D01*
X18552871Y-15562714D02*
X18552871Y-15405571D01*
X18538586Y-15377000D01*
X18510014Y-15362714D01*
X18467157Y-15362714D01*
X18438586Y-15377000D01*
X18424300Y-15391286D01*
X18738586Y-15562714D02*
X18710014Y-15548429D01*
X18695728Y-15534143D01*
X18681443Y-15505571D01*
X18681443Y-15419857D01*
X18695728Y-15391286D01*
X18710014Y-15377000D01*
X18738586Y-15362714D01*
X18781443Y-15362714D01*
X18810014Y-15377000D01*
X18824300Y-15391286D01*
X18838586Y-15419857D01*
X18838586Y-15505571D01*
X18824300Y-15534143D01*
X18810014Y-15548429D01*
X18781443Y-15562714D01*
X18738586Y-15562714D01*
X19010014Y-15562714D02*
X18981443Y-15548429D01*
X18967157Y-15519857D01*
X18967157Y-15262714D01*
X19238586Y-15548429D02*
X19210014Y-15562714D01*
X19152871Y-15562714D01*
X19124300Y-15548429D01*
X19110014Y-15519857D01*
X19110014Y-15405571D01*
X19124300Y-15377000D01*
X19152871Y-15362714D01*
X19210014Y-15362714D01*
X19238586Y-15377000D01*
X19252871Y-15405571D01*
X19252871Y-15434143D01*
X19110014Y-15462714D01*
X19367157Y-15548429D02*
X19395729Y-15562714D01*
X19452871Y-15562714D01*
X19481443Y-15548429D01*
X19495729Y-15519857D01*
X19495729Y-15505571D01*
X19481443Y-15477000D01*
X19452871Y-15462714D01*
X19410014Y-15462714D01*
X19381443Y-15448429D01*
X19367157Y-15419857D01*
X19367157Y-15405571D01*
X19381443Y-15377000D01*
X19410014Y-15362714D01*
X19452871Y-15362714D01*
X19481443Y-15377000D01*
X19595728Y-15677000D02*
X19610014Y-15662714D01*
X19638586Y-15619857D01*
X19652871Y-15591286D01*
X19667157Y-15548429D01*
X19681443Y-15477000D01*
X19681443Y-15419857D01*
X19667157Y-15348429D01*
X19652871Y-15305571D01*
X19638586Y-15277000D01*
X19610014Y-15234143D01*
X19595728Y-15219857D01*
X13069300Y-15878000D02*
X13124300Y-15823000D01*
X13069300Y-15768000D01*
X13014300Y-15823000D01*
X13069300Y-15878000D01*
X13552871Y-15958714D02*
X13381443Y-15958714D01*
X13467157Y-15958714D02*
X13467157Y-15658714D01*
X13438586Y-15701571D01*
X13410014Y-15730143D01*
X13381443Y-15744429D01*
X13681443Y-15930143D02*
X13695728Y-15944429D01*
X13681443Y-15958714D01*
X13667157Y-15944429D01*
X13681443Y-15930143D01*
X13681443Y-15958714D01*
X13981443Y-15958714D02*
X13810014Y-15958714D01*
X13895728Y-15958714D02*
X13895728Y-15658714D01*
X13867157Y-15701571D01*
X13838586Y-15730143D01*
X13810014Y-15744429D01*
X14167157Y-15658714D02*
X14195728Y-15658714D01*
X14224300Y-15673000D01*
X14238586Y-15687286D01*
X14252871Y-15715857D01*
X14267157Y-15773000D01*
X14267157Y-15844429D01*
X14252871Y-15901571D01*
X14238586Y-15930143D01*
X14224300Y-15944429D01*
X14195728Y-15958714D01*
X14167157Y-15958714D01*
X14138586Y-15944429D01*
X14124300Y-15930143D01*
X14110014Y-15901571D01*
X14095728Y-15844429D01*
X14095728Y-15773000D01*
X14110014Y-15715857D01*
X14124300Y-15687286D01*
X14138586Y-15673000D01*
X14167157Y-15658714D01*
X14395728Y-15958714D02*
X14395728Y-15758714D01*
X14395728Y-15787286D02*
X14410014Y-15773000D01*
X14438586Y-15758714D01*
X14481443Y-15758714D01*
X14510014Y-15773000D01*
X14524300Y-15801571D01*
X14524300Y-15958714D01*
X14524300Y-15801571D02*
X14538586Y-15773000D01*
X14567157Y-15758714D01*
X14610014Y-15758714D01*
X14638586Y-15773000D01*
X14652871Y-15801571D01*
X14652871Y-15958714D01*
X14795728Y-15958714D02*
X14795728Y-15758714D01*
X14795728Y-15787286D02*
X14810014Y-15773000D01*
X14838586Y-15758714D01*
X14881443Y-15758714D01*
X14910014Y-15773000D01*
X14924300Y-15801571D01*
X14924300Y-15958714D01*
X14924300Y-15801571D02*
X14938586Y-15773000D01*
X14967157Y-15758714D01*
X15010014Y-15758714D01*
X15038586Y-15773000D01*
X15052871Y-15801571D01*
X15052871Y-15958714D01*
X15638586Y-15644429D02*
X15381443Y-16030143D01*
X16024300Y-15658714D02*
X16052871Y-15658714D01*
X16081443Y-15673000D01*
X16095728Y-15687286D01*
X16110014Y-15715857D01*
X16124300Y-15773000D01*
X16124300Y-15844429D01*
X16110014Y-15901571D01*
X16095728Y-15930143D01*
X16081443Y-15944429D01*
X16052871Y-15958714D01*
X16024300Y-15958714D01*
X15995728Y-15944429D01*
X15981443Y-15930143D01*
X15967157Y-15901571D01*
X15952871Y-15844429D01*
X15952871Y-15773000D01*
X15967157Y-15715857D01*
X15981443Y-15687286D01*
X15995728Y-15673000D01*
X16024300Y-15658714D01*
X16252871Y-15930143D02*
X16267157Y-15944429D01*
X16252871Y-15958714D01*
X16238586Y-15944429D01*
X16252871Y-15930143D01*
X16252871Y-15958714D01*
X16452871Y-15658714D02*
X16481443Y-15658714D01*
X16510014Y-15673000D01*
X16524300Y-15687286D01*
X16538585Y-15715857D01*
X16552871Y-15773000D01*
X16552871Y-15844429D01*
X16538585Y-15901571D01*
X16524300Y-15930143D01*
X16510014Y-15944429D01*
X16481443Y-15958714D01*
X16452871Y-15958714D01*
X16424300Y-15944429D01*
X16410014Y-15930143D01*
X16395728Y-15901571D01*
X16381443Y-15844429D01*
X16381443Y-15773000D01*
X16395728Y-15715857D01*
X16410014Y-15687286D01*
X16424300Y-15673000D01*
X16452871Y-15658714D01*
X16810014Y-15758714D02*
X16810014Y-15958714D01*
X16738585Y-15644429D02*
X16667157Y-15858714D01*
X16852871Y-15858714D01*
X16938586Y-15658714D02*
X17124300Y-15658714D01*
X17024300Y-15773000D01*
X17067157Y-15773000D01*
X17095728Y-15787286D01*
X17110014Y-15801571D01*
X17124300Y-15830143D01*
X17124300Y-15901571D01*
X17110014Y-15930143D01*
X17095728Y-15944429D01*
X17067157Y-15958714D01*
X16981443Y-15958714D01*
X16952871Y-15944429D01*
X16938586Y-15930143D01*
X17238586Y-15658714D02*
X17238586Y-15715857D01*
X17352871Y-15658714D02*
X17352871Y-15715857D01*
X17795728Y-16073000D02*
X17781443Y-16058714D01*
X17752871Y-16015857D01*
X17738586Y-15987286D01*
X17724300Y-15944429D01*
X17710014Y-15873000D01*
X17710014Y-15815857D01*
X17724300Y-15744429D01*
X17738586Y-15701571D01*
X17752871Y-15673000D01*
X17781443Y-15630143D01*
X17795728Y-15615857D01*
X17895728Y-15687286D02*
X17910014Y-15673000D01*
X17938586Y-15658714D01*
X18010014Y-15658714D01*
X18038586Y-15673000D01*
X18052871Y-15687286D01*
X18067157Y-15715857D01*
X18067157Y-15744429D01*
X18052871Y-15787286D01*
X17881443Y-15958714D01*
X18067157Y-15958714D01*
X18424300Y-15958714D02*
X18424300Y-15658714D01*
X18552871Y-15958714D02*
X18552871Y-15801571D01*
X18538586Y-15773000D01*
X18510014Y-15758714D01*
X18467157Y-15758714D01*
X18438586Y-15773000D01*
X18424300Y-15787286D01*
X18738586Y-15958714D02*
X18710014Y-15944429D01*
X18695728Y-15930143D01*
X18681443Y-15901571D01*
X18681443Y-15815857D01*
X18695728Y-15787286D01*
X18710014Y-15773000D01*
X18738586Y-15758714D01*
X18781443Y-15758714D01*
X18810014Y-15773000D01*
X18824300Y-15787286D01*
X18838586Y-15815857D01*
X18838586Y-15901571D01*
X18824300Y-15930143D01*
X18810014Y-15944429D01*
X18781443Y-15958714D01*
X18738586Y-15958714D01*
X19010014Y-15958714D02*
X18981443Y-15944429D01*
X18967157Y-15915857D01*
X18967157Y-15658714D01*
X19238586Y-15944429D02*
X19210014Y-15958714D01*
X19152871Y-15958714D01*
X19124300Y-15944429D01*
X19110014Y-15915857D01*
X19110014Y-15801571D01*
X19124300Y-15773000D01*
X19152871Y-15758714D01*
X19210014Y-15758714D01*
X19238586Y-15773000D01*
X19252871Y-15801571D01*
X19252871Y-15830143D01*
X19110014Y-15858714D01*
X19367157Y-15944429D02*
X19395729Y-15958714D01*
X19452871Y-15958714D01*
X19481443Y-15944429D01*
X19495729Y-15915857D01*
X19495729Y-15901571D01*
X19481443Y-15873000D01*
X19452871Y-15858714D01*
X19410014Y-15858714D01*
X19381443Y-15844429D01*
X19367157Y-15815857D01*
X19367157Y-15801571D01*
X19381443Y-15773000D01*
X19410014Y-15758714D01*
X19452871Y-15758714D01*
X19481443Y-15773000D01*
X19595728Y-16073000D02*
X19610014Y-16058714D01*
X19638586Y-16015857D01*
X19652871Y-15987286D01*
X19667157Y-15944429D01*
X19681443Y-15873000D01*
X19681443Y-15815857D01*
X19667157Y-15744429D01*
X19652871Y-15701571D01*
X19638586Y-15673000D01*
X19610014Y-15630143D01*
X19595728Y-15615857D01*
X12974300Y-16144000D02*
X13124300Y-16294000D01*
X13124300Y-16144000D02*
X12974300Y-16294000D01*
X13124300Y-16219000D02*
G75*
G03X13124300Y-16219000I-75000J0D01*
G01*
X13552871Y-16354714D02*
X13381443Y-16354714D01*
X13467157Y-16354714D02*
X13467157Y-16054714D01*
X13438586Y-16097571D01*
X13410014Y-16126143D01*
X13381443Y-16140429D01*
X13681443Y-16326143D02*
X13695728Y-16340429D01*
X13681443Y-16354714D01*
X13667157Y-16340429D01*
X13681443Y-16326143D01*
X13681443Y-16354714D01*
X13967157Y-16054714D02*
X13824300Y-16054714D01*
X13810014Y-16197571D01*
X13824300Y-16183286D01*
X13852871Y-16169000D01*
X13924300Y-16169000D01*
X13952871Y-16183286D01*
X13967157Y-16197571D01*
X13981443Y-16226143D01*
X13981443Y-16297571D01*
X13967157Y-16326143D01*
X13952871Y-16340429D01*
X13924300Y-16354714D01*
X13852871Y-16354714D01*
X13824300Y-16340429D01*
X13810014Y-16326143D01*
X14167157Y-16054714D02*
X14195728Y-16054714D01*
X14224300Y-16069000D01*
X14238586Y-16083286D01*
X14252871Y-16111857D01*
X14267157Y-16169000D01*
X14267157Y-16240429D01*
X14252871Y-16297571D01*
X14238586Y-16326143D01*
X14224300Y-16340429D01*
X14195728Y-16354714D01*
X14167157Y-16354714D01*
X14138586Y-16340429D01*
X14124300Y-16326143D01*
X14110014Y-16297571D01*
X14095728Y-16240429D01*
X14095728Y-16169000D01*
X14110014Y-16111857D01*
X14124300Y-16083286D01*
X14138586Y-16069000D01*
X14167157Y-16054714D01*
X14395728Y-16354714D02*
X14395728Y-16154714D01*
X14395728Y-16183286D02*
X14410014Y-16169000D01*
X14438586Y-16154714D01*
X14481443Y-16154714D01*
X14510014Y-16169000D01*
X14524300Y-16197571D01*
X14524300Y-16354714D01*
X14524300Y-16197571D02*
X14538586Y-16169000D01*
X14567157Y-16154714D01*
X14610014Y-16154714D01*
X14638586Y-16169000D01*
X14652871Y-16197571D01*
X14652871Y-16354714D01*
X14795728Y-16354714D02*
X14795728Y-16154714D01*
X14795728Y-16183286D02*
X14810014Y-16169000D01*
X14838586Y-16154714D01*
X14881443Y-16154714D01*
X14910014Y-16169000D01*
X14924300Y-16197571D01*
X14924300Y-16354714D01*
X14924300Y-16197571D02*
X14938586Y-16169000D01*
X14967157Y-16154714D01*
X15010014Y-16154714D01*
X15038586Y-16169000D01*
X15052871Y-16197571D01*
X15052871Y-16354714D01*
X15638586Y-16040429D02*
X15381443Y-16426143D01*
X16024300Y-16054714D02*
X16052871Y-16054714D01*
X16081443Y-16069000D01*
X16095728Y-16083286D01*
X16110014Y-16111857D01*
X16124300Y-16169000D01*
X16124300Y-16240429D01*
X16110014Y-16297571D01*
X16095728Y-16326143D01*
X16081443Y-16340429D01*
X16052871Y-16354714D01*
X16024300Y-16354714D01*
X15995728Y-16340429D01*
X15981443Y-16326143D01*
X15967157Y-16297571D01*
X15952871Y-16240429D01*
X15952871Y-16169000D01*
X15967157Y-16111857D01*
X15981443Y-16083286D01*
X15995728Y-16069000D01*
X16024300Y-16054714D01*
X16252871Y-16326143D02*
X16267157Y-16340429D01*
X16252871Y-16354714D01*
X16238586Y-16340429D01*
X16252871Y-16326143D01*
X16252871Y-16354714D01*
X16452871Y-16054714D02*
X16481443Y-16054714D01*
X16510014Y-16069000D01*
X16524300Y-16083286D01*
X16538585Y-16111857D01*
X16552871Y-16169000D01*
X16552871Y-16240429D01*
X16538585Y-16297571D01*
X16524300Y-16326143D01*
X16510014Y-16340429D01*
X16481443Y-16354714D01*
X16452871Y-16354714D01*
X16424300Y-16340429D01*
X16410014Y-16326143D01*
X16395728Y-16297571D01*
X16381443Y-16240429D01*
X16381443Y-16169000D01*
X16395728Y-16111857D01*
X16410014Y-16083286D01*
X16424300Y-16069000D01*
X16452871Y-16054714D01*
X16824300Y-16054714D02*
X16681443Y-16054714D01*
X16667157Y-16197571D01*
X16681443Y-16183286D01*
X16710014Y-16169000D01*
X16781443Y-16169000D01*
X16810014Y-16183286D01*
X16824300Y-16197571D01*
X16838586Y-16226143D01*
X16838586Y-16297571D01*
X16824300Y-16326143D01*
X16810014Y-16340429D01*
X16781443Y-16354714D01*
X16710014Y-16354714D01*
X16681443Y-16340429D01*
X16667157Y-16326143D01*
X16981443Y-16354714D02*
X17038586Y-16354714D01*
X17067157Y-16340429D01*
X17081443Y-16326143D01*
X17110014Y-16283286D01*
X17124300Y-16226143D01*
X17124300Y-16111857D01*
X17110014Y-16083286D01*
X17095728Y-16069000D01*
X17067157Y-16054714D01*
X17010014Y-16054714D01*
X16981443Y-16069000D01*
X16967157Y-16083286D01*
X16952871Y-16111857D01*
X16952871Y-16183286D01*
X16967157Y-16211857D01*
X16981443Y-16226143D01*
X17010014Y-16240429D01*
X17067157Y-16240429D01*
X17095728Y-16226143D01*
X17110014Y-16211857D01*
X17124300Y-16183286D01*
X17238586Y-16054714D02*
X17238586Y-16111857D01*
X17352871Y-16054714D02*
X17352871Y-16111857D01*
X17795728Y-16469000D02*
X17781443Y-16454714D01*
X17752871Y-16411857D01*
X17738586Y-16383286D01*
X17724300Y-16340429D01*
X17710014Y-16269000D01*
X17710014Y-16211857D01*
X17724300Y-16140429D01*
X17738586Y-16097571D01*
X17752871Y-16069000D01*
X17781443Y-16026143D01*
X17795728Y-16011857D01*
X18067157Y-16354714D02*
X17895728Y-16354714D01*
X17981443Y-16354714D02*
X17981443Y-16054714D01*
X17952871Y-16097571D01*
X17924300Y-16126143D01*
X17895728Y-16140429D01*
X18424300Y-16354714D02*
X18424300Y-16054714D01*
X18552871Y-16354714D02*
X18552871Y-16197571D01*
X18538586Y-16169000D01*
X18510014Y-16154714D01*
X18467157Y-16154714D01*
X18438586Y-16169000D01*
X18424300Y-16183286D01*
X18738586Y-16354714D02*
X18710014Y-16340429D01*
X18695728Y-16326143D01*
X18681443Y-16297571D01*
X18681443Y-16211857D01*
X18695728Y-16183286D01*
X18710014Y-16169000D01*
X18738586Y-16154714D01*
X18781443Y-16154714D01*
X18810014Y-16169000D01*
X18824300Y-16183286D01*
X18838586Y-16211857D01*
X18838586Y-16297571D01*
X18824300Y-16326143D01*
X18810014Y-16340429D01*
X18781443Y-16354714D01*
X18738586Y-16354714D01*
X19010014Y-16354714D02*
X18981443Y-16340429D01*
X18967157Y-16311857D01*
X18967157Y-16054714D01*
X19238586Y-16340429D02*
X19210014Y-16354714D01*
X19152871Y-16354714D01*
X19124300Y-16340429D01*
X19110014Y-16311857D01*
X19110014Y-16197571D01*
X19124300Y-16169000D01*
X19152871Y-16154714D01*
X19210014Y-16154714D01*
X19238586Y-16169000D01*
X19252871Y-16197571D01*
X19252871Y-16226143D01*
X19110014Y-16254714D01*
X19352871Y-16469000D02*
X19367157Y-16454714D01*
X19395729Y-16411857D01*
X19410014Y-16383286D01*
X19424300Y-16340429D01*
X19438586Y-16269000D01*
X19438586Y-16211857D01*
X19424300Y-16140429D01*
X19410014Y-16097571D01*
X19395729Y-16069000D01*
X19367157Y-16026143D01*
X19352871Y-16011857D01*
X12814300Y-16460000D02*
X13124300Y-16770000D01*
X13124300Y-16460000D02*
X12814300Y-16770000D01*
X12969300Y-16460000D02*
X12969300Y-16770000D01*
X12814300Y-16615000D02*
X13124300Y-16615000D01*
X13367157Y-16450714D02*
X13552871Y-16450714D01*
X13452871Y-16565000D01*
X13495728Y-16565000D01*
X13524300Y-16579286D01*
X13538586Y-16593571D01*
X13552871Y-16622143D01*
X13552871Y-16693571D01*
X13538586Y-16722143D01*
X13524300Y-16736429D01*
X13495728Y-16750714D01*
X13410014Y-16750714D01*
X13381443Y-16736429D01*
X13367157Y-16722143D01*
X13681443Y-16722143D02*
X13695728Y-16736429D01*
X13681443Y-16750714D01*
X13667157Y-16736429D01*
X13681443Y-16722143D01*
X13681443Y-16750714D01*
X13981443Y-16750714D02*
X13810014Y-16750714D01*
X13895728Y-16750714D02*
X13895728Y-16450714D01*
X13867157Y-16493571D01*
X13838586Y-16522143D01*
X13810014Y-16536429D01*
X14167157Y-16450714D02*
X14195728Y-16450714D01*
X14224300Y-16465000D01*
X14238586Y-16479286D01*
X14252871Y-16507857D01*
X14267157Y-16565000D01*
X14267157Y-16636429D01*
X14252871Y-16693571D01*
X14238586Y-16722143D01*
X14224300Y-16736429D01*
X14195728Y-16750714D01*
X14167157Y-16750714D01*
X14138586Y-16736429D01*
X14124300Y-16722143D01*
X14110014Y-16693571D01*
X14095728Y-16636429D01*
X14095728Y-16565000D01*
X14110014Y-16507857D01*
X14124300Y-16479286D01*
X14138586Y-16465000D01*
X14167157Y-16450714D01*
X14395728Y-16750714D02*
X14395728Y-16550714D01*
X14395728Y-16579286D02*
X14410014Y-16565000D01*
X14438586Y-16550714D01*
X14481443Y-16550714D01*
X14510014Y-16565000D01*
X14524300Y-16593571D01*
X14524300Y-16750714D01*
X14524300Y-16593571D02*
X14538586Y-16565000D01*
X14567157Y-16550714D01*
X14610014Y-16550714D01*
X14638586Y-16565000D01*
X14652871Y-16593571D01*
X14652871Y-16750714D01*
X14795728Y-16750714D02*
X14795728Y-16550714D01*
X14795728Y-16579286D02*
X14810014Y-16565000D01*
X14838586Y-16550714D01*
X14881443Y-16550714D01*
X14910014Y-16565000D01*
X14924300Y-16593571D01*
X14924300Y-16750714D01*
X14924300Y-16593571D02*
X14938586Y-16565000D01*
X14967157Y-16550714D01*
X15010014Y-16550714D01*
X15038586Y-16565000D01*
X15052871Y-16593571D01*
X15052871Y-16750714D01*
X15638586Y-16436429D02*
X15381443Y-16822143D01*
X16024300Y-16450714D02*
X16052871Y-16450714D01*
X16081443Y-16465000D01*
X16095728Y-16479286D01*
X16110014Y-16507857D01*
X16124300Y-16565000D01*
X16124300Y-16636429D01*
X16110014Y-16693571D01*
X16095728Y-16722143D01*
X16081443Y-16736429D01*
X16052871Y-16750714D01*
X16024300Y-16750714D01*
X15995728Y-16736429D01*
X15981443Y-16722143D01*
X15967157Y-16693571D01*
X15952871Y-16636429D01*
X15952871Y-16565000D01*
X15967157Y-16507857D01*
X15981443Y-16479286D01*
X15995728Y-16465000D01*
X16024300Y-16450714D01*
X16252871Y-16722143D02*
X16267157Y-16736429D01*
X16252871Y-16750714D01*
X16238586Y-16736429D01*
X16252871Y-16722143D01*
X16252871Y-16750714D01*
X16552871Y-16750714D02*
X16381443Y-16750714D01*
X16467157Y-16750714D02*
X16467157Y-16450714D01*
X16438585Y-16493571D01*
X16410014Y-16522143D01*
X16381443Y-16536429D01*
X16667157Y-16479286D02*
X16681443Y-16465000D01*
X16710014Y-16450714D01*
X16781443Y-16450714D01*
X16810014Y-16465000D01*
X16824300Y-16479286D01*
X16838586Y-16507857D01*
X16838586Y-16536429D01*
X16824300Y-16579286D01*
X16652871Y-16750714D01*
X16838586Y-16750714D01*
X16952871Y-16479286D02*
X16967157Y-16465000D01*
X16995728Y-16450714D01*
X17067157Y-16450714D01*
X17095728Y-16465000D01*
X17110014Y-16479286D01*
X17124300Y-16507857D01*
X17124300Y-16536429D01*
X17110014Y-16579286D01*
X16938586Y-16750714D01*
X17124300Y-16750714D01*
X17238586Y-16450714D02*
X17238586Y-16507857D01*
X17352871Y-16450714D02*
X17352871Y-16507857D01*
X17795728Y-16865000D02*
X17781443Y-16850714D01*
X17752871Y-16807857D01*
X17738586Y-16779286D01*
X17724300Y-16736429D01*
X17710014Y-16665000D01*
X17710014Y-16607857D01*
X17724300Y-16536429D01*
X17738586Y-16493571D01*
X17752871Y-16465000D01*
X17781443Y-16422143D01*
X17795728Y-16407857D01*
X18038586Y-16550714D02*
X18038586Y-16750714D01*
X17967157Y-16436429D02*
X17895728Y-16650714D01*
X18081443Y-16650714D01*
X18424300Y-16750714D02*
X18424300Y-16450714D01*
X18552871Y-16750714D02*
X18552871Y-16593571D01*
X18538586Y-16565000D01*
X18510014Y-16550714D01*
X18467157Y-16550714D01*
X18438586Y-16565000D01*
X18424300Y-16579286D01*
X18738586Y-16750714D02*
X18710014Y-16736429D01*
X18695728Y-16722143D01*
X18681443Y-16693571D01*
X18681443Y-16607857D01*
X18695728Y-16579286D01*
X18710014Y-16565000D01*
X18738586Y-16550714D01*
X18781443Y-16550714D01*
X18810014Y-16565000D01*
X18824300Y-16579286D01*
X18838586Y-16607857D01*
X18838586Y-16693571D01*
X18824300Y-16722143D01*
X18810014Y-16736429D01*
X18781443Y-16750714D01*
X18738586Y-16750714D01*
X19010014Y-16750714D02*
X18981443Y-16736429D01*
X18967157Y-16707857D01*
X18967157Y-16450714D01*
X19238586Y-16736429D02*
X19210014Y-16750714D01*
X19152871Y-16750714D01*
X19124300Y-16736429D01*
X19110014Y-16707857D01*
X19110014Y-16593571D01*
X19124300Y-16565000D01*
X19152871Y-16550714D01*
X19210014Y-16550714D01*
X19238586Y-16565000D01*
X19252871Y-16593571D01*
X19252871Y-16622143D01*
X19110014Y-16650714D01*
X19367157Y-16736429D02*
X19395729Y-16750714D01*
X19452871Y-16750714D01*
X19481443Y-16736429D01*
X19495729Y-16707857D01*
X19495729Y-16693571D01*
X19481443Y-16665000D01*
X19452871Y-16650714D01*
X19410014Y-16650714D01*
X19381443Y-16636429D01*
X19367157Y-16607857D01*
X19367157Y-16593571D01*
X19381443Y-16565000D01*
X19410014Y-16550714D01*
X19452871Y-16550714D01*
X19481443Y-16565000D01*
X19595728Y-16865000D02*
X19610014Y-16850714D01*
X19638586Y-16807857D01*
X19652871Y-16779286D01*
X19667157Y-16736429D01*
X19681443Y-16665000D01*
X19681443Y-16607857D01*
X19667157Y-16536429D01*
X19652871Y-16493571D01*
X19638586Y-16465000D01*
X19610014Y-16422143D01*
X19595728Y-16407857D01*
M02*
