%TF.GenerationSoftware,KiCad,Pcbnew,4.0.3+e1-6302~38~ubuntu16.04.1-stable*%
%TF.CreationDate,2016-08-30T13:53:10+01:00*%
%TF.ProjectId,igrow-101,6967726F772D3130312E6B696361645F,101*%
%TF.FileFunction,Legend,Top*%
%FSLAX46Y46*%
G04 Gerber Fmt 4.6, Leading zero omitted, Abs format (unit mm)*
G04 Created by KiCad (PCBNEW 4.0.3+e1-6302~38~ubuntu16.04.1-stable) date Tue Aug 30 13:53:10 2016*
%MOMM*%
%LPD*%
G01*
G04 APERTURE LIST*
%ADD10C,0.100000*%
%ADD11C,0.150000*%
G04 APERTURE END LIST*
D10*
D11*
X148625000Y-98775000D02*
X148625000Y-98075000D01*
X149825000Y-98075000D02*
X149825000Y-98775000D01*
X133055360Y-108010960D02*
X133055360Y-108912660D01*
X133055360Y-106713020D02*
X133055360Y-105714800D01*
X131853940Y-110365540D02*
X133055360Y-110365540D01*
X138656060Y-110365540D02*
X137454640Y-110365540D01*
X131853940Y-110914180D02*
X133055360Y-110914180D01*
X138656060Y-110914180D02*
X137454640Y-110914180D01*
X131853940Y-103715820D02*
X133106160Y-103715820D01*
X138656060Y-103715820D02*
X137403840Y-103715820D01*
X133855460Y-108010960D02*
X132255260Y-108010960D01*
X132306060Y-106862880D02*
X133855460Y-106862880D01*
X133055360Y-108013500D02*
X132306060Y-106862880D01*
X133055360Y-108010960D02*
X133855460Y-106860340D01*
X131853940Y-103715820D02*
X131853940Y-110914180D01*
X138656060Y-103715820D02*
X138656060Y-110914180D01*
X168235000Y-127500000D02*
X168235000Y-126500000D01*
X169585000Y-126500000D02*
X169585000Y-127500000D01*
X168140000Y-130850000D02*
X167140000Y-130850000D01*
X167140000Y-129500000D02*
X168140000Y-129500000D01*
X152265000Y-130850000D02*
X151265000Y-130850000D01*
X151265000Y-129500000D02*
X152265000Y-129500000D01*
X149185000Y-118610000D02*
X149185000Y-117610000D01*
X150535000Y-117610000D02*
X150535000Y-118610000D01*
X147360000Y-110625000D02*
X147360000Y-111625000D01*
X146010000Y-111625000D02*
X146010000Y-110625000D01*
X143375000Y-115610000D02*
X142375000Y-115610000D01*
X142375000Y-114260000D02*
X143375000Y-114260000D01*
X147360000Y-104910000D02*
X147360000Y-105910000D01*
X146010000Y-105910000D02*
X146010000Y-104910000D01*
X147360000Y-97925000D02*
X147360000Y-98925000D01*
X146010000Y-98925000D02*
X146010000Y-97925000D01*
X154980000Y-124595000D02*
X154980000Y-125595000D01*
X153630000Y-125595000D02*
X153630000Y-124595000D01*
X164965000Y-124500000D02*
X163965000Y-124500000D01*
X163965000Y-123150000D02*
X164965000Y-123150000D01*
X168140000Y-121960000D02*
X167140000Y-121960000D01*
X167140000Y-120610000D02*
X168140000Y-120610000D01*
X138571000Y-120234000D02*
X138571000Y-119034000D01*
X140321000Y-119034000D02*
X140321000Y-120234000D01*
X178395000Y-117340000D02*
X178395000Y-116340000D01*
X179745000Y-116340000D02*
X179745000Y-117340000D01*
X148360180Y-124510800D02*
X148360180Y-123809760D01*
X148360180Y-123809760D02*
X148609100Y-123809760D01*
X151159160Y-123809760D02*
X151359820Y-123809760D01*
X151359820Y-123809760D02*
X151359820Y-124510800D01*
X158520180Y-122605800D02*
X158520180Y-121904760D01*
X158520180Y-121904760D02*
X158769100Y-121904760D01*
X161319160Y-121904760D02*
X161519820Y-121904760D01*
X161519820Y-121904760D02*
X161519820Y-122605800D01*
X160604200Y-128675180D02*
X161305240Y-128675180D01*
X161305240Y-128675180D02*
X161305240Y-128924100D01*
X161305240Y-131474160D02*
X161305240Y-131674820D01*
X161305240Y-131674820D02*
X160604200Y-131674820D01*
X148583334Y-96107143D02*
X148535715Y-96154762D01*
X148392858Y-96202381D01*
X148297620Y-96202381D01*
X148154762Y-96154762D01*
X148059524Y-96059524D01*
X148011905Y-95964286D01*
X147964286Y-95773810D01*
X147964286Y-95630952D01*
X148011905Y-95440476D01*
X148059524Y-95345238D01*
X148154762Y-95250000D01*
X148297620Y-95202381D01*
X148392858Y-95202381D01*
X148535715Y-95250000D01*
X148583334Y-95297619D01*
X149535715Y-96202381D02*
X148964286Y-96202381D01*
X149250000Y-96202381D02*
X149250000Y-95202381D01*
X149154762Y-95345238D01*
X149059524Y-95440476D01*
X148964286Y-95488095D01*
X135580381Y-108053095D02*
X134580381Y-108053095D01*
X134580381Y-107815000D01*
X134628000Y-107672142D01*
X134723238Y-107576904D01*
X134818476Y-107529285D01*
X135008952Y-107481666D01*
X135151810Y-107481666D01*
X135342286Y-107529285D01*
X135437524Y-107576904D01*
X135532762Y-107672142D01*
X135580381Y-107815000D01*
X135580381Y-108053095D01*
X135580381Y-106529285D02*
X135580381Y-107100714D01*
X135580381Y-106815000D02*
X134580381Y-106815000D01*
X134723238Y-106910238D01*
X134818476Y-107005476D01*
X134866095Y-107100714D01*
X167702381Y-127166666D02*
X167226190Y-127500000D01*
X167702381Y-127738095D02*
X166702381Y-127738095D01*
X166702381Y-127357142D01*
X166750000Y-127261904D01*
X166797619Y-127214285D01*
X166892857Y-127166666D01*
X167035714Y-127166666D01*
X167130952Y-127214285D01*
X167178571Y-127261904D01*
X167226190Y-127357142D01*
X167226190Y-127738095D01*
X167702381Y-126214285D02*
X167702381Y-126785714D01*
X167702381Y-126500000D02*
X166702381Y-126500000D01*
X166845238Y-126595238D01*
X166940476Y-126690476D01*
X166988095Y-126785714D01*
X167583334Y-132202381D02*
X167250000Y-131726190D01*
X167011905Y-132202381D02*
X167011905Y-131202381D01*
X167392858Y-131202381D01*
X167488096Y-131250000D01*
X167535715Y-131297619D01*
X167583334Y-131392857D01*
X167583334Y-131535714D01*
X167535715Y-131630952D01*
X167488096Y-131678571D01*
X167392858Y-131726190D01*
X167011905Y-131726190D01*
X167964286Y-131297619D02*
X168011905Y-131250000D01*
X168107143Y-131202381D01*
X168345239Y-131202381D01*
X168440477Y-131250000D01*
X168488096Y-131297619D01*
X168535715Y-131392857D01*
X168535715Y-131488095D01*
X168488096Y-131630952D01*
X167916667Y-132202381D01*
X168535715Y-132202381D01*
X151583334Y-132202381D02*
X151250000Y-131726190D01*
X151011905Y-132202381D02*
X151011905Y-131202381D01*
X151392858Y-131202381D01*
X151488096Y-131250000D01*
X151535715Y-131297619D01*
X151583334Y-131392857D01*
X151583334Y-131535714D01*
X151535715Y-131630952D01*
X151488096Y-131678571D01*
X151392858Y-131726190D01*
X151011905Y-131726190D01*
X151916667Y-131202381D02*
X152535715Y-131202381D01*
X152202381Y-131583333D01*
X152345239Y-131583333D01*
X152440477Y-131630952D01*
X152488096Y-131678571D01*
X152535715Y-131773810D01*
X152535715Y-132011905D01*
X152488096Y-132107143D01*
X152440477Y-132154762D01*
X152345239Y-132202381D01*
X152059524Y-132202381D01*
X151964286Y-132154762D01*
X151916667Y-132107143D01*
X152202381Y-118166666D02*
X151726190Y-118500000D01*
X152202381Y-118738095D02*
X151202381Y-118738095D01*
X151202381Y-118357142D01*
X151250000Y-118261904D01*
X151297619Y-118214285D01*
X151392857Y-118166666D01*
X151535714Y-118166666D01*
X151630952Y-118214285D01*
X151678571Y-118261904D01*
X151726190Y-118357142D01*
X151726190Y-118738095D01*
X151535714Y-117309523D02*
X152202381Y-117309523D01*
X151154762Y-117547619D02*
X151869048Y-117785714D01*
X151869048Y-117166666D01*
X148952381Y-111166666D02*
X148476190Y-111500000D01*
X148952381Y-111738095D02*
X147952381Y-111738095D01*
X147952381Y-111357142D01*
X148000000Y-111261904D01*
X148047619Y-111214285D01*
X148142857Y-111166666D01*
X148285714Y-111166666D01*
X148380952Y-111214285D01*
X148428571Y-111261904D01*
X148476190Y-111357142D01*
X148476190Y-111738095D01*
X147952381Y-110261904D02*
X147952381Y-110738095D01*
X148428571Y-110785714D01*
X148380952Y-110738095D01*
X148333333Y-110642857D01*
X148333333Y-110404761D01*
X148380952Y-110309523D01*
X148428571Y-110261904D01*
X148523810Y-110214285D01*
X148761905Y-110214285D01*
X148857143Y-110261904D01*
X148904762Y-110309523D01*
X148952381Y-110404761D01*
X148952381Y-110642857D01*
X148904762Y-110738095D01*
X148857143Y-110785714D01*
X142583334Y-113702381D02*
X142250000Y-113226190D01*
X142011905Y-113702381D02*
X142011905Y-112702381D01*
X142392858Y-112702381D01*
X142488096Y-112750000D01*
X142535715Y-112797619D01*
X142583334Y-112892857D01*
X142583334Y-113035714D01*
X142535715Y-113130952D01*
X142488096Y-113178571D01*
X142392858Y-113226190D01*
X142011905Y-113226190D01*
X143440477Y-112702381D02*
X143250000Y-112702381D01*
X143154762Y-112750000D01*
X143107143Y-112797619D01*
X143011905Y-112940476D01*
X142964286Y-113130952D01*
X142964286Y-113511905D01*
X143011905Y-113607143D01*
X143059524Y-113654762D01*
X143154762Y-113702381D01*
X143345239Y-113702381D01*
X143440477Y-113654762D01*
X143488096Y-113607143D01*
X143535715Y-113511905D01*
X143535715Y-113273810D01*
X143488096Y-113178571D01*
X143440477Y-113130952D01*
X143345239Y-113083333D01*
X143154762Y-113083333D01*
X143059524Y-113130952D01*
X143011905Y-113178571D01*
X142964286Y-113273810D01*
X147264381Y-102274666D02*
X146788190Y-102608000D01*
X147264381Y-102846095D02*
X146264381Y-102846095D01*
X146264381Y-102465142D01*
X146312000Y-102369904D01*
X146359619Y-102322285D01*
X146454857Y-102274666D01*
X146597714Y-102274666D01*
X146692952Y-102322285D01*
X146740571Y-102369904D01*
X146788190Y-102465142D01*
X146788190Y-102846095D01*
X146264381Y-101941333D02*
X146264381Y-101274666D01*
X147264381Y-101703238D01*
X146083334Y-96202381D02*
X145750000Y-95726190D01*
X145511905Y-96202381D02*
X145511905Y-95202381D01*
X145892858Y-95202381D01*
X145988096Y-95250000D01*
X146035715Y-95297619D01*
X146083334Y-95392857D01*
X146083334Y-95535714D01*
X146035715Y-95630952D01*
X145988096Y-95678571D01*
X145892858Y-95726190D01*
X145511905Y-95726190D01*
X146654762Y-95630952D02*
X146559524Y-95583333D01*
X146511905Y-95535714D01*
X146464286Y-95440476D01*
X146464286Y-95392857D01*
X146511905Y-95297619D01*
X146559524Y-95250000D01*
X146654762Y-95202381D01*
X146845239Y-95202381D01*
X146940477Y-95250000D01*
X146988096Y-95297619D01*
X147035715Y-95392857D01*
X147035715Y-95440476D01*
X146988096Y-95535714D01*
X146940477Y-95583333D01*
X146845239Y-95630952D01*
X146654762Y-95630952D01*
X146559524Y-95678571D01*
X146511905Y-95726190D01*
X146464286Y-95821429D01*
X146464286Y-96011905D01*
X146511905Y-96107143D01*
X146559524Y-96154762D01*
X146654762Y-96202381D01*
X146845239Y-96202381D01*
X146940477Y-96154762D01*
X146988096Y-96107143D01*
X147035715Y-96011905D01*
X147035715Y-95821429D01*
X146988096Y-95726190D01*
X146940477Y-95678571D01*
X146845239Y-95630952D01*
X153360381Y-125261666D02*
X152884190Y-125595000D01*
X153360381Y-125833095D02*
X152360381Y-125833095D01*
X152360381Y-125452142D01*
X152408000Y-125356904D01*
X152455619Y-125309285D01*
X152550857Y-125261666D01*
X152693714Y-125261666D01*
X152788952Y-125309285D01*
X152836571Y-125356904D01*
X152884190Y-125452142D01*
X152884190Y-125833095D01*
X153360381Y-124785476D02*
X153360381Y-124595000D01*
X153312762Y-124499761D01*
X153265143Y-124452142D01*
X153122286Y-124356904D01*
X152931810Y-124309285D01*
X152550857Y-124309285D01*
X152455619Y-124356904D01*
X152408000Y-124404523D01*
X152360381Y-124499761D01*
X152360381Y-124690238D01*
X152408000Y-124785476D01*
X152455619Y-124833095D01*
X152550857Y-124880714D01*
X152788952Y-124880714D01*
X152884190Y-124833095D01*
X152931810Y-124785476D01*
X152979429Y-124690238D01*
X152979429Y-124499761D01*
X152931810Y-124404523D01*
X152884190Y-124356904D01*
X152788952Y-124309285D01*
X163857143Y-125702381D02*
X163523809Y-125226190D01*
X163285714Y-125702381D02*
X163285714Y-124702381D01*
X163666667Y-124702381D01*
X163761905Y-124750000D01*
X163809524Y-124797619D01*
X163857143Y-124892857D01*
X163857143Y-125035714D01*
X163809524Y-125130952D01*
X163761905Y-125178571D01*
X163666667Y-125226190D01*
X163285714Y-125226190D01*
X164809524Y-125702381D02*
X164238095Y-125702381D01*
X164523809Y-125702381D02*
X164523809Y-124702381D01*
X164428571Y-124845238D01*
X164333333Y-124940476D01*
X164238095Y-124988095D01*
X165428571Y-124702381D02*
X165523810Y-124702381D01*
X165619048Y-124750000D01*
X165666667Y-124797619D01*
X165714286Y-124892857D01*
X165761905Y-125083333D01*
X165761905Y-125321429D01*
X165714286Y-125511905D01*
X165666667Y-125607143D01*
X165619048Y-125654762D01*
X165523810Y-125702381D01*
X165428571Y-125702381D01*
X165333333Y-125654762D01*
X165285714Y-125607143D01*
X165238095Y-125511905D01*
X165190476Y-125321429D01*
X165190476Y-125083333D01*
X165238095Y-124892857D01*
X165285714Y-124797619D01*
X165333333Y-124750000D01*
X165428571Y-124702381D01*
X167107143Y-123202381D02*
X166773809Y-122726190D01*
X166535714Y-123202381D02*
X166535714Y-122202381D01*
X166916667Y-122202381D01*
X167011905Y-122250000D01*
X167059524Y-122297619D01*
X167107143Y-122392857D01*
X167107143Y-122535714D01*
X167059524Y-122630952D01*
X167011905Y-122678571D01*
X166916667Y-122726190D01*
X166535714Y-122726190D01*
X168059524Y-123202381D02*
X167488095Y-123202381D01*
X167773809Y-123202381D02*
X167773809Y-122202381D01*
X167678571Y-122345238D01*
X167583333Y-122440476D01*
X167488095Y-122488095D01*
X169011905Y-123202381D02*
X168440476Y-123202381D01*
X168726190Y-123202381D02*
X168726190Y-122202381D01*
X168630952Y-122345238D01*
X168535714Y-122440476D01*
X168440476Y-122488095D01*
X155250000Y-120857143D02*
X155464286Y-120928571D01*
X155821429Y-120928571D01*
X155964286Y-120857143D01*
X156035715Y-120785714D01*
X156107143Y-120642857D01*
X156107143Y-120500000D01*
X156035715Y-120357143D01*
X155964286Y-120285714D01*
X155821429Y-120214286D01*
X155535715Y-120142857D01*
X155392857Y-120071429D01*
X155321429Y-120000000D01*
X155250000Y-119857143D01*
X155250000Y-119714286D01*
X155321429Y-119571429D01*
X155392857Y-119500000D01*
X155535715Y-119428571D01*
X155892857Y-119428571D01*
X156107143Y-119500000D01*
X156607143Y-119428571D02*
X156964286Y-120928571D01*
X157250000Y-119857143D01*
X157535714Y-120928571D01*
X157892857Y-119428571D01*
X159250000Y-120928571D02*
X158392857Y-120928571D01*
X158821429Y-120928571D02*
X158821429Y-119428571D01*
X158678572Y-119642857D01*
X158535714Y-119785714D01*
X158392857Y-119857143D01*
X141952381Y-122178571D02*
X140952381Y-122178571D01*
X140952381Y-121797618D01*
X141000000Y-121702380D01*
X141047619Y-121654761D01*
X141142857Y-121607142D01*
X141285714Y-121607142D01*
X141380952Y-121654761D01*
X141428571Y-121702380D01*
X141476190Y-121797618D01*
X141476190Y-122178571D01*
X141952381Y-121178571D02*
X140952381Y-121178571D01*
X141428571Y-120702381D02*
X141428571Y-120369047D01*
X141952381Y-120226190D02*
X141952381Y-120702381D01*
X140952381Y-120702381D01*
X140952381Y-120226190D01*
X140952381Y-119892857D02*
X140952381Y-119226190D01*
X141952381Y-119892857D01*
X141952381Y-119226190D01*
X140952381Y-118654762D02*
X140952381Y-118464285D01*
X141000000Y-118369047D01*
X141095238Y-118273809D01*
X141285714Y-118226190D01*
X141619048Y-118226190D01*
X141809524Y-118273809D01*
X141904762Y-118369047D01*
X141952381Y-118464285D01*
X141952381Y-118654762D01*
X141904762Y-118750000D01*
X141809524Y-118845238D01*
X141619048Y-118892857D01*
X141285714Y-118892857D01*
X141095238Y-118845238D01*
X141000000Y-118750000D01*
X140952381Y-118654762D01*
X141952381Y-117273809D02*
X141952381Y-117845238D01*
X141952381Y-117559524D02*
X140952381Y-117559524D01*
X141095238Y-117654762D01*
X141190476Y-117750000D01*
X141238095Y-117845238D01*
X150892858Y-110678571D02*
X150892858Y-109178571D01*
X151464286Y-109178571D01*
X151607144Y-109250000D01*
X151678572Y-109321429D01*
X151750001Y-109464286D01*
X151750001Y-109678571D01*
X151678572Y-109821429D01*
X151607144Y-109892857D01*
X151464286Y-109964286D01*
X150892858Y-109964286D01*
X153178572Y-110678571D02*
X152321429Y-110678571D01*
X152750001Y-110678571D02*
X152750001Y-109178571D01*
X152607144Y-109392857D01*
X152464286Y-109535714D01*
X152321429Y-109607143D01*
X144061571Y-122011142D02*
X142561571Y-122011142D01*
X142561571Y-121653999D01*
X142633000Y-121439714D01*
X142775857Y-121296856D01*
X142918714Y-121225428D01*
X143204429Y-121153999D01*
X143418714Y-121153999D01*
X143704429Y-121225428D01*
X143847286Y-121296856D01*
X143990143Y-121439714D01*
X144061571Y-121653999D01*
X144061571Y-122011142D01*
X142704429Y-120582571D02*
X142633000Y-120511142D01*
X142561571Y-120368285D01*
X142561571Y-120011142D01*
X142633000Y-119868285D01*
X142704429Y-119796856D01*
X142847286Y-119725428D01*
X142990143Y-119725428D01*
X143204429Y-119796856D01*
X144061571Y-120653999D01*
X144061571Y-119725428D01*
X178607143Y-114452381D02*
X178273809Y-113976190D01*
X178035714Y-114452381D02*
X178035714Y-113452381D01*
X178416667Y-113452381D01*
X178511905Y-113500000D01*
X178559524Y-113547619D01*
X178607143Y-113642857D01*
X178607143Y-113785714D01*
X178559524Y-113880952D01*
X178511905Y-113928571D01*
X178416667Y-113976190D01*
X178035714Y-113976190D01*
X179559524Y-114452381D02*
X178988095Y-114452381D01*
X179273809Y-114452381D02*
X179273809Y-113452381D01*
X179178571Y-113595238D01*
X179083333Y-113690476D01*
X178988095Y-113738095D01*
X179940476Y-113547619D02*
X179988095Y-113500000D01*
X180083333Y-113452381D01*
X180321429Y-113452381D01*
X180416667Y-113500000D01*
X180464286Y-113547619D01*
X180511905Y-113642857D01*
X180511905Y-113738095D01*
X180464286Y-113880952D01*
X179892857Y-114452381D01*
X180511905Y-114452381D01*
X131761905Y-99702381D02*
X131761905Y-98702381D01*
X132142858Y-98702381D01*
X132238096Y-98750000D01*
X132285715Y-98797619D01*
X132333334Y-98892857D01*
X132333334Y-99035714D01*
X132285715Y-99130952D01*
X132238096Y-99178571D01*
X132142858Y-99226190D01*
X131761905Y-99226190D01*
X132714286Y-98797619D02*
X132761905Y-98750000D01*
X132857143Y-98702381D01*
X133095239Y-98702381D01*
X133190477Y-98750000D01*
X133238096Y-98797619D01*
X133285715Y-98892857D01*
X133285715Y-98988095D01*
X133238096Y-99130952D01*
X132666667Y-99702381D01*
X133285715Y-99702381D01*
X132011905Y-127202381D02*
X132011905Y-126202381D01*
X132392858Y-126202381D01*
X132488096Y-126250000D01*
X132535715Y-126297619D01*
X132583334Y-126392857D01*
X132583334Y-126535714D01*
X132535715Y-126630952D01*
X132488096Y-126678571D01*
X132392858Y-126726190D01*
X132011905Y-126726190D01*
X132916667Y-126202381D02*
X133535715Y-126202381D01*
X133202381Y-126583333D01*
X133345239Y-126583333D01*
X133440477Y-126630952D01*
X133488096Y-126678571D01*
X133535715Y-126773810D01*
X133535715Y-127011905D01*
X133488096Y-127107143D01*
X133440477Y-127154762D01*
X133345239Y-127202381D01*
X133059524Y-127202381D01*
X132964286Y-127154762D01*
X132916667Y-127107143D01*
X174761905Y-127452381D02*
X174761905Y-126452381D01*
X175142858Y-126452381D01*
X175238096Y-126500000D01*
X175285715Y-126547619D01*
X175333334Y-126642857D01*
X175333334Y-126785714D01*
X175285715Y-126880952D01*
X175238096Y-126928571D01*
X175142858Y-126976190D01*
X174761905Y-126976190D01*
X176190477Y-126785714D02*
X176190477Y-127452381D01*
X175952381Y-126404762D02*
X175714286Y-127119048D01*
X176333334Y-127119048D01*
X178511905Y-100202381D02*
X178511905Y-99202381D01*
X178892858Y-99202381D01*
X178988096Y-99250000D01*
X179035715Y-99297619D01*
X179083334Y-99392857D01*
X179083334Y-99535714D01*
X179035715Y-99630952D01*
X178988096Y-99678571D01*
X178892858Y-99726190D01*
X178511905Y-99726190D01*
X179988096Y-99202381D02*
X179511905Y-99202381D01*
X179464286Y-99678571D01*
X179511905Y-99630952D01*
X179607143Y-99583333D01*
X179845239Y-99583333D01*
X179940477Y-99630952D01*
X179988096Y-99678571D01*
X180035715Y-99773810D01*
X180035715Y-100011905D01*
X179988096Y-100107143D01*
X179940477Y-100154762D01*
X179845239Y-100202381D01*
X179607143Y-100202381D01*
X179511905Y-100154762D01*
X179464286Y-100107143D01*
X149904762Y-128547619D02*
X149809524Y-128500000D01*
X149714286Y-128404762D01*
X149571429Y-128261905D01*
X149476190Y-128214286D01*
X149380952Y-128214286D01*
X149428571Y-128452381D02*
X149333333Y-128404762D01*
X149238095Y-128309524D01*
X149190476Y-128119048D01*
X149190476Y-127785714D01*
X149238095Y-127595238D01*
X149333333Y-127500000D01*
X149428571Y-127452381D01*
X149619048Y-127452381D01*
X149714286Y-127500000D01*
X149809524Y-127595238D01*
X149857143Y-127785714D01*
X149857143Y-128119048D01*
X149809524Y-128309524D01*
X149714286Y-128404762D01*
X149619048Y-128452381D01*
X149428571Y-128452381D01*
X150809524Y-128452381D02*
X150238095Y-128452381D01*
X150523809Y-128452381D02*
X150523809Y-127452381D01*
X150428571Y-127595238D01*
X150333333Y-127690476D01*
X150238095Y-127738095D01*
X159904762Y-126547619D02*
X159809524Y-126500000D01*
X159714286Y-126404762D01*
X159571429Y-126261905D01*
X159476190Y-126214286D01*
X159380952Y-126214286D01*
X159428571Y-126452381D02*
X159333333Y-126404762D01*
X159238095Y-126309524D01*
X159190476Y-126119048D01*
X159190476Y-125785714D01*
X159238095Y-125595238D01*
X159333333Y-125500000D01*
X159428571Y-125452381D01*
X159619048Y-125452381D01*
X159714286Y-125500000D01*
X159809524Y-125595238D01*
X159857143Y-125785714D01*
X159857143Y-126119048D01*
X159809524Y-126309524D01*
X159714286Y-126404762D01*
X159619048Y-126452381D01*
X159428571Y-126452381D01*
X160238095Y-125547619D02*
X160285714Y-125500000D01*
X160380952Y-125452381D01*
X160619048Y-125452381D01*
X160714286Y-125500000D01*
X160761905Y-125547619D01*
X160809524Y-125642857D01*
X160809524Y-125738095D01*
X160761905Y-125880952D01*
X160190476Y-126452381D01*
X160809524Y-126452381D01*
X159654762Y-128297619D02*
X159559524Y-128250000D01*
X159464286Y-128154762D01*
X159321429Y-128011905D01*
X159226190Y-127964286D01*
X159130952Y-127964286D01*
X159178571Y-128202381D02*
X159083333Y-128154762D01*
X158988095Y-128059524D01*
X158940476Y-127869048D01*
X158940476Y-127535714D01*
X158988095Y-127345238D01*
X159083333Y-127250000D01*
X159178571Y-127202381D01*
X159369048Y-127202381D01*
X159464286Y-127250000D01*
X159559524Y-127345238D01*
X159607143Y-127535714D01*
X159607143Y-127869048D01*
X159559524Y-128059524D01*
X159464286Y-128154762D01*
X159369048Y-128202381D01*
X159178571Y-128202381D01*
X159940476Y-127202381D02*
X160559524Y-127202381D01*
X160226190Y-127583333D01*
X160369048Y-127583333D01*
X160464286Y-127630952D01*
X160511905Y-127678571D01*
X160559524Y-127773810D01*
X160559524Y-128011905D01*
X160511905Y-128107143D01*
X160464286Y-128154762D01*
X160369048Y-128202381D01*
X160083333Y-128202381D01*
X159988095Y-128154762D01*
X159940476Y-128107143D01*
X170595238Y-126702381D02*
X170833333Y-127702381D01*
X171023810Y-126988095D01*
X171214286Y-127702381D01*
X171452381Y-126702381D01*
X172357143Y-127702381D02*
X171785714Y-127702381D01*
X172071428Y-127702381D02*
X172071428Y-126702381D01*
X171976190Y-126845238D01*
X171880952Y-126940476D01*
X171785714Y-126988095D01*
X151727143Y-94533571D02*
X151727143Y-95747857D01*
X151798571Y-95890714D01*
X151870000Y-95962143D01*
X152012857Y-96033571D01*
X152298571Y-96033571D01*
X152441429Y-95962143D01*
X152512857Y-95890714D01*
X152584286Y-95747857D01*
X152584286Y-94533571D01*
X153227143Y-94676429D02*
X153298572Y-94605000D01*
X153441429Y-94533571D01*
X153798572Y-94533571D01*
X153941429Y-94605000D01*
X154012858Y-94676429D01*
X154084286Y-94819286D01*
X154084286Y-94962143D01*
X154012858Y-95176429D01*
X153155715Y-96033571D01*
X154084286Y-96033571D01*
M02*
