%TF.GenerationSoftware,KiCad,Pcbnew,4.0.3+e1-6302~38~ubuntu16.04.1-stable*%
%TF.CreationDate,2016-08-30T13:53:10+01:00*%
%TF.ProjectId,igrow-101,6967726F772D3130312E6B696361645F,101*%
%TF.FileFunction,Soldermask,Top*%
%FSLAX46Y46*%
G04 Gerber Fmt 4.6, Leading zero omitted, Abs format (unit mm)*
G04 Created by KiCad (PCBNEW 4.0.3+e1-6302~38~ubuntu16.04.1-stable) date Tue Aug 30 13:53:10 2016*
%MOMM*%
%LPD*%
G01*
G04 APERTURE LIST*
%ADD10C,0.100000*%
%ADD11R,1.150000X1.600000*%
%ADD12R,3.699460X4.900880*%
%ADD13R,3.699460X4.898340*%
%ADD14R,1.300000X1.600000*%
%ADD15R,1.600000X1.300000*%
%ADD16C,1.924000*%
%ADD17R,1.700000X1.900000*%
%ADD18R,2.800000X1.140000*%
%ADD19R,1.620000X1.310000*%
%ADD20R,2.300000X2.400000*%
%ADD21C,2.300000*%
%ADD22C,4.900000*%
%ADD23R,1.200100X2.200860*%
%ADD24R,2.200860X1.200100*%
%ADD25C,3.400000*%
%ADD26R,1.200000X1.400000*%
%ADD27R,2.800000X1.900000*%
%ADD28C,1.600000*%
%ADD29C,2.900000*%
G04 APERTURE END LIST*
D10*
D11*
X149225000Y-99375000D03*
X149225000Y-97475000D03*
D12*
X135255000Y-102915720D03*
D13*
X135255000Y-111714280D03*
D14*
X168910000Y-125900000D03*
X168910000Y-128100000D03*
D15*
X166540000Y-130175000D03*
X168740000Y-130175000D03*
X150665000Y-130175000D03*
X152865000Y-130175000D03*
D14*
X149860000Y-117010000D03*
X149860000Y-119210000D03*
X146685000Y-112225000D03*
X146685000Y-110025000D03*
D15*
X141775000Y-114935000D03*
X143975000Y-114935000D03*
D14*
X146685000Y-106510000D03*
X146685000Y-104310000D03*
X146685000Y-99525000D03*
X146685000Y-97325000D03*
X154305000Y-126195000D03*
X154305000Y-123995000D03*
D15*
X163365000Y-123825000D03*
X165565000Y-123825000D03*
X166540000Y-121285000D03*
X168740000Y-121285000D03*
D16*
X162560000Y-127000000D03*
X157480000Y-127000000D03*
X157480000Y-121920000D03*
X162560000Y-121920000D03*
D17*
X139446000Y-118284000D03*
X139446000Y-120984000D03*
D18*
X153670000Y-107950000D03*
X149860000Y-107950000D03*
X153670000Y-106680000D03*
X149860000Y-106680000D03*
X153670000Y-105410000D03*
X149860000Y-105410000D03*
X153670000Y-104140000D03*
X149860000Y-104140000D03*
X153670000Y-102870000D03*
X149860000Y-102870000D03*
D19*
X145288000Y-119634000D03*
X145288000Y-122910600D03*
D20*
X142875000Y-107950000D03*
D21*
X140335000Y-107950000D03*
D20*
X142875000Y-102235000D03*
D21*
X140335000Y-102235000D03*
D20*
X142875000Y-96520000D03*
D21*
X140335000Y-96520000D03*
D14*
X179070000Y-115740000D03*
X179070000Y-117940000D03*
D22*
X134620000Y-96520000D03*
X134620000Y-129540000D03*
X177800000Y-129540000D03*
X177800000Y-96520000D03*
D23*
X148910000Y-125961140D03*
X150810000Y-125961140D03*
X149860000Y-122958860D03*
X159070000Y-124056140D03*
X160970000Y-124056140D03*
X160020000Y-121053860D03*
D24*
X159153860Y-129225000D03*
X159153860Y-131125000D03*
X162156140Y-130175000D03*
D25*
X172720000Y-129540000D03*
D26*
X153670000Y-96955000D03*
X152670000Y-96955000D03*
X151670000Y-96955000D03*
X151670000Y-99755000D03*
X152670000Y-99755000D03*
X153670000Y-99755000D03*
D27*
X152670000Y-98355000D03*
D28*
X176000000Y-103500000D03*
X176000000Y-104770000D03*
X176000000Y-106040000D03*
X176000000Y-107310000D03*
X176000000Y-108580000D03*
X176000000Y-109850000D03*
X176000000Y-111120000D03*
X176000000Y-112390000D03*
X176000000Y-113660000D03*
X176000000Y-114930000D03*
X176000000Y-116200000D03*
X176000000Y-117470000D03*
X173460000Y-118105000D03*
X172190000Y-118105000D03*
X170920000Y-118105000D03*
X169650000Y-118105000D03*
X168380000Y-118105000D03*
X167110000Y-118105000D03*
X165840000Y-118105000D03*
X164570000Y-118105000D03*
X163300000Y-118105000D03*
X162030000Y-118105000D03*
X160760000Y-118105000D03*
X159490000Y-118105000D03*
X156950000Y-117470000D03*
X156950000Y-116200000D03*
X156950000Y-114930000D03*
X156950000Y-113660000D03*
X156950000Y-112390000D03*
X156950000Y-111120000D03*
X156950000Y-109850000D03*
X156950000Y-108580000D03*
X156950000Y-107310000D03*
X156950000Y-106040000D03*
X156950000Y-104770000D03*
X156950000Y-103500000D03*
D29*
X153500000Y-121250000D03*
X133180000Y-121250000D03*
M02*
