<?xml version="1.0" standalone="no"?>
 <!DOCTYPE svg PUBLIC "-//W3C//DTD SVG 1.1//EN" 
 "http://www.w3.org/Graphics/SVG/1.1/DTD/svg11.dtd"> 
<svg xmlns="http://www.w3.org/2000/svg" version="1.1" 
    width="5.39496cm" height="4.1656cm" viewBox="0 0 21240 16400 ">
<title>SVG Picture created as igrow-101-F.Mask.svg date 2016/06/08 14:35:27 </title>
  <desc>Picture generated by PCBNEW </desc>
<g style="fill:#000000; fill-opacity:1;stroke:#000000; stroke-opacity:1;
stroke-linecap:round; stroke-linejoin:round; "
 transform="translate(0 0) scale(1 1)">
</g>
<g style="fill:#000000; fill-opacity:0.0; 
stroke:#000000; stroke-width:-0.000393701; stroke-opacity:1; 
stroke-linecap:round; stroke-linejoin:round;">
</g>
<g style="fill:#000000; fill-opacity:0.0; 
stroke:#000000; stroke-width:59.0551; stroke-opacity:1; 
stroke-linecap:round; stroke-linejoin:round;">
<circle cx="2214.17" cy="14814.2" r="656.168" /> 
<path d="M1229 14814
L3198 14814
" />
<path d="M2214 13829
L2214 15798
" />
<circle cx="19214.2" cy="14814.2" r="656.168" /> 
<path d="M18229 14814
L20198 14814
" />
<path d="M19214 13829
L19214 15798
" />
<circle cx="19214.2" cy="1814.17" r="656.168" /> 
<path d="M18229 1814
L20198 1814
" />
<path d="M19214 829
L19214 2798
" />
<path d="M20514 16064
L914 16064
" />
<path d="M20514 514
L20514 16064
" />
<path d="M914 514
L20514 514
" />
<path d="M914 16064
L914 514
" />
<circle cx="2214.17" cy="1814.17" r="656.168" /> 
<path d="M1229 1814
L3198 1814
" />
<path d="M2214 829
L2214 2798
" />
</g>
<g style="fill:#000000; fill-opacity:0.0; 
stroke:#000000; stroke-width:0; stroke-opacity:1; 
stroke-linecap:round; stroke-linejoin:round;">
</g>
<g style="fill:#000000; fill-opacity:1.0; 
stroke:#000000; stroke-width:0; stroke-opacity:1; 
stroke-linecap:round; stroke-linejoin:round;">
<polyline style="fill-rule:evenodd;"
points="8190,3253
7737,3253
7737,2623
8190,2623
8190,3253
" /> 
<polyline style="fill-rule:evenodd;"
points="8190,2505
7737,2505
7737,1875
8190,1875
8190,2505
" /> 
<polyline style="fill-rule:evenodd;"
points="1735,5296
1735,3367
3192,3367
3192,5296
1735,5296
" /> 
<polyline style="fill-rule:evenodd;"
points="1735,8760
1735,6831
3192,6831
3192,8760
1735,8760
" /> 
<polyline style="fill-rule:evenodd;"
points="12966,13820
12966,13308
13596,13308
13596,13820
12966,13820
" /> 
<polyline style="fill-rule:evenodd;"
points="13832,13820
13832,13308
14462,13308
14462,13820
13832,13820
" /> 
<polyline style="fill-rule:evenodd;"
points="12966,14570
12966,14058
13596,14058
13596,14570
12966,14570
" /> 
<polyline style="fill-rule:evenodd;"
points="13832,14570
13832,14058
14462,14058
14462,14570
13832,14570
" /> 
<polyline style="fill-rule:evenodd;"
points="12966,15320
12966,14808
13596,14808
13596,15320
12966,15320
" /> 
<polyline style="fill-rule:evenodd;"
points="13832,15320
13832,14808
14462,14808
14462,15320
13832,15320
" /> 
<polyline style="fill-rule:evenodd;"
points="7958,9566
8470,9566
8470,10196
7958,10196
7958,9566
" /> 
<polyline style="fill-rule:evenodd;"
points="7958,10432
8470,10432
8470,11062
7958,11062
7958,10432
" /> 
<polyline style="fill-rule:evenodd;"
points="7220,8812
6708,8812
6708,8182
7220,8182
7220,8812
" /> 
<polyline style="fill-rule:evenodd;"
points="7220,7946
6708,7946
6708,7316
7220,7316
7220,7946
" /> 
<polyline style="fill-rule:evenodd;"
points="9966,11570
9966,11058
10596,11058
10596,11570
9966,11570
" /> 
<polyline style="fill-rule:evenodd;"
points="10832,11570
10832,11058
11462,11058
11462,11570
10832,11570
" /> 
<polyline style="fill-rule:evenodd;"
points="7220,6062
6708,6062
6708,5432
7220,5432
7220,6062
" /> 
<polyline style="fill-rule:evenodd;"
points="7220,5196
6708,5196
6708,4566
7220,4566
7220,5196
" /> 
<polyline style="fill-rule:evenodd;"
points="7220,3312
6708,3312
6708,2682
7220,2682
7220,3312
" /> 
<polyline style="fill-rule:evenodd;"
points="7220,2446
6708,2446
6708,1816
7220,1816
7220,2446
" /> 
<polyline style="fill-rule:evenodd;"
points="9966,12320
9966,11808
10596,11808
10596,12320
9966,12320
" /> 
<polyline style="fill-rule:evenodd;"
points="10832,12320
10832,11808
11462,11808
11462,12320
10832,12320
" /> 
<polyline style="fill-rule:evenodd;"
points="12966,13070
12966,12558
13596,12558
13596,13070
12966,13070
" /> 
<polyline style="fill-rule:evenodd;"
points="13832,13070
13832,12558
14462,12558
14462,13070
13832,13070
" /> 
<polyline style="fill-rule:evenodd;"
points="14462,11858
14462,12370
13832,12370
13832,11858
14462,11858
" /> 
<polyline style="fill-rule:evenodd;"
points="13596,11858
13596,12370
12966,12370
12966,11858
13596,11858
" /> 
<circle cx="11714.2" cy="14814.2" r="378.74" /> 
</g>
<g style="fill:#000000; fill-opacity:1.0; 
stroke:#000000; stroke-width:39.3701; stroke-opacity:1; 
stroke-linecap:round; stroke-linejoin:round;">
</g>
<g style="fill:#000000; fill-opacity:1.0; 
stroke:#000000; stroke-width:0; stroke-opacity:1; 
stroke-linecap:round; stroke-linejoin:round;">
<circle cx="9714.17" cy="14814.2" r="378.74" /> 
</g>
<g style="fill:#000000; fill-opacity:1.0; 
stroke:#000000; stroke-width:39.3701; stroke-opacity:1; 
stroke-linecap:round; stroke-linejoin:round;">
</g>
<g style="fill:#000000; fill-opacity:1.0; 
stroke:#000000; stroke-width:0; stroke-opacity:1; 
stroke-linecap:round; stroke-linejoin:round;">
<circle cx="9714.17" cy="12814.2" r="378.74" /> 
</g>
<g style="fill:#000000; fill-opacity:1.0; 
stroke:#000000; stroke-width:39.3701; stroke-opacity:1; 
stroke-linecap:round; stroke-linejoin:round;">
</g>
<g style="fill:#000000; fill-opacity:1.0; 
stroke:#000000; stroke-width:0; stroke-opacity:1; 
stroke-linecap:round; stroke-linejoin:round;">
<circle cx="11714.2" cy="12814.2" r="378.74" /> 
</g>
<g style="fill:#000000; fill-opacity:1.0; 
stroke:#000000; stroke-width:39.3701; stroke-opacity:1; 
stroke-linecap:round; stroke-linejoin:round;">
</g>
<g style="fill:#000000; fill-opacity:1.0; 
stroke:#000000; stroke-width:0; stroke-opacity:1; 
stroke-linecap:round; stroke-linejoin:round;">
<circle cx="18714.2" cy="4514.17" r="275.591" /> 
</g>
<g style="fill:#000000; fill-opacity:1.0; 
stroke:#000000; stroke-width:39.3701; stroke-opacity:1; 
stroke-linecap:round; stroke-linejoin:round;">
</g>
<g style="fill:#000000; fill-opacity:1.0; 
stroke:#000000; stroke-width:0; stroke-opacity:1; 
stroke-linecap:round; stroke-linejoin:round;">
<circle cx="18714.2" cy="5014.17" r="275.591" /> 
</g>
<g style="fill:#000000; fill-opacity:1.0; 
stroke:#000000; stroke-width:39.3701; stroke-opacity:1; 
stroke-linecap:round; stroke-linejoin:round;">
</g>
<g style="fill:#000000; fill-opacity:1.0; 
stroke:#000000; stroke-width:0; stroke-opacity:1; 
stroke-linecap:round; stroke-linejoin:round;">
<circle cx="18714.2" cy="5514.17" r="275.591" /> 
</g>
<g style="fill:#000000; fill-opacity:1.0; 
stroke:#000000; stroke-width:39.3701; stroke-opacity:1; 
stroke-linecap:round; stroke-linejoin:round;">
</g>
<g style="fill:#000000; fill-opacity:1.0; 
stroke:#000000; stroke-width:0; stroke-opacity:1; 
stroke-linecap:round; stroke-linejoin:round;">
<circle cx="18714.2" cy="6014.17" r="275.591" /> 
</g>
<g style="fill:#000000; fill-opacity:1.0; 
stroke:#000000; stroke-width:39.3701; stroke-opacity:1; 
stroke-linecap:round; stroke-linejoin:round;">
</g>
<g style="fill:#000000; fill-opacity:1.0; 
stroke:#000000; stroke-width:0; stroke-opacity:1; 
stroke-linecap:round; stroke-linejoin:round;">
<circle cx="18714.2" cy="6514.17" r="275.591" /> 
</g>
<g style="fill:#000000; fill-opacity:1.0; 
stroke:#000000; stroke-width:39.3701; stroke-opacity:1; 
stroke-linecap:round; stroke-linejoin:round;">
</g>
<g style="fill:#000000; fill-opacity:1.0; 
stroke:#000000; stroke-width:0; stroke-opacity:1; 
stroke-linecap:round; stroke-linejoin:round;">
<circle cx="18714.2" cy="7014.17" r="275.591" /> 
</g>
<g style="fill:#000000; fill-opacity:1.0; 
stroke:#000000; stroke-width:39.3701; stroke-opacity:1; 
stroke-linecap:round; stroke-linejoin:round;">
</g>
<g style="fill:#000000; fill-opacity:1.0; 
stroke:#000000; stroke-width:0; stroke-opacity:1; 
stroke-linecap:round; stroke-linejoin:round;">
<circle cx="18714.2" cy="7514.17" r="275.591" /> 
</g>
<g style="fill:#000000; fill-opacity:1.0; 
stroke:#000000; stroke-width:39.3701; stroke-opacity:1; 
stroke-linecap:round; stroke-linejoin:round;">
</g>
<g style="fill:#000000; fill-opacity:1.0; 
stroke:#000000; stroke-width:0; stroke-opacity:1; 
stroke-linecap:round; stroke-linejoin:round;">
<circle cx="18714.2" cy="8014.17" r="275.591" /> 
</g>
<g style="fill:#000000; fill-opacity:1.0; 
stroke:#000000; stroke-width:39.3701; stroke-opacity:1; 
stroke-linecap:round; stroke-linejoin:round;">
</g>
<g style="fill:#000000; fill-opacity:1.0; 
stroke:#000000; stroke-width:0; stroke-opacity:1; 
stroke-linecap:round; stroke-linejoin:round;">
<circle cx="18714.2" cy="8514.17" r="275.591" /> 
</g>
<g style="fill:#000000; fill-opacity:1.0; 
stroke:#000000; stroke-width:39.3701; stroke-opacity:1; 
stroke-linecap:round; stroke-linejoin:round;">
</g>
<g style="fill:#000000; fill-opacity:1.0; 
stroke:#000000; stroke-width:0; stroke-opacity:1; 
stroke-linecap:round; stroke-linejoin:round;">
<circle cx="18714.2" cy="9014.17" r="275.591" /> 
</g>
<g style="fill:#000000; fill-opacity:1.0; 
stroke:#000000; stroke-width:39.3701; stroke-opacity:1; 
stroke-linecap:round; stroke-linejoin:round;">
</g>
<g style="fill:#000000; fill-opacity:1.0; 
stroke:#000000; stroke-width:0; stroke-opacity:1; 
stroke-linecap:round; stroke-linejoin:round;">
<circle cx="18714.2" cy="9514.17" r="275.591" /> 
</g>
<g style="fill:#000000; fill-opacity:1.0; 
stroke:#000000; stroke-width:39.3701; stroke-opacity:1; 
stroke-linecap:round; stroke-linejoin:round;">
</g>
<g style="fill:#000000; fill-opacity:1.0; 
stroke:#000000; stroke-width:0; stroke-opacity:1; 
stroke-linecap:round; stroke-linejoin:round;">
<circle cx="18714.2" cy="10014.2" r="275.591" /> 
</g>
<g style="fill:#000000; fill-opacity:1.0; 
stroke:#000000; stroke-width:39.3701; stroke-opacity:1; 
stroke-linecap:round; stroke-linejoin:round;">
</g>
<g style="fill:#000000; fill-opacity:1.0; 
stroke:#000000; stroke-width:0; stroke-opacity:1; 
stroke-linecap:round; stroke-linejoin:round;">
<circle cx="17714.2" cy="10264.2" r="275.591" /> 
</g>
<g style="fill:#000000; fill-opacity:1.0; 
stroke:#000000; stroke-width:39.3701; stroke-opacity:1; 
stroke-linecap:round; stroke-linejoin:round;">
</g>
<g style="fill:#000000; fill-opacity:1.0; 
stroke:#000000; stroke-width:0; stroke-opacity:1; 
stroke-linecap:round; stroke-linejoin:round;">
<circle cx="17214.2" cy="10264.2" r="275.591" /> 
</g>
<g style="fill:#000000; fill-opacity:1.0; 
stroke:#000000; stroke-width:39.3701; stroke-opacity:1; 
stroke-linecap:round; stroke-linejoin:round;">
</g>
<g style="fill:#000000; fill-opacity:1.0; 
stroke:#000000; stroke-width:0; stroke-opacity:1; 
stroke-linecap:round; stroke-linejoin:round;">
<circle cx="16714.2" cy="10264.2" r="275.591" /> 
</g>
<g style="fill:#000000; fill-opacity:1.0; 
stroke:#000000; stroke-width:39.3701; stroke-opacity:1; 
stroke-linecap:round; stroke-linejoin:round;">
</g>
<g style="fill:#000000; fill-opacity:1.0; 
stroke:#000000; stroke-width:0; stroke-opacity:1; 
stroke-linecap:round; stroke-linejoin:round;">
<circle cx="16214.2" cy="10264.2" r="275.591" /> 
</g>
<g style="fill:#000000; fill-opacity:1.0; 
stroke:#000000; stroke-width:39.3701; stroke-opacity:1; 
stroke-linecap:round; stroke-linejoin:round;">
</g>
<g style="fill:#000000; fill-opacity:1.0; 
stroke:#000000; stroke-width:0; stroke-opacity:1; 
stroke-linecap:round; stroke-linejoin:round;">
<circle cx="15714.2" cy="10264.2" r="275.591" /> 
</g>
<g style="fill:#000000; fill-opacity:1.0; 
stroke:#000000; stroke-width:39.3701; stroke-opacity:1; 
stroke-linecap:round; stroke-linejoin:round;">
</g>
<g style="fill:#000000; fill-opacity:1.0; 
stroke:#000000; stroke-width:0; stroke-opacity:1; 
stroke-linecap:round; stroke-linejoin:round;">
<circle cx="15214.2" cy="10264.2" r="275.591" /> 
</g>
<g style="fill:#000000; fill-opacity:1.0; 
stroke:#000000; stroke-width:39.3701; stroke-opacity:1; 
stroke-linecap:round; stroke-linejoin:round;">
</g>
<g style="fill:#000000; fill-opacity:1.0; 
stroke:#000000; stroke-width:0; stroke-opacity:1; 
stroke-linecap:round; stroke-linejoin:round;">
<circle cx="14714.2" cy="10264.2" r="275.591" /> 
</g>
<g style="fill:#000000; fill-opacity:1.0; 
stroke:#000000; stroke-width:39.3701; stroke-opacity:1; 
stroke-linecap:round; stroke-linejoin:round;">
</g>
<g style="fill:#000000; fill-opacity:1.0; 
stroke:#000000; stroke-width:0; stroke-opacity:1; 
stroke-linecap:round; stroke-linejoin:round;">
<circle cx="14214.2" cy="10264.2" r="275.591" /> 
</g>
<g style="fill:#000000; fill-opacity:1.0; 
stroke:#000000; stroke-width:39.3701; stroke-opacity:1; 
stroke-linecap:round; stroke-linejoin:round;">
</g>
<g style="fill:#000000; fill-opacity:1.0; 
stroke:#000000; stroke-width:0; stroke-opacity:1; 
stroke-linecap:round; stroke-linejoin:round;">
<circle cx="13714.2" cy="10264.2" r="275.591" /> 
</g>
<g style="fill:#000000; fill-opacity:1.0; 
stroke:#000000; stroke-width:39.3701; stroke-opacity:1; 
stroke-linecap:round; stroke-linejoin:round;">
</g>
<g style="fill:#000000; fill-opacity:1.0; 
stroke:#000000; stroke-width:0; stroke-opacity:1; 
stroke-linecap:round; stroke-linejoin:round;">
<circle cx="13214.2" cy="10264.2" r="275.591" /> 
</g>
<g style="fill:#000000; fill-opacity:1.0; 
stroke:#000000; stroke-width:39.3701; stroke-opacity:1; 
stroke-linecap:round; stroke-linejoin:round;">
</g>
<g style="fill:#000000; fill-opacity:1.0; 
stroke:#000000; stroke-width:0; stroke-opacity:1; 
stroke-linecap:round; stroke-linejoin:round;">
<circle cx="12714.2" cy="10264.2" r="275.591" /> 
</g>
<g style="fill:#000000; fill-opacity:1.0; 
stroke:#000000; stroke-width:39.3701; stroke-opacity:1; 
stroke-linecap:round; stroke-linejoin:round;">
</g>
<g style="fill:#000000; fill-opacity:1.0; 
stroke:#000000; stroke-width:0; stroke-opacity:1; 
stroke-linecap:round; stroke-linejoin:round;">
<circle cx="12214.2" cy="10264.2" r="275.591" /> 
</g>
<g style="fill:#000000; fill-opacity:1.0; 
stroke:#000000; stroke-width:39.3701; stroke-opacity:1; 
stroke-linecap:round; stroke-linejoin:round;">
</g>
<g style="fill:#000000; fill-opacity:1.0; 
stroke:#000000; stroke-width:0; stroke-opacity:1; 
stroke-linecap:round; stroke-linejoin:round;">
<circle cx="11214.2" cy="10014.2" r="275.591" /> 
</g>
<g style="fill:#000000; fill-opacity:1.0; 
stroke:#000000; stroke-width:39.3701; stroke-opacity:1; 
stroke-linecap:round; stroke-linejoin:round;">
</g>
<g style="fill:#000000; fill-opacity:1.0; 
stroke:#000000; stroke-width:0; stroke-opacity:1; 
stroke-linecap:round; stroke-linejoin:round;">
<circle cx="11214.2" cy="9514.17" r="275.591" /> 
</g>
<g style="fill:#000000; fill-opacity:1.0; 
stroke:#000000; stroke-width:39.3701; stroke-opacity:1; 
stroke-linecap:round; stroke-linejoin:round;">
</g>
<g style="fill:#000000; fill-opacity:1.0; 
stroke:#000000; stroke-width:0; stroke-opacity:1; 
stroke-linecap:round; stroke-linejoin:round;">
<circle cx="11214.2" cy="9014.17" r="275.591" /> 
</g>
<g style="fill:#000000; fill-opacity:1.0; 
stroke:#000000; stroke-width:39.3701; stroke-opacity:1; 
stroke-linecap:round; stroke-linejoin:round;">
</g>
<g style="fill:#000000; fill-opacity:1.0; 
stroke:#000000; stroke-width:0; stroke-opacity:1; 
stroke-linecap:round; stroke-linejoin:round;">
<circle cx="11214.2" cy="8514.17" r="275.591" /> 
</g>
<g style="fill:#000000; fill-opacity:1.0; 
stroke:#000000; stroke-width:39.3701; stroke-opacity:1; 
stroke-linecap:round; stroke-linejoin:round;">
</g>
<g style="fill:#000000; fill-opacity:1.0; 
stroke:#000000; stroke-width:0; stroke-opacity:1; 
stroke-linecap:round; stroke-linejoin:round;">
<circle cx="11214.2" cy="8014.17" r="275.591" /> 
</g>
<g style="fill:#000000; fill-opacity:1.0; 
stroke:#000000; stroke-width:39.3701; stroke-opacity:1; 
stroke-linecap:round; stroke-linejoin:round;">
</g>
<g style="fill:#000000; fill-opacity:1.0; 
stroke:#000000; stroke-width:0; stroke-opacity:1; 
stroke-linecap:round; stroke-linejoin:round;">
<circle cx="11214.2" cy="7514.17" r="275.591" /> 
</g>
<g style="fill:#000000; fill-opacity:1.0; 
stroke:#000000; stroke-width:39.3701; stroke-opacity:1; 
stroke-linecap:round; stroke-linejoin:round;">
</g>
<g style="fill:#000000; fill-opacity:1.0; 
stroke:#000000; stroke-width:0; stroke-opacity:1; 
stroke-linecap:round; stroke-linejoin:round;">
<circle cx="11214.2" cy="7014.17" r="275.591" /> 
</g>
<g style="fill:#000000; fill-opacity:1.0; 
stroke:#000000; stroke-width:39.3701; stroke-opacity:1; 
stroke-linecap:round; stroke-linejoin:round;">
</g>
<g style="fill:#000000; fill-opacity:1.0; 
stroke:#000000; stroke-width:0; stroke-opacity:1; 
stroke-linecap:round; stroke-linejoin:round;">
<circle cx="11214.2" cy="6514.17" r="275.591" /> 
</g>
<g style="fill:#000000; fill-opacity:1.0; 
stroke:#000000; stroke-width:39.3701; stroke-opacity:1; 
stroke-linecap:round; stroke-linejoin:round;">
</g>
<g style="fill:#000000; fill-opacity:1.0; 
stroke:#000000; stroke-width:0; stroke-opacity:1; 
stroke-linecap:round; stroke-linejoin:round;">
<circle cx="11214.2" cy="6014.17" r="275.591" /> 
</g>
<g style="fill:#000000; fill-opacity:1.0; 
stroke:#000000; stroke-width:39.3701; stroke-opacity:1; 
stroke-linecap:round; stroke-linejoin:round;">
</g>
<g style="fill:#000000; fill-opacity:1.0; 
stroke:#000000; stroke-width:0; stroke-opacity:1; 
stroke-linecap:round; stroke-linejoin:round;">
<circle cx="11214.2" cy="5514.17" r="275.591" /> 
</g>
<g style="fill:#000000; fill-opacity:1.0; 
stroke:#000000; stroke-width:39.3701; stroke-opacity:1; 
stroke-linecap:round; stroke-linejoin:round;">
</g>
<g style="fill:#000000; fill-opacity:1.0; 
stroke:#000000; stroke-width:0; stroke-opacity:1; 
stroke-linecap:round; stroke-linejoin:round;">
<circle cx="11214.2" cy="5014.17" r="275.591" /> 
</g>
<g style="fill:#000000; fill-opacity:1.0; 
stroke:#000000; stroke-width:39.3701; stroke-opacity:1; 
stroke-linecap:round; stroke-linejoin:round;">
</g>
<g style="fill:#000000; fill-opacity:1.0; 
stroke:#000000; stroke-width:0; stroke-opacity:1; 
stroke-linecap:round; stroke-linejoin:round;">
<circle cx="11214.2" cy="4514.17" r="275.591" /> 
</g>
<g style="fill:#000000; fill-opacity:1.0; 
stroke:#000000; stroke-width:39.3701; stroke-opacity:1; 
stroke-linecap:round; stroke-linejoin:round;">
</g>
<g style="fill:#000000; fill-opacity:1.0; 
stroke:#000000; stroke-width:0; stroke-opacity:1; 
stroke-linecap:round; stroke-linejoin:round;">
<polyline style="fill-rule:evenodd;"
points="9871,1867
9871,2261
9556,2261
9556,1867
9871,1867
" /> 
<polyline style="fill-rule:evenodd;"
points="9477,1867
9477,2261
9162,2261
9162,1867
9477,1867
" /> 
<polyline style="fill-rule:evenodd;"
points="9084,1867
9084,2261
8769,2261
8769,1867
9084,1867
" /> 
<polyline style="fill-rule:evenodd;"
points="9084,2812
9084,3205
8769,3205
8769,2812
9084,2812
" /> 
<polyline style="fill-rule:evenodd;"
points="9477,2812
9477,3205
9162,3205
9162,2812
9477,2812
" /> 
<polyline style="fill-rule:evenodd;"
points="9871,2812
9871,3205
9556,3205
9556,2812
9871,2812
" /> 
<polyline style="fill-rule:evenodd;"
points="9871,2162
9871,2910
8769,2910
8769,2162
9871,2162
" /> 
<circle cx="9714.17" cy="9564.17" r="378.74" /> 
</g>
<g style="fill:#000000; fill-opacity:1.0; 
stroke:#000000; stroke-width:39.3701; stroke-opacity:1; 
stroke-linecap:round; stroke-linejoin:round;">
</g>
<g style="fill:#000000; fill-opacity:1.0; 
stroke:#000000; stroke-width:0; stroke-opacity:1; 
stroke-linecap:round; stroke-linejoin:round;">
<circle cx="1714.17" cy="9564.17" r="378.74" /> 
</g>
<g style="fill:#000000; fill-opacity:1.0; 
stroke:#000000; stroke-width:39.3701; stroke-opacity:1; 
stroke-linecap:round; stroke-linejoin:round;">
</g>
<g style="fill:#000000; fill-opacity:1.0; 
stroke:#000000; stroke-width:0; stroke-opacity:1; 
stroke-linecap:round; stroke-linejoin:round;">
<polyline style="fill-rule:evenodd;"
points="3779,10008
4448,10008
4448,10756
3779,10756
3779,10008
" /> 
<polyline style="fill-rule:evenodd;"
points="3779,11071
4448,11071
4448,11819
3779,11819
3779,11071
" /> 
<polyline style="fill-rule:evenodd;"
points="10265,6089
10265,6538
9162,6538
9162,6089
10265,6089
" /> 
<polyline style="fill-rule:evenodd;"
points="8765,6089
8765,6538
7662,6538
7662,6089
8765,6089
" /> 
<polyline style="fill-rule:evenodd;"
points="10265,5589
10265,6038
9162,6038
9162,5589
10265,5589
" /> 
<polyline style="fill-rule:evenodd;"
points="8765,5589
8765,6038
7662,6038
7662,5589
8765,5589
" /> 
<polyline style="fill-rule:evenodd;"
points="10265,5089
10265,5538
9162,5538
9162,5089
10265,5089
" /> 
<polyline style="fill-rule:evenodd;"
points="8765,5089
8765,5538
7662,5538
7662,5089
8765,5089
" /> 
<polyline style="fill-rule:evenodd;"
points="10265,4589
10265,5038
9162,5038
9162,4589
10265,4589
" /> 
<polyline style="fill-rule:evenodd;"
points="8765,4589
8765,5038
7662,5038
7662,4589
8765,4589
" /> 
<polyline style="fill-rule:evenodd;"
points="10265,4089
10265,4538
9162,4538
9162,4089
10265,4089
" /> 
<polyline style="fill-rule:evenodd;"
points="8765,4089
8765,4538
7662,4538
7662,4089
8765,4089
" /> 
<polyline style="fill-rule:evenodd;"
points="6095,10656
6733,10656
6733,11172
6095,11172
6095,10656
" /> 
<polyline style="fill-rule:evenodd;"
points="6095,11946
6733,11946
6733,12462
6095,12462
6095,11946
" /> 
<polyline style="fill-rule:evenodd;"
points="5011,7091
5916,7091
5916,8036
5011,8036
5011,7091
" /> 
<circle cx="4464.17" cy="7564.17" r="452.756" /> 
</g>
<g style="fill:#000000; fill-opacity:1.0; 
stroke:#000000; stroke-width:39.3701; stroke-opacity:1; 
stroke-linecap:round; stroke-linejoin:round;">
</g>
<g style="fill:#000000; fill-opacity:1.0; 
stroke:#000000; stroke-width:0; stroke-opacity:1; 
stroke-linecap:round; stroke-linejoin:round;">
<polyline style="fill-rule:evenodd;"
points="5011,4341
5916,4341
5916,5286
5011,5286
5011,4341
" /> 
<circle cx="4464.17" cy="4814.17" r="452.756" /> 
</g>
<g style="fill:#000000; fill-opacity:1.0; 
stroke:#000000; stroke-width:39.3701; stroke-opacity:1; 
stroke-linecap:round; stroke-linejoin:round;">
</g>
<g style="fill:#000000; fill-opacity:1.0; 
stroke:#000000; stroke-width:0; stroke-opacity:1; 
stroke-linecap:round; stroke-linejoin:round;">
<polyline style="fill-rule:evenodd;"
points="5011,1591
5916,1591
5916,2536
5011,2536
5011,1591
" /> 
<circle cx="4464.17" cy="2064.17" r="452.756" /> 
</g>
<g style="fill:#000000; fill-opacity:1.0; 
stroke:#000000; stroke-width:39.3701; stroke-opacity:1; 
stroke-linecap:round; stroke-linejoin:round;">
</g>
<g style="fill:#000000; fill-opacity:1.0; 
stroke:#000000; stroke-width:0; stroke-opacity:1; 
stroke-linecap:round; stroke-linejoin:round;">
<polyline style="fill-rule:evenodd;"
points="10216,13820
10216,13308
10846,13308
10846,13820
10216,13820
" /> 
<polyline style="fill-rule:evenodd;"
points="11082,13820
11082,13308
11712,13308
11712,13820
11082,13820
" /> 
<circle cx="2214.17" cy="1814.17" r="964.567" /> 
</g>
<g style="fill:#000000; fill-opacity:1.0; 
stroke:#000000; stroke-width:39.3701; stroke-opacity:1; 
stroke-linecap:round; stroke-linejoin:round;">
</g>
<g style="fill:#000000; fill-opacity:1.0; 
stroke:#000000; stroke-width:0; stroke-opacity:1; 
stroke-linecap:round; stroke-linejoin:round;">
<circle cx="2214.17" cy="14814.2" r="964.567" /> 
</g>
<g style="fill:#000000; fill-opacity:1.0; 
stroke:#000000; stroke-width:39.3701; stroke-opacity:1; 
stroke-linecap:round; stroke-linejoin:round;">
</g>
<g style="fill:#000000; fill-opacity:1.0; 
stroke:#000000; stroke-width:0; stroke-opacity:1; 
stroke-linecap:round; stroke-linejoin:round;">
<circle cx="19214.2" cy="14814.2" r="964.567" /> 
</g>
<g style="fill:#000000; fill-opacity:1.0; 
stroke:#000000; stroke-width:39.3701; stroke-opacity:1; 
stroke-linecap:round; stroke-linejoin:round;">
</g>
<g style="fill:#000000; fill-opacity:1.0; 
stroke:#000000; stroke-width:0; stroke-opacity:1; 
stroke-linecap:round; stroke-linejoin:round;">
<circle cx="19214.2" cy="1814.17" r="964.567" /> 
</g>
<g style="fill:#000000; fill-opacity:1.0; 
stroke:#000000; stroke-width:39.3701; stroke-opacity:1; 
stroke-linecap:round; stroke-linejoin:round;">
</g>
<g style="fill:#000000; fill-opacity:1.0; 
stroke:#000000; stroke-width:0; stroke-opacity:1; 
stroke-linecap:round; stroke-linejoin:round;">
<polyline style="fill-rule:evenodd;"
points="3703,14738
3703,13871
4176,13871
4176,14738
3703,14738
" /> 
<polyline style="fill-rule:evenodd;"
points="4451,14738
4451,13871
4924,13871
4924,14738
4451,14738
" /> 
<polyline style="fill-rule:evenodd;"
points="4077,13556
4077,12689
4550,12689
4550,13556
4077,13556
" /> 
<polyline style="fill-rule:evenodd;"
points="5703,14738
5703,13871
6176,13871
6176,14738
5703,14738
" /> 
<polyline style="fill-rule:evenodd;"
points="6451,14738
6451,13871
6924,13871
6924,14738
6451,14738
" /> 
<polyline style="fill-rule:evenodd;"
points="6077,13556
6077,12689
6550,12689
6550,13556
6077,13556
" /> 
<polyline style="fill-rule:evenodd;"
points="7703,14738
7703,13871
8176,13871
8176,14738
7703,14738
" /> 
<polyline style="fill-rule:evenodd;"
points="8451,14738
8451,13871
8924,13871
8924,14738
8451,14738
" /> 
<polyline style="fill-rule:evenodd;"
points="8077,13556
8077,12689
8550,12689
8550,13556
8077,13556
" /> 
<circle cx="17214.2" cy="14814.2" r="669.291" /> 
</g>
<g style="fill:#000000; fill-opacity:1.0; 
stroke:#000000; stroke-width:39.3701; stroke-opacity:1; 
stroke-linecap:round; stroke-linejoin:round;">
</g> 
</svg>
