<?xml version="1.0" standalone="no"?>
 <!DOCTYPE svg PUBLIC "-//W3C//DTD SVG 1.1//EN" 
 "http://www.w3.org/Graphics/SVG/1.1/DTD/svg11.dtd"> 
<svg xmlns="http://www.w3.org/2000/svg" version="1.1" 
    width="5.39496cm" height="4.2164cm" viewBox="0 0 21240 16600 ">
<title>SVG Picture created as igrow-101-B.SilkS.svg date 2016/06/09 11:48:19 </title>
  <desc>Picture generated by PCBNEW </desc>
<g style="fill:#000000; fill-opacity:1;stroke:#000000; stroke-opacity:1;
stroke-linecap:round; stroke-linejoin:round; "
 transform="translate(0 0) scale(1 1)">
</g>
<g style="fill:#000000; fill-opacity:0.0; 
stroke:#000000; stroke-width:-0.000393701; stroke-opacity:1; 
stroke-linecap:round; stroke-linejoin:round;">
</g>
<g style="fill:#000000; fill-opacity:0.0; 
stroke:#000000; stroke-width:59.0551; stroke-opacity:1; 
stroke-linecap:round; stroke-linejoin:round;">
<circle cx="2214.17" cy="15014.2" r="656.168" /> 
<path d="M1229 15014
L3198 15014
" />
<path d="M2214 14029
L2214 15998
" />
<circle cx="19214.2" cy="15014.2" r="656.168" /> 
<path d="M18229 15014
L20198 15014
" />
<path d="M19214 14029
L19214 15998
" />
<circle cx="19214.2" cy="2014.17" r="656.168" /> 
<path d="M18229 2014
L20198 2014
" />
<path d="M19214 1029
L19214 2998
" />
<path d="M20514 16264
L914 16264
" />
<path d="M20514 714
L20514 16264
" />
<path d="M914 714
L20514 714
" />
<path d="M914 16264
L914 714
" />
<circle cx="2214.17" cy="2014.17" r="656.168" /> 
<path d="M1229 2014
L3198 2014
" />
<path d="M2214 1029
L2214 2998
" />
<path d="M15414 2140
L15414 2618
L15385 2675
L15357 2703
L15301 2731
L15189 2731
L15132 2703
L15104 2675
L15076 2618
L15076 2140
" />
<path d="M14486 2731
L14823 2731
" />
<path d="M14654 2731
L14654 2140
L14711 2225
L14767 2281
L14823 2309
" />
<path d="M19160 3781
L19160 3190
L18823 3781
L18823 3190
" />
<path d="M18204 3781
L18401 3500
" />
<path d="M18541 3781
L18541 3190
L18316 3190
L18260 3218
L18232 3247
L18204 3303
L18204 3387
L18232 3443
L18260 3471
L18316 3500
L18541 3500
" />
<path d="M17754 3471
L17951 3471
" />
<path d="M17951 3781
L17951 3190
L17670 3190
" />
<path d="M17163 3190
L17445 3190
L17473 3471
L17445 3443
L17388 3415
L17248 3415
L17192 3443
L17163 3471
L17135 3528
L17135 3668
L17163 3725
L17192 3753
L17248 3781
L17388 3781
L17445 3753
L17473 3725
" />
<path d="M16573 3781
L16910 3781
" />
<path d="M16742 3781
L16742 3190
L16798 3275
L16854 3331
L16910 3359
" />
<path d="M16235 3443
L16292 3415
L16320 3387
L16348 3331
L16348 3303
L16320 3247
L16292 3218
L16235 3190
L16123 3190
L16067 3218
L16039 3247
L16010 3303
L16010 3331
L16039 3387
L16067 3415
L16123 3443
L16235 3443
L16292 3471
L16320 3500
L16348 3556
L16348 3668
L16320 3725
L16292 3753
L16235 3781
L16123 3781
L16067 3753
L16039 3725
L16010 3668
L16010 3556
L16039 3500
L16067 3471
L16123 3443
" />
<path d="M15785 3247
L15757 3218
L15701 3190
L15560 3190
L15504 3218
L15476 3247
L15448 3303
L15448 3359
L15476 3443
L15814 3781
L15448 3781
" />
<path d="M15223 3247
L15195 3218
L15139 3190
L14998 3190
L14942 3218
L14914 3247
L14886 3303
L14886 3359
L14914 3443
L15251 3781
L14886 3781
" />
<path d="M14632 3556
L14183 3556
" />
<path d="M13901 3781
L13901 3190
L13704 3612
L13508 3190
L13508 3781
" />
<path d="M13114 3190
L13001 3190
L12945 3218
L12889 3275
L12861 3387
L12861 3584
L12889 3696
L12945 3753
L13001 3781
L13114 3781
L13170 3753
L13226 3696
L13255 3584
L13255 3387
L13226 3275
L13170 3218
L13114 3190
" />
<path d="M12608 3781
L12608 3190
L12467 3190
L12383 3218
L12326 3275
L12298 3331
L12270 3443
L12270 3528
L12298 3640
L12326 3696
L12383 3753
L12467 3781
L12608 3781
" />
<path d="M12017 3190
L12017 3668
L11989 3725
L11961 3753
L11905 3781
L11792 3781
L11736 3753
L11708 3725
L11680 3668
L11680 3190
" />
<path d="M11117 3781
L11398 3781
L11398 3190
" />
<path d="M10920 3471
L10724 3471
" />
<path d="M10639 3781
L10920 3781
L10920 3190
L10639 3190
" />
<path d="M5154 8292
L5154 7898
L5061 7898
L5004 7917
L4967 7954
L4948 7992
L4929 8067
L4929 8123
L4948 8198
L4967 8236
L5004 8273
L5061 8292
L5154 8292
" />
<path d="M4798 7898
L4554 7898
L4686 8048
L4629 8048
L4592 8067
L4573 8086
L4554 8123
L4554 8217
L4573 8254
L4592 8273
L4629 8292
L4742 8292
L4779 8273
L4798 8254
" />
<path d="M6317 7442
L6317 7048
" />
<path d="M6092 7442
L6261 7217
" />
<path d="M6092 7048
L6317 7273
" />
<path d="M5154 6042
L5154 5648
L5061 5648
L5004 5667
L4967 5704
L4948 5742
L4929 5817
L4929 5873
L4948 5948
L4967 5986
L5004 6023
L5061 6042
L5154 6042
" />
<path d="M4592 5779
L4592 6042
" />
<path d="M4686 5629
L4779 5911
L4536 5911
" />
<path d="M6317 5192
L6317 4798
" />
<path d="M6092 5192
L6261 4967
" />
<path d="M6092 4798
L6317 5023
" />
<path d="M5154 3792
L5154 3398
L5061 3398
L5004 3417
L4967 3454
L4948 3492
L4929 3567
L4929 3623
L4948 3698
L4967 3736
L5004 3773
L5061 3792
L5154 3792
" />
<path d="M4573 3398
L4761 3398
L4779 3586
L4761 3567
L4723 3548
L4629 3548
L4592 3567
L4573 3586
L4554 3623
L4554 3717
L4573 3754
L4592 3773
L4629 3792
L4723 3792
L4761 3773
L4779 3754
" />
<path d="M6317 2942
L6317 2548
" />
<path d="M6092 2942
L6261 2717
" />
<path d="M6092 2548
L6317 2773
" />
<path d="M16453 12223
L16059 12223
L16059 12317
L16078 12373
L16115 12411
L16153 12429
L16228 12448
L16284 12448
L16359 12429
L16397 12411
L16434 12373
L16453 12317
L16453 12223
" />
<path d="M16059 12786
L16059 12711
L16078 12673
L16097 12654
L16153 12617
L16228 12598
L16378 12598
L16415 12617
L16434 12636
L16453 12673
L16453 12748
L16434 12786
L16415 12804
L16378 12823
L16284 12823
L16247 12804
L16228 12786
L16209 12748
L16209 12673
L16228 12636
L16247 12617
L16284 12598
" />
<path d="M18453 12223
L18059 12223
L18059 12317
L18078 12373
L18115 12411
L18153 12429
L18228 12448
L18284 12448
L18359 12429
L18397 12411
L18434 12373
L18453 12317
L18453 12223
" />
<path d="M18059 12579
L18059 12842
L18453 12673
" />
<path d="M18214 4214
L18214 9964
" />
<path d="M18214 9964
L11714 9964
" />
<path d="M11714 9964
L11714 4214
" />
<path d="M19214 4214
L10714 4214
" />
<path d="M10714 714
L19214 714
" />
<path d="M19214 714
L19214 10964
" />
<path d="M10714 10964
L10714 714
" />
<path d="M19214 10964
L10714 10964
" />
<circle cx="6214.17" cy="11764.2" r="4069.71" /> 
<path d="M5948.43 5923.62 A1147.83 1147.83 0.0 1 0 5942.48 7114.53 " />
<path d="M5948 7104
L5948 5923
" />
<circle cx="4964.17" cy="6514.17" r="991.313" /> 
<path d="M5948.43 3673.62 A1147.83 1147.83 0.0 1 0 5942.48 4864.53 " />
<path d="M5948 4854
L5948 3673
" />
<circle cx="4964.17" cy="4264.17" r="991.313" /> 
<path d="M5948.43 1423.62 A1147.83 1147.83 0.0 1 0 5942.48 2614.53 " />
<path d="M5948 2604
L5948 1423
" />
<circle cx="4964.17" cy="2014.17" r="991.313" /> 
<path d="M17259 11884
L17259 12947
" />
<path d="M16668 11884
L16668 12947
" />
<path d="M17023 12474
L16924 12474
" />
<path d="M16924 12474
L16983 12415
" />
<path d="M16826 12376
L17101 12376
" />
<path d="M16964 12514
L16964 12651
" />
<path d="M16964 12376
L16826 12514
" />
<path d="M16826 12514
L17101 12514
" />
<path d="M17101 12514
L16964 12376
" />
<path d="M19259 11884
L19259 12947
" />
<path d="M18668 11884
L18668 12947
" />
<path d="M19023 12474
L18924 12474
" />
<path d="M18924 12474
L18983 12415
" />
<path d="M18826 12376
L19101 12376
" />
<path d="M18964 12514
L18964 12651
" />
<path d="M18964 12376
L18826 12514
" />
<path d="M18826 12514
L19101 12514
" />
<path d="M19101 12514
L18964 12376
" />
</g>
<g style="fill:#000000; fill-opacity:1.0; 
stroke:#000000; stroke-width:0; stroke-opacity:1; 
stroke-linecap:round; stroke-linejoin:round;">
<circle cx="18714.2" cy="4714.17" r="196.85" /> 
</g>
<g style="fill:#000000; fill-opacity:1.0; 
stroke:#000000; stroke-width:39.3701; stroke-opacity:1; 
stroke-linecap:round; stroke-linejoin:round;">
</g>
<g style="fill:#000000; fill-opacity:1.0; 
stroke:#000000; stroke-width:0; stroke-opacity:1; 
stroke-linecap:round; stroke-linejoin:round;">
<circle cx="18714.2" cy="5214.17" r="196.85" /> 
</g>
<g style="fill:#000000; fill-opacity:1.0; 
stroke:#000000; stroke-width:39.3701; stroke-opacity:1; 
stroke-linecap:round; stroke-linejoin:round;">
</g>
<g style="fill:#000000; fill-opacity:1.0; 
stroke:#000000; stroke-width:0; stroke-opacity:1; 
stroke-linecap:round; stroke-linejoin:round;">
<circle cx="18714.2" cy="5714.17" r="196.85" /> 
</g>
<g style="fill:#000000; fill-opacity:1.0; 
stroke:#000000; stroke-width:39.3701; stroke-opacity:1; 
stroke-linecap:round; stroke-linejoin:round;">
</g>
<g style="fill:#000000; fill-opacity:1.0; 
stroke:#000000; stroke-width:0; stroke-opacity:1; 
stroke-linecap:round; stroke-linejoin:round;">
<circle cx="18714.2" cy="6214.17" r="196.85" /> 
</g>
<g style="fill:#000000; fill-opacity:1.0; 
stroke:#000000; stroke-width:39.3701; stroke-opacity:1; 
stroke-linecap:round; stroke-linejoin:round;">
</g>
<g style="fill:#000000; fill-opacity:1.0; 
stroke:#000000; stroke-width:0; stroke-opacity:1; 
stroke-linecap:round; stroke-linejoin:round;">
<circle cx="18714.2" cy="6714.17" r="196.85" /> 
</g>
<g style="fill:#000000; fill-opacity:1.0; 
stroke:#000000; stroke-width:39.3701; stroke-opacity:1; 
stroke-linecap:round; stroke-linejoin:round;">
</g>
<g style="fill:#000000; fill-opacity:1.0; 
stroke:#000000; stroke-width:0; stroke-opacity:1; 
stroke-linecap:round; stroke-linejoin:round;">
<circle cx="18714.2" cy="7214.17" r="196.85" /> 
</g>
<g style="fill:#000000; fill-opacity:1.0; 
stroke:#000000; stroke-width:39.3701; stroke-opacity:1; 
stroke-linecap:round; stroke-linejoin:round;">
</g>
<g style="fill:#000000; fill-opacity:1.0; 
stroke:#000000; stroke-width:0; stroke-opacity:1; 
stroke-linecap:round; stroke-linejoin:round;">
<circle cx="18714.2" cy="7714.17" r="196.85" /> 
</g>
<g style="fill:#000000; fill-opacity:1.0; 
stroke:#000000; stroke-width:39.3701; stroke-opacity:1; 
stroke-linecap:round; stroke-linejoin:round;">
</g>
<g style="fill:#000000; fill-opacity:1.0; 
stroke:#000000; stroke-width:0; stroke-opacity:1; 
stroke-linecap:round; stroke-linejoin:round;">
<circle cx="18714.2" cy="8214.17" r="196.85" /> 
</g>
<g style="fill:#000000; fill-opacity:1.0; 
stroke:#000000; stroke-width:39.3701; stroke-opacity:1; 
stroke-linecap:round; stroke-linejoin:round;">
</g>
<g style="fill:#000000; fill-opacity:1.0; 
stroke:#000000; stroke-width:0; stroke-opacity:1; 
stroke-linecap:round; stroke-linejoin:round;">
<circle cx="18714.2" cy="8714.17" r="196.85" /> 
</g>
<g style="fill:#000000; fill-opacity:1.0; 
stroke:#000000; stroke-width:39.3701; stroke-opacity:1; 
stroke-linecap:round; stroke-linejoin:round;">
</g>
<g style="fill:#000000; fill-opacity:1.0; 
stroke:#000000; stroke-width:0; stroke-opacity:1; 
stroke-linecap:round; stroke-linejoin:round;">
<circle cx="18714.2" cy="9214.17" r="196.85" /> 
</g>
<g style="fill:#000000; fill-opacity:1.0; 
stroke:#000000; stroke-width:39.3701; stroke-opacity:1; 
stroke-linecap:round; stroke-linejoin:round;">
</g>
<g style="fill:#000000; fill-opacity:1.0; 
stroke:#000000; stroke-width:0; stroke-opacity:1; 
stroke-linecap:round; stroke-linejoin:round;">
<circle cx="18714.2" cy="9714.17" r="196.85" /> 
</g>
<g style="fill:#000000; fill-opacity:1.0; 
stroke:#000000; stroke-width:39.3701; stroke-opacity:1; 
stroke-linecap:round; stroke-linejoin:round;">
</g>
<g style="fill:#000000; fill-opacity:1.0; 
stroke:#000000; stroke-width:0; stroke-opacity:1; 
stroke-linecap:round; stroke-linejoin:round;">
<circle cx="18714.2" cy="10214.2" r="196.85" /> 
</g>
<g style="fill:#000000; fill-opacity:1.0; 
stroke:#000000; stroke-width:39.3701; stroke-opacity:1; 
stroke-linecap:round; stroke-linejoin:round;">
</g>
<g style="fill:#000000; fill-opacity:1.0; 
stroke:#000000; stroke-width:0; stroke-opacity:1; 
stroke-linecap:round; stroke-linejoin:round;">
<circle cx="17714.2" cy="10464.2" r="196.85" /> 
</g>
<g style="fill:#000000; fill-opacity:1.0; 
stroke:#000000; stroke-width:39.3701; stroke-opacity:1; 
stroke-linecap:round; stroke-linejoin:round;">
</g>
<g style="fill:#000000; fill-opacity:1.0; 
stroke:#000000; stroke-width:0; stroke-opacity:1; 
stroke-linecap:round; stroke-linejoin:round;">
<circle cx="17214.2" cy="10464.2" r="196.85" /> 
</g>
<g style="fill:#000000; fill-opacity:1.0; 
stroke:#000000; stroke-width:39.3701; stroke-opacity:1; 
stroke-linecap:round; stroke-linejoin:round;">
</g>
<g style="fill:#000000; fill-opacity:1.0; 
stroke:#000000; stroke-width:0; stroke-opacity:1; 
stroke-linecap:round; stroke-linejoin:round;">
<circle cx="16714.2" cy="10464.2" r="196.85" /> 
</g>
<g style="fill:#000000; fill-opacity:1.0; 
stroke:#000000; stroke-width:39.3701; stroke-opacity:1; 
stroke-linecap:round; stroke-linejoin:round;">
</g>
<g style="fill:#000000; fill-opacity:1.0; 
stroke:#000000; stroke-width:0; stroke-opacity:1; 
stroke-linecap:round; stroke-linejoin:round;">
<circle cx="16214.2" cy="10464.2" r="196.85" /> 
</g>
<g style="fill:#000000; fill-opacity:1.0; 
stroke:#000000; stroke-width:39.3701; stroke-opacity:1; 
stroke-linecap:round; stroke-linejoin:round;">
</g>
<g style="fill:#000000; fill-opacity:1.0; 
stroke:#000000; stroke-width:0; stroke-opacity:1; 
stroke-linecap:round; stroke-linejoin:round;">
<circle cx="15714.2" cy="10464.2" r="196.85" /> 
</g>
<g style="fill:#000000; fill-opacity:1.0; 
stroke:#000000; stroke-width:39.3701; stroke-opacity:1; 
stroke-linecap:round; stroke-linejoin:round;">
</g>
<g style="fill:#000000; fill-opacity:1.0; 
stroke:#000000; stroke-width:0; stroke-opacity:1; 
stroke-linecap:round; stroke-linejoin:round;">
<circle cx="15214.2" cy="10464.2" r="196.85" /> 
</g>
<g style="fill:#000000; fill-opacity:1.0; 
stroke:#000000; stroke-width:39.3701; stroke-opacity:1; 
stroke-linecap:round; stroke-linejoin:round;">
</g>
<g style="fill:#000000; fill-opacity:1.0; 
stroke:#000000; stroke-width:0; stroke-opacity:1; 
stroke-linecap:round; stroke-linejoin:round;">
<circle cx="14714.2" cy="10464.2" r="196.85" /> 
</g>
<g style="fill:#000000; fill-opacity:1.0; 
stroke:#000000; stroke-width:39.3701; stroke-opacity:1; 
stroke-linecap:round; stroke-linejoin:round;">
</g>
<g style="fill:#000000; fill-opacity:1.0; 
stroke:#000000; stroke-width:0; stroke-opacity:1; 
stroke-linecap:round; stroke-linejoin:round;">
<circle cx="14214.2" cy="10464.2" r="196.85" /> 
</g>
<g style="fill:#000000; fill-opacity:1.0; 
stroke:#000000; stroke-width:39.3701; stroke-opacity:1; 
stroke-linecap:round; stroke-linejoin:round;">
</g>
<g style="fill:#000000; fill-opacity:1.0; 
stroke:#000000; stroke-width:0; stroke-opacity:1; 
stroke-linecap:round; stroke-linejoin:round;">
<circle cx="13714.2" cy="10464.2" r="196.85" /> 
</g>
<g style="fill:#000000; fill-opacity:1.0; 
stroke:#000000; stroke-width:39.3701; stroke-opacity:1; 
stroke-linecap:round; stroke-linejoin:round;">
</g>
<g style="fill:#000000; fill-opacity:1.0; 
stroke:#000000; stroke-width:0; stroke-opacity:1; 
stroke-linecap:round; stroke-linejoin:round;">
<circle cx="13214.2" cy="10464.2" r="196.85" /> 
</g>
<g style="fill:#000000; fill-opacity:1.0; 
stroke:#000000; stroke-width:39.3701; stroke-opacity:1; 
stroke-linecap:round; stroke-linejoin:round;">
</g>
<g style="fill:#000000; fill-opacity:1.0; 
stroke:#000000; stroke-width:0; stroke-opacity:1; 
stroke-linecap:round; stroke-linejoin:round;">
<circle cx="12714.2" cy="10464.2" r="196.85" /> 
</g>
<g style="fill:#000000; fill-opacity:1.0; 
stroke:#000000; stroke-width:39.3701; stroke-opacity:1; 
stroke-linecap:round; stroke-linejoin:round;">
</g>
<g style="fill:#000000; fill-opacity:1.0; 
stroke:#000000; stroke-width:0; stroke-opacity:1; 
stroke-linecap:round; stroke-linejoin:round;">
<circle cx="12214.2" cy="10464.2" r="196.85" /> 
</g>
<g style="fill:#000000; fill-opacity:1.0; 
stroke:#000000; stroke-width:39.3701; stroke-opacity:1; 
stroke-linecap:round; stroke-linejoin:round;">
</g>
<g style="fill:#000000; fill-opacity:1.0; 
stroke:#000000; stroke-width:0; stroke-opacity:1; 
stroke-linecap:round; stroke-linejoin:round;">
<circle cx="11214.2" cy="10214.2" r="196.85" /> 
</g>
<g style="fill:#000000; fill-opacity:1.0; 
stroke:#000000; stroke-width:39.3701; stroke-opacity:1; 
stroke-linecap:round; stroke-linejoin:round;">
</g>
<g style="fill:#000000; fill-opacity:1.0; 
stroke:#000000; stroke-width:0; stroke-opacity:1; 
stroke-linecap:round; stroke-linejoin:round;">
<circle cx="11214.2" cy="9714.17" r="196.85" /> 
</g>
<g style="fill:#000000; fill-opacity:1.0; 
stroke:#000000; stroke-width:39.3701; stroke-opacity:1; 
stroke-linecap:round; stroke-linejoin:round;">
</g>
<g style="fill:#000000; fill-opacity:1.0; 
stroke:#000000; stroke-width:0; stroke-opacity:1; 
stroke-linecap:round; stroke-linejoin:round;">
<circle cx="11214.2" cy="9214.17" r="196.85" /> 
</g>
<g style="fill:#000000; fill-opacity:1.0; 
stroke:#000000; stroke-width:39.3701; stroke-opacity:1; 
stroke-linecap:round; stroke-linejoin:round;">
</g>
<g style="fill:#000000; fill-opacity:1.0; 
stroke:#000000; stroke-width:0; stroke-opacity:1; 
stroke-linecap:round; stroke-linejoin:round;">
<circle cx="11214.2" cy="8714.17" r="196.85" /> 
</g>
<g style="fill:#000000; fill-opacity:1.0; 
stroke:#000000; stroke-width:39.3701; stroke-opacity:1; 
stroke-linecap:round; stroke-linejoin:round;">
</g>
<g style="fill:#000000; fill-opacity:1.0; 
stroke:#000000; stroke-width:0; stroke-opacity:1; 
stroke-linecap:round; stroke-linejoin:round;">
<circle cx="11214.2" cy="8214.17" r="196.85" /> 
</g>
<g style="fill:#000000; fill-opacity:1.0; 
stroke:#000000; stroke-width:39.3701; stroke-opacity:1; 
stroke-linecap:round; stroke-linejoin:round;">
</g>
<g style="fill:#000000; fill-opacity:1.0; 
stroke:#000000; stroke-width:0; stroke-opacity:1; 
stroke-linecap:round; stroke-linejoin:round;">
<circle cx="11214.2" cy="7714.17" r="196.85" /> 
</g>
<g style="fill:#000000; fill-opacity:1.0; 
stroke:#000000; stroke-width:39.3701; stroke-opacity:1; 
stroke-linecap:round; stroke-linejoin:round;">
</g>
<g style="fill:#000000; fill-opacity:1.0; 
stroke:#000000; stroke-width:0; stroke-opacity:1; 
stroke-linecap:round; stroke-linejoin:round;">
<circle cx="11214.2" cy="7214.17" r="196.85" /> 
</g>
<g style="fill:#000000; fill-opacity:1.0; 
stroke:#000000; stroke-width:39.3701; stroke-opacity:1; 
stroke-linecap:round; stroke-linejoin:round;">
</g>
<g style="fill:#000000; fill-opacity:1.0; 
stroke:#000000; stroke-width:0; stroke-opacity:1; 
stroke-linecap:round; stroke-linejoin:round;">
<circle cx="11214.2" cy="6714.17" r="196.85" /> 
</g>
<g style="fill:#000000; fill-opacity:1.0; 
stroke:#000000; stroke-width:39.3701; stroke-opacity:1; 
stroke-linecap:round; stroke-linejoin:round;">
</g>
<g style="fill:#000000; fill-opacity:1.0; 
stroke:#000000; stroke-width:0; stroke-opacity:1; 
stroke-linecap:round; stroke-linejoin:round;">
<circle cx="11214.2" cy="6214.17" r="196.85" /> 
</g>
<g style="fill:#000000; fill-opacity:1.0; 
stroke:#000000; stroke-width:39.3701; stroke-opacity:1; 
stroke-linecap:round; stroke-linejoin:round;">
</g>
<g style="fill:#000000; fill-opacity:1.0; 
stroke:#000000; stroke-width:0; stroke-opacity:1; 
stroke-linecap:round; stroke-linejoin:round;">
<circle cx="11214.2" cy="5714.17" r="196.85" /> 
</g>
<g style="fill:#000000; fill-opacity:1.0; 
stroke:#000000; stroke-width:39.3701; stroke-opacity:1; 
stroke-linecap:round; stroke-linejoin:round;">
</g>
<g style="fill:#000000; fill-opacity:1.0; 
stroke:#000000; stroke-width:0; stroke-opacity:1; 
stroke-linecap:round; stroke-linejoin:round;">
<circle cx="11214.2" cy="5214.17" r="196.85" /> 
</g>
<g style="fill:#000000; fill-opacity:1.0; 
stroke:#000000; stroke-width:39.3701; stroke-opacity:1; 
stroke-linecap:round; stroke-linejoin:round;">
</g>
<g style="fill:#000000; fill-opacity:1.0; 
stroke:#000000; stroke-width:0; stroke-opacity:1; 
stroke-linecap:round; stroke-linejoin:round;">
<circle cx="11214.2" cy="4714.17" r="196.85" /> 
</g>
<g style="fill:#000000; fill-opacity:1.0; 
stroke:#000000; stroke-width:39.3701; stroke-opacity:1; 
stroke-linecap:round; stroke-linejoin:round;">
</g>
<g style="fill:#000000; fill-opacity:1.0; 
stroke:#000000; stroke-width:0; stroke-opacity:1; 
stroke-linecap:round; stroke-linejoin:round;">
<circle cx="9464.17" cy="11764.2" r="300" /> 
</g>
<g style="fill:#000000; fill-opacity:1.0; 
stroke:#000000; stroke-width:39.3701; stroke-opacity:1; 
stroke-linecap:round; stroke-linejoin:round;">
</g>
<g style="fill:#000000; fill-opacity:1.0; 
stroke:#000000; stroke-width:0; stroke-opacity:1; 
stroke-linecap:round; stroke-linejoin:round;">
<circle cx="1464.17" cy="11764.2" r="300" /> 
</g>
<g style="fill:#000000; fill-opacity:1.0; 
stroke:#000000; stroke-width:39.3701; stroke-opacity:1; 
stroke-linecap:round; stroke-linejoin:round;">
</g>
<g style="fill:#000000; fill-opacity:1.0; 
stroke:#000000; stroke-width:0; stroke-opacity:1; 
stroke-linecap:round; stroke-linejoin:round;">
<polyline style="fill-rule:evenodd;"
points="5838,6907
5090,6907
5090,6120
5838,6120
5838,6907
" /> 
<circle cx="4464.17" cy="6514.17" r="374.016" /> 
</g>
<g style="fill:#000000; fill-opacity:1.0; 
stroke:#000000; stroke-width:39.3701; stroke-opacity:1; 
stroke-linecap:round; stroke-linejoin:round;">
</g>
<g style="fill:#000000; fill-opacity:1.0; 
stroke:#000000; stroke-width:0; stroke-opacity:1; 
stroke-linecap:round; stroke-linejoin:round;">
<polyline style="fill-rule:evenodd;"
points="5838,4657
5090,4657
5090,3870
5838,3870
5838,4657
" /> 
<circle cx="4464.17" cy="4264.17" r="374.016" /> 
</g>
<g style="fill:#000000; fill-opacity:1.0; 
stroke:#000000; stroke-width:39.3701; stroke-opacity:1; 
stroke-linecap:round; stroke-linejoin:round;">
</g>
<g style="fill:#000000; fill-opacity:1.0; 
stroke:#000000; stroke-width:0; stroke-opacity:1; 
stroke-linecap:round; stroke-linejoin:round;">
<polyline style="fill-rule:evenodd;"
points="5838,2407
5090,2407
5090,1620
5838,1620
5838,2407
" /> 
<circle cx="4464.17" cy="2014.17" r="374.016" /> 
</g>
<g style="fill:#000000; fill-opacity:1.0; 
stroke:#000000; stroke-width:39.3701; stroke-opacity:1; 
stroke-linecap:round; stroke-linejoin:round;">
</g> 
</svg>
