<?xml version="1.0" standalone="no"?>
 <!DOCTYPE svg PUBLIC "-//W3C//DTD SVG 1.1//EN" 
 "http://www.w3.org/Graphics/SVG/1.1/DTD/svg11.dtd"> 
<svg xmlns="http://www.w3.org/2000/svg" version="1.1" 
    width="5.39496cm" height="4.2164cm" viewBox="0 0 21240 16600 ">
<title>SVG Picture created as igrow-101-F.Paste.svg date 2016/06/09 11:48:19 </title>
  <desc>Picture generated by PCBNEW </desc>
<g style="fill:#000000; fill-opacity:1;stroke:#000000; stroke-opacity:1;
stroke-linecap:round; stroke-linejoin:round; "
 transform="translate(0 0) scale(1 1)">
</g>
<g style="fill:#000000; fill-opacity:0.0; 
stroke:#000000; stroke-width:-0.000393701; stroke-opacity:1; 
stroke-linecap:round; stroke-linejoin:round;">
</g>
<g style="fill:#000000; fill-opacity:0.0; 
stroke:#000000; stroke-width:59.0551; stroke-opacity:1; 
stroke-linecap:round; stroke-linejoin:round;">
<circle cx="2214.17" cy="15014.2" r="656.168" /> 
<path d="M1229 15014
L3198 15014
" />
<path d="M2214 14029
L2214 15998
" />
<circle cx="19214.2" cy="15014.2" r="656.168" /> 
<path d="M18229 15014
L20198 15014
" />
<path d="M19214 14029
L19214 15998
" />
<circle cx="19214.2" cy="2014.17" r="656.168" /> 
<path d="M18229 2014
L20198 2014
" />
<path d="M19214 1029
L19214 2998
" />
<path d="M20514 16264
L914 16264
" />
<path d="M20514 714
L20514 16264
" />
<path d="M914 714
L20514 714
" />
<path d="M914 16264
L914 714
" />
<circle cx="2214.17" cy="2014.17" r="656.168" /> 
<path d="M1229 2014
L3198 2014
" />
<path d="M2214 1029
L2214 2998
" />
</g>
<g style="fill:#000000; fill-opacity:0.0; 
stroke:#000000; stroke-width:0; stroke-opacity:1; 
stroke-linecap:round; stroke-linejoin:round;">
</g>
<g style="fill:#000000; fill-opacity:1.0; 
stroke:#000000; stroke-width:0; stroke-opacity:1; 
stroke-linecap:round; stroke-linejoin:round;">
<polyline style="fill-rule:evenodd;"
points="8111,3374
7816,3374
7816,2901
8111,2901
8111,3374
" /> 
<polyline style="fill-rule:evenodd;"
points="8111,2626
7816,2626
7816,2153
8111,2153
8111,2626
" /> 
<polyline style="fill-rule:evenodd;"
points="1814,5418
1814,3646
3113,3646
3113,5418
1814,5418
" /> 
<polyline style="fill-rule:evenodd;"
points="1814,8881
1814,7110
3113,7110
3113,8881
1814,8881
" /> 
<polyline style="fill-rule:evenodd;"
points="15537,13344
15891,13344
15891,13817
15537,13817
15537,13344
" /> 
<polyline style="fill-rule:evenodd;"
points="15537,14211
15891,14211
15891,14683
15537,14683
15537,14211
" /> 
<polyline style="fill-rule:evenodd;"
points="14544,15441
14544,15087
15017,15087
15017,15441
14544,15441
" /> 
<polyline style="fill-rule:evenodd;"
points="15411,15441
15411,15087
15883,15087
15883,15441
15411,15441
" /> 
<polyline style="fill-rule:evenodd;"
points="8294,15441
8294,15087
8767,15087
8767,15441
8294,15441
" /> 
<polyline style="fill-rule:evenodd;"
points="9161,15441
9161,15087
9633,15087
9633,15441
9161,15441
" /> 
<polyline style="fill-rule:evenodd;"
points="8037,9844
8391,9844
8391,10317
8037,10317
8037,9844
" /> 
<polyline style="fill-rule:evenodd;"
points="8037,10711
8391,10711
8391,11183
8037,11183
8037,10711
" /> 
<polyline style="fill-rule:evenodd;"
points="7141,8433
6787,8433
6787,7961
7141,7961
7141,8433
" /> 
<polyline style="fill-rule:evenodd;"
points="7141,7567
6787,7567
6787,7094
7141,7094
7141,7567
" /> 
<polyline style="fill-rule:evenodd;"
points="4794,9441
4794,9087
5267,9087
5267,9441
4794,9441
" /> 
<polyline style="fill-rule:evenodd;"
points="5661,9441
5661,9087
6133,9087
6133,9441
5661,9441
" /> 
<polyline style="fill-rule:evenodd;"
points="7141,6183
6787,6183
6787,5711
7141,5711
7141,6183
" /> 
<polyline style="fill-rule:evenodd;"
points="7141,5317
6787,5317
6787,4844
7141,4844
7141,5317
" /> 
<polyline style="fill-rule:evenodd;"
points="7141,3433
6787,3433
6787,2961
7141,2961
7141,3433
" /> 
<polyline style="fill-rule:evenodd;"
points="7141,2567
6787,2567
6787,2094
7141,2094
7141,2567
" /> 
<polyline style="fill-rule:evenodd;"
points="10141,13933
9787,13933
9787,13461
10141,13461
10141,13933
" /> 
<polyline style="fill-rule:evenodd;"
points="10141,13067
9787,13067
9787,12594
10141,12594
10141,13067
" /> 
<polyline style="fill-rule:evenodd;"
points="13294,12941
13294,12587
13767,12587
13767,12941
13294,12941
" /> 
<polyline style="fill-rule:evenodd;"
points="14161,12941
14161,12587
14633,12587
14633,12941
14161,12941
" /> 
<polyline style="fill-rule:evenodd;"
points="14544,11941
14544,11587
15017,11587
15017,11941
14544,11941
" /> 
<polyline style="fill-rule:evenodd;"
points="15411,11941
15411,11587
15883,11587
15883,11941
15411,11941
" /> 
<polyline style="fill-rule:evenodd;"
points="9792,2146
9792,2382
9635,2382
9635,2146
9792,2146
" /> 
<polyline style="fill-rule:evenodd;"
points="9399,2146
9399,2382
9241,2382
9241,2146
9399,2146
" /> 
<polyline style="fill-rule:evenodd;"
points="9005,2146
9005,2382
8848,2382
8848,2146
9005,2146
" /> 
<polyline style="fill-rule:evenodd;"
points="9005,3090
9005,3327
8848,3327
8848,3090
9005,3090
" /> 
<polyline style="fill-rule:evenodd;"
points="9399,3090
9399,3327
9241,3327
9241,3090
9399,3090
" /> 
<polyline style="fill-rule:evenodd;"
points="9792,3090
9792,3327
9635,3327
9635,3090
9792,3090
" /> 
<polyline style="fill-rule:evenodd;"
points="9792,2441
9792,3031
8848,3031
8848,2441
9792,2441
" /> 
<polyline style="fill-rule:evenodd;"
points="3858,10287
4370,10287
4370,10877
3858,10877
3858,10287
" /> 
<polyline style="fill-rule:evenodd;"
points="3858,11350
4370,11350
4370,11940
3858,11940
3858,11350
" /> 
<polyline style="fill-rule:evenodd;"
points="10186,6368
10186,6659
9241,6659
9241,6368
10186,6368
" /> 
<polyline style="fill-rule:evenodd;"
points="8686,6368
8686,6659
7741,6659
7741,6368
8686,6368
" /> 
<polyline style="fill-rule:evenodd;"
points="10186,5868
10186,6159
9241,6159
9241,5868
10186,5868
" /> 
<polyline style="fill-rule:evenodd;"
points="8686,5868
8686,6159
7741,6159
7741,5868
8686,5868
" /> 
<polyline style="fill-rule:evenodd;"
points="10186,5368
10186,5659
9241,5659
9241,5368
10186,5368
" /> 
<polyline style="fill-rule:evenodd;"
points="8686,5368
8686,5659
7741,5659
7741,5368
8686,5368
" /> 
<polyline style="fill-rule:evenodd;"
points="10186,4868
10186,5159
9241,5159
9241,4868
10186,4868
" /> 
<polyline style="fill-rule:evenodd;"
points="8686,4868
8686,5159
7741,5159
7741,4868
8686,4868
" /> 
<polyline style="fill-rule:evenodd;"
points="10186,4368
10186,4659
9241,4659
9241,4368
10186,4368
" /> 
<polyline style="fill-rule:evenodd;"
points="8686,4368
8686,4659
7741,4659
7741,4368
8686,4368
" /> 
<polyline style="fill-rule:evenodd;"
points="6174,10935
6654,10935
6654,11293
6174,11293
6174,10935
" /> 
<polyline style="fill-rule:evenodd;"
points="6174,12225
6654,12225
6654,12583
6174,12583
6174,12225
" /> 
<polyline style="fill-rule:evenodd;"
points="19537,9344
19891,9344
19891,9817
19537,9817
19537,9344
" /> 
<polyline style="fill-rule:evenodd;"
points="19537,10211
19891,10211
19891,10683
19537,10683
19537,10211
" /> 
<polyline style="fill-rule:evenodd;"
points="7682,13959
7682,13250
7997,13250
7997,13959
7682,13959
" /> 
<polyline style="fill-rule:evenodd;"
points="8430,13959
8430,13250
8745,13250
8745,13959
8430,13959
" /> 
<polyline style="fill-rule:evenodd;"
points="8056,12777
8056,12068
8371,12068
8371,12777
8056,12777
" /> 
<polyline style="fill-rule:evenodd;"
points="11682,13209
11682,12500
11997,12500
11997,13209
11682,13209
" /> 
<polyline style="fill-rule:evenodd;"
points="12430,13209
12430,12500
12745,12500
12745,13209
12430,13209
" /> 
<polyline style="fill-rule:evenodd;"
points="12056,12027
12056,11318
12371,11318
12371,12027
12056,12027
" /> 
<polyline style="fill-rule:evenodd;"
points="11518,14732
12227,14732
12227,15047
11518,15047
11518,14732
" /> 
<polyline style="fill-rule:evenodd;"
points="11518,15480
12227,15480
12227,15795
11518,15795
11518,15480
" /> 
<polyline style="fill-rule:evenodd;"
points="12700,15106
13409,15106
13409,15421
12700,15421
12700,15106
" /> 
</g> 
</svg>
