<?xml version="1.0" standalone="no"?>
 <!DOCTYPE svg PUBLIC "-//W3C//DTD SVG 1.1//EN" 
 "http://www.w3.org/Graphics/SVG/1.1/DTD/svg11.dtd"> 
<svg xmlns="http://www.w3.org/2000/svg" version="1.1" 
    width="5.39496cm" height="4.2164cm" viewBox="0 0 21240 16600 ">
<title>SVG Picture created as igrow-101-F.SilkS.svg date 2016/06/09 11:48:19 </title>
  <desc>Picture generated by PCBNEW </desc>
<g style="fill:#000000; fill-opacity:1;stroke:#000000; stroke-opacity:1;
stroke-linecap:round; stroke-linejoin:round; "
 transform="translate(0 0) scale(1 1)">
</g>
<g style="fill:#000000; fill-opacity:0.0; 
stroke:#000000; stroke-width:-0.000393701; stroke-opacity:1; 
stroke-linecap:round; stroke-linejoin:round;">
</g>
<g style="fill:#000000; fill-opacity:0.0; 
stroke:#000000; stroke-width:59.0551; stroke-opacity:1; 
stroke-linecap:round; stroke-linejoin:round;">
<circle cx="2214.17" cy="15014.2" r="656.168" /> 
<path d="M1229 15014
L3198 15014
" />
<path d="M2214 14029
L2214 15998
" />
<circle cx="19214.2" cy="15014.2" r="656.168" /> 
<path d="M18229 15014
L20198 15014
" />
<path d="M19214 14029
L19214 15998
" />
<circle cx="19214.2" cy="2014.17" r="656.168" /> 
<path d="M18229 2014
L20198 2014
" />
<path d="M19214 1029
L19214 2998
" />
<path d="M20514 16264
L914 16264
" />
<path d="M20514 714
L20514 16264
" />
<path d="M914 714
L20514 714
" />
<path d="M914 16264
L914 714
" />
<circle cx="2214.17" cy="2014.17" r="656.168" /> 
<path d="M1229 2014
L3198 2014
" />
<path d="M2214 1029
L2214 2998
" />
<path d="M7604 2829
L7623 2848
L7642 2904
L7642 2942
L7623 2998
L7586 3036
L7548 3054
L7473 3073
L7417 3073
L7342 3054
L7304 3036
L7267 2998
L7248 2942
L7248 2904
L7267 2848
L7286 2829
" />
<path d="M7642 2454
L7642 2679
" />
<path d="M7642 2567
L7248 2567
L7304 2604
L7342 2642
L7361 2679
" />
<path d="M2592 6554
L2198 6554
L2198 6461
L2217 6404
L2254 6367
L2292 6348
L2367 6329
L2423 6329
L2498 6348
L2536 6367
L2573 6404
L2592 6461
L2592 6554
" />
<path d="M2592 5954
L2592 6179
" />
<path d="M2592 6067
L2198 6067
L2254 6104
L2292 6142
L2311 6179
" />
<path d="M15892 12979
L15704 13111
" />
<path d="M15892 13204
L15498 13204
L15498 13054
L15517 13017
L15536 12998
L15573 12979
L15629 12979
L15667 12998
L15686 13017
L15704 13054
L15704 13204
" />
<path d="M15892 12604
L15892 12829
" />
<path d="M15892 12717
L15498 12717
L15554 12754
L15592 12792
L15611 12829
" />
<path d="M13998 15442
L13867 15254
" />
<path d="M13773 15442
L13773 15048
L13923 15048
L13961 15067
L13979 15086
L13998 15123
L13998 15179
L13979 15217
L13961 15236
L13923 15254
L13773 15254
" />
<path d="M14148 15086
L14167 15067
L14204 15048
L14298 15048
L14336 15067
L14354 15086
L14373 15123
L14373 15161
L14354 15217
L14129 15442
L14373 15442
" />
<path d="M7798 15442
L7667 15254
" />
<path d="M7573 15442
L7573 15048
L7723 15048
L7761 15067
L7779 15086
L7798 15123
L7798 15179
L7779 15217
L7761 15236
L7723 15254
L7573 15254
" />
<path d="M7929 15048
L8173 15048
L8042 15198
L8098 15198
L8136 15217
L8154 15236
L8173 15273
L8173 15367
L8154 15404
L8136 15423
L8098 15442
L7986 15442
L7948 15423
L7929 15404
" />
<path d="M8892 10479
L8704 10611
" />
<path d="M8892 10704
L8498 10704
L8498 10554
L8517 10517
L8536 10498
L8573 10479
L8629 10479
L8667 10498
L8686 10517
L8704 10554
L8704 10704
" />
<path d="M8629 10142
L8892 10142
" />
<path d="M8479 10236
L8761 10329
L8761 10086
" />
<path d="M6642 7929
L6454 8061
" />
<path d="M6642 8154
L6248 8154
L6248 8004
L6267 7967
L6286 7948
L6323 7929
L6379 7929
L6417 7948
L6436 7967
L6454 8004
L6454 8154
" />
<path d="M6248 7573
L6248 7761
L6436 7779
L6417 7761
L6398 7723
L6398 7629
L6417 7592
L6436 7573
L6473 7554
L6567 7554
L6604 7573
L6623 7592
L6642 7629
L6642 7723
L6623 7761
L6604 7779
" />
<path d="M4098 9442
L3967 9254
" />
<path d="M3873 9442
L3873 9048
L4023 9048
L4061 9067
L4079 9086
L4098 9123
L4098 9179
L4079 9217
L4061 9236
L4023 9254
L3873 9254
" />
<path d="M4436 9048
L4361 9048
L4323 9067
L4304 9086
L4267 9142
L4248 9217
L4248 9367
L4267 9404
L4286 9423
L4323 9442
L4398 9442
L4436 9423
L4454 9404
L4473 9367
L4473 9273
L4454 9236
L4436 9217
L4398 9198
L4323 9198
L4286 9217
L4267 9236
L4248 9273
" />
<path d="M7192 4279
L7004 4411
" />
<path d="M7192 4504
L6798 4504
L6798 4354
L6817 4317
L6836 4298
L6873 4279
L6929 4279
L6967 4298
L6986 4317
L7004 4354
L7004 4504
" />
<path d="M6798 4148
L6798 3886
L7192 4054
" />
<path d="M6592 2779
L6404 2911
" />
<path d="M6592 3004
L6198 3004
L6198 2854
L6217 2817
L6236 2798
L6273 2779
L6329 2779
L6367 2798
L6386 2817
L6404 2854
L6404 3004
" />
<path d="M6367 2554
L6348 2592
L6329 2611
L6292 2629
L6273 2629
L6236 2611
L6217 2592
L6198 2554
L6198 2479
L6217 2442
L6236 2423
L6273 2404
L6292 2404
L6329 2423
L6348 2442
L6367 2479
L6367 2554
L6386 2592
L6404 2611
L6442 2629
L6517 2629
L6554 2611
L6573 2592
L6592 2554
L6592 2479
L6573 2442
L6554 2423
L6517 2404
L6442 2404
L6404 2423
L6386 2442
L6367 2479
" />
<path d="M9592 13329
L9404 13461
" />
<path d="M9592 13554
L9198 13554
L9198 13404
L9217 13367
L9236 13348
L9273 13329
L9329 13329
L9367 13348
L9386 13367
L9404 13404
L9404 13554
" />
<path d="M9592 13142
L9592 13067
L9573 13029
L9554 13011
L9498 12973
L9423 12954
L9273 12954
L9236 12973
L9217 12992
L9198 13029
L9198 13104
L9217 13142
L9236 13161
L9273 13179
L9367 13179
L9404 13161
L9423 13142
L9442 13104
L9442 13029
L9423 12992
L9404 12973
L9367 12954
" />
<path d="M14961 12942
L14829 12754
" />
<path d="M14736 12942
L14736 12548
L14886 12548
L14923 12567
L14942 12586
L14961 12623
L14961 12679
L14942 12717
L14923 12736
L14886 12754
L14736 12754
" />
<path d="M15336 12942
L15111 12942
" />
<path d="M15223 12942
L15223 12548
L15186 12604
L15148 12642
L15111 12661
" />
<path d="M15579 12548
L15617 12548
L15654 12567
L15673 12586
L15692 12623
L15710 12698
L15710 12792
L15692 12867
L15673 12904
L15654 12923
L15617 12942
L15579 12942
L15542 12923
L15523 12904
L15504 12867
L15486 12792
L15486 12698
L15504 12623
L15523 12586
L15542 12567
L15579 12548
" />
<path d="M16161 11942
L16029 11754
" />
<path d="M15936 11942
L15936 11548
L16086 11548
L16123 11567
L16142 11586
L16161 11623
L16161 11679
L16142 11717
L16123 11736
L16086 11754
L15936 11754
" />
<path d="M16536 11942
L16311 11942
" />
<path d="M16423 11942
L16423 11548
L16386 11604
L16348 11642
L16311 11661
" />
<path d="M16910 11942
L16686 11942
" />
<path d="M16798 11942
L16798 11548
L16761 11604
L16723 11642
L16686 11661
" />
<path d="M11426 13253
L11511 13281
L11651 13281
L11707 13253
L11736 13225
L11764 13168
L11764 13112
L11736 13056
L11707 13028
L11651 13000
L11539 12971
L11483 12943
L11454 12915
L11426 12859
L11426 12803
L11454 12747
L11483 12718
L11539 12690
L11679 12690
L11764 12718
" />
<path d="M11961 12690
L12101 13281
L12214 12859
L12326 13281
L12467 12690
" />
<path d="M13001 13281
L12664 13281
" />
<path d="M12832 13281
L12832 12690
L12776 12775
L12720 12831
L12664 12859
" />
<path d="M8949 1232
L8949 1710
L8977 1766
L9005 1794
L9061 1822
L9174 1822
L9230 1794
L9258 1766
L9286 1710
L9286 1232
" />
<path d="M9539 1288
L9567 1260
L9624 1232
L9764 1232
L9821 1260
L9849 1288
L9877 1344
L9877 1400
L9849 1485
L9511 1822
L9877 1822
" />
<path d="M4892 11970
L4498 11970
L4498 11820
L4517 11782
L4536 11764
L4573 11745
L4629 11745
L4667 11764
L4686 11782
L4704 11820
L4704 11970
" />
<path d="M4892 11576
L4498 11576
" />
<path d="M4686 11389
L4686 11257
" />
<path d="M4892 11201
L4892 11389
L4498 11389
L4498 11201
" />
<path d="M4498 11070
L4498 10807
L4892 11070
L4892 10807
" />
<path d="M4498 10582
L4498 10507
L4517 10470
L4554 10432
L4629 10414
L4761 10414
L4836 10432
L4873 10470
L4892 10507
L4892 10582
L4873 10620
L4836 10657
L4761 10676
L4629 10676
L4554 10657
L4517 10620
L4498 10582
" />
<path d="M4892 10039
L4892 10264
" />
<path d="M4892 10151
L4498 10151
L4554 10189
L4592 10226
L4611 10264
" />
<path d="M8278 4031
L8278 3440
L8503 3440
L8559 3468
L8587 3497
L8615 3553
L8615 3637
L8587 3693
L8559 3721
L8503 3750
L8278 3750
" />
<path d="M9178 4031
L8840 4031
" />
<path d="M9009 4031
L9009 3440
L8953 3525
L8896 3581
L8840 3609
" />
<path d="M5931 12050
L5340 12050
L5340 11909
L5368 11825
L5425 11768
L5481 11740
L5593 11712
L5678 11712
L5790 11740
L5846 11768
L5903 11825
L5931 11909
L5931 12050
" />
<path d="M5397 11487
L5368 11459
L5340 11403
L5340 11262
L5368 11206
L5397 11178
L5453 11150
L5509 11150
L5593 11178
L5931 11515
L5931 11150
" />
<path d="M20640 10267
L20452 10398
" />
<path d="M20640 10492
L20246 10492
L20246 10342
L20265 10304
L20284 10286
L20321 10267
L20377 10267
L20415 10286
L20434 10304
L20452 10342
L20452 10492
" />
<path d="M20640 9892
L20640 10117
" />
<path d="M20640 10004
L20246 10004
L20302 10042
L20340 10079
L20359 10117
" />
<path d="M20284 9742
L20265 9723
L20246 9686
L20246 9592
L20265 9554
L20284 9536
L20321 9517
L20359 9517
L20415 9536
L20640 9761
L20640 9517
" />
<path d="M1923 2389
L1923 1995
L2073 1995
L2111 2014
L2129 2032
L2148 2070
L2148 2126
L2129 2164
L2111 2182
L2073 2201
L1923 2201
" />
<path d="M2298 2032
L2317 2014
L2354 1995
L2448 1995
L2486 2014
L2504 2032
L2523 2070
L2523 2107
L2504 2164
L2279 2389
L2523 2389
" />
<path d="M1923 15389
L1923 14995
L2073 14995
L2111 15014
L2129 15032
L2148 15070
L2148 15126
L2129 15164
L2111 15182
L2073 15201
L1923 15201
" />
<path d="M2279 14995
L2523 14995
L2392 15145
L2448 15145
L2486 15164
L2504 15182
L2523 15220
L2523 15314
L2504 15351
L2486 15370
L2448 15389
L2336 15389
L2298 15370
L2279 15351
" />
<path d="M18923 15389
L18923 14995
L19073 14995
L19111 15014
L19129 15032
L19148 15070
L19148 15126
L19129 15164
L19111 15182
L19073 15201
L18923 15201
" />
<path d="M19486 15126
L19486 15389
" />
<path d="M19392 14976
L19298 15257
L19542 15257
" />
<path d="M18923 2389
L18923 1995
L19073 1995
L19111 2014
L19129 2032
L19148 2070
L19148 2126
L19129 2164
L19111 2182
L19073 2201
L18923 2201
" />
<path d="M19504 1995
L19317 1995
L19298 2182
L19317 2164
L19354 2145
L19448 2145
L19486 2164
L19504 2182
L19523 2220
L19523 2314
L19504 2351
L19486 2370
L19448 2389
L19354 2389
L19317 2370
L19298 2351
" />
<path d="M8176 11729
L8139 11711
L8101 11673
L8045 11617
L8007 11598
L7970 11598
" />
<path d="M7989 11692
L7951 11673
L7914 11636
L7895 11561
L7895 11429
L7914 11354
L7951 11317
L7989 11298
L8064 11298
L8101 11317
L8139 11354
L8157 11429
L8157 11561
L8139 11636
L8101 11673
L8064 11692
L7989 11692
" />
<path d="M8532 11692
L8307 11692
" />
<path d="M8420 11692
L8420 11298
L8382 11354
L8345 11392
L8307 11411
" />
<path d="M12176 10979
L12139 10961
L12101 10923
L12045 10867
L12007 10848
L11970 10848
" />
<path d="M11989 10942
L11951 10923
L11914 10886
L11895 10811
L11895 10679
L11914 10604
L11951 10567
L11989 10548
L12064 10548
L12101 10567
L12139 10604
L12157 10679
L12157 10811
L12139 10886
L12101 10923
L12064 10942
L11989 10942
" />
<path d="M12307 10586
L12326 10567
L12364 10548
L12457 10548
L12495 10567
L12514 10586
L12532 10623
L12532 10661
L12514 10717
L12289 10942
L12532 10942
" />
<path d="M14179 15301
L14161 15339
L14123 15376
L14067 15432
L14048 15470
L14048 15507
" />
<path d="M14142 15489
L14123 15526
L14086 15564
L14011 15582
L13879 15582
L13804 15564
L13767 15526
L13748 15489
L13748 15414
L13767 15376
L13804 15339
L13879 15320
L14011 15320
L14086 15339
L14123 15376
L14142 15414
L14142 15489
" />
<path d="M13748 15189
L13748 14945
L13898 15076
L13898 15020
L13917 14982
L13936 14964
L13973 14945
L14067 14945
L14104 14964
L14123 14982
L14142 15020
L14142 15132
L14123 15170
L14104 15189
" />
<path d="M16857 13617
L16951 14011
L17026 13729
L17101 14011
L17195 13617
" />
<path d="M17551 14011
L17326 14011
" />
<path d="M17439 14011
L17439 13617
L17401 13673
L17364 13711
L17326 13729
" />
<path d="M7727 2901
L7727 2626
" />
<path d="M8200 2626
L8200 2901
" />
<path d="M1598 6538
L1598 6893
" />
<path d="M1598 6027
L1598 5634
" />
<path d="M1125 7465
L1598 7465
" />
<path d="M3803 7465
L3330 7465
" />
<path d="M1125 7681
L1598 7681
" />
<path d="M3803 7681
L3330 7681
" />
<path d="M1125 4847
L1618 4847
" />
<path d="M3803 4847
L3310 4847
" />
<path d="M1913 6538
L1283 6538
" />
<path d="M1303 6086
L1913 6086
" />
<path d="M1598 6539
L1303 6086
" />
<path d="M1598 6538
L1913 6085
" />
<path d="M1125 4847
L1125 7681
" />
<path d="M3803 4847
L3803 7681
" />
<path d="M15448 14211
L15448 13817
" />
<path d="M15979 13817
L15979 14211
" />
<path d="M15411 15529
L15017 15529
" />
<path d="M15017 14998
L15411 14998
" />
<path d="M9161 15529
L8767 15529
" />
<path d="M8767 14998
L9161 14998
" />
<path d="M7948 10711
L7948 10317
" />
<path d="M8479 10317
L8479 10711
" />
<path d="M7229 7567
L7229 7961
" />
<path d="M6698 7961
L6698 7567
" />
<path d="M5661 9529
L5267 9529
" />
<path d="M5267 8998
L5661 8998
" />
<path d="M7229 5317
L7229 5711
" />
<path d="M6698 5711
L6698 5317
" />
<path d="M7229 2567
L7229 2961
" />
<path d="M6698 2961
L6698 2567
" />
<path d="M10229 13067
L10229 13461
" />
<path d="M9698 13461
L9698 13067
" />
<path d="M14161 13029
L13767 13029
" />
<path d="M13767 12498
L14161 12498
" />
<path d="M15411 12029
L15017 12029
" />
<path d="M15017 11498
L15411 11498
" />
<path d="M3769 11350
L3769 10877
" />
<path d="M4458 10877
L4458 11350
" />
<path d="M19448 10211
L19448 9817
" />
<path d="M19979 9817
L19979 10211
" />
<path d="M7623 13034
L7623 12758
" />
<path d="M7623 12758
L7721 12758
" />
<path d="M8725 12758
L8804 12758
" />
<path d="M8804 12758
L8804 13034
" />
<path d="M11623 12284
L11623 12008
" />
<path d="M11623 12008
L11721 12008
" />
<path d="M12725 12008
L12804 12008
" />
<path d="M12804 12008
L12804 12284
" />
<path d="M12444 14673
L12720 14673
" />
<path d="M12720 14673
L12720 14771
" />
<path d="M12720 15775
L12720 15854
" />
<path d="M12720 15854
L12444 15854
" />
</g>
<g style="fill:#000000; fill-opacity:1.0; 
stroke:#000000; stroke-width:0; stroke-opacity:1; 
stroke-linecap:round; stroke-linejoin:round;">
<circle cx="13214.2" cy="14014.2" r="300" /> 
</g>
<g style="fill:#000000; fill-opacity:1.0; 
stroke:#000000; stroke-width:39.3701; stroke-opacity:1; 
stroke-linecap:round; stroke-linejoin:round;">
</g>
<g style="fill:#000000; fill-opacity:1.0; 
stroke:#000000; stroke-width:0; stroke-opacity:1; 
stroke-linecap:round; stroke-linejoin:round;">
<circle cx="11214.2" cy="14014.2" r="300" /> 
</g>
<g style="fill:#000000; fill-opacity:1.0; 
stroke:#000000; stroke-width:39.3701; stroke-opacity:1; 
stroke-linecap:round; stroke-linejoin:round;">
</g>
<g style="fill:#000000; fill-opacity:1.0; 
stroke:#000000; stroke-width:0; stroke-opacity:1; 
stroke-linecap:round; stroke-linejoin:round;">
<circle cx="11214.2" cy="12014.2" r="300" /> 
</g>
<g style="fill:#000000; fill-opacity:1.0; 
stroke:#000000; stroke-width:39.3701; stroke-opacity:1; 
stroke-linecap:round; stroke-linejoin:round;">
</g>
<g style="fill:#000000; fill-opacity:1.0; 
stroke:#000000; stroke-width:0; stroke-opacity:1; 
stroke-linecap:round; stroke-linejoin:round;">
<circle cx="13214.2" cy="12014.2" r="300" /> 
</g>
<g style="fill:#000000; fill-opacity:1.0; 
stroke:#000000; stroke-width:39.3701; stroke-opacity:1; 
stroke-linecap:round; stroke-linejoin:round;">
</g>
<g style="fill:#000000; fill-opacity:1.0; 
stroke:#000000; stroke-width:0; stroke-opacity:1; 
stroke-linecap:round; stroke-linejoin:round;">
<circle cx="2214.17" cy="2014.17" r="885.827" /> 
</g>
<g style="fill:#000000; fill-opacity:1.0; 
stroke:#000000; stroke-width:39.3701; stroke-opacity:1; 
stroke-linecap:round; stroke-linejoin:round;">
</g>
<g style="fill:#000000; fill-opacity:1.0; 
stroke:#000000; stroke-width:0; stroke-opacity:1; 
stroke-linecap:round; stroke-linejoin:round;">
<circle cx="2214.17" cy="15014.2" r="885.827" /> 
</g>
<g style="fill:#000000; fill-opacity:1.0; 
stroke:#000000; stroke-width:39.3701; stroke-opacity:1; 
stroke-linecap:round; stroke-linejoin:round;">
</g>
<g style="fill:#000000; fill-opacity:1.0; 
stroke:#000000; stroke-width:0; stroke-opacity:1; 
stroke-linecap:round; stroke-linejoin:round;">
<circle cx="19214.2" cy="15014.2" r="885.827" /> 
</g>
<g style="fill:#000000; fill-opacity:1.0; 
stroke:#000000; stroke-width:39.3701; stroke-opacity:1; 
stroke-linecap:round; stroke-linejoin:round;">
</g>
<g style="fill:#000000; fill-opacity:1.0; 
stroke:#000000; stroke-width:0; stroke-opacity:1; 
stroke-linecap:round; stroke-linejoin:round;">
<circle cx="19214.2" cy="2014.17" r="885.827" /> 
</g>
<g style="fill:#000000; fill-opacity:1.0; 
stroke:#000000; stroke-width:39.3701; stroke-opacity:1; 
stroke-linecap:round; stroke-linejoin:round;">
</g>
<g style="fill:#000000; fill-opacity:1.0; 
stroke:#000000; stroke-width:0; stroke-opacity:1; 
stroke-linecap:round; stroke-linejoin:round;">
<circle cx="17214.2" cy="15014.2" r="590.551" /> 
</g>
<g style="fill:#000000; fill-opacity:1.0; 
stroke:#000000; stroke-width:39.3701; stroke-opacity:1; 
stroke-linecap:round; stroke-linejoin:round;">
</g> 
</svg>
