<?xml version="1.0" standalone="no"?>
 <!DOCTYPE svg PUBLIC "-//W3C//DTD SVG 1.1//EN" 
 "http://www.w3.org/Graphics/SVG/1.1/DTD/svg11.dtd"> 
<svg xmlns="http://www.w3.org/2000/svg" version="1.1" 
    width="5.39496cm" height="4.2164cm" viewBox="0 0 21240 16600 ">
<title>SVG Picture created as igrow-101-B.Paste.svg date 2016/06/09 11:48:19 </title>
  <desc>Picture generated by PCBNEW </desc>
<g style="fill:#000000; fill-opacity:1;stroke:#000000; stroke-opacity:1;
stroke-linecap:round; stroke-linejoin:round; "
 transform="translate(0 0) scale(1 1)">
</g>
<g style="fill:#000000; fill-opacity:0.0; 
stroke:#000000; stroke-width:-0.000393701; stroke-opacity:1; 
stroke-linecap:round; stroke-linejoin:round;">
</g>
<g style="fill:#000000; fill-opacity:0.0; 
stroke:#000000; stroke-width:59.0551; stroke-opacity:1; 
stroke-linecap:round; stroke-linejoin:round;">
<circle cx="2214.17" cy="15014.2" r="656.168" /> 
<path d="M1229 15014
L3198 15014
" />
<path d="M2214 14029
L2214 15998
" />
<circle cx="19214.2" cy="15014.2" r="656.168" /> 
<path d="M18229 15014
L20198 15014
" />
<path d="M19214 14029
L19214 15998
" />
<circle cx="19214.2" cy="2014.17" r="656.168" /> 
<path d="M18229 2014
L20198 2014
" />
<path d="M19214 1029
L19214 2998
" />
<path d="M20514 16264
L914 16264
" />
<path d="M20514 714
L20514 16264
" />
<path d="M914 714
L20514 714
" />
<path d="M914 16264
L914 714
" />
<circle cx="2214.17" cy="2014.17" r="656.168" /> 
<path d="M1229 2014
L3198 2014
" />
<path d="M2214 1029
L2214 2998
" />
</g>
<g style="fill:#000000; fill-opacity:0.0; 
stroke:#000000; stroke-width:0; stroke-opacity:1; 
stroke-linecap:round; stroke-linejoin:round;">
</g>
<g style="fill:#000000; fill-opacity:1.0; 
stroke:#000000; stroke-width:0; stroke-opacity:1; 
stroke-linecap:round; stroke-linejoin:round;">
<polyline style="fill-rule:evenodd;"
points="17200,13163
16728,13163
16728,12691
17200,12691
17200,13163
" /> 
<polyline style="fill-rule:evenodd;"
points="17200,12337
16728,12337
16728,11865
17200,11865
17200,12337
" /> 
<polyline style="fill-rule:evenodd;"
points="19200,13163
18728,13163
18728,12691
19200,12691
19200,13163
" /> 
<polyline style="fill-rule:evenodd;"
points="19200,12337
18728,12337
18728,11865
19200,11865
19200,12337
" /> 
</g> 
</svg>
