<?xml version="1.0" standalone="no"?>
 <!DOCTYPE svg PUBLIC "-//W3C//DTD SVG 1.1//EN" 
 "http://www.w3.org/Graphics/SVG/1.1/DTD/svg11.dtd"> 
<svg xmlns="http://www.w3.org/2000/svg" version="1.1" 
    width="5.39496cm" height="4.1656cm" viewBox="0 0 21240 16400 ">
<title>SVG Picture created as igrow-101-F.SilkS.svg date 2016/06/08 14:35:27 </title>
  <desc>Picture generated by PCBNEW </desc>
<g style="fill:#000000; fill-opacity:1;stroke:#000000; stroke-opacity:1;
stroke-linecap:round; stroke-linejoin:round; "
 transform="translate(0 0) scale(1 1)">
</g>
<g style="fill:#000000; fill-opacity:0.0; 
stroke:#000000; stroke-width:-0.000393701; stroke-opacity:1; 
stroke-linecap:round; stroke-linejoin:round;">
</g>
<g style="fill:#000000; fill-opacity:0.0; 
stroke:#000000; stroke-width:59.0551; stroke-opacity:1; 
stroke-linecap:round; stroke-linejoin:round;">
<circle cx="2214.17" cy="14814.2" r="656.168" /> 
<path d="M1229 14814
L3198 14814
" />
<path d="M2214 13829
L2214 15798
" />
<circle cx="19214.2" cy="14814.2" r="656.168" /> 
<path d="M18229 14814
L20198 14814
" />
<path d="M19214 13829
L19214 15798
" />
<circle cx="19214.2" cy="1814.17" r="656.168" /> 
<path d="M18229 1814
L20198 1814
" />
<path d="M19214 829
L19214 2798
" />
<path d="M20514 16064
L914 16064
" />
<path d="M20514 514
L20514 16064
" />
<path d="M914 514
L20514 514
" />
<path d="M914 16064
L914 514
" />
<circle cx="2214.17" cy="1814.17" r="656.168" /> 
<path d="M1229 1814
L3198 1814
" />
<path d="M2214 829
L2214 2798
" />
<path d="M7604 2629
L7623 2648
L7642 2704
L7642 2742
L7623 2798
L7586 2836
L7548 2854
L7473 2873
L7417 2873
L7342 2854
L7304 2836
L7267 2798
L7248 2742
L7248 2704
L7267 2648
L7286 2629
" />
<path d="M7642 2254
L7642 2479
" />
<path d="M7642 2367
L7248 2367
L7304 2404
L7342 2442
L7361 2479
" />
<path d="M2592 6354
L2198 6354
L2198 6261
L2217 6204
L2254 6167
L2292 6148
L2367 6129
L2423 6129
L2498 6148
L2536 6167
L2573 6204
L2592 6261
L2592 6354
" />
<path d="M2592 5754
L2592 5979
" />
<path d="M2592 5867
L2198 5867
L2254 5904
L2292 5942
L2311 5979
" />
<path d="M12548 13742
L12417 13554
" />
<path d="M12323 13742
L12323 13348
L12473 13348
L12511 13367
L12529 13386
L12548 13423
L12548 13479
L12529 13517
L12511 13536
L12473 13554
L12323 13554
" />
<path d="M12923 13742
L12698 13742
" />
<path d="M12811 13742
L12811 13348
L12773 13404
L12736 13442
L12698 13461
" />
<path d="M12498 14492
L12367 14304
" />
<path d="M12273 14492
L12273 14098
L12423 14098
L12461 14117
L12479 14136
L12498 14173
L12498 14229
L12479 14267
L12461 14286
L12423 14304
L12273 14304
" />
<path d="M12648 14136
L12667 14117
L12704 14098
L12798 14098
L12836 14117
L12854 14136
L12873 14173
L12873 14211
L12854 14267
L12629 14492
L12873 14492
" />
<path d="M12548 15242
L12417 15054
" />
<path d="M12323 15242
L12323 14848
L12473 14848
L12511 14867
L12529 14886
L12548 14923
L12548 14979
L12529 15017
L12511 15036
L12473 15054
L12323 15054
" />
<path d="M12679 14848
L12923 14848
L12792 14998
L12848 14998
L12886 15017
L12904 15036
L12923 15073
L12923 15167
L12904 15204
L12886 15223
L12848 15242
L12736 15242
L12698 15223
L12679 15204
" />
<path d="M8892 10279
L8704 10411
" />
<path d="M8892 10504
L8498 10504
L8498 10354
L8517 10317
L8536 10298
L8573 10279
L8629 10279
L8667 10298
L8686 10317
L8704 10354
L8704 10504
" />
<path d="M8629 9942
L8892 9942
" />
<path d="M8479 10036
L8761 10129
L8761 9886
" />
<path d="M6642 8229
L6454 8361
" />
<path d="M6642 8454
L6248 8454
L6248 8304
L6267 8267
L6286 8248
L6323 8229
L6379 8229
L6417 8248
L6436 8267
L6454 8304
L6454 8454
" />
<path d="M6248 7873
L6248 8061
L6436 8079
L6417 8061
L6398 8023
L6398 7929
L6417 7892
L6436 7873
L6473 7854
L6567 7854
L6604 7873
L6623 7892
L6642 7929
L6642 8023
L6623 8061
L6604 8079
" />
<path d="M9348 11492
L9217 11304
" />
<path d="M9123 11492
L9123 11098
L9273 11098
L9311 11117
L9329 11136
L9348 11173
L9348 11229
L9329 11267
L9311 11286
L9273 11304
L9123 11304
" />
<path d="M9686 11098
L9611 11098
L9573 11117
L9554 11136
L9517 11192
L9498 11267
L9498 11417
L9517 11454
L9536 11473
L9573 11492
L9648 11492
L9686 11473
L9704 11454
L9723 11417
L9723 11323
L9704 11286
L9686 11267
L9648 11248
L9573 11248
L9536 11267
L9517 11286
L9498 11323
" />
<path d="M7192 4079
L7004 4211
" />
<path d="M7192 4304
L6798 4304
L6798 4154
L6817 4117
L6836 4098
L6873 4079
L6929 4079
L6967 4098
L6986 4117
L7004 4154
L7004 4304
" />
<path d="M6798 3948
L6798 3686
L7192 3854
" />
<path d="M6592 2579
L6404 2711
" />
<path d="M6592 2804
L6198 2804
L6198 2654
L6217 2617
L6236 2598
L6273 2579
L6329 2579
L6367 2598
L6386 2617
L6404 2654
L6404 2804
" />
<path d="M6367 2354
L6348 2392
L6329 2411
L6292 2429
L6273 2429
L6236 2411
L6217 2392
L6198 2354
L6198 2279
L6217 2242
L6236 2223
L6273 2204
L6292 2204
L6329 2223
L6348 2242
L6367 2279
L6367 2354
L6386 2392
L6404 2411
L6442 2429
L6517 2429
L6554 2411
L6573 2392
L6592 2354
L6592 2279
L6573 2242
L6554 2223
L6517 2204
L6442 2204
L6404 2223
L6386 2242
L6367 2279
" />
<path d="M10648 11692
L10517 11504
" />
<path d="M10423 11692
L10423 11298
L10573 11298
L10611 11317
L10629 11336
L10648 11373
L10648 11429
L10629 11467
L10611 11486
L10573 11504
L10423 11504
" />
<path d="M10836 11692
L10911 11692
L10948 11673
L10967 11654
L11004 11598
L11023 11523
L11023 11373
L11004 11336
L10986 11317
L10948 11298
L10873 11298
L10836 11317
L10817 11336
L10798 11373
L10798 11467
L10817 11504
L10836 11523
L10873 11542
L10948 11542
L10986 11523
L11004 11504
L11023 11467
" />
<path d="M14711 12992
L14579 12804
" />
<path d="M14486 12992
L14486 12598
L14636 12598
L14673 12617
L14692 12636
L14711 12673
L14711 12729
L14692 12767
L14673 12786
L14636 12804
L14486 12804
" />
<path d="M15086 12992
L14861 12992
" />
<path d="M14973 12992
L14973 12598
L14936 12654
L14898 12692
L14861 12711
" />
<path d="M15329 12598
L15367 12598
L15404 12617
L15423 12636
L15442 12673
L15460 12748
L15460 12842
L15442 12917
L15423 12954
L15404 12973
L15367 12992
L15329 12992
L15292 12973
L15273 12954
L15254 12917
L15236 12842
L15236 12748
L15254 12673
L15273 12636
L15292 12617
L15329 12598
" />
<path d="M12261 12292
L12129 12104
" />
<path d="M12036 12292
L12036 11898
L12186 11898
L12223 11917
L12242 11936
L12261 11973
L12261 12029
L12242 12067
L12223 12086
L12186 12104
L12036 12104
" />
<path d="M12636 12292
L12411 12292
" />
<path d="M12523 12292
L12523 11898
L12486 11954
L12448 11992
L12411 12011
" />
<path d="M13010 12292
L12786 12292
" />
<path d="M12898 12292
L12898 11898
L12861 11954
L12823 11992
L12786 12011
" />
<path d="M9926 14053
L10011 14081
L10151 14081
L10207 14053
L10236 14025
L10264 13968
L10264 13912
L10236 13856
L10207 13828
L10151 13800
L10039 13771
L9983 13743
L9954 13715
L9926 13659
L9926 13603
L9954 13547
L9983 13518
L10039 13490
L10179 13490
L10264 13518
" />
<path d="M10461 13490
L10601 14081
L10714 13659
L10826 14081
L10967 13490
" />
<path d="M11501 14081
L11164 14081
" />
<path d="M11332 14081
L11332 13490
L11276 13575
L11220 13631
L11164 13659
" />
<path d="M8949 1032
L8949 1510
L8977 1566
L9005 1594
L9061 1622
L9174 1622
L9230 1594
L9258 1566
L9286 1510
L9286 1032
" />
<path d="M9539 1088
L9567 1060
L9624 1032
L9764 1032
L9821 1060
L9849 1088
L9877 1144
L9877 1200
L9849 1285
L9511 1622
L9877 1622
" />
<path d="M4892 11770
L4498 11770
L4498 11620
L4517 11582
L4536 11564
L4573 11545
L4629 11545
L4667 11564
L4686 11582
L4704 11620
L4704 11770
" />
<path d="M4892 11376
L4498 11376
" />
<path d="M4686 11189
L4686 11057
" />
<path d="M4892 11001
L4892 11189
L4498 11189
L4498 11001
" />
<path d="M4498 10870
L4498 10607
L4892 10870
L4892 10607
" />
<path d="M4498 10382
L4498 10307
L4517 10270
L4554 10232
L4629 10214
L4761 10214
L4836 10232
L4873 10270
L4892 10307
L4892 10382
L4873 10420
L4836 10457
L4761 10476
L4629 10476
L4554 10457
L4517 10420
L4498 10382
" />
<path d="M4892 9839
L4892 10064
" />
<path d="M4892 9951
L4498 9951
L4554 9989
L4592 10026
L4611 10064
" />
<path d="M8278 3831
L8278 3240
L8503 3240
L8559 3268
L8587 3297
L8615 3353
L8615 3437
L8587 3493
L8559 3521
L8503 3550
L8278 3550
" />
<path d="M9178 3831
L8840 3831
" />
<path d="M9009 3831
L9009 3240
L8953 3325
L8896 3381
L8840 3409
" />
<path d="M5931 11850
L5340 11850
L5340 11709
L5368 11625
L5425 11568
L5481 11540
L5593 11512
L5678 11512
L5790 11540
L5846 11568
L5903 11625
L5931 11709
L5931 11850
" />
<path d="M5397 11287
L5368 11259
L5340 11203
L5340 11062
L5368 11006
L5397 10978
L5453 10950
L5509 10950
L5593 10978
L5931 11315
L5931 10950
" />
<path d="M4573 6142
L4573 5748
L4667 5748
L4723 5767
L4761 5804
L4779 5842
L4798 5917
L4798 5973
L4779 6048
L4761 6086
L4723 6123
L4667 6142
L4573 6142
" />
<path d="M4929 5748
L5173 5748
L5042 5898
L5098 5898
L5136 5917
L5154 5936
L5173 5973
L5173 6067
L5154 6104
L5136 6123
L5098 6142
L4986 6142
L4948 6123
L4929 6104
" />
<path d="M6111 6992
L6111 6598
" />
<path d="M6336 6992
L6167 6767
" />
<path d="M6336 6598
L6111 6823
" />
<path d="M4573 3392
L4573 2998
L4667 2998
L4723 3017
L4761 3054
L4779 3092
L4798 3167
L4798 3223
L4779 3298
L4761 3336
L4723 3373
L4667 3392
L4573 3392
" />
<path d="M5136 3129
L5136 3392
" />
<path d="M5042 2979
L4948 3261
L5192 3261
" />
<path d="M6111 4242
L6111 3848
" />
<path d="M6336 4242
L6167 4017
" />
<path d="M6336 3848
L6111 4073
" />
<path d="M4573 642
L4573 248
L4667 248
L4723 267
L4761 304
L4779 342
L4798 417
L4798 473
L4779 548
L4761 586
L4723 623
L4667 642
L4573 642
" />
<path d="M5154 248
L4967 248
L4948 436
L4967 417
L5004 398
L5098 398
L5136 417
L5154 436
L5173 473
L5173 567
L5154 604
L5136 623
L5098 642
L5004 642
L4967 623
L4948 604
" />
<path d="M6111 1492
L6111 1098
" />
<path d="M6336 1492
L6167 1267
" />
<path d="M6336 1098
L6111 1323
" />
<path d="M10711 12994
L10579 12806
" />
<path d="M10486 12994
L10486 12600
L10636 12600
L10673 12619
L10692 12638
L10711 12675
L10711 12731
L10692 12769
L10673 12788
L10636 12806
L10486 12806
" />
<path d="M11086 12994
L10861 12994
" />
<path d="M10973 12994
L10973 12600
L10936 12656
L10898 12694
L10861 12713
" />
<path d="M11236 12638
L11254 12619
L11292 12600
L11385 12600
L11423 12619
L11442 12638
L11460 12675
L11460 12713
L11442 12769
L11217 12994
L11460 12994
" />
<path d="M1923 2189
L1923 1795
L2073 1795
L2111 1814
L2129 1832
L2148 1870
L2148 1926
L2129 1964
L2111 1982
L2073 2001
L1923 2001
" />
<path d="M2298 1832
L2317 1814
L2354 1795
L2448 1795
L2486 1814
L2504 1832
L2523 1870
L2523 1907
L2504 1964
L2279 2189
L2523 2189
" />
<path d="M1923 15189
L1923 14795
L2073 14795
L2111 14814
L2129 14832
L2148 14870
L2148 14926
L2129 14964
L2111 14982
L2073 15001
L1923 15001
" />
<path d="M2279 14795
L2523 14795
L2392 14945
L2448 14945
L2486 14964
L2504 14982
L2523 15020
L2523 15114
L2504 15151
L2486 15170
L2448 15189
L2336 15189
L2298 15170
L2279 15151
" />
<path d="M18923 15189
L18923 14795
L19073 14795
L19111 14814
L19129 14832
L19148 14870
L19148 14926
L19129 14964
L19111 14982
L19073 15001
L18923 15001
" />
<path d="M19486 14926
L19486 15189
" />
<path d="M19392 14776
L19298 15057
L19542 15057
" />
<path d="M18923 2189
L18923 1795
L19073 1795
L19111 1814
L19129 1832
L19148 1870
L19148 1926
L19129 1964
L19111 1982
L19073 2001
L18923 2001
" />
<path d="M19504 1795
L19317 1795
L19298 1982
L19317 1964
L19354 1945
L19448 1945
L19486 1964
L19504 1982
L19523 2020
L19523 2114
L19504 2151
L19486 2170
L19448 2189
L19354 2189
L19317 2170
L19298 2151
" />
<path d="M4276 12429
L4239 12411
L4201 12373
L4145 12317
L4107 12298
L4070 12298
" />
<path d="M4089 12392
L4051 12373
L4014 12336
L3995 12261
L3995 12129
L4014 12054
L4051 12017
L4089 11998
L4164 11998
L4201 12017
L4239 12054
L4257 12129
L4257 12261
L4239 12336
L4201 12373
L4164 12392
L4089 12392
" />
<path d="M4632 12392
L4407 12392
" />
<path d="M4520 12392
L4520 11998
L4482 12054
L4445 12092
L4407 12111
" />
<path d="M6276 12429
L6239 12411
L6201 12373
L6145 12317
L6107 12298
L6070 12298
" />
<path d="M6089 12392
L6051 12373
L6014 12336
L5995 12261
L5995 12129
L6014 12054
L6051 12017
L6089 11998
L6164 11998
L6201 12017
L6239 12054
L6257 12129
L6257 12261
L6239 12336
L6201 12373
L6164 12392
L6089 12392
" />
<path d="M6407 12036
L6426 12017
L6464 11998
L6557 11998
L6595 12017
L6614 12036
L6632 12073
L6632 12111
L6614 12167
L6389 12392
L6632 12392
" />
<path d="M8276 12429
L8239 12411
L8201 12373
L8145 12317
L8107 12298
L8070 12298
" />
<path d="M8089 12392
L8051 12373
L8014 12336
L7995 12261
L7995 12129
L8014 12054
L8051 12017
L8089 11998
L8164 11998
L8201 12017
L8239 12054
L8257 12129
L8257 12261
L8239 12336
L8201 12373
L8164 12392
L8089 12392
" />
<path d="M8389 11998
L8632 11998
L8501 12148
L8557 12148
L8595 12167
L8614 12186
L8632 12223
L8632 12317
L8614 12354
L8595 12373
L8557 12392
L8445 12392
L8407 12373
L8389 12354
" />
<path d="M16857 13417
L16951 13811
L17026 13529
L17101 13811
L17195 13417
" />
<path d="M17551 13811
L17326 13811
" />
<path d="M17439 13811
L17439 13417
L17401 13473
L17364 13511
L17326 13529
" />
<path d="M7727 2701
L7727 2426
" />
<path d="M8200 2426
L8200 2701
" />
<path d="M1598 6338
L1598 6693
" />
<path d="M1598 5827
L1598 5434
" />
<path d="M1125 7265
L1598 7265
" />
<path d="M3803 7265
L3330 7265
" />
<path d="M1125 7481
L1598 7481
" />
<path d="M3803 7481
L3330 7481
" />
<path d="M1125 4647
L1618 4647
" />
<path d="M3803 4647
L3310 4647
" />
<path d="M1913 6338
L1283 6338
" />
<path d="M1303 5886
L1913 5886
" />
<path d="M1598 6339
L1303 5886
" />
<path d="M1598 6338
L1913 5885
" />
<path d="M1125 4647
L1125 7481
" />
<path d="M3803 4647
L3803 7481
" />
<path d="M13911 13829
L13517 13829
" />
<path d="M13517 13298
L13911 13298
" />
<path d="M13911 14579
L13517 14579
" />
<path d="M13517 14048
L13911 14048
" />
<path d="M13911 15329
L13517 15329
" />
<path d="M13517 14798
L13911 14798
" />
<path d="M7948 10511
L7948 10117
" />
<path d="M8479 10117
L8479 10511
" />
<path d="M7229 7867
L7229 8261
" />
<path d="M6698 8261
L6698 7867
" />
<path d="M10911 11579
L10517 11579
" />
<path d="M10517 11048
L10911 11048
" />
<path d="M7229 5117
L7229 5511
" />
<path d="M6698 5511
L6698 5117
" />
<path d="M7229 2367
L7229 2761
" />
<path d="M6698 2761
L6698 2367
" />
<path d="M10911 12329
L10517 12329
" />
<path d="M10517 11798
L10911 11798
" />
<path d="M13911 13079
L13517 13079
" />
<path d="M13517 12548
L13911 12548
" />
<path d="M13517 11848
L13911 11848
" />
<path d="M13911 12379
L13517 12379
" />
<circle cx="6464.17" cy="9564.17" r="4069.71" /> 
<path d="M3769 11150
L3769 10677
" />
<path d="M4458 10677
L4458 11150
" />
<path d="M5942.48 6963.82 A1147.83 1147.83 0.0 1 0 5948.43 8154.72 " />
<path d="M5948 6973
L5948 8154
" />
<circle cx="4964.17" cy="7564.17" r="991.313" /> 
<path d="M5942.48 4213.82 A1147.83 1147.83 0.0 1 0 5948.43 5404.72 " />
<path d="M5948 4223
L5948 5404
" />
<circle cx="4964.17" cy="4814.17" r="991.313" /> 
<path d="M5942.48 1463.82 A1147.83 1147.83 0.0 1 0 5948.43 2654.72 " />
<path d="M5948 1473
L5948 2654
" />
<circle cx="4964.17" cy="2064.17" r="991.313" /> 
<path d="M11161 13829
L10767 13829
" />
<path d="M10767 13298
L11161 13298
" />
<path d="M3723 13734
L3723 13458
" />
<path d="M3723 13458
L3821 13458
" />
<path d="M4825 13458
L4904 13458
" />
<path d="M4904 13458
L4904 13734
" />
<path d="M5723 13734
L5723 13458
" />
<path d="M5723 13458
L5821 13458
" />
<path d="M6825 13458
L6904 13458
" />
<path d="M6904 13458
L6904 13734
" />
<path d="M7723 13734
L7723 13458
" />
<path d="M7723 13458
L7821 13458
" />
<path d="M8825 13458
L8904 13458
" />
<path d="M8904 13458
L8904 13734
" />
</g>
<g style="fill:#000000; fill-opacity:1.0; 
stroke:#000000; stroke-width:0; stroke-opacity:1; 
stroke-linecap:round; stroke-linejoin:round;">
<circle cx="11714.2" cy="14814.2" r="300" /> 
</g>
<g style="fill:#000000; fill-opacity:1.0; 
stroke:#000000; stroke-width:39.3701; stroke-opacity:1; 
stroke-linecap:round; stroke-linejoin:round;">
</g>
<g style="fill:#000000; fill-opacity:1.0; 
stroke:#000000; stroke-width:0; stroke-opacity:1; 
stroke-linecap:round; stroke-linejoin:round;">
<circle cx="9714.17" cy="14814.2" r="300" /> 
</g>
<g style="fill:#000000; fill-opacity:1.0; 
stroke:#000000; stroke-width:39.3701; stroke-opacity:1; 
stroke-linecap:round; stroke-linejoin:round;">
</g>
<g style="fill:#000000; fill-opacity:1.0; 
stroke:#000000; stroke-width:0; stroke-opacity:1; 
stroke-linecap:round; stroke-linejoin:round;">
<circle cx="9714.17" cy="12814.2" r="300" /> 
</g>
<g style="fill:#000000; fill-opacity:1.0; 
stroke:#000000; stroke-width:39.3701; stroke-opacity:1; 
stroke-linecap:round; stroke-linejoin:round;">
</g>
<g style="fill:#000000; fill-opacity:1.0; 
stroke:#000000; stroke-width:0; stroke-opacity:1; 
stroke-linecap:round; stroke-linejoin:round;">
<circle cx="11714.2" cy="12814.2" r="300" /> 
</g>
<g style="fill:#000000; fill-opacity:1.0; 
stroke:#000000; stroke-width:39.3701; stroke-opacity:1; 
stroke-linecap:round; stroke-linejoin:round;">
</g>
<g style="fill:#000000; fill-opacity:1.0; 
stroke:#000000; stroke-width:0; stroke-opacity:1; 
stroke-linecap:round; stroke-linejoin:round;">
<circle cx="9714.17" cy="9564.17" r="300" /> 
</g>
<g style="fill:#000000; fill-opacity:1.0; 
stroke:#000000; stroke-width:39.3701; stroke-opacity:1; 
stroke-linecap:round; stroke-linejoin:round;">
</g>
<g style="fill:#000000; fill-opacity:1.0; 
stroke:#000000; stroke-width:0; stroke-opacity:1; 
stroke-linecap:round; stroke-linejoin:round;">
<circle cx="1714.17" cy="9564.17" r="300" /> 
</g>
<g style="fill:#000000; fill-opacity:1.0; 
stroke:#000000; stroke-width:39.3701; stroke-opacity:1; 
stroke-linecap:round; stroke-linejoin:round;">
</g>
<g style="fill:#000000; fill-opacity:1.0; 
stroke:#000000; stroke-width:0; stroke-opacity:1; 
stroke-linecap:round; stroke-linejoin:round;">
<polyline style="fill-rule:evenodd;"
points="5090,7170
5838,7170
5838,7957
5090,7957
5090,7170
" /> 
<circle cx="4464.17" cy="7564.17" r="374.016" /> 
</g>
<g style="fill:#000000; fill-opacity:1.0; 
stroke:#000000; stroke-width:39.3701; stroke-opacity:1; 
stroke-linecap:round; stroke-linejoin:round;">
</g>
<g style="fill:#000000; fill-opacity:1.0; 
stroke:#000000; stroke-width:0; stroke-opacity:1; 
stroke-linecap:round; stroke-linejoin:round;">
<polyline style="fill-rule:evenodd;"
points="5090,4420
5838,4420
5838,5207
5090,5207
5090,4420
" /> 
<circle cx="4464.17" cy="4814.17" r="374.016" /> 
</g>
<g style="fill:#000000; fill-opacity:1.0; 
stroke:#000000; stroke-width:39.3701; stroke-opacity:1; 
stroke-linecap:round; stroke-linejoin:round;">
</g>
<g style="fill:#000000; fill-opacity:1.0; 
stroke:#000000; stroke-width:0; stroke-opacity:1; 
stroke-linecap:round; stroke-linejoin:round;">
<polyline style="fill-rule:evenodd;"
points="5090,1670
5838,1670
5838,2457
5090,2457
5090,1670
" /> 
<circle cx="4464.17" cy="2064.17" r="374.016" /> 
</g>
<g style="fill:#000000; fill-opacity:1.0; 
stroke:#000000; stroke-width:39.3701; stroke-opacity:1; 
stroke-linecap:round; stroke-linejoin:round;">
</g>
<g style="fill:#000000; fill-opacity:1.0; 
stroke:#000000; stroke-width:0; stroke-opacity:1; 
stroke-linecap:round; stroke-linejoin:round;">
<circle cx="2214.17" cy="1814.17" r="885.827" /> 
</g>
<g style="fill:#000000; fill-opacity:1.0; 
stroke:#000000; stroke-width:39.3701; stroke-opacity:1; 
stroke-linecap:round; stroke-linejoin:round;">
</g>
<g style="fill:#000000; fill-opacity:1.0; 
stroke:#000000; stroke-width:0; stroke-opacity:1; 
stroke-linecap:round; stroke-linejoin:round;">
<circle cx="2214.17" cy="14814.2" r="885.827" /> 
</g>
<g style="fill:#000000; fill-opacity:1.0; 
stroke:#000000; stroke-width:39.3701; stroke-opacity:1; 
stroke-linecap:round; stroke-linejoin:round;">
</g>
<g style="fill:#000000; fill-opacity:1.0; 
stroke:#000000; stroke-width:0; stroke-opacity:1; 
stroke-linecap:round; stroke-linejoin:round;">
<circle cx="19214.2" cy="14814.2" r="885.827" /> 
</g>
<g style="fill:#000000; fill-opacity:1.0; 
stroke:#000000; stroke-width:39.3701; stroke-opacity:1; 
stroke-linecap:round; stroke-linejoin:round;">
</g>
<g style="fill:#000000; fill-opacity:1.0; 
stroke:#000000; stroke-width:0; stroke-opacity:1; 
stroke-linecap:round; stroke-linejoin:round;">
<circle cx="19214.2" cy="1814.17" r="885.827" /> 
</g>
<g style="fill:#000000; fill-opacity:1.0; 
stroke:#000000; stroke-width:39.3701; stroke-opacity:1; 
stroke-linecap:round; stroke-linejoin:round;">
</g>
<g style="fill:#000000; fill-opacity:1.0; 
stroke:#000000; stroke-width:0; stroke-opacity:1; 
stroke-linecap:round; stroke-linejoin:round;">
<circle cx="17214.2" cy="14814.2" r="590.551" /> 
</g>
<g style="fill:#000000; fill-opacity:1.0; 
stroke:#000000; stroke-width:39.3701; stroke-opacity:1; 
stroke-linecap:round; stroke-linejoin:round;">
</g> 
</svg>
