<?xml version="1.0" standalone="no"?>
 <!DOCTYPE svg PUBLIC "-//W3C//DTD SVG 1.1//EN" 
 "http://www.w3.org/Graphics/SVG/1.1/DTD/svg11.dtd"> 
<svg xmlns="http://www.w3.org/2000/svg" version="1.1" 
    width="29.7002cm" height="21.0007cm" viewBox="0 0 116930 82680 ">
<title>SVG Picture created as igrow-101-F_Cu.svg date 2015/04/13 15:34:08 </title>
  <desc>Picture generated by PCBNEW </desc>
<g style="fill:#000000; fill-opacity:1;stroke:#000000; stroke-opacity:1;
stroke-linecap:round; stroke-linejoin:round; "
 transform="translate(0 0) scale(1 1)">
</g>
<g style="fill:#000000; fill-opacity:0.0; 
stroke:#000000; stroke-width:39.3701; stroke-opacity:1; 
stroke-linecap:round; stroke-linejoin:round;">
</g>
<g style="fill:#000000; fill-opacity:0.0; 
stroke:#000000; stroke-width:59.0551; stroke-opacity:1; 
stroke-linecap:round; stroke-linejoin:round;">
<rect x="69685.9" y="65357.2" width="42519.7" height="12598.4" rx="0" />
</g>
<g style="fill:#000000; fill-opacity:0.0; 
stroke:#000000; stroke-width:39.3701; stroke-opacity:1; 
stroke-linecap:round; stroke-linejoin:round;">
</g>
<g style="fill:#000000; fill-opacity:0.0; 
stroke:#000000; stroke-width:59.0551; stroke-opacity:1; 
stroke-linecap:round; stroke-linejoin:round;">
<rect x="3937.01" y="3937.01" width="109056" height="74806" rx="0" />
</g>
<g style="fill:#000000; fill-opacity:0.0; 
stroke:#000000; stroke-width:39.3701; stroke-opacity:1; 
stroke-linecap:round; stroke-linejoin:round;">
</g>
<g style="fill:#000000; fill-opacity:0.0; 
stroke:#000000; stroke-width:59.0551; stroke-opacity:1; 
stroke-linecap:round; stroke-linejoin:round;">
<rect x="4724.41" y="4724.41" width="107481" height="73231.2" rx="0" />
</g>
<g style="fill:#000000; fill-opacity:0.0; 
stroke:#000000; stroke-width:39.3701; stroke-opacity:1; 
stroke-linecap:round; stroke-linejoin:round;">
</g>
<g style="fill:#000000; fill-opacity:0.0; 
stroke:#000000; stroke-width:59.0551; stroke-opacity:1; 
stroke-linecap:round; stroke-linejoin:round;">
<path d="M23622 4724
L23622 3937
" />
</g>
<g style="fill:#000000; fill-opacity:0.0; 
stroke:#000000; stroke-width:39.3701; stroke-opacity:1; 
stroke-linecap:round; stroke-linejoin:round;">
</g>
<g style="fill:#000000; fill-opacity:0.0; 
stroke:#000000; stroke-width:59.0551; stroke-opacity:1; 
stroke-linecap:round; stroke-linejoin:round;">
<path d="M43307 4724
L43307 3937
" />
</g>
<g style="fill:#000000; fill-opacity:0.0; 
stroke:#000000; stroke-width:39.3701; stroke-opacity:1; 
stroke-linecap:round; stroke-linejoin:round;">
</g>
<g style="fill:#000000; fill-opacity:0.0; 
stroke:#000000; stroke-width:59.0551; stroke-opacity:1; 
stroke-linecap:round; stroke-linejoin:round;">
<path d="M62992 4724
L62992 3937
" />
</g>
<g style="fill:#000000; fill-opacity:0.0; 
stroke:#000000; stroke-width:39.3701; stroke-opacity:1; 
stroke-linecap:round; stroke-linejoin:round;">
</g>
<g style="fill:#000000; fill-opacity:0.0; 
stroke:#000000; stroke-width:59.0551; stroke-opacity:1; 
stroke-linecap:round; stroke-linejoin:round;">
<path d="M82677 4724
L82677 3937
" />
</g>
<g style="fill:#000000; fill-opacity:0.0; 
stroke:#000000; stroke-width:39.3701; stroke-opacity:1; 
stroke-linecap:round; stroke-linejoin:round;">
</g>
<g style="fill:#000000; fill-opacity:0.0; 
stroke:#000000; stroke-width:59.0551; stroke-opacity:1; 
stroke-linecap:round; stroke-linejoin:round;">
<path d="M102362 4724
L102362 3937
" />
</g>
<g style="fill:#000000; fill-opacity:0.0; 
stroke:#000000; stroke-width:39.3701; stroke-opacity:1; 
stroke-linecap:round; stroke-linejoin:round;">
</g>
<g style="fill:#000000; fill-opacity:0.0; 
stroke:#000000; stroke-width:59.0551; stroke-opacity:1; 
stroke-linecap:round; stroke-linejoin:round;">
<path d="M14169 4562
L13877 4562
" />
<path d="M14023 4562
L14023 4050
L13974 4123
L13925 4172
L13877 4196
" />
</g>
<g style="fill:#000000; fill-opacity:0.0; 
stroke:#000000; stroke-width:39.3701; stroke-opacity:1; 
stroke-linecap:round; stroke-linejoin:round;">
</g>
<g style="fill:#000000; fill-opacity:0.0; 
stroke:#000000; stroke-width:59.0551; stroke-opacity:1; 
stroke-linecap:round; stroke-linejoin:round;">
<path d="M33562 4099
L33586 4074
L33635 4050
L33757 4050
L33805 4074
L33830 4099
L33854 4147
L33854 4196
L33830 4269
L33537 4562
L33854 4562
" />
</g>
<g style="fill:#000000; fill-opacity:0.0; 
stroke:#000000; stroke-width:39.3701; stroke-opacity:1; 
stroke-linecap:round; stroke-linejoin:round;">
</g>
<g style="fill:#000000; fill-opacity:0.0; 
stroke:#000000; stroke-width:59.0551; stroke-opacity:1; 
stroke-linecap:round; stroke-linejoin:round;">
<path d="M53222 4050
L53539 4050
L53368 4245
L53442 4245
L53490 4269
L53515 4294
L53539 4342
L53539 4464
L53515 4513
L53490 4537
L53442 4562
L53295 4562
L53247 4537
L53222 4513
" />
</g>
<g style="fill:#000000; fill-opacity:0.0; 
stroke:#000000; stroke-width:39.3701; stroke-opacity:1; 
stroke-linecap:round; stroke-linejoin:round;">
</g>
<g style="fill:#000000; fill-opacity:0.0; 
stroke:#000000; stroke-width:59.0551; stroke-opacity:1; 
stroke-linecap:round; stroke-linejoin:round;">
<path d="M73175 4221
L73175 4562
" />
<path d="M73053 4026
L72932 4391
L73248 4391
" />
</g>
<g style="fill:#000000; fill-opacity:0.0; 
stroke:#000000; stroke-width:39.3701; stroke-opacity:1; 
stroke-linecap:round; stroke-linejoin:round;">
</g>
<g style="fill:#000000; fill-opacity:0.0; 
stroke:#000000; stroke-width:59.0551; stroke-opacity:1; 
stroke-linecap:round; stroke-linejoin:round;">
<path d="M92885 4050
L92641 4050
L92617 4294
L92641 4269
L92690 4245
L92812 4245
L92860 4269
L92885 4294
L92909 4342
L92909 4464
L92885 4513
L92860 4537
L92812 4562
L92690 4562
L92641 4537
L92617 4513
" />
</g>
<g style="fill:#000000; fill-opacity:0.0; 
stroke:#000000; stroke-width:39.3701; stroke-opacity:1; 
stroke-linecap:round; stroke-linejoin:round;">
</g>
<g style="fill:#000000; fill-opacity:0.0; 
stroke:#000000; stroke-width:59.0551; stroke-opacity:1; 
stroke-linecap:round; stroke-linejoin:round;">
<path d="M112545 4050
L112448 4050
L112399 4074
L112375 4099
L112326 4172
L112302 4269
L112302 4464
L112326 4513
L112350 4537
L112399 4562
L112497 4562
L112545 4537
L112570 4513
L112594 4464
L112594 4342
L112570 4294
L112545 4269
L112497 4245
L112399 4245
L112350 4269
L112326 4294
L112302 4342
" />
</g>
<g style="fill:#000000; fill-opacity:0.0; 
stroke:#000000; stroke-width:39.3701; stroke-opacity:1; 
stroke-linecap:round; stroke-linejoin:round;">
</g>
<g style="fill:#000000; fill-opacity:0.0; 
stroke:#000000; stroke-width:59.0551; stroke-opacity:1; 
stroke-linecap:round; stroke-linejoin:round;">
<path d="M23622 77955
L23622 78742
" />
</g>
<g style="fill:#000000; fill-opacity:0.0; 
stroke:#000000; stroke-width:39.3701; stroke-opacity:1; 
stroke-linecap:round; stroke-linejoin:round;">
</g>
<g style="fill:#000000; fill-opacity:0.0; 
stroke:#000000; stroke-width:59.0551; stroke-opacity:1; 
stroke-linecap:round; stroke-linejoin:round;">
<path d="M43307 77955
L43307 78742
" />
</g>
<g style="fill:#000000; fill-opacity:0.0; 
stroke:#000000; stroke-width:39.3701; stroke-opacity:1; 
stroke-linecap:round; stroke-linejoin:round;">
</g>
<g style="fill:#000000; fill-opacity:0.0; 
stroke:#000000; stroke-width:59.0551; stroke-opacity:1; 
stroke-linecap:round; stroke-linejoin:round;">
<path d="M62992 77955
L62992 78742
" />
</g>
<g style="fill:#000000; fill-opacity:0.0; 
stroke:#000000; stroke-width:39.3701; stroke-opacity:1; 
stroke-linecap:round; stroke-linejoin:round;">
</g>
<g style="fill:#000000; fill-opacity:0.0; 
stroke:#000000; stroke-width:59.0551; stroke-opacity:1; 
stroke-linecap:round; stroke-linejoin:round;">
<path d="M82677 77955
L82677 78742
" />
</g>
<g style="fill:#000000; fill-opacity:0.0; 
stroke:#000000; stroke-width:39.3701; stroke-opacity:1; 
stroke-linecap:round; stroke-linejoin:round;">
</g>
<g style="fill:#000000; fill-opacity:0.0; 
stroke:#000000; stroke-width:59.0551; stroke-opacity:1; 
stroke-linecap:round; stroke-linejoin:round;">
<path d="M102362 77955
L102362 78742
" />
</g>
<g style="fill:#000000; fill-opacity:0.0; 
stroke:#000000; stroke-width:39.3701; stroke-opacity:1; 
stroke-linecap:round; stroke-linejoin:round;">
</g>
<g style="fill:#000000; fill-opacity:0.0; 
stroke:#000000; stroke-width:59.0551; stroke-opacity:1; 
stroke-linecap:round; stroke-linejoin:round;">
<path d="M14169 78580
L13877 78580
" />
<path d="M14023 78580
L14023 78069
L13974 78142
L13925 78190
L13877 78215
" />
</g>
<g style="fill:#000000; fill-opacity:0.0; 
stroke:#000000; stroke-width:39.3701; stroke-opacity:1; 
stroke-linecap:round; stroke-linejoin:round;">
</g>
<g style="fill:#000000; fill-opacity:0.0; 
stroke:#000000; stroke-width:59.0551; stroke-opacity:1; 
stroke-linecap:round; stroke-linejoin:round;">
<path d="M33562 78117
L33586 78093
L33635 78069
L33757 78069
L33805 78093
L33830 78117
L33854 78166
L33854 78215
L33830 78288
L33537 78580
L33854 78580
" />
</g>
<g style="fill:#000000; fill-opacity:0.0; 
stroke:#000000; stroke-width:39.3701; stroke-opacity:1; 
stroke-linecap:round; stroke-linejoin:round;">
</g>
<g style="fill:#000000; fill-opacity:0.0; 
stroke:#000000; stroke-width:59.0551; stroke-opacity:1; 
stroke-linecap:round; stroke-linejoin:round;">
<path d="M53222 78069
L53539 78069
L53368 78263
L53442 78263
L53490 78288
L53515 78312
L53539 78361
L53539 78483
L53515 78532
L53490 78556
L53442 78580
L53295 78580
L53247 78556
L53222 78532
" />
</g>
<g style="fill:#000000; fill-opacity:0.0; 
stroke:#000000; stroke-width:39.3701; stroke-opacity:1; 
stroke-linecap:round; stroke-linejoin:round;">
</g>
<g style="fill:#000000; fill-opacity:0.0; 
stroke:#000000; stroke-width:59.0551; stroke-opacity:1; 
stroke-linecap:round; stroke-linejoin:round;">
<path d="M73175 78239
L73175 78580
" />
<path d="M73053 78044
L72932 78410
L73248 78410
" />
</g>
<g style="fill:#000000; fill-opacity:0.0; 
stroke:#000000; stroke-width:39.3701; stroke-opacity:1; 
stroke-linecap:round; stroke-linejoin:round;">
</g>
<g style="fill:#000000; fill-opacity:0.0; 
stroke:#000000; stroke-width:59.0551; stroke-opacity:1; 
stroke-linecap:round; stroke-linejoin:round;">
<path d="M92885 78069
L92641 78069
L92617 78312
L92641 78288
L92690 78263
L92812 78263
L92860 78288
L92885 78312
L92909 78361
L92909 78483
L92885 78532
L92860 78556
L92812 78580
L92690 78580
L92641 78556
L92617 78532
" />
</g>
<g style="fill:#000000; fill-opacity:0.0; 
stroke:#000000; stroke-width:39.3701; stroke-opacity:1; 
stroke-linecap:round; stroke-linejoin:round;">
</g>
<g style="fill:#000000; fill-opacity:0.0; 
stroke:#000000; stroke-width:59.0551; stroke-opacity:1; 
stroke-linecap:round; stroke-linejoin:round;">
<path d="M112545 78069
L112448 78069
L112399 78093
L112375 78117
L112326 78190
L112302 78288
L112302 78483
L112326 78532
L112350 78556
L112399 78580
L112497 78580
L112545 78556
L112570 78532
L112594 78483
L112594 78361
L112570 78312
L112545 78288
L112497 78263
L112399 78263
L112350 78288
L112326 78312
L112302 78361
" />
</g>
<g style="fill:#000000; fill-opacity:0.0; 
stroke:#000000; stroke-width:39.3701; stroke-opacity:1; 
stroke-linecap:round; stroke-linejoin:round;">
</g>
<g style="fill:#000000; fill-opacity:0.0; 
stroke:#000000; stroke-width:59.0551; stroke-opacity:1; 
stroke-linecap:round; stroke-linejoin:round;">
<path d="M3937 23622
L4724 23622
" />
</g>
<g style="fill:#000000; fill-opacity:0.0; 
stroke:#000000; stroke-width:39.3701; stroke-opacity:1; 
stroke-linecap:round; stroke-linejoin:round;">
</g>
<g style="fill:#000000; fill-opacity:0.0; 
stroke:#000000; stroke-width:59.0551; stroke-opacity:1; 
stroke-linecap:round; stroke-linejoin:round;">
<path d="M3937 43307
L4724 43307
" />
</g>
<g style="fill:#000000; fill-opacity:0.0; 
stroke:#000000; stroke-width:39.3701; stroke-opacity:1; 
stroke-linecap:round; stroke-linejoin:round;">
</g>
<g style="fill:#000000; fill-opacity:0.0; 
stroke:#000000; stroke-width:59.0551; stroke-opacity:1; 
stroke-linecap:round; stroke-linejoin:round;">
<path d="M3937 62992
L4724 62992
" />
</g>
<g style="fill:#000000; fill-opacity:0.0; 
stroke:#000000; stroke-width:39.3701; stroke-opacity:1; 
stroke-linecap:round; stroke-linejoin:round;">
</g>
<g style="fill:#000000; fill-opacity:0.0; 
stroke:#000000; stroke-width:59.0551; stroke-opacity:1; 
stroke-linecap:round; stroke-linejoin:round;">
<path d="M4208 13864
L4452 13864
" />
<path d="M4160 14011
L4330 13499
L4501 14011
" />
</g>
<g style="fill:#000000; fill-opacity:0.0; 
stroke:#000000; stroke-width:39.3701; stroke-opacity:1; 
stroke-linecap:round; stroke-linejoin:round;">
</g>
<g style="fill:#000000; fill-opacity:0.0; 
stroke:#000000; stroke-width:59.0551; stroke-opacity:1; 
stroke-linecap:round; stroke-linejoin:round;">
<path d="M4367 33428
L4440 33452
L4464 33476
L4489 33525
L4489 33598
L4464 33647
L4440 33671
L4391 33696
L4196 33696
L4196 33184
L4367 33184
L4416 33208
L4440 33233
L4464 33281
L4464 33330
L4440 33379
L4416 33403
L4367 33428
L4196 33428
" />
</g>
<g style="fill:#000000; fill-opacity:0.0; 
stroke:#000000; stroke-width:39.3701; stroke-opacity:1; 
stroke-linecap:round; stroke-linejoin:round;">
</g>
<g style="fill:#000000; fill-opacity:0.0; 
stroke:#000000; stroke-width:59.0551; stroke-opacity:1; 
stroke-linecap:round; stroke-linejoin:round;">
<path d="M4489 53332
L4464 53356
L4391 53381
L4342 53381
L4269 53356
L4221 53308
L4196 53259
L4172 53161
L4172 53088
L4196 52991
L4221 52942
L4269 52893
L4342 52869
L4391 52869
L4464 52893
L4489 52918
" />
</g>
<g style="fill:#000000; fill-opacity:0.0; 
stroke:#000000; stroke-width:39.3701; stroke-opacity:1; 
stroke-linecap:round; stroke-linejoin:round;">
</g>
<g style="fill:#000000; fill-opacity:0.0; 
stroke:#000000; stroke-width:59.0551; stroke-opacity:1; 
stroke-linecap:round; stroke-linejoin:round;">
<path d="M4196 73066
L4196 72554
L4318 72554
L4391 72578
L4440 72627
L4464 72676
L4489 72773
L4489 72846
L4464 72944
L4440 72993
L4391 73041
L4318 73066
L4196 73066
" />
</g>
<g style="fill:#000000; fill-opacity:0.0; 
stroke:#000000; stroke-width:39.3701; stroke-opacity:1; 
stroke-linecap:round; stroke-linejoin:round;">
</g>
<g style="fill:#000000; fill-opacity:0.0; 
stroke:#000000; stroke-width:59.0551; stroke-opacity:1; 
stroke-linecap:round; stroke-linejoin:round;">
<path d="M112992 23622
L112205 23622
" />
</g>
<g style="fill:#000000; fill-opacity:0.0; 
stroke:#000000; stroke-width:39.3701; stroke-opacity:1; 
stroke-linecap:round; stroke-linejoin:round;">
</g>
<g style="fill:#000000; fill-opacity:0.0; 
stroke:#000000; stroke-width:59.0551; stroke-opacity:1; 
stroke-linecap:round; stroke-linejoin:round;">
<path d="M112992 43307
L112205 43307
" />
</g>
<g style="fill:#000000; fill-opacity:0.0; 
stroke:#000000; stroke-width:39.3701; stroke-opacity:1; 
stroke-linecap:round; stroke-linejoin:round;">
</g>
<g style="fill:#000000; fill-opacity:0.0; 
stroke:#000000; stroke-width:59.0551; stroke-opacity:1; 
stroke-linecap:round; stroke-linejoin:round;">
<path d="M112992 62992
L112205 62992
" />
</g>
<g style="fill:#000000; fill-opacity:0.0; 
stroke:#000000; stroke-width:39.3701; stroke-opacity:1; 
stroke-linecap:round; stroke-linejoin:round;">
</g>
<g style="fill:#000000; fill-opacity:0.0; 
stroke:#000000; stroke-width:59.0551; stroke-opacity:1; 
stroke-linecap:round; stroke-linejoin:round;">
<path d="M112477 13864
L112721 13864
" />
<path d="M112428 14011
L112599 13499
L112769 14011
" />
</g>
<g style="fill:#000000; fill-opacity:0.0; 
stroke:#000000; stroke-width:39.3701; stroke-opacity:1; 
stroke-linecap:round; stroke-linejoin:round;">
</g>
<g style="fill:#000000; fill-opacity:0.0; 
stroke:#000000; stroke-width:59.0551; stroke-opacity:1; 
stroke-linecap:round; stroke-linejoin:round;">
<path d="M112635 33428
L112708 33452
L112733 33476
L112757 33525
L112757 33598
L112733 33647
L112708 33671
L112660 33696
L112465 33696
L112465 33184
L112635 33184
L112684 33208
L112708 33233
L112733 33281
L112733 33330
L112708 33379
L112684 33403
L112635 33428
L112465 33428
" />
</g>
<g style="fill:#000000; fill-opacity:0.0; 
stroke:#000000; stroke-width:39.3701; stroke-opacity:1; 
stroke-linecap:round; stroke-linejoin:round;">
</g>
<g style="fill:#000000; fill-opacity:0.0; 
stroke:#000000; stroke-width:59.0551; stroke-opacity:1; 
stroke-linecap:round; stroke-linejoin:round;">
<path d="M112757 53332
L112733 53356
L112660 53381
L112611 53381
L112538 53356
L112489 53308
L112465 53259
L112440 53161
L112440 53088
L112465 52991
L112489 52942
L112538 52893
L112611 52869
L112660 52869
L112733 52893
L112757 52918
" />
</g>
<g style="fill:#000000; fill-opacity:0.0; 
stroke:#000000; stroke-width:39.3701; stroke-opacity:1; 
stroke-linecap:round; stroke-linejoin:round;">
</g>
<g style="fill:#000000; fill-opacity:0.0; 
stroke:#000000; stroke-width:59.0551; stroke-opacity:1; 
stroke-linecap:round; stroke-linejoin:round;">
<path d="M112465 73066
L112465 72554
L112587 72554
L112660 72578
L112708 72627
L112733 72676
L112757 72773
L112757 72846
L112733 72944
L112708 72993
L112660 73041
L112587 73066
L112465 73066
" />
</g>
<g style="fill:#000000; fill-opacity:0.0; 
stroke:#000000; stroke-width:39.3701; stroke-opacity:1; 
stroke-linecap:round; stroke-linejoin:round;">
</g>
<g style="fill:#000000; fill-opacity:0.0; 
stroke:#000000; stroke-width:59.0551; stroke-opacity:1; 
stroke-linecap:round; stroke-linejoin:round;">
<path d="M78881 76293
L78881 75703
L79022 75703
L79106 75731
L79162 75787
L79190 75843
L79219 75956
L79219 76040
L79190 76153
L79162 76209
L79106 76265
L79022 76293
L78881 76293
" />
<path d="M79725 76293
L79725 75984
L79697 75928
L79640 75899
L79528 75899
L79472 75928
" />
<path d="M79725 76265
L79669 76293
L79528 76293
L79472 76265
L79444 76209
L79444 76153
L79472 76096
L79528 76068
L79669 76068
L79725 76040
" />
<path d="M79922 75899
L80147 75899
" />
<path d="M80006 75703
L80006 76209
L80034 76265
L80090 76293
L80147 76293
" />
<path d="M80568 76265
L80512 76293
L80400 76293
L80343 76265
L80315 76209
L80315 75984
L80343 75928
L80400 75899
L80512 75899
L80568 75928
L80597 75984
L80597 76040
L80315 76096
" />
<path d="M80850 76237
L80878 76265
L80850 76293
L80822 76265
L80850 76237
L80850 76293
" />
<path d="M80850 75928
L80878 75956
L80850 75984
L80822 75956
L80850 75928
L80850 75984
" />
<path d="M81581 76293
L81581 75703
L81778 76124
L81974 75703
L81974 76293
" />
<path d="M82340 76293
L82284 76265
L82256 76237
L82228 76181
L82228 76012
L82256 75956
L82284 75928
L82340 75899
L82424 75899
L82481 75928
L82509 75956
L82537 76012
L82537 76181
L82509 76237
L82481 76265
L82424 76293
L82340 76293
" />
<path d="M82790 75899
L82790 76293
" />
<path d="M82790 75956
L82818 75928
L82874 75899
L82959 75899
L83015 75928
L83043 75984
L83043 76293
" />
<path d="M83577 76293
L83577 75703
" />
<path d="M83577 76265
L83521 76293
L83409 76293
L83352 76265
L83324 76237
L83296 76181
L83296 76012
L83324 75956
L83352 75928
L83409 75899
L83521 75899
L83577 75928
" />
<path d="M84112 76293
L84112 75984
L84084 75928
L84027 75899
L83915 75899
L83859 75928
" />
<path d="M84112 76265
L84055 76293
L83915 76293
L83859 76265
L83831 76209
L83831 76153
L83859 76096
L83915 76068
L84055 76068
L84112 76040
" />
<path d="M84337 75899
L84477 76293
" />
<path d="M84618 75899
L84477 76293
L84421 76434
L84393 76462
L84337 76490
" />
<path d="M84871 76265
L84871 76293
L84843 76349
L84815 76377
" />
<path d="M85687 75703
L85743 75703
L85799 75731
L85827 75759
L85855 75815
L85883 75928
L85883 76068
L85855 76181
L85827 76237
L85799 76265
L85743 76293
L85687 76293
L85630 76265
L85602 76237
L85574 76181
L85546 76068
L85546 75928
L85574 75815
L85602 75759
L85630 75731
L85687 75703
" />
<path d="M86390 75703
L86277 75703
L86221 75731
L86193 75759
L86136 75843
L86108 75956
L86108 76181
L86136 76237
L86165 76265
L86221 76293
L86333 76293
L86390 76265
L86418 76237
L86446 76181
L86446 76040
L86418 75984
L86390 75956
L86333 75928
L86221 75928
L86165 75956
L86136 75984
L86108 76040
" />
<path d="M87121 76124
L87402 76124
" />
<path d="M87064 76293
L87261 75703
L87458 76293
" />
<path d="M87655 75899
L87655 76490
" />
<path d="M87655 75928
L87711 75899
L87824 75899
L87880 75928
L87908 75956
L87936 76012
L87936 76181
L87908 76237
L87880 76265
L87824 76293
L87711 76293
L87655 76265
" />
<path d="M88189 76293
L88189 75899
" />
<path d="M88189 76012
L88217 75956
L88246 75928
L88302 75899
L88358 75899
" />
<path d="M88555 76293
L88555 75899
" />
<path d="M88555 75703
L88527 75731
L88555 75759
L88583 75731
L88555 75703
L88555 75759
" />
<path d="M88921 76293
L88864 76265
L88836 76209
L88836 75703
" />
<path d="M89567 75759
L89595 75731
L89652 75703
L89792 75703
L89849 75731
L89877 75759
L89905 75815
L89905 75871
L89877 75956
L89539 76293
L89905 76293
" />
<path d="M90270 75703
L90327 75703
L90383 75731
L90411 75759
L90439 75815
L90467 75928
L90467 76068
L90439 76181
L90411 76237
L90383 76265
L90327 76293
L90270 76293
L90214 76265
L90186 76237
L90158 76181
L90130 76068
L90130 75928
L90158 75815
L90186 75759
L90214 75731
L90270 75703
" />
<path d="M91030 76293
L90692 76293
" />
<path d="M90861 76293
L90861 75703
L90805 75787
L90748 75843
L90692 75871
" />
<path d="M91564 75703
L91283 75703
L91255 75984
L91283 75956
L91339 75928
L91480 75928
L91536 75956
L91564 75984
L91592 76040
L91592 76181
L91564 76237
L91536 76265
L91480 76293
L91339 76293
L91283 76265
L91255 76237
" />
</g>
<g style="fill:#000000; fill-opacity:0.0; 
stroke:#000000; stroke-width:39.3701; stroke-opacity:1; 
stroke-linecap:round; stroke-linejoin:round;">
</g>
<g style="fill:#000000; fill-opacity:0.0; 
stroke:#000000; stroke-width:59.0551; stroke-opacity:1; 
stroke-linecap:round; stroke-linejoin:round;">
<path d="M69685 76577
L112205 76577
" />
</g>
<g style="fill:#000000; fill-opacity:0.0; 
stroke:#000000; stroke-width:39.3701; stroke-opacity:1; 
stroke-linecap:round; stroke-linejoin:round;">
</g>
<g style="fill:#000000; fill-opacity:0.0; 
stroke:#000000; stroke-width:59.0551; stroke-opacity:1; 
stroke-linecap:round; stroke-linejoin:round;">
<path d="M70220 77395
L70220 76805
" />
<path d="M70557 77395
L70304 77058
" />
<path d="M70557 76805
L70220 77142
" />
<path d="M70810 77395
L70810 77002
" />
<path d="M70810 76805
L70782 76833
L70810 76861
L70838 76833
L70810 76805
L70810 76861
" />
<path d="M71429 77339
L71401 77367
L71316 77395
L71260 77395
L71176 77367
L71120 77311
L71091 77255
L71063 77142
L71063 77058
L71091 76946
L71120 76889
L71176 76833
L71260 76805
L71316 76805
L71401 76833
L71429 76861
" />
<path d="M71935 77395
L71935 77086
L71907 77030
L71851 77002
L71738 77002
L71682 77030
" />
<path d="M71935 77367
L71879 77395
L71738 77395
L71682 77367
L71654 77311
L71654 77255
L71682 77199
L71738 77171
L71879 77171
L71935 77142
" />
<path d="M72469 77395
L72469 76805
" />
<path d="M72469 77367
L72413 77395
L72301 77395
L72244 77367
L72216 77339
L72188 77283
L72188 77114
L72216 77058
L72244 77030
L72301 77002
L72413 77002
L72469 77030
" />
<path d="M73201 77086
L73397 77086
" />
<path d="M73482 77395
L73201 77395
L73201 76805
L73482 76805
" />
<path d="M73735 77339
L73763 77367
L73735 77395
L73707 77367
L73735 77339
L73735 77395
" />
<path d="M74016 77395
L74016 76805
L74157 76805
L74241 76833
L74297 76889
L74325 76946
L74354 77058
L74354 77142
L74325 77255
L74297 77311
L74241 77367
L74157 77395
L74016 77395
" />
<path d="M74607 77339
L74635 77367
L74607 77395
L74579 77367
L74607 77339
L74607 77395
" />
<path d="M74860 77227
L75141 77227
" />
<path d="M74804 77395
L75000 76805
L75197 77395
" />
<path d="M75394 77339
L75422 77367
L75394 77395
L75366 77367
L75394 77339
L75394 77395
" />
<path d="M76575 77395
L76575 76805
" />
<path d="M76631 77171
L76800 77395
" />
<path d="M76800 77002
L76575 77227
" />
<path d="M77053 77395
L77053 77002
" />
<path d="M77053 76805
L77025 76833
L77053 76861
L77081 76833
L77053 76805
L77053 76861
" />
<path d="M77588 77367
L77531 77395
L77419 77395
L77363 77367
L77334 77339
L77306 77283
L77306 77114
L77334 77058
L77363 77030
L77419 77002
L77531 77002
L77588 77030
" />
<path d="M78094 77395
L78094 77086
L78066 77030
L78009 77002
L77897 77002
L77841 77030
" />
<path d="M78094 77367
L78037 77395
L77897 77395
L77841 77367
L77813 77311
L77813 77255
L77841 77199
L77897 77171
L78037 77171
L78094 77142
" />
<path d="M78628 77395
L78628 76805
" />
<path d="M78628 77367
L78572 77395
L78459 77395
L78403 77367
L78375 77339
L78347 77283
L78347 77114
L78375 77058
L78403 77030
L78459 77002
L78572 77002
L78628 77030
" />
<path d="M79528 77620
L79500 77592
L79444 77508
L79415 77452
L79387 77367
L79359 77227
L79359 77114
L79387 76974
L79415 76889
L79444 76833
L79500 76749
L79528 76721
" />
<path d="M80006 77395
L80006 77086
L79978 77030
L79922 77002
L79809 77002
L79753 77030
" />
<path d="M80006 77367
L79950 77395
L79809 77395
L79753 77367
L79725 77311
L79725 77255
L79753 77199
L79809 77171
L79950 77171
L80006 77142
" />
<path d="M80203 77002
L80428 77002
" />
<path d="M80287 77395
L80287 76889
L80315 76833
L80372 76805
L80428 76805
" />
<path d="M80540 77002
L80765 77002
" />
<path d="M80625 76805
L80625 77311
L80653 77367
L80709 77395
L80765 77395
" />
<path d="M81187 77367
L81131 77395
L81018 77395
L80962 77367
L80934 77311
L80934 77086
L80962 77030
L81018 77002
L81131 77002
L81187 77030
L81215 77086
L81215 77142
L80934 77199
" />
<path d="M81468 77395
L81468 77002
" />
<path d="M81468 77114
L81496 77058
L81525 77030
L81581 77002
L81637 77002
" />
<path d="M82256 76861
L82284 76833
L82340 76805
L82481 76805
L82537 76833
L82565 76861
L82593 76917
L82593 76974
L82565 77058
L82228 77395
L82593 77395
" />
<path d="M82959 76805
L83015 76805
L83071 76833
L83099 76861
L83127 76917
L83156 77030
L83156 77171
L83127 77283
L83099 77339
L83071 77367
L83015 77395
L82959 77395
L82903 77367
L82874 77339
L82846 77283
L82818 77171
L82818 77030
L82846 76917
L82874 76861
L82903 76833
L82959 76805
" />
<path d="M83718 77395
L83381 77395
" />
<path d="M83549 77395
L83549 76805
L83493 76889
L83437 76946
L83381 76974
" />
<path d="M84252 76805
L83971 76805
L83943 77086
L83971 77058
L84027 77030
L84168 77030
L84224 77058
L84252 77086
L84280 77142
L84280 77283
L84252 77339
L84224 77367
L84168 77395
L84027 77395
L83971 77367
L83943 77339
" />
<path d="M84534 77171
L84983 77171
" />
<path d="M85265 77002
L85265 77508
L85237 77564
L85180 77592
L85152 77592
" />
<path d="M85265 76805
L85237 76833
L85265 76861
L85293 76833
L85265 76805
L85265 76861
" />
<path d="M85799 77395
L85799 77086
L85771 77030
L85715 77002
L85602 77002
L85546 77030
" />
<path d="M85799 77367
L85743 77395
L85602 77395
L85546 77367
L85518 77311
L85518 77255
L85546 77199
L85602 77171
L85743 77171
L85799 77142
" />
<path d="M86080 77002
L86080 77395
" />
<path d="M86080 77058
L86108 77030
L86165 77002
L86249 77002
L86305 77030
L86333 77086
L86333 77395
" />
<path d="M86615 77171
L87064 77171
" />
<path d="M87655 77395
L87318 77395
" />
<path d="M87486 77395
L87486 76805
L87430 76889
L87374 76946
L87318 76974
" />
<path d="M88161 76805
L88049 76805
L87992 76833
L87964 76861
L87908 76946
L87880 77058
L87880 77283
L87908 77339
L87936 77367
L87992 77395
L88105 77395
L88161 77367
L88189 77339
L88217 77283
L88217 77142
L88189 77086
L88161 77058
L88105 77030
L87992 77030
L87936 77058
L87908 77086
L87880 77142
" />
<path d="M89117 77086
L89202 77114
L89230 77142
L89258 77199
L89258 77283
L89230 77339
L89202 77367
L89145 77395
L88921 77395
L88921 76805
L89117 76805
L89174 76833
L89202 76861
L89230 76917
L89230 76974
L89202 77030
L89174 77058
L89117 77086
L88921 77086
" />
<path d="M89455 76805
L89849 76805
L89455 77395
L89849 77395
" />
<path d="M90411 77395
L90214 77114
" />
<path d="M90073 77395
L90073 76805
L90298 76805
L90355 76833
L90383 76861
L90411 76917
L90411 77002
L90383 77058
L90355 77086
L90298 77114
L90073 77114
" />
<path d="M91367 77002
L91367 77395
" />
<path d="M91114 77002
L91114 77311
L91142 77367
L91198 77395
L91283 77395
L91339 77367
L91367 77339
" />
<path d="M91648 77002
L91648 77395
" />
<path d="M91648 77058
L91676 77030
L91733 77002
L91817 77002
L91873 77030
L91901 77086
L91901 77395
" />
<path d="M92183 77395
L92183 76805
" />
<path d="M92239 77171
L92408 77395
" />
<path d="M92408 77002
L92183 77227
" />
<path d="M92661 77002
L92661 77395
" />
<path d="M92661 77058
L92689 77030
L92745 77002
L92829 77002
L92886 77030
L92914 77086
L92914 77395
" />
<path d="M93279 77395
L93223 77367
L93195 77339
L93167 77283
L93167 77114
L93195 77058
L93223 77030
L93279 77002
L93364 77002
L93420 77030
L93448 77058
L93476 77114
L93476 77283
L93448 77339
L93420 77367
L93364 77395
L93279 77395
" />
<path d="M93673 77002
L93786 77395
L93898 77114
L94010 77395
L94123 77002
" />
<path d="M94348 77002
L94348 77395
" />
<path d="M94348 77058
L94376 77030
L94432 77002
L94517 77002
L94573 77030
L94601 77086
L94601 77395
" />
<path d="M94826 77620
L94854 77592
L94910 77508
L94938 77452
L94967 77367
L94995 77227
L94995 77114
L94967 76974
L94938 76889
L94910 76833
L94854 76749
L94826 76721
" />
<path d="M95276 77171
L95726 77171
" />
<path d="M96007 77002
L96007 77592
" />
<path d="M96007 77030
L96063 77002
L96176 77002
L96232 77030
L96260 77058
L96288 77114
L96288 77283
L96260 77339
L96232 77367
L96176 77395
L96063 77395
L96007 77367
" />
<path d="M96541 77395
L96541 77002
" />
<path d="M96541 77114
L96570 77058
L96598 77030
L96654 77002
L96710 77002
" />
<path d="M96991 77395
L96935 77367
L96907 77339
L96879 77283
L96879 77114
L96907 77058
L96935 77030
L96991 77002
L97076 77002
L97132 77030
L97160 77058
L97188 77114
L97188 77283
L97160 77339
L97132 77367
L97076 77395
L96991 77395
" />
<path d="M97694 77395
L97694 76805
" />
<path d="M97694 77367
L97638 77395
L97526 77395
L97469 77367
L97441 77339
L97413 77283
L97413 77114
L97441 77058
L97469 77030
L97526 77002
L97638 77002
L97694 77030
" />
<path d="M98229 77002
L98229 77395
" />
<path d="M97976 77002
L97976 77311
L98004 77367
L98060 77395
L98144 77395
L98201 77367
L98229 77339
" />
<path d="M98763 77367
L98707 77395
L98594 77395
L98538 77367
L98510 77339
L98482 77283
L98482 77114
L98510 77058
L98538 77030
L98594 77002
L98707 77002
L98763 77030
" />
<path d="M98932 77002
L99157 77002
" />
<path d="M99016 76805
L99016 77311
L99044 77367
L99100 77395
L99157 77395
" />
</g>
<g style="fill:#000000; fill-opacity:0.0; 
stroke:#000000; stroke-width:39.3701; stroke-opacity:1; 
stroke-linecap:round; stroke-linejoin:round;">
</g>
<g style="fill:#000000; fill-opacity:0.0; 
stroke:#000000; stroke-width:59.0551; stroke-opacity:1; 
stroke-linecap:round; stroke-linejoin:round;">
<path d="M69685 75396
L112205 75396
" />
</g>
<g style="fill:#000000; fill-opacity:0.0; 
stroke:#000000; stroke-width:39.3701; stroke-opacity:1; 
stroke-linecap:round; stroke-linejoin:round;">
</g>
<g style="fill:#000000; fill-opacity:0.0; 
stroke:#000000; stroke-width:118.11; stroke-opacity:1; 
stroke-linecap:round; stroke-linejoin:round;">
<path d="M104022 76293
L103825 76012
" />
<path d="M103684 76293
L103684 75703
L103909 75703
L103965 75731
L103994 75759
L104022 75815
L104022 75899
L103994 75956
L103965 75984
L103909 76012
L103684 76012
" />
<path d="M104500 76265
L104444 76293
L104331 76293
L104275 76265
L104247 76209
L104247 75984
L104275 75928
L104331 75899
L104444 75899
L104500 75928
L104528 75984
L104528 76040
L104247 76096
" />
<path d="M104725 75899
L104865 76293
L105006 75899
" />
<path d="M105231 76237
L105259 76265
L105231 76293
L105203 76265
L105231 76237
L105231 76293
" />
<path d="M105231 75928
L105259 75956
L105231 75984
L105203 75956
L105231 75928
L105231 75984
" />
<path d="M106271 76293
L105934 76293
" />
<path d="M106103 76293
L106103 75703
L106046 75787
L105990 75843
L105934 75871
" />
<path d="M106637 75703
L106693 75703
L106750 75731
L106778 75759
L106806 75815
L106834 75928
L106834 76068
L106806 76181
L106778 76237
L106750 76265
L106693 76293
L106637 76293
L106581 76265
L106553 76237
L106525 76181
L106496 76068
L106496 75928
L106525 75815
L106553 75759
L106581 75731
L106637 75703
" />
<path d="M107396 76293
L107059 76293
" />
<path d="M107228 76293
L107228 75703
L107171 75787
L107115 75843
L107059 75871
" />
</g>
<g style="fill:#000000; fill-opacity:0.0; 
stroke:#000000; stroke-width:39.3701; stroke-opacity:1; 
stroke-linecap:round; stroke-linejoin:round;">
</g>
<g style="fill:#000000; fill-opacity:0.0; 
stroke:#000000; stroke-width:59.0551; stroke-opacity:1; 
stroke-linecap:round; stroke-linejoin:round;">
<path d="M70192 76265
L70276 76293
L70417 76293
L70473 76265
L70501 76237
L70529 76181
L70529 76124
L70501 76068
L70473 76040
L70417 76012
L70304 75984
L70248 75956
L70220 75928
L70192 75871
L70192 75815
L70220 75759
L70248 75731
L70304 75703
L70445 75703
L70529 75731
" />
<path d="M70782 76293
L70782 75899
" />
<path d="M70782 75703
L70754 75731
L70782 75759
L70810 75731
L70782 75703
L70782 75759
" />
<path d="M71007 75899
L71316 75899
L71007 76293
L71316 76293
" />
<path d="M71766 76265
L71710 76293
L71598 76293
L71541 76265
L71513 76209
L71513 75984
L71541 75928
L71598 75899
L71710 75899
L71766 75928
L71795 75984
L71795 76040
L71513 76096
" />
<path d="M72048 76237
L72076 76265
L72048 76293
L72019 76265
L72048 76237
L72048 76293
" />
<path d="M72048 75928
L72076 75956
L72048 75984
L72019 75956
L72048 75928
L72048 75984
" />
<path d="M72751 76124
L73032 76124
" />
<path d="M72694 76293
L72891 75703
L73088 76293
" />
<path d="M73538 75899
L73538 76293
" />
<path d="M73397 75674
L73257 76096
L73622 76096
" />
</g>
<g style="fill:#000000; fill-opacity:0.0; 
stroke:#000000; stroke-width:39.3701; stroke-opacity:1; 
stroke-linecap:round; stroke-linejoin:round;">
</g>
<g style="fill:#000000; fill-opacity:0.0; 
stroke:#000000; stroke-width:59.0551; stroke-opacity:1; 
stroke-linecap:round; stroke-linejoin:round;">
<path d="M103684 77395
L103684 76805
" />
<path d="M104219 77395
L104219 76805
" />
<path d="M104219 77367
L104162 77395
L104050 77395
L103994 77367
L103965 77339
L103937 77283
L103937 77114
L103965 77058
L103994 77030
L104050 77002
L104162 77002
L104219 77030
" />
<path d="M104500 77339
L104528 77367
L104500 77395
L104472 77367
L104500 77339
L104500 77395
" />
<path d="M104500 77030
L104528 77058
L104500 77086
L104472 77058
L104500 77030
L104500 77086
" />
<path d="M105540 77395
L105203 77395
" />
<path d="M105372 77395
L105372 76805
L105315 76889
L105259 76946
L105203 76974
" />
<path d="M106215 76777
L105709 77536
" />
<path d="M106721 77395
L106384 77395
" />
<path d="M106553 77395
L106553 76805
L106496 76889
L106440 76946
L106384 76974
" />
</g>
<g style="fill:#000000; fill-opacity:0.0; 
stroke:#000000; stroke-width:39.3701; stroke-opacity:1; 
stroke-linecap:round; stroke-linejoin:round;">
</g>
<g style="fill:#000000; fill-opacity:0.0; 
stroke:#000000; stroke-width:59.0551; stroke-opacity:1; 
stroke-linecap:round; stroke-linejoin:round;">
<path d="M69685 73821
L112205 73821
" />
</g>
<g style="fill:#000000; fill-opacity:0.0; 
stroke:#000000; stroke-width:39.3701; stroke-opacity:1; 
stroke-linecap:round; stroke-linejoin:round;">
</g>
<g style="fill:#000000; fill-opacity:0.0; 
stroke:#000000; stroke-width:157.48; stroke-opacity:1; 
stroke-linecap:round; stroke-linejoin:round;">
<path d="M70257 74099
L70707 74099
" />
<path d="M70384 74886
L70482 74099
" />
<path d="M70871 74886
L70937 74361
" />
<path d="M70970 74099
L70927 74136
L70960 74174
L71002 74136
L70970 74099
L70960 74174
" />
<path d="M71199 74361
L71499 74361
" />
<path d="M71345 74099
L71260 74774
L71288 74849
L71359 74886
L71434 74886
" />
<path d="M71809 74886
L71738 74849
L71710 74774
L71795 74099
" />
<path d="M72413 74849
L72334 74886
L72184 74886
L72113 74849
L72085 74774
L72123 74474
L72169 74399
L72249 74361
L72399 74361
L72469 74399
L72498 74474
L72488 74549
L72104 74624
" />
<path d="M72793 74811
L72826 74849
L72783 74886
L72751 74849
L72793 74811
L72783 74886
" />
<path d="M72844 74399
L72877 74436
L72835 74474
L72802 74436
L72844 74399
L72835 74474
" />
<path d="M73758 74886
L73824 74361
" />
<path d="M73857 74099
L73815 74136
L73847 74174
L73890 74136
L73857 74099
L73847 74174
" />
<path d="M74639 74136
L74569 74099
L74457 74099
L74340 74136
L74255 74211
L74208 74286
L74152 74436
L74138 74549
L74157 74699
L74185 74774
L74250 74849
L74358 74886
L74433 74886
L74550 74849
L74593 74811
L74625 74549
L74475 74549
" />
<path d="M74921 74886
L74986 74361
" />
<path d="M74968 74511
L75014 74436
L75057 74399
L75136 74361
L75211 74361
" />
<path d="M75521 74886
L75450 74849
L75418 74811
L75389 74736
L75418 74511
L75464 74436
L75507 74399
L75586 74361
L75699 74361
L75769 74399
L75802 74436
L75830 74511
L75802 74736
L75755 74811
L75713 74849
L75633 74886
L75521 74886
" />
<path d="M76111 74361
L76196 74886
L76392 74511
L76495 74886
L76711 74361
" />
<path d="M77545 74886
L77644 74099
L77995 74886
L78094 74099
" />
<path d="M78483 74886
L78412 74849
L78380 74811
L78352 74736
L78380 74511
L78427 74436
L78469 74399
L78548 74361
L78661 74361
L78731 74399
L78764 74436
L78792 74511
L78764 74736
L78717 74811
L78675 74849
L78595 74886
L78483 74886
" />
<path d="M79083 74886
L79148 74361
" />
<path d="M79130 74511
L79176 74436
L79219 74399
L79298 74361
L79373 74361
" />
<path d="M79908 74886
L80006 74099
" />
<path d="M79912 74849
L79833 74886
L79683 74886
L79612 74849
L79579 74811
L79551 74736
L79579 74511
L79626 74436
L79669 74399
L79748 74361
L79898 74361
L79968 74399
" />
<path d="M80283 74886
L80348 74361
" />
<path d="M80381 74099
L80339 74136
L80372 74174
L80414 74136
L80381 74099
L80372 74174
" />
<path d="M81000 74849
L80920 74886
L80770 74886
L80700 74849
L80667 74811
L80639 74736
L80667 74511
L80714 74436
L80756 74399
L80836 74361
L80986 74361
L81056 74399
" />
<path d="M81998 74361
L81932 74886
" />
<path d="M81989 74436
L82031 74399
L82110 74361
L82223 74361
L82293 74399
L82321 74474
L82270 74886
" />
<path d="M83095 74886
L82879 74511
" />
<path d="M82645 74886
L82743 74099
L83043 74099
L83113 74136
L83146 74174
L83174 74249
L83160 74361
L83113 74436
L83071 74474
L82992 74511
L82692 74511
" />
<path d="M83746 74474
L83484 74474
" />
<path d="M83432 74886
L83531 74099
L83906 74099
" />
<path d="M84580 74099
L84205 74099
L84121 74474
L84163 74436
L84243 74399
L84430 74399
L84501 74436
L84534 74474
L84562 74549
L84538 74736
L84491 74811
L84449 74849
L84370 74886
L84182 74886
L84112 74849
L84079 74811
" />
<path d="M85269 74886
L84819 74886
" />
<path d="M85044 74886
L85143 74099
L85054 74211
L84969 74286
L84890 74324
" />
<path d="M85776 74436
L85705 74399
L85672 74361
L85644 74286
L85649 74249
L85696 74174
L85738 74136
L85818 74099
L85968 74099
L86038 74136
L86071 74174
L86099 74249
L86094 74286
L86047 74361
L86005 74399
L85926 74436
L85776 74436
L85696 74474
L85654 74511
L85607 74586
L85588 74736
L85616 74811
L85649 74849
L85719 74886
L85869 74886
L85949 74849
L85991 74811
L86038 74736
L86057 74586
L86029 74511
L85996 74474
L85926 74436
" />
<path d="M86408 74174
L86450 74136
L86530 74099
L86718 74099
L86788 74136
L86821 74174
L86849 74249
L86840 74324
L86788 74436
L86282 74886
L86769 74886
" />
<path d="M87158 74174
L87200 74136
L87280 74099
L87468 74099
L87538 74136
L87571 74174
L87599 74249
L87589 74324
L87538 74436
L87032 74886
L87519 74886
" />
<path d="M88456 74886
L88555 74099
L88906 74886
L89005 74099
" />
<path d="M89394 74886
L89324 74849
L89291 74811
L89263 74736
L89291 74511
L89338 74436
L89380 74399
L89459 74361
L89572 74361
L89642 74399
L89675 74436
L89703 74511
L89675 74736
L89628 74811
L89586 74849
L89506 74886
L89394 74886
" />
<path d="M90331 74886
L90430 74099
" />
<path d="M90336 74849
L90256 74886
L90106 74886
L90036 74849
L90003 74811
L89975 74736
L90003 74511
L90050 74436
L90092 74399
L90172 74361
L90322 74361
L90392 74399
" />
<path d="M91011 74849
L90931 74886
L90781 74886
L90711 74849
L90683 74774
L90720 74474
L90767 74399
L90847 74361
L90997 74361
L91067 74399
L91095 74474
L91086 74549
L90702 74624
" />
</g>
<g style="fill:#000000; fill-opacity:0.0; 
stroke:#000000; stroke-width:39.3701; stroke-opacity:1; 
stroke-linecap:round; stroke-linejoin:round;">
</g>
<g style="fill:#000000; fill-opacity:0.0; 
stroke:#000000; stroke-width:59.0551; stroke-opacity:1; 
stroke-linecap:round; stroke-linejoin:round;">
<path d="M70417 73070
L70220 73070
" />
<path d="M70220 73380
L70220 72789
L70501 72789
" />
<path d="M70726 73380
L70726 72986
" />
<path d="M70726 72789
L70698 72817
L70726 72845
L70754 72817
L70726 72789
L70726 72845
" />
<path d="M71091 73380
L71035 73352
L71007 73295
L71007 72789
" />
<path d="M71541 73352
L71485 73380
L71373 73380
L71316 73352
L71288 73295
L71288 73070
L71316 73014
L71373 72986
L71485 72986
L71541 73014
L71570 73070
L71570 73127
L71288 73183
" />
<path d="M71823 73323
L71851 73352
L71823 73380
L71795 73352
L71823 73323
L71823 73380
" />
<path d="M71823 73014
L71851 73042
L71823 73070
L71795 73042
L71823 73014
L71823 73070
" />
<path d="M72554 73380
L72554 72986
" />
<path d="M72554 72789
L72526 72817
L72554 72845
L72582 72817
L72554 72789
L72554 72845
" />
<path d="M73088 72986
L73088 73464
L73060 73520
L73032 73548
L72976 73577
L72891 73577
L72835 73548
" />
<path d="M73088 73352
L73032 73380
L72919 73380
L72863 73352
L72835 73323
L72807 73267
L72807 73099
L72835 73042
L72863 73014
L72919 72986
L73032 72986
L73088 73014
" />
<path d="M73369 73380
L73369 72986
" />
<path d="M73369 73099
L73397 73042
L73426 73014
L73482 72986
L73538 72986
" />
<path d="M73819 73380
L73763 73352
L73735 73323
L73707 73267
L73707 73099
L73735 73042
L73763 73014
L73819 72986
L73904 72986
L73960 73014
L73988 73042
L74016 73099
L74016 73267
L73988 73323
L73960 73352
L73904 73380
L73819 73380
" />
<path d="M74213 72986
L74325 73380
L74438 73099
L74550 73380
L74663 72986
" />
<path d="M74888 73155
L75338 73155
" />
<path d="M75928 73380
L75591 73380
" />
<path d="M75760 73380
L75760 72789
L75703 72874
L75647 72930
L75591 72958
" />
<path d="M76294 72789
L76350 72789
L76406 72817
L76435 72845
L76463 72902
L76491 73014
L76491 73155
L76463 73267
L76435 73323
L76406 73352
L76350 73380
L76294 73380
L76238 73352
L76210 73323
L76181 73267
L76153 73155
L76153 73014
L76181 72902
L76210 72845
L76238 72817
L76294 72789
" />
<path d="M77053 73380
L76716 73380
" />
<path d="M76885 73380
L76885 72789
L76828 72874
L76772 72930
L76716 72958
" />
<path d="M77306 73323
L77334 73352
L77306 73380
L77278 73352
L77306 73323
L77306 73380
" />
<path d="M77588 73380
L77588 72789
" />
<path d="M77644 73155
L77813 73380
" />
<path d="M77813 72986
L77588 73211
" />
<path d="M78066 73380
L78066 72986
" />
<path d="M78066 72789
L78037 72817
L78066 72845
L78094 72817
L78066 72789
L78066 72845
" />
<path d="M78600 73352
L78544 73380
L78431 73380
L78375 73352
L78347 73323
L78319 73267
L78319 73099
L78347 73042
L78375 73014
L78431 72986
L78544 72986
L78600 73014
" />
<path d="M79106 73380
L79106 73070
L79078 73014
L79022 72986
L78909 72986
L78853 73014
" />
<path d="M79106 73352
L79050 73380
L78909 73380
L78853 73352
L78825 73295
L78825 73239
L78853 73183
L78909 73155
L79050 73155
L79106 73127
" />
<path d="M79640 73380
L79640 72789
" />
<path d="M79640 73352
L79584 73380
L79472 73380
L79415 73352
L79387 73323
L79359 73267
L79359 73099
L79387 73042
L79415 73014
L79472 72986
L79584 72986
L79640 73014
" />
<path d="M79781 73436
L80231 73436
" />
<path d="M80372 72986
L80372 73577
" />
<path d="M80372 73014
L80428 72986
L80540 72986
L80597 73014
L80625 73042
L80653 73099
L80653 73267
L80625 73323
L80597 73352
L80540 73380
L80428 73380
L80372 73352
" />
<path d="M81159 73352
L81103 73380
L80990 73380
L80934 73352
L80906 73323
L80878 73267
L80878 73099
L80906 73042
L80934 73014
L80990 72986
L81103 72986
L81159 73014
" />
<path d="M81412 73380
L81412 72789
" />
<path d="M81412 73014
L81468 72986
L81581 72986
L81637 73014
L81665 73042
L81693 73099
L81693 73267
L81665 73323
L81637 73352
L81581 73380
L81468 73380
L81412 73352
" />
</g>
<g style="fill:#000000; fill-opacity:0.0; 
stroke:#000000; stroke-width:39.3701; stroke-opacity:1; 
stroke-linecap:round; stroke-linejoin:round;">
</g>
<g style="fill:#000000; fill-opacity:0.0; 
stroke:#000000; stroke-width:59.0551; stroke-opacity:1; 
stroke-linecap:round; stroke-linejoin:round;">
<path d="M69685 71459
L112205 71459
" />
</g>
<g style="fill:#000000; fill-opacity:0.0; 
stroke:#000000; stroke-width:39.3701; stroke-opacity:1; 
stroke-linecap:round; stroke-linejoin:round;">
</g>
<g style="fill:#000000; fill-opacity:0.0; 
stroke:#000000; stroke-width:59.0551; stroke-opacity:1; 
stroke-linecap:round; stroke-linejoin:round;">
<path d="M70192 72289
L70276 72317
L70417 72317
L70473 72289
L70501 72260
L70529 72204
L70529 72148
L70501 72092
L70473 72064
L70417 72036
L70304 72007
L70248 71979
L70220 71951
L70192 71895
L70192 71839
L70220 71782
L70248 71754
L70304 71726
L70445 71726
L70529 71754
" />
<path d="M70782 72317
L70782 71726
" />
<path d="M71035 72317
L71035 72007
L71007 71951
L70951 71923
L70867 71923
L70810 71951
L70782 71979
" />
<path d="M71541 72289
L71485 72317
L71373 72317
L71316 72289
L71288 72232
L71288 72007
L71316 71951
L71373 71923
L71485 71923
L71541 71951
L71570 72007
L71570 72064
L71288 72120
" />
<path d="M72048 72289
L71991 72317
L71879 72317
L71823 72289
L71795 72232
L71795 72007
L71823 71951
L71879 71923
L71991 71923
L72048 71951
L72076 72007
L72076 72064
L71795 72120
" />
<path d="M72244 71923
L72469 71923
" />
<path d="M72329 71726
L72329 72232
L72357 72289
L72413 72317
L72469 72317
" />
<path d="M72666 72260
L72694 72289
L72666 72317
L72638 72289
L72666 72260
L72666 72317
" />
<path d="M72666 71951
L72694 71979
L72666 72007
L72638 71979
L72666 71951
L72666 72007
" />
</g>
<g style="fill:#000000; fill-opacity:0.0; 
stroke:#000000; stroke-width:39.3701; stroke-opacity:1; 
stroke-linecap:round; stroke-linejoin:round;">
</g>
<g style="fill:#000000; fill-opacity:0.0; 
stroke:#000000; stroke-width:118.11; stroke-opacity:1; 
stroke-linecap:round; stroke-linejoin:round;">
<path d="M70192 70967
L70473 70967
" />
<path d="M70135 71136
L70332 70545
L70529 71136
" />
<path d="M70726 71136
L70726 70742
" />
<path d="M70726 70854
L70754 70798
L70782 70770
L70838 70742
L70895 70742
" />
<path d="M71345 70742
L71345 71220
L71316 71276
L71288 71304
L71232 71332
L71148 71332
L71091 71304
" />
<path d="M71345 71108
L71288 71136
L71176 71136
L71120 71108
L71091 71079
L71063 71023
L71063 70854
L71091 70798
L71120 70770
L71176 70742
L71288 70742
L71345 70770
" />
<path d="M71879 70742
L71879 71136
" />
<path d="M71626 70742
L71626 71051
L71654 71108
L71710 71136
L71795 71136
L71851 71108
L71879 71079
" />
<path d="M72132 71108
L72188 71136
L72301 71136
L72357 71108
L72385 71051
L72385 71023
L72357 70967
L72301 70939
L72216 70939
L72160 70911
L72132 70854
L72132 70826
L72160 70770
L72216 70742
L72301 70742
L72357 70770
" />
<path d="M72891 71136
L72891 70826
L72863 70770
L72807 70742
L72694 70742
L72638 70770
" />
<path d="M72891 71108
L72835 71136
L72694 71136
L72638 71108
L72610 71051
L72610 70995
L72638 70939
L72694 70911
L72835 70911
L72891 70883
" />
<path d="M73088 70742
L73313 70742
" />
<path d="M73172 70545
L73172 71051
L73201 71108
L73257 71136
L73313 71136
" />
<path d="M74241 71136
L73960 71136
L73960 70545
" />
<path d="M74438 71136
L74438 70742
" />
<path d="M74438 70545
L74410 70573
L74438 70601
L74466 70573
L74438 70545
L74438 70601
" />
<path d="M74719 71136
L74719 70742
" />
<path d="M74719 70798
L74747 70770
L74804 70742
L74888 70742
L74944 70770
L74972 70826
L74972 71136
" />
<path d="M74972 70826
L75000 70770
L75057 70742
L75141 70742
L75197 70770
L75225 70826
L75225 71136
" />
<path d="M75507 71136
L75507 70742
" />
<path d="M75507 70545
L75478 70573
L75507 70601
L75535 70573
L75507 70545
L75507 70601
" />
<path d="M75703 70742
L75928 70742
" />
<path d="M75788 70545
L75788 71051
L75816 71108
L75872 71136
L75928 71136
" />
<path d="M76350 71108
L76294 71136
L76181 71136
L76125 71108
L76097 71051
L76097 70826
L76125 70770
L76181 70742
L76294 70742
L76350 70770
L76378 70826
L76378 70883
L76097 70939
" />
<path d="M76885 71136
L76885 70545
" />
<path d="M76885 71108
L76828 71136
L76716 71136
L76660 71108
L76631 71079
L76603 71023
L76603 70854
L76631 70798
L76660 70770
L76716 70742
L76828 70742
L76885 70770
" />
</g>
<g style="fill:#000000; fill-opacity:0.0; 
stroke:#000000; stroke-width:39.3701; stroke-opacity:1; 
stroke-linecap:round; stroke-linejoin:round;">
</g>
<g style="fill:#000000; fill-opacity:0.0; 
stroke:#000000; stroke-width:59.0551; stroke-opacity:1; 
stroke-linecap:round; stroke-linejoin:round;">
<path d="M70557 69955
L70360 69673
" />
<path d="M70220 69955
L70220 69364
L70445 69364
L70501 69392
L70529 69420
L70557 69476
L70557 69561
L70529 69617
L70501 69645
L70445 69673
L70220 69673
" />
<path d="M71035 69926
L70979 69955
L70867 69955
L70810 69926
L70782 69870
L70782 69645
L70810 69589
L70867 69561
L70979 69561
L71035 69589
L71063 69645
L71063 69701
L70782 69758
" />
<path d="M71288 69926
L71345 69955
L71457 69955
L71513 69926
L71541 69870
L71541 69842
L71513 69786
L71457 69758
L71373 69758
L71316 69730
L71288 69673
L71288 69645
L71316 69589
L71373 69561
L71457 69561
L71513 69589
" />
<path d="M72019 69926
L71963 69955
L71851 69955
L71795 69926
L71766 69870
L71766 69645
L71795 69589
L71851 69561
L71963 69561
L72019 69589
L72048 69645
L72048 69701
L71766 69758
" />
<path d="M72554 69955
L72554 69645
L72526 69589
L72469 69561
L72357 69561
L72301 69589
" />
<path d="M72554 69926
L72498 69955
L72357 69955
L72301 69926
L72273 69870
L72273 69814
L72301 69758
L72357 69730
L72498 69730
L72554 69701
" />
<path d="M72835 69955
L72835 69561
" />
<path d="M72835 69673
L72863 69617
L72891 69589
L72947 69561
L73004 69561
" />
<path d="M73454 69926
L73397 69955
L73285 69955
L73229 69926
L73201 69898
L73172 69842
L73172 69673
L73201 69617
L73229 69589
L73285 69561
L73397 69561
L73454 69589
" />
<path d="M73707 69955
L73707 69364
" />
<path d="M73960 69955
L73960 69645
L73932 69589
L73876 69561
L73791 69561
L73735 69589
L73707 69617
" />
<path d="M74944 69955
L74944 69645
L74916 69589
L74860 69561
L74747 69561
L74691 69589
" />
<path d="M74944 69926
L74888 69955
L74747 69955
L74691 69926
L74663 69870
L74663 69814
L74691 69758
L74747 69730
L74888 69730
L74944 69701
" />
<path d="M75225 69561
L75225 69955
" />
<path d="M75225 69617
L75253 69589
L75310 69561
L75394 69561
L75450 69589
L75478 69645
L75478 69955
" />
<path d="M76013 69955
L76013 69364
" />
<path d="M76013 69926
L75956 69955
L75844 69955
L75788 69926
L75760 69898
L75732 69842
L75732 69673
L75760 69617
L75788 69589
L75844 69561
L75956 69561
L76013 69589
" />
<path d="M76744 69955
L76744 69364
L76885 69364
L76969 69392
L77025 69448
L77053 69505
L77081 69617
L77081 69701
L77053 69814
L77025 69870
L76969 69926
L76885 69955
L76744 69955
" />
<path d="M77559 69926
L77503 69955
L77391 69955
L77334 69926
L77306 69870
L77306 69645
L77334 69589
L77391 69561
L77503 69561
L77559 69589
L77588 69645
L77588 69701
L77306 69758
" />
<path d="M77784 69561
L77925 69955
L78066 69561
" />
<path d="M78516 69926
L78459 69955
L78347 69955
L78291 69926
L78262 69870
L78262 69645
L78291 69589
L78347 69561
L78459 69561
L78516 69589
L78544 69645
L78544 69701
L78262 69758
" />
<path d="M78881 69955
L78825 69926
L78797 69870
L78797 69364
" />
<path d="M79190 69955
L79134 69926
L79106 69898
L79078 69842
L79078 69673
L79106 69617
L79134 69589
L79190 69561
L79275 69561
L79331 69589
L79359 69617
L79387 69673
L79387 69842
L79359 69898
L79331 69926
L79275 69955
L79190 69955
" />
<path d="M79640 69561
L79640 70151
" />
<path d="M79640 69589
L79697 69561
L79809 69561
L79865 69589
L79894 69617
L79922 69673
L79922 69842
L79894 69898
L79865 69926
L79809 69955
L79697 69955
L79640 69926
" />
<path d="M80175 69955
L80175 69561
" />
<path d="M80175 69617
L80203 69589
L80259 69561
L80343 69561
L80400 69589
L80428 69645
L80428 69955
" />
<path d="M80428 69645
L80456 69589
L80512 69561
L80597 69561
L80653 69589
L80681 69645
L80681 69955
" />
<path d="M81187 69926
L81131 69955
L81018 69955
L80962 69926
L80934 69870
L80934 69645
L80962 69589
L81018 69561
L81131 69561
L81187 69589
L81215 69645
L81215 69701
L80934 69758
" />
<path d="M81468 69561
L81468 69955
" />
<path d="M81468 69617
L81496 69589
L81553 69561
L81637 69561
L81693 69589
L81721 69645
L81721 69955
" />
<path d="M81918 69561
L82143 69561
" />
<path d="M82003 69364
L82003 69870
L82031 69926
L82087 69955
L82143 69955
" />
</g>
<g style="fill:#000000; fill-opacity:0.0; 
stroke:#000000; stroke-width:39.3701; stroke-opacity:1; 
stroke-linecap:round; stroke-linejoin:round;">
</g>
<g style="fill:#000000; fill-opacity:0.0; 
stroke:#000000; stroke-width:59.0551; stroke-opacity:1; 
stroke-linecap:round; stroke-linejoin:round;">
<path d="M77559 75396
L77559 76577
" />
</g>
<g style="fill:#000000; fill-opacity:0.0; 
stroke:#000000; stroke-width:39.3701; stroke-opacity:1; 
stroke-linecap:round; stroke-linejoin:round;">
</g>
<g style="fill:#000000; fill-opacity:0.0; 
stroke:#000000; stroke-width:59.0551; stroke-opacity:1; 
stroke-linecap:round; stroke-linejoin:round;">
<path d="M102756 75396
L102756 77955
" />
</g>
<g style="fill:#C2C200; fill-opacity:0.0; 
stroke:#C2C200; stroke-width:59.0551; stroke-opacity:1; 
stroke-linecap:round; stroke-linejoin:round;">
<circle cx="53000" cy="51000" r="656.168" /> 
<path d="M52015 51000
L53984 51000
" />
<path d="M53000 50015
L53000 51984
" />
<circle cx="70000" cy="51000" r="656.168" /> 
<path d="M69015 51000
L70984 51000
" />
<path d="M70000 50015
L70000 51984
" />
<circle cx="70000" cy="38000" r="656.168" /> 
<path d="M69015 38000
L70984 38000
" />
<path d="M70000 37015
L70000 38984
" />
</g>
<g style="fill:#840000; fill-opacity:0.0; 
stroke:#840000; stroke-width:49.2126; stroke-opacity:1; 
stroke-linecap:round; stroke-linejoin:round;">
<path d="M66517 47889
L66517 47705
" />
<path d="M66517 47614
L66504 47627
L66517 47640
L66530 47627
L66517 47614
L66517 47640
" />
<path d="M66793 47627
L66766 47614
L66727 47614
L66688 47627
L66661 47653
L66648 47679
L66635 47732
L66635 47771
L66648 47824
L66661 47850
L66688 47876
L66727 47889
L66753 47889
L66793 47876
L66806 47863
L66806 47771
L66753 47771
" />
<path d="M66924 47889
L66924 47705
" />
<path d="M66924 47758
L66937 47732
L66950 47719
L66976 47705
L67003 47705
" />
<path d="M67134 47889
L67108 47876
L67094 47863
L67081 47837
L67081 47758
L67094 47732
L67108 47719
L67134 47705
L67173 47705
L67199 47719
L67212 47732
L67226 47758
L67226 47837
L67212 47863
L67199 47876
L67173 47889
L67134 47889
" />
<path d="M67317 47705
L67370 47889
L67422 47758
L67475 47889
L67527 47705
" />
<path d="M67987 47889
L67829 47889
" />
<path d="M67908 47889
L67908 47614
L67882 47653
L67856 47679
L67829 47692
" />
<path d="M68157 47614
L68184 47614
L68210 47627
L68223 47640
L68236 47666
L68249 47719
L68249 47784
L68236 47837
L68223 47863
L68210 47876
L68184 47889
L68157 47889
L68131 47876
L68118 47863
L68105 47837
L68092 47784
L68092 47719
L68105 47666
L68118 47640
L68131 47627
L68157 47614
" />
<path d="M68512 47889
L68354 47889
" />
<path d="M68433 47889
L68433 47614
L68407 47653
L68380 47679
L68354 47692
" />
<path d="M68840 47705
L68840 47889
" />
<path d="M68840 47732
L68853 47719
L68879 47705
L68919 47705
L68945 47719
L68958 47745
L68958 47889
" />
<path d="M69247 47889
L69155 47758
" />
<path d="M69089 47889
L69089 47614
L69194 47614
L69220 47627
L69233 47640
L69247 47666
L69247 47705
L69233 47732
L69220 47745
L69194 47758
L69089 47758
" />
<path d="M69457 47745
L69365 47745
" />
<path d="M69365 47889
L69365 47614
L69496 47614
" />
<path d="M69732 47614
L69601 47614
L69588 47745
L69601 47732
L69627 47719
L69693 47719
L69719 47732
L69732 47745
L69745 47771
L69745 47837
L69732 47863
L69719 47876
L69693 47889
L69627 47889
L69601 47876
L69588 47863
" />
<path d="M70008 47889
L69850 47889
" />
<path d="M69929 47889
L69929 47614
L69903 47653
L69877 47679
L69850 47692
" />
<path d="M70165 47732
L70139 47719
L70126 47705
L70113 47679
L70113 47666
L70126 47640
L70139 47627
L70165 47614
L70218 47614
L70244 47627
L70257 47640
L70270 47666
L70270 47679
L70257 47705
L70244 47719
L70218 47732
L70165 47732
L70139 47745
L70126 47758
L70113 47784
L70113 47837
L70126 47863
L70139 47876
L70165 47889
L70218 47889
L70244 47876
L70257 47863
L70270 47837
L70270 47784
L70257 47758
L70244 47745
L70218 47732
" />
<path d="M70375 47640
L70388 47627
L70415 47614
L70480 47614
L70506 47627
L70520 47640
L70533 47666
L70533 47692
L70520 47732
L70362 47889
L70533 47889
" />
<path d="M70638 47640
L70651 47627
L70677 47614
L70743 47614
L70769 47627
L70782 47640
L70795 47666
L70795 47692
L70782 47732
L70625 47889
L70795 47889
" />
<path d="M66136 48429
L66123 48416
L66097 48377
L66084 48350
L66071 48311
L66058 48245
L66058 48193
L66071 48127
L66084 48088
L66097 48062
L66123 48022
L66136 48009
" />
<path d="M66359 48311
L66333 48324
L66281 48324
L66254 48311
L66241 48298
L66228 48272
L66228 48193
L66241 48167
L66254 48154
L66281 48140
L66333 48140
L66359 48154
" />
<path d="M66451 48429
L66464 48416
L66491 48377
L66504 48350
L66517 48311
L66530 48245
L66530 48193
L66517 48127
L66504 48088
L66491 48062
L66464 48022
L66451 48009
" />
<path d="M66858 48075
L66871 48062
L66898 48049
L66963 48049
L66989 48062
L67003 48075
L67016 48101
L67016 48127
L67003 48167
L66845 48324
L67016 48324
" />
<path d="M67186 48049
L67212 48049
L67239 48062
L67252 48075
L67265 48101
L67278 48154
L67278 48219
L67265 48272
L67252 48298
L67239 48311
L67212 48324
L67186 48324
L67160 48311
L67147 48298
L67134 48272
L67121 48219
L67121 48154
L67134 48101
L67147 48075
L67160 48062
L67186 48049
" />
<path d="M67541 48324
L67383 48324
" />
<path d="M67462 48324
L67462 48049
L67436 48088
L67409 48114
L67383 48127
" />
<path d="M67790 48049
L67659 48049
L67646 48180
L67659 48167
L67685 48154
L67751 48154
L67777 48167
L67790 48180
L67803 48206
L67803 48272
L67790 48298
L67777 48311
L67751 48324
L67685 48324
L67659 48311
L67646 48298
" />
<path d="M68118 48245
L68249 48245
" />
<path d="M68092 48324
L68184 48049
L68275 48324
" />
<path d="M68367 48324
L68367 48140
" />
<path d="M68367 48193
L68380 48167
L68394 48154
L68420 48140
L68446 48140
" />
<path d="M68656 48140
L68656 48364
L68643 48390
L68630 48403
L68604 48416
L68564 48416
L68538 48403
" />
<path d="M68656 48311
L68630 48324
L68577 48324
L68551 48311
L68538 48298
L68525 48272
L68525 48193
L68538 48167
L68551 48154
L68577 48140
L68630 48140
L68656 48154
" />
<path d="M68905 48140
L68905 48324
" />
<path d="M68787 48140
L68787 48285
L68800 48311
L68827 48324
L68866 48324
L68892 48311
L68905 48298
" />
<path d="M69024 48311
L69050 48324
L69102 48324
L69129 48311
L69142 48285
L69142 48272
L69129 48245
L69102 48232
L69063 48232
L69037 48219
L69024 48193
L69024 48180
L69037 48154
L69063 48140
L69102 48140
L69129 48154
" />
<path d="M69378 48324
L69378 48180
L69365 48154
L69338 48140
L69286 48140
L69260 48154
" />
<path d="M69378 48311
L69352 48324
L69286 48324
L69260 48311
L69247 48285
L69247 48259
L69260 48232
L69286 48219
L69352 48219
L69378 48206
" />
<path d="M69470 48140
L69575 48140
" />
<path d="M69509 48049
L69509 48285
L69522 48311
L69548 48324
L69575 48324
" />
<path d="M70008 48324
L69877 48324
L69877 48049
" />
<path d="M70100 48324
L70100 48140
" />
<path d="M70100 48049
L70087 48062
L70100 48075
L70113 48062
L70100 48049
L70100 48075
" />
<path d="M70231 48324
L70231 48140
" />
<path d="M70231 48167
L70244 48154
L70270 48140
L70310 48140
L70336 48154
L70349 48180
L70349 48324
" />
<path d="M70349 48180
L70362 48154
L70388 48140
L70428 48140
L70454 48154
L70467 48180
L70467 48324
" />
<path d="M70598 48324
L70598 48140
" />
<path d="M70598 48049
L70585 48062
L70598 48075
L70611 48062
L70598 48049
L70598 48075
" />
<path d="M70690 48140
L70795 48140
" />
<path d="M70730 48049
L70730 48285
L70743 48311
L70769 48324
L70795 48324
" />
<path d="M70992 48311
L70966 48324
L70913 48324
L70887 48311
L70874 48285
L70874 48180
L70887 48154
L70913 48140
L70966 48140
L70992 48154
L71005 48180
L71005 48206
L70874 48232
" />
<path d="M71241 48324
L71241 48049
" />
<path d="M71241 48311
L71215 48324
L71163 48324
L71136 48311
L71123 48298
L71110 48272
L71110 48193
L71123 48167
L71136 48154
L71163 48140
L71215 48140
L71241 48154
" />
<path d="M68164 48759
L68164 48575
" />
<path d="M68164 48628
L68177 48602
L68190 48589
L68216 48575
L68243 48575
" />
<path d="M68440 48746
L68413 48759
L68361 48759
L68335 48746
L68321 48720
L68321 48615
L68335 48589
L68361 48575
L68413 48575
L68440 48589
L68453 48615
L68453 48641
L68321 48667
" />
<path d="M68545 48575
L68610 48759
L68676 48575
" />
<path d="M69148 48733
L69135 48746
L69096 48759
L69069 48759
L69030 48746
L69004 48720
L68991 48694
L68978 48641
L68978 48602
L68991 48549
L69004 48523
L69030 48497
L69069 48484
L69096 48484
L69135 48497
L69148 48510
" />
</g>
<g style="fill:#C2C200; fill-opacity:0.0; 
stroke:#C2C200; stroke-width:59.0551; stroke-opacity:1; 
stroke-linecap:round; stroke-linejoin:round;">
<path d="M71300 52250
L51700 52250
" />
<path d="M71300 36700
L71300 52250
" />
<path d="M51700 36700
L71300 36700
" />
<path d="M51700 52250
L51700 36700
" />
<circle cx="53000" cy="38000" r="656.168" /> 
<path d="M52015 38000
L53984 38000
" />
<path d="M53000 37015
L53000 38984
" />
</g>
<g style="fill:#840000; fill-opacity:0.0; 
stroke:#840000; stroke-width:39.3701; stroke-opacity:1; 
stroke-linecap:round; stroke-linejoin:round;">
</g>
<g style="fill:#840000; fill-opacity:1.0; 
stroke:#840000; stroke-width:39.3701; stroke-opacity:1; 
stroke-linecap:round; stroke-linejoin:round;">
<polyline style="fill-rule:evenodd;"
points="58927,40590
58672,40590
58672,40157
58927,40157
58927,40590
" /> 
<polyline style="fill-rule:evenodd;"
points="58927,39842
58672,39842
58672,39409
58927,39409
58927,39842
" /> 
<polyline style="fill-rule:evenodd;"
points="54034,44029
52301,44029
52301,42770
54034,42770
54034,44029
" /> 
<polyline style="fill-rule:evenodd;"
points="57497,44029
55766,44029
55766,42770
57497,42770
57497,44029
" /> 
<polyline style="fill-rule:evenodd;"
points="56983,46470
57416,46470
57416,46903
56983,46903
56983,46470
" /> 
<polyline style="fill-rule:evenodd;"
points="56983,47296
57416,47296
57416,47729
56983,47729
56983,47296
" /> 
<polyline style="fill-rule:evenodd;"
points="57983,46470
58416,46470
58416,46903
57983,46903
57983,46470
" /> 
<polyline style="fill-rule:evenodd;"
points="57983,47296
58416,47296
58416,47729
57983,47729
57983,47296
" /> 
<polyline style="fill-rule:evenodd;"
points="54588,50825
54588,50156
54863,50156
54863,50825
54588,50825
" /> 
<polyline style="fill-rule:evenodd;"
points="55336,50825
55336,50156
55611,50156
55611,50825
55336,50825
" /> 
<polyline style="fill-rule:evenodd;"
points="54962,49643
54962,48974
55237,48974
55237,49643
54962,49643
" /> 
<polyline style="fill-rule:evenodd;"
points="56588,50825
56588,50156
56863,50156
56863,50825
56588,50825
" /> 
<polyline style="fill-rule:evenodd;"
points="57336,50825
57336,50156
57611,50156
57611,50825
57336,50825
" /> 
<polyline style="fill-rule:evenodd;"
points="56962,49643
56962,48974
57237,48974
57237,49643
56962,49643
" /> 
<polyline style="fill-rule:evenodd;"
points="58588,50825
58588,50156
58863,50156
58863,50825
58588,50825
" /> 
<polyline style="fill-rule:evenodd;"
points="59336,50825
59336,50156
59611,50156
59611,50825
59336,50825
" /> 
<polyline style="fill-rule:evenodd;"
points="58962,49643
58962,48974
59237,48974
59237,49643
58962,49643
" /> 
<polyline style="fill-rule:evenodd;"
points="63850,49857
63850,49542
64283,49542
64283,49857
63850,49857
" /> 
<polyline style="fill-rule:evenodd;"
points="64716,49857
64716,49542
65149,49542
65149,49857
64716,49857
" /> 
<polyline style="fill-rule:evenodd;"
points="63850,50557
63850,50242
64283,50242
64283,50557
63850,50557
" /> 
<polyline style="fill-rule:evenodd;"
points="64716,50557
64716,50242
65149,50242
65149,50557
64716,50557
" /> 
<polyline style="fill-rule:evenodd;"
points="63850,51257
63850,50942
64283,50942
64283,51257
63850,51257
" /> 
<polyline style="fill-rule:evenodd;"
points="64716,51257
64716,50942
65149,50942
65149,51257
64716,51257
" /> 
<polyline style="fill-rule:evenodd;"
points="55842,44450
56157,44450
56157,44883
55842,44883
55842,44450
" /> 
<polyline style="fill-rule:evenodd;"
points="55842,45316
56157,45316
56157,45749
55842,45749
55842,45316
" /> 
<polyline style="fill-rule:evenodd;"
points="55842,46450
56157,46450
56157,46883
55842,46883
55842,46450
" /> 
<polyline style="fill-rule:evenodd;"
points="55842,47316
56157,47316
56157,47749
55842,47749
55842,47316
" /> 
<polyline style="fill-rule:evenodd;"
points="57642,39350
57957,39350
57957,39783
57642,39783
57642,39350
" /> 
<polyline style="fill-rule:evenodd;"
points="57642,40216
57957,40216
57957,40649
57642,40649
57642,40216
" /> 
<polyline style="fill-rule:evenodd;"
points="57157,40649
56842,40649
56842,40216
57157,40216
57157,40649
" /> 
<polyline style="fill-rule:evenodd;"
points="57157,39783
56842,39783
56842,39350
57157,39350
57157,39783
" /> 
<polyline style="fill-rule:evenodd;"
points="57042,44500
57357,44500
57357,44933
57042,44933
57042,44500
" /> 
<polyline style="fill-rule:evenodd;"
points="57042,45366
57357,45366
57357,45799
57042,45799
57042,45366
" /> 
<polyline style="fill-rule:evenodd;"
points="58142,44750
58457,44750
58457,45183
58142,45183
58142,44750
" /> 
<polyline style="fill-rule:evenodd;"
points="58142,45616
58457,45616
58457,46049
58142,46049
58142,45616
" /> 
<polyline style="fill-rule:evenodd;"
points="65149,48842
65149,49157
64716,49157
64716,48842
65149,48842
" /> 
<polyline style="fill-rule:evenodd;"
points="64283,48842
64283,49157
63850,49157
63850,48842
64283,48842
" /> 
<polyline style="fill-rule:evenodd;"
points="65149,48142
65149,48457
64716,48457
64716,48142
65149,48142
" /> 
<polyline style="fill-rule:evenodd;"
points="64283,48142
64283,48457
63850,48457
63850,48142
64283,48142
" /> 
<circle cx="62500" cy="51000" r="280.315" /> 
<circle cx="60500" cy="51000" r="280.315" /> 
<circle cx="60500" cy="49000" r="280.315" /> 
<circle cx="62500" cy="49000" r="280.315" /> 
<circle cx="69500" cy="40700" r="177.165" /> 
<circle cx="69500" cy="41200" r="177.165" /> 
<circle cx="69500" cy="41700" r="177.165" /> 
<circle cx="69500" cy="42200" r="177.165" /> 
<circle cx="69500" cy="42700" r="177.165" /> 
<circle cx="69500" cy="43200" r="177.165" /> 
<circle cx="69500" cy="43700" r="177.165" /> 
<circle cx="69500" cy="44200" r="177.165" /> 
<circle cx="69500" cy="44700" r="177.165" /> 
<circle cx="69500" cy="45200" r="177.165" /> 
<circle cx="69500" cy="45700" r="177.165" /> 
<circle cx="69500" cy="46200" r="177.165" /> 
<circle cx="68500" cy="46450" r="177.165" /> 
<circle cx="68000" cy="46450" r="177.165" /> 
<circle cx="67500" cy="46450" r="177.165" /> 
<circle cx="67000" cy="46450" r="177.165" /> 
<circle cx="66500" cy="46450" r="177.165" /> 
<circle cx="66000" cy="46450" r="177.165" /> 
<circle cx="65500" cy="46450" r="177.165" /> 
<circle cx="65000" cy="46450" r="177.165" /> 
<circle cx="64500" cy="46450" r="177.165" /> 
<circle cx="64000" cy="46450" r="177.165" /> 
<circle cx="63500" cy="46450" r="177.165" /> 
<circle cx="63000" cy="46450" r="177.165" /> 
<circle cx="62000" cy="46200" r="177.165" /> 
<circle cx="62000" cy="45700" r="177.165" /> 
<circle cx="62000" cy="45200" r="177.165" /> 
<circle cx="62000" cy="44700" r="177.165" /> 
<circle cx="62000" cy="44200" r="177.165" /> 
<circle cx="62000" cy="43700" r="177.165" /> 
<circle cx="62000" cy="43200" r="177.165" /> 
<circle cx="62000" cy="42700" r="177.165" /> 
<circle cx="62000" cy="42200" r="177.165" /> 
<circle cx="62000" cy="41700" r="177.165" /> 
<circle cx="62000" cy="41200" r="177.165" /> 
<circle cx="62000" cy="40700" r="177.165" /> 
<polyline style="fill-rule:evenodd;"
points="60259,39501
60259,39698
60140,39698
60140,39501
60259,39501
" /> 
<polyline style="fill-rule:evenodd;"
points="59865,39501
59865,39698
59747,39698
59747,39501
59865,39501
" /> 
<polyline style="fill-rule:evenodd;"
points="59471,39501
59471,39698
59353,39698
59353,39501
59471,39501
" /> 
<polyline style="fill-rule:evenodd;"
points="59471,40446
59471,40643
59353,40643
59353,40446
59471,40446
" /> 
<polyline style="fill-rule:evenodd;"
points="59865,40446
59865,40643
59747,40643
59747,40446
59865,40446
" /> 
<polyline style="fill-rule:evenodd;"
points="60259,40446
60259,40643
60140,40643
60140,40446
60259,40446
" /> 
<polyline style="fill-rule:evenodd;"
points="60259,39796
60259,40348
59353,40348
59353,39796
60259,39796
" /> 
<polyline style="fill-rule:evenodd;"
points="56348,40651
56348,40848
55777,40848
55777,40651
56348,40651
" /> 
<polyline style="fill-rule:evenodd;"
points="56348,40151
56348,40348
55777,40348
55777,40151
56348,40151
" /> 
<polyline style="fill-rule:evenodd;"
points="56348,39651
56348,39848
55777,39848
55777,39651
56348,39651
" /> 
<polyline style="fill-rule:evenodd;"
points="56348,39151
56348,39348
55777,39348
55777,39151
56348,39151
" /> 
<polyline style="fill-rule:evenodd;"
points="54222,39151
54222,39348
53651,39348
53651,39151
54222,39151
" /> 
<polyline style="fill-rule:evenodd;"
points="54222,39651
54222,39848
53651,39848
53651,39651
54222,39651
" /> 
<polyline style="fill-rule:evenodd;"
points="54222,40151
54222,40348
53651,40348
53651,40151
54222,40151
" /> 
<polyline style="fill-rule:evenodd;"
points="54222,40651
54222,40848
53651,40848
53651,40651
54222,40651
" /> 
<circle cx="60200" cy="45800" r="280.315" /> 
<circle cx="52200" cy="45800" r="280.315" /> 
<polyline style="fill-rule:evenodd;"
points="54020,47959
53579,47959
53579,47640
54020,47640
54020,47959
" /> 
<polyline style="fill-rule:evenodd;"
points="54020,46669
53579,46669
53579,46350
54020,46350
54020,46669
" /> 
<polyline style="fill-rule:evenodd;"
points="54663,46292
55136,46292
55136,46844
54663,46844
54663,46292
" /> 
<polyline style="fill-rule:evenodd;"
points="54663,47355
55136,47355
55136,47907
54663,47907
54663,47355
" /> 
<polyline style="fill-rule:evenodd;"
points="60374,41747
60625,41747
60625,42652
60374,42652
60374,41747
" /> 
<polyline style="fill-rule:evenodd;"
points="60374,43247
60625,43247
60625,44152
60374,44152
60374,43247
" /> 
<polyline style="fill-rule:evenodd;"
points="59874,41747
60125,41747
60125,42652
59874,42652
59874,41747
" /> 
<polyline style="fill-rule:evenodd;"
points="59874,43247
60125,43247
60125,44152
59874,44152
59874,43247
" /> 
<polyline style="fill-rule:evenodd;"
points="59374,41747
59625,41747
59625,42652
59374,42652
59374,41747
" /> 
<polyline style="fill-rule:evenodd;"
points="59374,43247
59625,43247
59625,44152
59374,44152
59374,43247
" /> 
<polyline style="fill-rule:evenodd;"
points="58874,41747
59125,41747
59125,42652
58874,42652
58874,41747
" /> 
<polyline style="fill-rule:evenodd;"
points="58874,43247
59125,43247
59125,44152
58874,44152
58874,43247
" /> 
<polyline style="fill-rule:evenodd;"
points="58374,41747
58625,41747
58625,42652
58374,42652
58374,41747
" /> 
<polyline style="fill-rule:evenodd;"
points="58374,43247
58625,43247
58625,44152
58374,44152
58374,43247
" /> 
</g>
<g style="fill:#C2C2C2; fill-opacity:1.0; 
stroke:#C2C2C2; stroke-width:39.3701; stroke-opacity:1; 
stroke-linecap:round; stroke-linejoin:round;">
<circle cx="60933.3" cy="42200" r="155.315" /> 
</g>
<g style="fill:#840000; fill-opacity:1.0; 
stroke:#840000; stroke-width:150; stroke-opacity:1; 
stroke-linecap:round; stroke-linejoin:round;">
</g>
<g style="fill:#840000; fill-opacity:0.0; 
stroke:#840000; stroke-width:150; stroke-opacity:1; 
stroke-linecap:round; stroke-linejoin:round;">
<path d="M59092 41144
L58684 41552
" />
<path d="M58684 41552
L58500 41552
" />
<path d="M58928 39625
L59140 39838
" />
<path d="M59140 39838
L59140 41096
" />
<path d="M59140 41096
L59092 41144
" />
<path d="M59092 41144
L59500 41552
" />
<path d="M60000 42200
L60000 41552
" />
<path d="M59500 41876
L59500 41811
" />
<path d="M59500 41811
L59759 41552
" />
<path d="M59759 41552
L60000 41552
" />
<path d="M59500 41876
L59500 41552
" />
<path d="M59500 42200
L59500 41876
" />
<path d="M58500 42200
L58500 41552
" />
<path d="M59806 39306
L61136 39306
" />
<path d="M61136 39306
L67030 45200
" />
<path d="M67030 45200
L69500 45200
" />
<path d="M59806 39369
L59806 39306
" />
<path d="M59806 39600
L59806 39369
" />
<path d="M58928 39625
L59247 39306
" />
<path d="M59247 39306
L59806 39306
" />
<path d="M58800 39625
L58928 39625
" />
<path d="M56725 50490
L57058 50490
" />
<path d="M58725 50490
L58393 50490
" />
<path d="M58393 50490
L57863 51020
" />
<path d="M57863 51020
L57227 51020
" />
<path d="M57227 51020
L57058 50852
" />
<path d="M57058 50852
L57058 50490
" />
<path d="M58892 50490
L58725 50490
" />
<path d="M58892 50490
L59058 50490
" />
<path d="M60500 51000
L60479 51020
" />
<path d="M60479 51020
L59227 51020
" />
<path d="M59227 51020
L59058 50852
" />
<path d="M59058 50852
L59058 50490
" />
<path d="M56725 50490
L56393 50490
" />
<path d="M55058 50045
L55142 49961
" />
<path d="M55142 49961
L55863 49961
" />
<path d="M55863 49961
L56393 50490
" />
<path d="M55058 50045
L52200 47186
" />
<path d="M52200 47186
L52200 45800
" />
<path d="M55058 50490
L55058 50045
" />
<path d="M56062 39250
L56543 39250
" />
<path d="M57000 39566
L56647 39566
" />
<path d="M56543 39250
L56543 39462
" />
<path d="M56543 39462
L56647 39566
" />
<path d="M54417 39250
L56062 39250
" />
<path d="M57000 39566
L57352 39566
" />
<path d="M58800 39625
L58477 39625
" />
<path d="M58477 39625
L58477 39535
" />
<path d="M58477 39535
L58097 39155
" />
<path d="M58097 39155
L57543 39155
" />
<path d="M57543 39155
L57352 39346
" />
<path d="M57352 39346
L57352 39566
" />
<path d="M54417 39250
L53937 39250
" />
<path d="M54417 39250
L54417 39750
" />
<path d="M53937 39750
L54417 39750
" />
<path d="M53167 43400
L53167 42575
" />
<path d="M53937 39750
L53456 39750
" />
<path d="M53456 39750
L53456 42286
" />
<path d="M53456 42286
L53167 42575
" />
<path d="M53167 43400
L53167 44224
" />
<path d="M53167 44224
L52200 45192
" />
<path d="M52200 45192
L52200 45800
" />
<path d="M54725 50490
L55058 50490
" />
<path d="M62621 46581
L62621 46611
" />
<path d="M62621 46611
L63081 47072
" />
<path d="M63081 47072
L63501 47072
" />
<path d="M63501 47072
L64478 48048
" />
<path d="M64478 48048
L64478 48545
" />
<path d="M64478 48545
L64933 49000
" />
<path d="M69500 45700
L63207 45700
" />
<path d="M63207 45700
L62621 46286
" />
<path d="M62621 46286
L62621 46581
" />
<path d="M60200 45800
L60981 46581
" />
<path d="M60981 46581
L62621 46581
" />
<path d="M58300 44966
L59366 44966
" />
<path d="M59366 44966
L60200 45800
" />
<path d="M53937 40750
L54417 40750
" />
<path d="M54417 40750
L56242 42575
" />
<path d="M56242 42575
L56632 42575
" />
<path d="M56632 43400
L56632 42575
" />
<path d="M56632 42575
L58477 40730
" />
<path d="M58477 40730
L58477 40374
" />
<path d="M56352 44666
L56632 44387
" />
<path d="M56632 44387
L56632 43400
" />
<path d="M60500 42200
L60933 42200
" />
<path d="M60500 42200
L60500 41552
" />
<path d="M60500 41552
L59806 40858
" />
<path d="M59806 40858
L59806 40544
" />
<path d="M58800 40374
L58477 40374
" />
<path d="M57200 44716
L56402 44716
" />
<path d="M56402 44716
L56352 44666
" />
<path d="M57800 39566
L58152 39566
" />
<path d="M58152 39566
L58152 40049
" />
<path d="M58152 40049
L58477 40374
" />
<path d="M57200 44716
L57552 44716
" />
<path d="M58300 44966
L57802 44966
" />
<path d="M57802 44966
L57552 44716
" />
<path d="M56000 44666
L56352 44666
" />
<path d="M57200 45583
L57200 46687
" />
<path d="M57100 49309
L57100 48779
" />
<path d="M57100 48779
L57200 48679
" />
<path d="M57200 48679
L57200 47512
" />
<path d="M58200 46687
L58200 46275
" />
<path d="M58300 45833
L58300 46244
" />
<path d="M58300 46244
L58268 46275
" />
<path d="M58268 46275
L58200 46275
" />
<path d="M58200 47512
L58200 47924
" />
<path d="M59100 49309
L58767 49309
" />
<path d="M58767 49309
L58767 48491
" />
<path d="M58767 48491
L58200 47924
" />
<path d="M55100 47631
L54900 47631
" />
<path d="M55647 47533
L55549 47631
" />
<path d="M55549 47631
L55100 47631
" />
<path d="M55100 47631
L55100 49309
" />
<path d="M53800 47800
L54215 47800
" />
<path d="M54900 47631
L54383 47631
" />
<path d="M54383 47631
L54215 47800
" />
<path d="M56000 47533
L55647 47533
" />
<path d="M55549 46568
L55647 46666
" />
<path d="M54900 46568
L55549 46568
" />
<path d="M55549 46568
L55549 46395
" />
<path d="M55549 46395
L56000 45944
" />
<path d="M53800 46510
L54215 46510
" />
<path d="M54900 46568
L54273 46568
" />
<path d="M54273 46568
L54215 46510
" />
<path d="M56000 45533
L56000 45944
" />
<path d="M56000 46666
L55647 46666
" />
<path d="M60500 43700
L61000 43200
" />
<path d="M61000 43200
L62000 43200
" />
<path d="M60000 43700
L60000 43052
" />
<path d="M60000 43052
L60185 42866
" />
<path d="M60185 42866
L61492 42866
" />
<path d="M61492 42866
L61659 42700
" />
<path d="M61659 42700
L62000 42700
" />
<path d="M55474 50490
L55806 50490
" />
<path d="M64066 51100
L63479 51100
" />
<path d="M63479 51100
L62901 50522
" />
<path d="M62901 50522
L62124 50522
" />
<path d="M62124 50522
L61157 51488
" />
<path d="M61157 51488
L56803 51488
" />
<path d="M56803 51488
L55806 50490
" />
<path d="M57474 50490
L57806 50490
" />
<path d="M64066 49700
L63655 49700
" />
<path d="M63655 49700
L63516 49838
" />
<path d="M63516 49838
L58458 49838
" />
<path d="M58458 49838
L57806 50490
" />
<path d="M59474 50490
L59806 50490
" />
<path d="M64066 50400
L63655 50400
" />
<path d="M63655 50400
L63519 50263
" />
<path d="M63519 50263
L60033 50263
" />
<path d="M60033 50263
L59806 50490
" />
<path d="M64500 46450
L64500 46894
" />
<path d="M64500 46894
L65344 47738
" />
<path d="M65344 47738
L65344 49288
" />
<path d="M65344 49288
L64933 49700
" />
<path d="M65000 46450
L65000 46858
" />
<path d="M65000 46858
L65604 47463
" />
<path d="M65604 47463
L65604 49728
" />
<path d="M65604 49728
L64933 50400
" />
<path d="M65500 46450
L65500 46497
" />
<path d="M65500 46497
L65877 46874
" />
<path d="M65877 46874
L65877 50155
" />
<path d="M65877 50155
L64933 51100
" />
<path d="M56062 40250
L56543 40250
" />
<path d="M57000 40433
L56647 40433
" />
<path d="M56543 40250
L56543 40328
" />
<path d="M56543 40328
L56647 40433
" />
<path d="M57000 40433
L57800 40433
" />
<path d="M62500 51000
L62952 51452
" />
<path d="M62952 51452
L64382 51452
" />
<path d="M64382 51452
L64478 51356
" />
<path d="M64478 51356
L64478 49411
" />
<path d="M64478 49411
L64066 49000
" />
<path d="M64066 48300
L64066 49000
" />
<path d="M64933 48300
L64933 47947
" />
<path d="M64000 46450
L64000 47014
" />
<path d="M64000 47014
L64933 47947
" />
<path d="M60200 40544
L60200 40838
" />
<path d="M60200 40838
L60561 41200
" />
<path d="M60561 41200
L62000 41200
" />
<path d="M60200 39600
L60900 39600
" />
<path d="M60900 39600
L62000 40700
" />
</g>
<g style="fill:#840000; fill-opacity:1.0; 
stroke:#840000; stroke-width:100; stroke-opacity:1; 
stroke-linecap:round; stroke-linejoin:round;">
<polyline style="fill-rule:evenodd;"
points="56875,48544
56870,48549
56799,48655
56778,48763
56763,48773
56707,48856
56687,48954
56687,49663
56706,49758
56761,49842
56833,49891
56775,49949
56775,50441
56783,50441
56783,50541
56775,50541
56775,50548
56675,50548
56675,50541
56675,50441
56675,49949
56613,49886
56518,49886
56426,49924
56356,49994
56318,50086
56318,50186
56318,50378
56380,50441
56675,50441
56675,50541
56380,50541
56348,50573
56036,50261
55931,50190
55886,50181
55886,50136
55867,50041
55812,49957
55729,49901
55631,49881
55380,49881
55436,49844
55492,49761
55512,49663
55512,48954
55493,48859
55438,48775
55425,48766
55425,47956
55549,47956
55635,47939
55641,47948
55724,48004
55822,48024
56177,48024
56272,48005
56356,47950
56412,47867
56432,47769
56432,47296
56413,47201
56358,47117
56332,47100
56356,47084
56412,47001
56432,46903
56432,46430
56413,46335
56358,46251
56275,46195
56219,46184
56229,46174
56229,46174
56229,46174
56300,46068
56318,45975
56318,45975
56356,45950
56412,45867
56432,45769
56432,45296
56413,45201
56358,45117
56332,45100
56356,45084
56387,45038
56402,45041
56785,45041
56786,45048
56841,45132
56867,45149
56843,45165
56787,45248
56767,45346
56767,45819
56786,45914
56841,45998
56875,46021
56875,46213
56868,46214
56784,46269
56728,46352
56709,46451
56709,46923
56727,47018
56781,47100
56728,47178
56709,47277
56709,47749
56727,47844
56782,47928
56865,47984
56875,47986
56875,48544
" /> 
<polyline style="fill-rule:evenodd;"
points="60009,50739
59945,50918
59956,51136
59967,51163
58675,51163
58675,51033
58675,50541
58380,50541
58318,50603
58318,50795
58318,50895
58356,50987
58426,51057
58518,51095
58613,51095
58675,51033
58675,51163
56938,51163
56870,51095
56933,51095
57025,51057
57095,50987
57101,50973
57135,51024
57218,51080
57316,51100
57631,51100
57726,51081
57810,51026
57866,50943
57886,50845
57886,50800
57931,50791
57931,50791
58036,50720
58348,50408
58380,50441
58675,50441
58675,50433
58775,50433
58775,50441
58783,50441
58783,50541
58775,50541
58775,51033
58838,51095
58933,51095
59025,51057
59095,50987
59101,50973
59135,51024
59218,51080
59316,51100
59631,51100
59726,51081
59810,51026
59866,50943
59886,50845
59886,50800
59931,50791
59931,50791
60009,50739
" /> 
<polyline style="fill-rule:evenodd;"
points="61597,50588
61027,51159
61054,51081
61043,50863
60981,50712
60885,50684
60570,51000
60576,51005
60505,51076
60500,51070
60494,51076
60423,51005
60429,51000
60423,50994
60494,50923
60500,50929
60815,50614
60807,50588
61597,50588
" /> 
<polyline style="fill-rule:evenodd;"
points="61619,45950
61553,46110
61553,46256
61115,46256
60749,45890
60750,45691
60666,45488
60511,45334
60309,45250
60109,45249
59596,44737
59491,44666
59366,44641
58714,44641
58713,44635
58658,44551
58575,44495
58477,44475
58122,44475
58027,44494
57943,44549
57903,44608
57782,44487
57676,44416
57617,44404
57613,44385
57558,44301
57552,44297
57612,44285
57696,44230
57752,44147
57772,44049
57772,42750
57753,42655
57698,42571
57615,42515
57517,42495
57171,42495
58707,40959
58707,40959
58707,40959
58770,40865
58947,40865
59042,40846
59121,40795
59152,40842
59235,40898
59333,40917
59491,40917
59493,40917
59506,40983
59576,41088
59965,41477
59949,41477
59949,41540
59887,41477
59804,41477
59750,41500
59695,41477
59612,41477
59550,41540
59550,42150
59666,42150
59833,42150
59950,42150
59950,42142
60050,42142
60050,42150
60057,42150
60057,42250
60050,42250
60050,42257
59950,42257
59950,42250
59833,42250
59666,42250
59550,42250
59550,42859
59612,42922
59695,42922
59706,42917
59699,42928
59689,42981
59645,42972
59450,42972
59450,42859
59450,42250
59442,42250
59442,42150
59450,42150
59450,41540
59387,41477
59304,41477
59253,41498
59243,41492
59145,41472
58854,41472
58759,41491
58747,41498
58695,41477
58612,41477
58550,41540
58550,42150
58557,42150
58557,42250
58550,42250
58550,42859
58612,42922
58695,42922
58746,42901
58756,42907
58854,42927
59145,42927
59240,42908
59252,42901
59304,42922
59387,42922
59450,42859
59450,42972
59354,42972
59259,42991
59250,42996
59243,42992
59145,42972
58854,42972
58759,42991
58750,42996
58743,42992
58645,42972
58450,42972
58450,42859
58450,42250
58450,42150
58450,41540
58387,41477
58304,41477
58212,41515
58142,41585
58104,41677
58104,42087
58166,42150
58450,42150
58450,42250
58166,42250
58104,42312
58104,42722
58142,42814
58212,42884
58304,42922
58387,42922
58450,42859
58450,42972
58354,42972
58259,42991
58175,43046
58119,43129
58099,43227
58099,44172
58117,44267
58172,44351
58256,44407
58354,44427
58645,44427
58740,44408
58749,44403
58756,44407
58854,44427
59145,44427
59240,44408
59249,44403
59256,44407
59354,44427
59645,44427
59740,44408
59749,44403
59756,44407
59854,44427
60145,44427
60240,44408
60249,44403
60256,44407
60354,44427
60645,44427
60740,44408
60824,44353
60880,44270
60900,44172
60900,43759
61134,43525
61588,43525
61553,43610
61553,43788
61619,43950
61553,44110
61553,44288
61619,44450
61553,44610
61553,44788
61619,44950
61553,45110
61553,45288
61619,45450
61553,45610
61553,45788
61619,45950
" /> 
<polyline style="fill-rule:evenodd;"
points="69576,45205
69528,45253
69471,45253
69423,45205
69429,45200
69423,45194
69471,45146
69528,45146
69576,45194
69570,45200
69576,45205
" /> 
<polyline style="fill-rule:evenodd;"
points="71020,51970
70742,51970
70742,50853
70629,50580
70420,50371
70148,50258
69853,50257
69580,50370
69371,50579
69258,50851
69257,51146
69370,51419
69579,51628
69851,51741
70146,51742
70419,51629
70628,51420
70741,51148
70742,50853
70742,51970
54675,51970
54675,51033
54675,50541
54675,50441
54675,49949
54613,49886
54518,49886
54426,49924
54356,49994
54318,50086
54318,50186
54318,50378
54380,50441
54675,50441
54675,50541
54380,50541
54318,50603
54318,50795
54318,50895
54356,50987
54426,51057
54518,51095
54613,51095
54675,51033
54675,51970
53742,51970
53742,50853
53629,50580
53420,50371
53148,50258
53118,50257
53118,44237
53118,43450
53118,43350
53118,42563
53055,42500
52331,42500
52232,42500
52140,42538
52070,42608
52032,42700
52032,43287
52094,43350
53118,43350
53118,43450
52094,43450
52032,43512
52032,44099
52070,44191
52140,44261
52232,44299
52331,44299
53055,44299
53118,44237
53118,50257
52853,50257
52754,50298
52754,45881
52743,45663
52681,45512
52585,45484
52270,45800
52585,46115
52681,46087
52754,45881
52754,50298
52580,50370
52371,50579
52258,50851
52257,51146
52370,51419
52579,51628
52851,51741
53146,51742
53419,51629
53628,51420
53741,51148
53742,50853
53742,51970
51979,51970
51979,46305
52118,46354
52336,46343
52487,46281
52515,46185
52200,45870
52194,45876
52123,45805
52129,45800
52123,45794
52194,45723
52200,45729
52515,45414
52487,45318
52281,45245
52063,45256
51979,45290
51979,36979
71020,36979
71020,47248
70742,47248
70742,37853
70629,37580
70420,37371
70148,37258
69853,37257
69580,37370
69371,37579
69258,37851
69257,38146
69370,38419
69579,38628
69851,38741
70146,38742
70419,38629
70628,38420
70741,38148
70742,37853
70742,47248
66202,47248
66202,46874
66197,46851
66250,46830
66410,46896
66588,46896
66750,46830
66910,46896
67088,46896
67250,46830
67410,46896
67588,46896
67750,46830
67910,46896
68088,46896
68250,46830
68410,46896
68588,46896
68752,46829
68878,46703
68946,46539
68946,46361
68879,46197
68753,46071
68641,46025
69088,46025
69053,46110
69053,46288
69120,46452
69246,46578
69410,46646
69588,46646
69752,46579
69878,46453
69946,46289
69946,46111
69880,45949
69946,45789
69946,45611
69879,45447
69863,45431
69895,45425
69952,45257
69939,45079
69895,44974
69863,44968
69878,44953
69946,44789
69946,44611
69880,44449
69946,44289
69946,44111
69880,43949
69946,43789
69946,43611
69880,43449
69946,43289
69946,43111
69880,42949
69946,42789
69946,42611
69880,42449
69946,42289
69946,42111
69880,41949
69946,41789
69946,41611
69880,41449
69946,41289
69946,41111
69880,40949
69946,40789
69946,40611
69879,40447
69753,40321
69589,40253
69411,40253
69247,40320
69121,40446
69053,40610
69053,40788
69119,40950
69053,41110
69053,41288
69119,41450
69053,41610
69053,41788
69119,41950
69053,42110
69053,42288
69119,42450
69053,42610
69053,42788
69119,42950
69053,43110
69053,43288
69119,43450
69053,43610
69053,43788
69119,43950
69053,44110
69053,44288
69119,44450
69053,44610
69053,44788
69120,44952
69136,44968
69104,44974
69047,45142
69060,45320
69083,45375
63207,45375
63083,45399
62978,45470
62414,46033
62380,45949
62446,45789
62446,45611
62380,45449
62446,45289
62446,45111
62380,44949
62446,44789
62446,44611
62380,44449
62446,44289
62446,44111
62380,43949
62446,43789
62446,43611
62380,43449
62446,43289
62446,43111
62380,42949
62446,42789
62446,42611
62380,42449
62446,42289
62446,42111
62380,41949
62446,41789
62446,41611
62380,41449
62446,41289
62446,41111
62380,40949
62446,40789
62446,40611
62379,40447
62253,40321
62089,40253
62012,40253
61129,39370
61024,39299
60900,39275
60418,39275
60377,39246
60278,39226
60121,39226
60025,39245
60003,39260
59934,39231
59908,39231
59845,39294
59845,39522
59766,39522
59766,39294
59704,39231
59677,39231
59609,39260
59589,39246
59491,39226
59333,39226
59238,39245
59175,39286
59159,39248
59089,39177
58997,39139
58912,39139
58850,39202
58850,39575
58857,39575
58857,39675
58850,39675
58850,39683
58750,39683
58750,39675
58742,39675
58742,39575
58750,39575
58750,39202
58687,39139
58602,39139
58510,39177
58440,39248
58402,39340
58402,39367
58382,39337
58276,39266
58217,39254
58213,39235
58158,39151
58075,39095
57977,39075
57622,39075
57527,39094
57443,39149
57399,39214
57389,39189
57318,39118
57226,39080
57127,39080
57112,39080
57050,39143
57050,39516
57057,39516
57057,39616
57050,39616
57050,39624
56950,39624
56950,39616
56942,39616
56942,39516
56950,39516
56950,39143
56887,39080
56872,39080
56773,39080
56681,39118
56618,39181
56610,39189
56606,39199
56555,39199
56618,39137
56618,39082
56580,38990
56509,38919
56417,38881
56175,38881
56112,38944
56112,39200
56120,39200
56120,39300
56112,39300
56112,39307
56012,39307
56012,39300
56012,39200
56012,38944
55950,38881
55708,38881
55616,38919
55545,38990
55507,39082
55507,39137
55570,39200
56012,39200
56012,39300
55570,39300
55507,39362
55507,39417
55543,39503
55522,39533
55502,39631
55502,39868
55521,39963
55545,39999
55522,40033
55502,40131
55502,40368
55521,40463
55545,40499
55522,40533
55502,40631
55502,40868
55521,40963
55576,41047
55659,41103
55757,41123
56368,41123
56463,41104
56547,41049
56603,40966
56623,40868
56623,40820
56641,40848
56724,40904
56822,40924
57177,40924
57272,40905
57356,40850
57400,40785
57441,40848
57524,40904
57622,40924
57823,40924
56497,42250
56377,42250
54647,40520
54541,40449
54482,40438
54497,40368
54497,40131
54478,40036
54456,40003
54492,39917
54492,39862
54492,39637
54492,39582
54458,39500
54492,39417
54492,39362
54492,39137
54492,39082
54454,38990
54383,38919
54291,38881
54049,38881
53987,38944
53987,39200
54429,39200
54492,39137
54492,39362
54429,39300
53987,39300
53987,39444
53987,39555
53987,39700
54429,39700
54492,39637
54492,39862
54429,39800
53987,39800
53987,39807
53887,39807
53887,39800
53887,39700
53887,39555
53887,39444
53887,39300
53887,39200
53887,38944
53824,38881
53742,38881
53742,37853
53629,37580
53420,37371
53148,37258
52853,37257
52580,37370
52371,37579
52258,37851
52257,38146
52370,38419
52579,38628
52851,38741
53146,38742
53419,38629
53628,38420
53741,38148
53742,37853
53742,38881
53582,38881
53490,38919
53419,38990
53381,39082
53381,39137
53444,39200
53887,39200
53887,39300
53444,39300
53381,39362
53381,39417
53415,39500
53381,39582
53381,39637
53444,39700
53887,39700
53887,39800
53444,39800
53381,39862
53381,39917
53417,40003
53396,40033
53376,40131
53376,40368
53395,40463
53419,40499
53396,40533
53376,40631
53376,40868
53395,40963
53450,41047
53533,41103
53631,41123
54242,41123
54316,41108
55710,42502
55651,42514
55567,42569
55511,42652
55491,42750
55491,44049
55510,44144
55565,44228
55628,44271
55587,44332
55567,44430
55567,44903
55586,44998
55641,45082
55667,45099
55643,45115
55587,45198
55567,45296
55567,45769
55586,45864
55599,45884
55358,46126
55337,46094
55254,46038
55155,46018
54644,46018
54548,46036
54464,46091
54408,46174
54395,46243
54390,46243
54339,46209
54304,46202
54304,44099
54304,43512
54304,43287
54304,42700
54265,42608
54195,42538
54103,42500
54004,42500
53280,42500
53218,42563
53218,43350
54241,43350
54304,43287
54304,43512
54241,43450
53218,43450
53218,44237
53280,44299
54004,44299
54103,44299
54195,44261
54265,44191
54304,44099
54304,46202
54247,46191
54221,46151
54138,46095
54040,46075
53559,46075
53464,46094
53380,46149
53324,46232
53304,46330
53304,46689
53323,46784
53378,46868
53461,46924
53559,46944
54040,46944
54135,46925
54205,46879
54273,46893
54394,46893
54407,46959
54462,47042
54545,47098
54549,47099
54548,47099
54464,47154
54408,47237
54395,47306
54383,47306
54259,47331
54158,47398
54138,47385
54040,47365
53559,47365
53464,47384
53380,47439
53324,47522
53304,47620
53304,47979
53323,48074
53378,48158
53461,48214
53559,48234
54040,48234
54135,48215
54219,48160
54247,48118
54339,48100
54339,48100
54422,48044
54462,48105
54545,48161
54644,48181
54775,48181
54775,48765
54763,48773
54707,48856
54687,48954
54687,49663
54706,49758
54761,49842
54833,49891
54775,49949
54775,50441
54783,50441
54783,50541
54775,50541
54775,51033
54838,51095
54933,51095
55025,51057
55095,50987
55101,50973
55135,51024
55218,51080
55316,51100
55631,51100
55726,51081
55810,51026
55839,50983
56574,51718
56679,51788
56803,51813
56803,51813
56803,51813
61157,51813
61282,51788
61282,51788
61387,51718
61963,51142
62033,51311
62188,51465
62390,51549
62590,51550
62722,51682
62827,51752
62827,51752
62952,51777
62952,51777
62952,51777
64382,51777
64507,51752
64507,51752
64612,51682
64708,51586
64708,51586
64708,51586
64744,51532
65169,51532
65264,51513
65348,51458
65404,51375
65424,51277
65424,51068
66107,50385
66177,50280
66177,50280
66202,50155
66202,50155
66202,50155
66202,49102
71020,49102
71020,51970
" /> 
</g>
<g style="fill:#FFFFFF; fill-opacity:1.0; 
stroke:#FFFFFF; stroke-width:39.3701; stroke-opacity:1; 
stroke-linecap:round; stroke-linejoin:round;">
<circle cx="60933.3" cy="42200" r="105.315" /> 
<circle cx="62500" cy="51000" r="130.315" /> 
<circle cx="60500" cy="51000" r="130.315" /> 
<circle cx="60500" cy="49000" r="130.315" /> 
<circle cx="62500" cy="49000" r="130.315" /> 
<circle cx="69500" cy="40700" r="78.7402" /> 
<circle cx="69500" cy="41200" r="78.7402" /> 
<circle cx="69500" cy="41700" r="78.7402" /> 
<circle cx="69500" cy="42200" r="78.7402" /> 
<circle cx="69500" cy="42700" r="78.7402" /> 
<circle cx="69500" cy="43200" r="78.7402" /> 
<circle cx="69500" cy="43700" r="78.7402" /> 
<circle cx="69500" cy="44200" r="78.7402" /> 
<circle cx="69500" cy="44700" r="78.7402" /> 
<circle cx="69500" cy="45200" r="78.7402" /> 
<circle cx="69500" cy="45700" r="78.7402" /> 
<circle cx="69500" cy="46200" r="78.7402" /> 
<circle cx="68500" cy="46450" r="78.7402" /> 
<circle cx="68000" cy="46450" r="78.7402" /> 
<circle cx="67500" cy="46450" r="78.7402" /> 
<circle cx="67000" cy="46450" r="78.7402" /> 
<circle cx="66500" cy="46450" r="78.7402" /> 
<circle cx="66000" cy="46450" r="78.7402" /> 
<circle cx="65500" cy="46450" r="78.7402" /> 
<circle cx="65000" cy="46450" r="78.7402" /> 
<circle cx="64500" cy="46450" r="78.7402" /> 
<circle cx="64000" cy="46450" r="78.7402" /> 
<circle cx="63500" cy="46450" r="78.7402" /> 
<circle cx="63000" cy="46450" r="78.7402" /> 
<circle cx="62000" cy="46200" r="78.7402" /> 
<circle cx="62000" cy="45700" r="78.7402" /> 
<circle cx="62000" cy="45200" r="78.7402" /> 
<circle cx="62000" cy="44700" r="78.7402" /> 
<circle cx="62000" cy="44200" r="78.7402" /> 
<circle cx="62000" cy="43700" r="78.7402" /> 
<circle cx="62000" cy="43200" r="78.7402" /> 
<circle cx="62000" cy="42700" r="78.7402" /> 
<circle cx="62000" cy="42200" r="78.7402" /> 
<circle cx="62000" cy="41700" r="78.7402" /> 
<circle cx="62000" cy="41200" r="78.7402" /> 
<circle cx="62000" cy="40700" r="78.7402" /> 
<circle cx="60200" cy="45800" r="130.315" /> 
<circle cx="52200" cy="45800" r="130.315" /> 
<circle cx="53000" cy="38000" r="472.441" /> 
<circle cx="70000" cy="38000" r="472.441" /> 
<circle cx="70000" cy="51000" r="472.441" /> 
<circle cx="53000" cy="51000" r="472.441" /> 
</g> 
</svg>
