<?xml version="1.0" standalone="no"?>
 <!DOCTYPE svg PUBLIC "-//W3C//DTD SVG 1.1//EN" 
 "http://www.w3.org/Graphics/SVG/1.1/DTD/svg11.dtd"> 
<svg xmlns="http://www.w3.org/2000/svg" version="1.1" 
    width="29.7002cm" height="21.0007cm" viewBox="0 0 116930 82680 ">
<title>SVG Picture created as igrow-101-F_Cu.svg date 2015/04/11 13:11:31 </title>
  <desc>Picture generated by PCBNEW </desc>
<g style="fill:#000000; fill-opacity:1;stroke:#000000; stroke-opacity:1;
stroke-linecap:round; stroke-linejoin:round; "
 transform="translate(0 0) scale(1 1)">
</g>
<g style="fill:#000000; fill-opacity:0.0; 
stroke:#000000; stroke-width:39.3701; stroke-opacity:1; 
stroke-linecap:round; stroke-linejoin:round;">
</g>
<g style="fill:#000000; fill-opacity:0.0; 
stroke:#000000; stroke-width:59.0551; stroke-opacity:1; 
stroke-linecap:round; stroke-linejoin:round;">
<rect x="69685.9" y="65357.2" width="42519.7" height="12598.4" rx="0" />
</g>
<g style="fill:#000000; fill-opacity:0.0; 
stroke:#000000; stroke-width:39.3701; stroke-opacity:1; 
stroke-linecap:round; stroke-linejoin:round;">
</g>
<g style="fill:#000000; fill-opacity:0.0; 
stroke:#000000; stroke-width:59.0551; stroke-opacity:1; 
stroke-linecap:round; stroke-linejoin:round;">
<rect x="3937.01" y="3937.01" width="109056" height="74806" rx="0" />
</g>
<g style="fill:#000000; fill-opacity:0.0; 
stroke:#000000; stroke-width:39.3701; stroke-opacity:1; 
stroke-linecap:round; stroke-linejoin:round;">
</g>
<g style="fill:#000000; fill-opacity:0.0; 
stroke:#000000; stroke-width:59.0551; stroke-opacity:1; 
stroke-linecap:round; stroke-linejoin:round;">
<rect x="4724.41" y="4724.41" width="107481" height="73231.2" rx="0" />
</g>
<g style="fill:#000000; fill-opacity:0.0; 
stroke:#000000; stroke-width:39.3701; stroke-opacity:1; 
stroke-linecap:round; stroke-linejoin:round;">
</g>
<g style="fill:#000000; fill-opacity:0.0; 
stroke:#000000; stroke-width:59.0551; stroke-opacity:1; 
stroke-linecap:round; stroke-linejoin:round;">
<path d="M23622 4724
L23622 3937
" />
</g>
<g style="fill:#000000; fill-opacity:0.0; 
stroke:#000000; stroke-width:39.3701; stroke-opacity:1; 
stroke-linecap:round; stroke-linejoin:round;">
</g>
<g style="fill:#000000; fill-opacity:0.0; 
stroke:#000000; stroke-width:59.0551; stroke-opacity:1; 
stroke-linecap:round; stroke-linejoin:round;">
<path d="M43307 4724
L43307 3937
" />
</g>
<g style="fill:#000000; fill-opacity:0.0; 
stroke:#000000; stroke-width:39.3701; stroke-opacity:1; 
stroke-linecap:round; stroke-linejoin:round;">
</g>
<g style="fill:#000000; fill-opacity:0.0; 
stroke:#000000; stroke-width:59.0551; stroke-opacity:1; 
stroke-linecap:round; stroke-linejoin:round;">
<path d="M62992 4724
L62992 3937
" />
</g>
<g style="fill:#000000; fill-opacity:0.0; 
stroke:#000000; stroke-width:39.3701; stroke-opacity:1; 
stroke-linecap:round; stroke-linejoin:round;">
</g>
<g style="fill:#000000; fill-opacity:0.0; 
stroke:#000000; stroke-width:59.0551; stroke-opacity:1; 
stroke-linecap:round; stroke-linejoin:round;">
<path d="M82677 4724
L82677 3937
" />
</g>
<g style="fill:#000000; fill-opacity:0.0; 
stroke:#000000; stroke-width:39.3701; stroke-opacity:1; 
stroke-linecap:round; stroke-linejoin:round;">
</g>
<g style="fill:#000000; fill-opacity:0.0; 
stroke:#000000; stroke-width:59.0551; stroke-opacity:1; 
stroke-linecap:round; stroke-linejoin:round;">
<path d="M102362 4724
L102362 3937
" />
</g>
<g style="fill:#000000; fill-opacity:0.0; 
stroke:#000000; stroke-width:39.3701; stroke-opacity:1; 
stroke-linecap:round; stroke-linejoin:round;">
</g>
<g style="fill:#000000; fill-opacity:0.0; 
stroke:#000000; stroke-width:59.0551; stroke-opacity:1; 
stroke-linecap:round; stroke-linejoin:round;">
<path d="M14169 4562
L13877 4562
" />
<path d="M14023 4562
L14023 4050
L13974 4123
L13925 4172
L13877 4196
" />
</g>
<g style="fill:#000000; fill-opacity:0.0; 
stroke:#000000; stroke-width:39.3701; stroke-opacity:1; 
stroke-linecap:round; stroke-linejoin:round;">
</g>
<g style="fill:#000000; fill-opacity:0.0; 
stroke:#000000; stroke-width:59.0551; stroke-opacity:1; 
stroke-linecap:round; stroke-linejoin:round;">
<path d="M33562 4099
L33586 4074
L33635 4050
L33757 4050
L33805 4074
L33830 4099
L33854 4147
L33854 4196
L33830 4269
L33537 4562
L33854 4562
" />
</g>
<g style="fill:#000000; fill-opacity:0.0; 
stroke:#000000; stroke-width:39.3701; stroke-opacity:1; 
stroke-linecap:round; stroke-linejoin:round;">
</g>
<g style="fill:#000000; fill-opacity:0.0; 
stroke:#000000; stroke-width:59.0551; stroke-opacity:1; 
stroke-linecap:round; stroke-linejoin:round;">
<path d="M53222 4050
L53539 4050
L53368 4245
L53442 4245
L53490 4269
L53515 4294
L53539 4342
L53539 4464
L53515 4513
L53490 4537
L53442 4562
L53295 4562
L53247 4537
L53222 4513
" />
</g>
<g style="fill:#000000; fill-opacity:0.0; 
stroke:#000000; stroke-width:39.3701; stroke-opacity:1; 
stroke-linecap:round; stroke-linejoin:round;">
</g>
<g style="fill:#000000; fill-opacity:0.0; 
stroke:#000000; stroke-width:59.0551; stroke-opacity:1; 
stroke-linecap:round; stroke-linejoin:round;">
<path d="M73175 4221
L73175 4562
" />
<path d="M73053 4026
L72932 4391
L73248 4391
" />
</g>
<g style="fill:#000000; fill-opacity:0.0; 
stroke:#000000; stroke-width:39.3701; stroke-opacity:1; 
stroke-linecap:round; stroke-linejoin:round;">
</g>
<g style="fill:#000000; fill-opacity:0.0; 
stroke:#000000; stroke-width:59.0551; stroke-opacity:1; 
stroke-linecap:round; stroke-linejoin:round;">
<path d="M92885 4050
L92641 4050
L92617 4294
L92641 4269
L92690 4245
L92812 4245
L92860 4269
L92885 4294
L92909 4342
L92909 4464
L92885 4513
L92860 4537
L92812 4562
L92690 4562
L92641 4537
L92617 4513
" />
</g>
<g style="fill:#000000; fill-opacity:0.0; 
stroke:#000000; stroke-width:39.3701; stroke-opacity:1; 
stroke-linecap:round; stroke-linejoin:round;">
</g>
<g style="fill:#000000; fill-opacity:0.0; 
stroke:#000000; stroke-width:59.0551; stroke-opacity:1; 
stroke-linecap:round; stroke-linejoin:round;">
<path d="M112545 4050
L112448 4050
L112399 4074
L112375 4099
L112326 4172
L112302 4269
L112302 4464
L112326 4513
L112350 4537
L112399 4562
L112497 4562
L112545 4537
L112570 4513
L112594 4464
L112594 4342
L112570 4294
L112545 4269
L112497 4245
L112399 4245
L112350 4269
L112326 4294
L112302 4342
" />
</g>
<g style="fill:#000000; fill-opacity:0.0; 
stroke:#000000; stroke-width:39.3701; stroke-opacity:1; 
stroke-linecap:round; stroke-linejoin:round;">
</g>
<g style="fill:#000000; fill-opacity:0.0; 
stroke:#000000; stroke-width:59.0551; stroke-opacity:1; 
stroke-linecap:round; stroke-linejoin:round;">
<path d="M23622 77955
L23622 78742
" />
</g>
<g style="fill:#000000; fill-opacity:0.0; 
stroke:#000000; stroke-width:39.3701; stroke-opacity:1; 
stroke-linecap:round; stroke-linejoin:round;">
</g>
<g style="fill:#000000; fill-opacity:0.0; 
stroke:#000000; stroke-width:59.0551; stroke-opacity:1; 
stroke-linecap:round; stroke-linejoin:round;">
<path d="M43307 77955
L43307 78742
" />
</g>
<g style="fill:#000000; fill-opacity:0.0; 
stroke:#000000; stroke-width:39.3701; stroke-opacity:1; 
stroke-linecap:round; stroke-linejoin:round;">
</g>
<g style="fill:#000000; fill-opacity:0.0; 
stroke:#000000; stroke-width:59.0551; stroke-opacity:1; 
stroke-linecap:round; stroke-linejoin:round;">
<path d="M62992 77955
L62992 78742
" />
</g>
<g style="fill:#000000; fill-opacity:0.0; 
stroke:#000000; stroke-width:39.3701; stroke-opacity:1; 
stroke-linecap:round; stroke-linejoin:round;">
</g>
<g style="fill:#000000; fill-opacity:0.0; 
stroke:#000000; stroke-width:59.0551; stroke-opacity:1; 
stroke-linecap:round; stroke-linejoin:round;">
<path d="M82677 77955
L82677 78742
" />
</g>
<g style="fill:#000000; fill-opacity:0.0; 
stroke:#000000; stroke-width:39.3701; stroke-opacity:1; 
stroke-linecap:round; stroke-linejoin:round;">
</g>
<g style="fill:#000000; fill-opacity:0.0; 
stroke:#000000; stroke-width:59.0551; stroke-opacity:1; 
stroke-linecap:round; stroke-linejoin:round;">
<path d="M102362 77955
L102362 78742
" />
</g>
<g style="fill:#000000; fill-opacity:0.0; 
stroke:#000000; stroke-width:39.3701; stroke-opacity:1; 
stroke-linecap:round; stroke-linejoin:round;">
</g>
<g style="fill:#000000; fill-opacity:0.0; 
stroke:#000000; stroke-width:59.0551; stroke-opacity:1; 
stroke-linecap:round; stroke-linejoin:round;">
<path d="M14169 78580
L13877 78580
" />
<path d="M14023 78580
L14023 78069
L13974 78142
L13925 78190
L13877 78215
" />
</g>
<g style="fill:#000000; fill-opacity:0.0; 
stroke:#000000; stroke-width:39.3701; stroke-opacity:1; 
stroke-linecap:round; stroke-linejoin:round;">
</g>
<g style="fill:#000000; fill-opacity:0.0; 
stroke:#000000; stroke-width:59.0551; stroke-opacity:1; 
stroke-linecap:round; stroke-linejoin:round;">
<path d="M33562 78117
L33586 78093
L33635 78069
L33757 78069
L33805 78093
L33830 78117
L33854 78166
L33854 78215
L33830 78288
L33537 78580
L33854 78580
" />
</g>
<g style="fill:#000000; fill-opacity:0.0; 
stroke:#000000; stroke-width:39.3701; stroke-opacity:1; 
stroke-linecap:round; stroke-linejoin:round;">
</g>
<g style="fill:#000000; fill-opacity:0.0; 
stroke:#000000; stroke-width:59.0551; stroke-opacity:1; 
stroke-linecap:round; stroke-linejoin:round;">
<path d="M53222 78069
L53539 78069
L53368 78263
L53442 78263
L53490 78288
L53515 78312
L53539 78361
L53539 78483
L53515 78532
L53490 78556
L53442 78580
L53295 78580
L53247 78556
L53222 78532
" />
</g>
<g style="fill:#000000; fill-opacity:0.0; 
stroke:#000000; stroke-width:39.3701; stroke-opacity:1; 
stroke-linecap:round; stroke-linejoin:round;">
</g>
<g style="fill:#000000; fill-opacity:0.0; 
stroke:#000000; stroke-width:59.0551; stroke-opacity:1; 
stroke-linecap:round; stroke-linejoin:round;">
<path d="M73175 78239
L73175 78580
" />
<path d="M73053 78044
L72932 78410
L73248 78410
" />
</g>
<g style="fill:#000000; fill-opacity:0.0; 
stroke:#000000; stroke-width:39.3701; stroke-opacity:1; 
stroke-linecap:round; stroke-linejoin:round;">
</g>
<g style="fill:#000000; fill-opacity:0.0; 
stroke:#000000; stroke-width:59.0551; stroke-opacity:1; 
stroke-linecap:round; stroke-linejoin:round;">
<path d="M92885 78069
L92641 78069
L92617 78312
L92641 78288
L92690 78263
L92812 78263
L92860 78288
L92885 78312
L92909 78361
L92909 78483
L92885 78532
L92860 78556
L92812 78580
L92690 78580
L92641 78556
L92617 78532
" />
</g>
<g style="fill:#000000; fill-opacity:0.0; 
stroke:#000000; stroke-width:39.3701; stroke-opacity:1; 
stroke-linecap:round; stroke-linejoin:round;">
</g>
<g style="fill:#000000; fill-opacity:0.0; 
stroke:#000000; stroke-width:59.0551; stroke-opacity:1; 
stroke-linecap:round; stroke-linejoin:round;">
<path d="M112545 78069
L112448 78069
L112399 78093
L112375 78117
L112326 78190
L112302 78288
L112302 78483
L112326 78532
L112350 78556
L112399 78580
L112497 78580
L112545 78556
L112570 78532
L112594 78483
L112594 78361
L112570 78312
L112545 78288
L112497 78263
L112399 78263
L112350 78288
L112326 78312
L112302 78361
" />
</g>
<g style="fill:#000000; fill-opacity:0.0; 
stroke:#000000; stroke-width:39.3701; stroke-opacity:1; 
stroke-linecap:round; stroke-linejoin:round;">
</g>
<g style="fill:#000000; fill-opacity:0.0; 
stroke:#000000; stroke-width:59.0551; stroke-opacity:1; 
stroke-linecap:round; stroke-linejoin:round;">
<path d="M3937 23622
L4724 23622
" />
</g>
<g style="fill:#000000; fill-opacity:0.0; 
stroke:#000000; stroke-width:39.3701; stroke-opacity:1; 
stroke-linecap:round; stroke-linejoin:round;">
</g>
<g style="fill:#000000; fill-opacity:0.0; 
stroke:#000000; stroke-width:59.0551; stroke-opacity:1; 
stroke-linecap:round; stroke-linejoin:round;">
<path d="M3937 43307
L4724 43307
" />
</g>
<g style="fill:#000000; fill-opacity:0.0; 
stroke:#000000; stroke-width:39.3701; stroke-opacity:1; 
stroke-linecap:round; stroke-linejoin:round;">
</g>
<g style="fill:#000000; fill-opacity:0.0; 
stroke:#000000; stroke-width:59.0551; stroke-opacity:1; 
stroke-linecap:round; stroke-linejoin:round;">
<path d="M3937 62992
L4724 62992
" />
</g>
<g style="fill:#000000; fill-opacity:0.0; 
stroke:#000000; stroke-width:39.3701; stroke-opacity:1; 
stroke-linecap:round; stroke-linejoin:round;">
</g>
<g style="fill:#000000; fill-opacity:0.0; 
stroke:#000000; stroke-width:59.0551; stroke-opacity:1; 
stroke-linecap:round; stroke-linejoin:round;">
<path d="M4208 13864
L4452 13864
" />
<path d="M4160 14011
L4330 13499
L4501 14011
" />
</g>
<g style="fill:#000000; fill-opacity:0.0; 
stroke:#000000; stroke-width:39.3701; stroke-opacity:1; 
stroke-linecap:round; stroke-linejoin:round;">
</g>
<g style="fill:#000000; fill-opacity:0.0; 
stroke:#000000; stroke-width:59.0551; stroke-opacity:1; 
stroke-linecap:round; stroke-linejoin:round;">
<path d="M4367 33428
L4440 33452
L4464 33476
L4489 33525
L4489 33598
L4464 33647
L4440 33671
L4391 33696
L4196 33696
L4196 33184
L4367 33184
L4416 33208
L4440 33233
L4464 33281
L4464 33330
L4440 33379
L4416 33403
L4367 33428
L4196 33428
" />
</g>
<g style="fill:#000000; fill-opacity:0.0; 
stroke:#000000; stroke-width:39.3701; stroke-opacity:1; 
stroke-linecap:round; stroke-linejoin:round;">
</g>
<g style="fill:#000000; fill-opacity:0.0; 
stroke:#000000; stroke-width:59.0551; stroke-opacity:1; 
stroke-linecap:round; stroke-linejoin:round;">
<path d="M4489 53332
L4464 53356
L4391 53381
L4342 53381
L4269 53356
L4221 53308
L4196 53259
L4172 53161
L4172 53088
L4196 52991
L4221 52942
L4269 52893
L4342 52869
L4391 52869
L4464 52893
L4489 52918
" />
</g>
<g style="fill:#000000; fill-opacity:0.0; 
stroke:#000000; stroke-width:39.3701; stroke-opacity:1; 
stroke-linecap:round; stroke-linejoin:round;">
</g>
<g style="fill:#000000; fill-opacity:0.0; 
stroke:#000000; stroke-width:59.0551; stroke-opacity:1; 
stroke-linecap:round; stroke-linejoin:round;">
<path d="M4196 73066
L4196 72554
L4318 72554
L4391 72578
L4440 72627
L4464 72676
L4489 72773
L4489 72846
L4464 72944
L4440 72993
L4391 73041
L4318 73066
L4196 73066
" />
</g>
<g style="fill:#000000; fill-opacity:0.0; 
stroke:#000000; stroke-width:39.3701; stroke-opacity:1; 
stroke-linecap:round; stroke-linejoin:round;">
</g>
<g style="fill:#000000; fill-opacity:0.0; 
stroke:#000000; stroke-width:59.0551; stroke-opacity:1; 
stroke-linecap:round; stroke-linejoin:round;">
<path d="M112992 23622
L112205 23622
" />
</g>
<g style="fill:#000000; fill-opacity:0.0; 
stroke:#000000; stroke-width:39.3701; stroke-opacity:1; 
stroke-linecap:round; stroke-linejoin:round;">
</g>
<g style="fill:#000000; fill-opacity:0.0; 
stroke:#000000; stroke-width:59.0551; stroke-opacity:1; 
stroke-linecap:round; stroke-linejoin:round;">
<path d="M112992 43307
L112205 43307
" />
</g>
<g style="fill:#000000; fill-opacity:0.0; 
stroke:#000000; stroke-width:39.3701; stroke-opacity:1; 
stroke-linecap:round; stroke-linejoin:round;">
</g>
<g style="fill:#000000; fill-opacity:0.0; 
stroke:#000000; stroke-width:59.0551; stroke-opacity:1; 
stroke-linecap:round; stroke-linejoin:round;">
<path d="M112992 62992
L112205 62992
" />
</g>
<g style="fill:#000000; fill-opacity:0.0; 
stroke:#000000; stroke-width:39.3701; stroke-opacity:1; 
stroke-linecap:round; stroke-linejoin:round;">
</g>
<g style="fill:#000000; fill-opacity:0.0; 
stroke:#000000; stroke-width:59.0551; stroke-opacity:1; 
stroke-linecap:round; stroke-linejoin:round;">
<path d="M112477 13864
L112721 13864
" />
<path d="M112428 14011
L112599 13499
L112769 14011
" />
</g>
<g style="fill:#000000; fill-opacity:0.0; 
stroke:#000000; stroke-width:39.3701; stroke-opacity:1; 
stroke-linecap:round; stroke-linejoin:round;">
</g>
<g style="fill:#000000; fill-opacity:0.0; 
stroke:#000000; stroke-width:59.0551; stroke-opacity:1; 
stroke-linecap:round; stroke-linejoin:round;">
<path d="M112635 33428
L112708 33452
L112733 33476
L112757 33525
L112757 33598
L112733 33647
L112708 33671
L112660 33696
L112465 33696
L112465 33184
L112635 33184
L112684 33208
L112708 33233
L112733 33281
L112733 33330
L112708 33379
L112684 33403
L112635 33428
L112465 33428
" />
</g>
<g style="fill:#000000; fill-opacity:0.0; 
stroke:#000000; stroke-width:39.3701; stroke-opacity:1; 
stroke-linecap:round; stroke-linejoin:round;">
</g>
<g style="fill:#000000; fill-opacity:0.0; 
stroke:#000000; stroke-width:59.0551; stroke-opacity:1; 
stroke-linecap:round; stroke-linejoin:round;">
<path d="M112757 53332
L112733 53356
L112660 53381
L112611 53381
L112538 53356
L112489 53308
L112465 53259
L112440 53161
L112440 53088
L112465 52991
L112489 52942
L112538 52893
L112611 52869
L112660 52869
L112733 52893
L112757 52918
" />
</g>
<g style="fill:#000000; fill-opacity:0.0; 
stroke:#000000; stroke-width:39.3701; stroke-opacity:1; 
stroke-linecap:round; stroke-linejoin:round;">
</g>
<g style="fill:#000000; fill-opacity:0.0; 
stroke:#000000; stroke-width:59.0551; stroke-opacity:1; 
stroke-linecap:round; stroke-linejoin:round;">
<path d="M112465 73066
L112465 72554
L112587 72554
L112660 72578
L112708 72627
L112733 72676
L112757 72773
L112757 72846
L112733 72944
L112708 72993
L112660 73041
L112587 73066
L112465 73066
" />
</g>
<g style="fill:#000000; fill-opacity:0.0; 
stroke:#000000; stroke-width:39.3701; stroke-opacity:1; 
stroke-linecap:round; stroke-linejoin:round;">
</g>
<g style="fill:#000000; fill-opacity:0.0; 
stroke:#000000; stroke-width:59.0551; stroke-opacity:1; 
stroke-linecap:round; stroke-linejoin:round;">
<path d="M78881 76293
L78881 75703
L79022 75703
L79106 75731
L79162 75787
L79190 75843
L79219 75956
L79219 76040
L79190 76153
L79162 76209
L79106 76265
L79022 76293
L78881 76293
" />
<path d="M79725 76293
L79725 75984
L79697 75928
L79640 75899
L79528 75899
L79472 75928
" />
<path d="M79725 76265
L79669 76293
L79528 76293
L79472 76265
L79444 76209
L79444 76153
L79472 76096
L79528 76068
L79669 76068
L79725 76040
" />
<path d="M79922 75899
L80147 75899
" />
<path d="M80006 75703
L80006 76209
L80034 76265
L80090 76293
L80147 76293
" />
<path d="M80568 76265
L80512 76293
L80400 76293
L80343 76265
L80315 76209
L80315 75984
L80343 75928
L80400 75899
L80512 75899
L80568 75928
L80597 75984
L80597 76040
L80315 76096
" />
<path d="M80850 76237
L80878 76265
L80850 76293
L80822 76265
L80850 76237
L80850 76293
" />
<path d="M80850 75928
L80878 75956
L80850 75984
L80822 75956
L80850 75928
L80850 75984
" />
<path d="M81581 76293
L81581 75703
L81778 76124
L81974 75703
L81974 76293
" />
<path d="M82340 76293
L82284 76265
L82256 76237
L82228 76181
L82228 76012
L82256 75956
L82284 75928
L82340 75899
L82424 75899
L82481 75928
L82509 75956
L82537 76012
L82537 76181
L82509 76237
L82481 76265
L82424 76293
L82340 76293
" />
<path d="M82790 75899
L82790 76293
" />
<path d="M82790 75956
L82818 75928
L82874 75899
L82959 75899
L83015 75928
L83043 75984
L83043 76293
" />
<path d="M83577 76293
L83577 75703
" />
<path d="M83577 76265
L83521 76293
L83409 76293
L83352 76265
L83324 76237
L83296 76181
L83296 76012
L83324 75956
L83352 75928
L83409 75899
L83521 75899
L83577 75928
" />
<path d="M84112 76293
L84112 75984
L84084 75928
L84027 75899
L83915 75899
L83859 75928
" />
<path d="M84112 76265
L84055 76293
L83915 76293
L83859 76265
L83831 76209
L83831 76153
L83859 76096
L83915 76068
L84055 76068
L84112 76040
" />
<path d="M84337 75899
L84477 76293
" />
<path d="M84618 75899
L84477 76293
L84421 76434
L84393 76462
L84337 76490
" />
<path d="M84871 76265
L84871 76293
L84843 76349
L84815 76377
" />
<path d="M85687 75703
L85743 75703
L85799 75731
L85827 75759
L85855 75815
L85883 75928
L85883 76068
L85855 76181
L85827 76237
L85799 76265
L85743 76293
L85687 76293
L85630 76265
L85602 76237
L85574 76181
L85546 76068
L85546 75928
L85574 75815
L85602 75759
L85630 75731
L85687 75703
" />
<path d="M86390 75703
L86277 75703
L86221 75731
L86193 75759
L86136 75843
L86108 75956
L86108 76181
L86136 76237
L86165 76265
L86221 76293
L86333 76293
L86390 76265
L86418 76237
L86446 76181
L86446 76040
L86418 75984
L86390 75956
L86333 75928
L86221 75928
L86165 75956
L86136 75984
L86108 76040
" />
<path d="M87121 76124
L87402 76124
" />
<path d="M87064 76293
L87261 75703
L87458 76293
" />
<path d="M87655 75899
L87655 76490
" />
<path d="M87655 75928
L87711 75899
L87824 75899
L87880 75928
L87908 75956
L87936 76012
L87936 76181
L87908 76237
L87880 76265
L87824 76293
L87711 76293
L87655 76265
" />
<path d="M88189 76293
L88189 75899
" />
<path d="M88189 76012
L88217 75956
L88246 75928
L88302 75899
L88358 75899
" />
<path d="M88555 76293
L88555 75899
" />
<path d="M88555 75703
L88527 75731
L88555 75759
L88583 75731
L88555 75703
L88555 75759
" />
<path d="M88921 76293
L88864 76265
L88836 76209
L88836 75703
" />
<path d="M89567 75759
L89595 75731
L89652 75703
L89792 75703
L89849 75731
L89877 75759
L89905 75815
L89905 75871
L89877 75956
L89539 76293
L89905 76293
" />
<path d="M90270 75703
L90327 75703
L90383 75731
L90411 75759
L90439 75815
L90467 75928
L90467 76068
L90439 76181
L90411 76237
L90383 76265
L90327 76293
L90270 76293
L90214 76265
L90186 76237
L90158 76181
L90130 76068
L90130 75928
L90158 75815
L90186 75759
L90214 75731
L90270 75703
" />
<path d="M91030 76293
L90692 76293
" />
<path d="M90861 76293
L90861 75703
L90805 75787
L90748 75843
L90692 75871
" />
<path d="M91564 75703
L91283 75703
L91255 75984
L91283 75956
L91339 75928
L91480 75928
L91536 75956
L91564 75984
L91592 76040
L91592 76181
L91564 76237
L91536 76265
L91480 76293
L91339 76293
L91283 76265
L91255 76237
" />
</g>
<g style="fill:#000000; fill-opacity:0.0; 
stroke:#000000; stroke-width:39.3701; stroke-opacity:1; 
stroke-linecap:round; stroke-linejoin:round;">
</g>
<g style="fill:#000000; fill-opacity:0.0; 
stroke:#000000; stroke-width:59.0551; stroke-opacity:1; 
stroke-linecap:round; stroke-linejoin:round;">
<path d="M69685 76577
L112205 76577
" />
</g>
<g style="fill:#000000; fill-opacity:0.0; 
stroke:#000000; stroke-width:39.3701; stroke-opacity:1; 
stroke-linecap:round; stroke-linejoin:round;">
</g>
<g style="fill:#000000; fill-opacity:0.0; 
stroke:#000000; stroke-width:59.0551; stroke-opacity:1; 
stroke-linecap:round; stroke-linejoin:round;">
<path d="M70220 77395
L70220 76805
" />
<path d="M70557 77395
L70304 77058
" />
<path d="M70557 76805
L70220 77142
" />
<path d="M70810 77395
L70810 77002
" />
<path d="M70810 76805
L70782 76833
L70810 76861
L70838 76833
L70810 76805
L70810 76861
" />
<path d="M71429 77339
L71401 77367
L71316 77395
L71260 77395
L71176 77367
L71120 77311
L71091 77255
L71063 77142
L71063 77058
L71091 76946
L71120 76889
L71176 76833
L71260 76805
L71316 76805
L71401 76833
L71429 76861
" />
<path d="M71935 77395
L71935 77086
L71907 77030
L71851 77002
L71738 77002
L71682 77030
" />
<path d="M71935 77367
L71879 77395
L71738 77395
L71682 77367
L71654 77311
L71654 77255
L71682 77199
L71738 77171
L71879 77171
L71935 77142
" />
<path d="M72469 77395
L72469 76805
" />
<path d="M72469 77367
L72413 77395
L72301 77395
L72244 77367
L72216 77339
L72188 77283
L72188 77114
L72216 77058
L72244 77030
L72301 77002
L72413 77002
L72469 77030
" />
<path d="M73201 77086
L73397 77086
" />
<path d="M73482 77395
L73201 77395
L73201 76805
L73482 76805
" />
<path d="M73735 77339
L73763 77367
L73735 77395
L73707 77367
L73735 77339
L73735 77395
" />
<path d="M74016 77395
L74016 76805
L74157 76805
L74241 76833
L74297 76889
L74325 76946
L74354 77058
L74354 77142
L74325 77255
L74297 77311
L74241 77367
L74157 77395
L74016 77395
" />
<path d="M74607 77339
L74635 77367
L74607 77395
L74579 77367
L74607 77339
L74607 77395
" />
<path d="M74860 77227
L75141 77227
" />
<path d="M74804 77395
L75000 76805
L75197 77395
" />
<path d="M75394 77339
L75422 77367
L75394 77395
L75366 77367
L75394 77339
L75394 77395
" />
<path d="M76575 77395
L76575 76805
" />
<path d="M76631 77171
L76800 77395
" />
<path d="M76800 77002
L76575 77227
" />
<path d="M77053 77395
L77053 77002
" />
<path d="M77053 76805
L77025 76833
L77053 76861
L77081 76833
L77053 76805
L77053 76861
" />
<path d="M77588 77367
L77531 77395
L77419 77395
L77363 77367
L77334 77339
L77306 77283
L77306 77114
L77334 77058
L77363 77030
L77419 77002
L77531 77002
L77588 77030
" />
<path d="M78094 77395
L78094 77086
L78066 77030
L78009 77002
L77897 77002
L77841 77030
" />
<path d="M78094 77367
L78037 77395
L77897 77395
L77841 77367
L77813 77311
L77813 77255
L77841 77199
L77897 77171
L78037 77171
L78094 77142
" />
<path d="M78628 77395
L78628 76805
" />
<path d="M78628 77367
L78572 77395
L78459 77395
L78403 77367
L78375 77339
L78347 77283
L78347 77114
L78375 77058
L78403 77030
L78459 77002
L78572 77002
L78628 77030
" />
<path d="M79528 77620
L79500 77592
L79444 77508
L79415 77452
L79387 77367
L79359 77227
L79359 77114
L79387 76974
L79415 76889
L79444 76833
L79500 76749
L79528 76721
" />
<path d="M80006 77395
L80006 77086
L79978 77030
L79922 77002
L79809 77002
L79753 77030
" />
<path d="M80006 77367
L79950 77395
L79809 77395
L79753 77367
L79725 77311
L79725 77255
L79753 77199
L79809 77171
L79950 77171
L80006 77142
" />
<path d="M80203 77002
L80428 77002
" />
<path d="M80287 77395
L80287 76889
L80315 76833
L80372 76805
L80428 76805
" />
<path d="M80540 77002
L80765 77002
" />
<path d="M80625 76805
L80625 77311
L80653 77367
L80709 77395
L80765 77395
" />
<path d="M81187 77367
L81131 77395
L81018 77395
L80962 77367
L80934 77311
L80934 77086
L80962 77030
L81018 77002
L81131 77002
L81187 77030
L81215 77086
L81215 77142
L80934 77199
" />
<path d="M81468 77395
L81468 77002
" />
<path d="M81468 77114
L81496 77058
L81525 77030
L81581 77002
L81637 77002
" />
<path d="M82256 76861
L82284 76833
L82340 76805
L82481 76805
L82537 76833
L82565 76861
L82593 76917
L82593 76974
L82565 77058
L82228 77395
L82593 77395
" />
<path d="M82959 76805
L83015 76805
L83071 76833
L83099 76861
L83127 76917
L83156 77030
L83156 77171
L83127 77283
L83099 77339
L83071 77367
L83015 77395
L82959 77395
L82903 77367
L82874 77339
L82846 77283
L82818 77171
L82818 77030
L82846 76917
L82874 76861
L82903 76833
L82959 76805
" />
<path d="M83718 77395
L83381 77395
" />
<path d="M83549 77395
L83549 76805
L83493 76889
L83437 76946
L83381 76974
" />
<path d="M84252 76805
L83971 76805
L83943 77086
L83971 77058
L84027 77030
L84168 77030
L84224 77058
L84252 77086
L84280 77142
L84280 77283
L84252 77339
L84224 77367
L84168 77395
L84027 77395
L83971 77367
L83943 77339
" />
<path d="M84534 77171
L84983 77171
" />
<path d="M85265 77002
L85265 77508
L85237 77564
L85180 77592
L85152 77592
" />
<path d="M85265 76805
L85237 76833
L85265 76861
L85293 76833
L85265 76805
L85265 76861
" />
<path d="M85799 77395
L85799 77086
L85771 77030
L85715 77002
L85602 77002
L85546 77030
" />
<path d="M85799 77367
L85743 77395
L85602 77395
L85546 77367
L85518 77311
L85518 77255
L85546 77199
L85602 77171
L85743 77171
L85799 77142
" />
<path d="M86080 77002
L86080 77395
" />
<path d="M86080 77058
L86108 77030
L86165 77002
L86249 77002
L86305 77030
L86333 77086
L86333 77395
" />
<path d="M86615 77171
L87064 77171
" />
<path d="M87655 77395
L87318 77395
" />
<path d="M87486 77395
L87486 76805
L87430 76889
L87374 76946
L87318 76974
" />
<path d="M88161 76805
L88049 76805
L87992 76833
L87964 76861
L87908 76946
L87880 77058
L87880 77283
L87908 77339
L87936 77367
L87992 77395
L88105 77395
L88161 77367
L88189 77339
L88217 77283
L88217 77142
L88189 77086
L88161 77058
L88105 77030
L87992 77030
L87936 77058
L87908 77086
L87880 77142
" />
<path d="M89117 77086
L89202 77114
L89230 77142
L89258 77199
L89258 77283
L89230 77339
L89202 77367
L89145 77395
L88921 77395
L88921 76805
L89117 76805
L89174 76833
L89202 76861
L89230 76917
L89230 76974
L89202 77030
L89174 77058
L89117 77086
L88921 77086
" />
<path d="M89455 76805
L89849 76805
L89455 77395
L89849 77395
" />
<path d="M90411 77395
L90214 77114
" />
<path d="M90073 77395
L90073 76805
L90298 76805
L90355 76833
L90383 76861
L90411 76917
L90411 77002
L90383 77058
L90355 77086
L90298 77114
L90073 77114
" />
<path d="M91367 77002
L91367 77395
" />
<path d="M91114 77002
L91114 77311
L91142 77367
L91198 77395
L91283 77395
L91339 77367
L91367 77339
" />
<path d="M91648 77002
L91648 77395
" />
<path d="M91648 77058
L91676 77030
L91733 77002
L91817 77002
L91873 77030
L91901 77086
L91901 77395
" />
<path d="M92183 77395
L92183 76805
" />
<path d="M92239 77171
L92408 77395
" />
<path d="M92408 77002
L92183 77227
" />
<path d="M92661 77002
L92661 77395
" />
<path d="M92661 77058
L92689 77030
L92745 77002
L92829 77002
L92886 77030
L92914 77086
L92914 77395
" />
<path d="M93279 77395
L93223 77367
L93195 77339
L93167 77283
L93167 77114
L93195 77058
L93223 77030
L93279 77002
L93364 77002
L93420 77030
L93448 77058
L93476 77114
L93476 77283
L93448 77339
L93420 77367
L93364 77395
L93279 77395
" />
<path d="M93673 77002
L93786 77395
L93898 77114
L94010 77395
L94123 77002
" />
<path d="M94348 77002
L94348 77395
" />
<path d="M94348 77058
L94376 77030
L94432 77002
L94517 77002
L94573 77030
L94601 77086
L94601 77395
" />
<path d="M94826 77620
L94854 77592
L94910 77508
L94938 77452
L94967 77367
L94995 77227
L94995 77114
L94967 76974
L94938 76889
L94910 76833
L94854 76749
L94826 76721
" />
<path d="M95276 77171
L95726 77171
" />
<path d="M96007 77002
L96007 77592
" />
<path d="M96007 77030
L96063 77002
L96176 77002
L96232 77030
L96260 77058
L96288 77114
L96288 77283
L96260 77339
L96232 77367
L96176 77395
L96063 77395
L96007 77367
" />
<path d="M96541 77395
L96541 77002
" />
<path d="M96541 77114
L96570 77058
L96598 77030
L96654 77002
L96710 77002
" />
<path d="M96991 77395
L96935 77367
L96907 77339
L96879 77283
L96879 77114
L96907 77058
L96935 77030
L96991 77002
L97076 77002
L97132 77030
L97160 77058
L97188 77114
L97188 77283
L97160 77339
L97132 77367
L97076 77395
L96991 77395
" />
<path d="M97694 77395
L97694 76805
" />
<path d="M97694 77367
L97638 77395
L97526 77395
L97469 77367
L97441 77339
L97413 77283
L97413 77114
L97441 77058
L97469 77030
L97526 77002
L97638 77002
L97694 77030
" />
<path d="M98229 77002
L98229 77395
" />
<path d="M97976 77002
L97976 77311
L98004 77367
L98060 77395
L98144 77395
L98201 77367
L98229 77339
" />
<path d="M98763 77367
L98707 77395
L98594 77395
L98538 77367
L98510 77339
L98482 77283
L98482 77114
L98510 77058
L98538 77030
L98594 77002
L98707 77002
L98763 77030
" />
<path d="M98932 77002
L99157 77002
" />
<path d="M99016 76805
L99016 77311
L99044 77367
L99100 77395
L99157 77395
" />
</g>
<g style="fill:#000000; fill-opacity:0.0; 
stroke:#000000; stroke-width:39.3701; stroke-opacity:1; 
stroke-linecap:round; stroke-linejoin:round;">
</g>
<g style="fill:#000000; fill-opacity:0.0; 
stroke:#000000; stroke-width:59.0551; stroke-opacity:1; 
stroke-linecap:round; stroke-linejoin:round;">
<path d="M69685 75396
L112205 75396
" />
</g>
<g style="fill:#000000; fill-opacity:0.0; 
stroke:#000000; stroke-width:39.3701; stroke-opacity:1; 
stroke-linecap:round; stroke-linejoin:round;">
</g>
<g style="fill:#000000; fill-opacity:0.0; 
stroke:#000000; stroke-width:118.11; stroke-opacity:1; 
stroke-linecap:round; stroke-linejoin:round;">
<path d="M104022 76293
L103825 76012
" />
<path d="M103684 76293
L103684 75703
L103909 75703
L103965 75731
L103994 75759
L104022 75815
L104022 75899
L103994 75956
L103965 75984
L103909 76012
L103684 76012
" />
<path d="M104500 76265
L104444 76293
L104331 76293
L104275 76265
L104247 76209
L104247 75984
L104275 75928
L104331 75899
L104444 75899
L104500 75928
L104528 75984
L104528 76040
L104247 76096
" />
<path d="M104725 75899
L104865 76293
L105006 75899
" />
<path d="M105231 76237
L105259 76265
L105231 76293
L105203 76265
L105231 76237
L105231 76293
" />
<path d="M105231 75928
L105259 75956
L105231 75984
L105203 75956
L105231 75928
L105231 75984
" />
<path d="M106271 76293
L105934 76293
" />
<path d="M106103 76293
L106103 75703
L106046 75787
L105990 75843
L105934 75871
" />
<path d="M106637 75703
L106693 75703
L106750 75731
L106778 75759
L106806 75815
L106834 75928
L106834 76068
L106806 76181
L106778 76237
L106750 76265
L106693 76293
L106637 76293
L106581 76265
L106553 76237
L106525 76181
L106496 76068
L106496 75928
L106525 75815
L106553 75759
L106581 75731
L106637 75703
" />
<path d="M107396 76293
L107059 76293
" />
<path d="M107228 76293
L107228 75703
L107171 75787
L107115 75843
L107059 75871
" />
</g>
<g style="fill:#000000; fill-opacity:0.0; 
stroke:#000000; stroke-width:39.3701; stroke-opacity:1; 
stroke-linecap:round; stroke-linejoin:round;">
</g>
<g style="fill:#000000; fill-opacity:0.0; 
stroke:#000000; stroke-width:59.0551; stroke-opacity:1; 
stroke-linecap:round; stroke-linejoin:round;">
<path d="M70192 76265
L70276 76293
L70417 76293
L70473 76265
L70501 76237
L70529 76181
L70529 76124
L70501 76068
L70473 76040
L70417 76012
L70304 75984
L70248 75956
L70220 75928
L70192 75871
L70192 75815
L70220 75759
L70248 75731
L70304 75703
L70445 75703
L70529 75731
" />
<path d="M70782 76293
L70782 75899
" />
<path d="M70782 75703
L70754 75731
L70782 75759
L70810 75731
L70782 75703
L70782 75759
" />
<path d="M71007 75899
L71316 75899
L71007 76293
L71316 76293
" />
<path d="M71766 76265
L71710 76293
L71598 76293
L71541 76265
L71513 76209
L71513 75984
L71541 75928
L71598 75899
L71710 75899
L71766 75928
L71795 75984
L71795 76040
L71513 76096
" />
<path d="M72048 76237
L72076 76265
L72048 76293
L72019 76265
L72048 76237
L72048 76293
" />
<path d="M72048 75928
L72076 75956
L72048 75984
L72019 75956
L72048 75928
L72048 75984
" />
<path d="M72751 76124
L73032 76124
" />
<path d="M72694 76293
L72891 75703
L73088 76293
" />
<path d="M73538 75899
L73538 76293
" />
<path d="M73397 75674
L73257 76096
L73622 76096
" />
</g>
<g style="fill:#000000; fill-opacity:0.0; 
stroke:#000000; stroke-width:39.3701; stroke-opacity:1; 
stroke-linecap:round; stroke-linejoin:round;">
</g>
<g style="fill:#000000; fill-opacity:0.0; 
stroke:#000000; stroke-width:59.0551; stroke-opacity:1; 
stroke-linecap:round; stroke-linejoin:round;">
<path d="M103684 77395
L103684 76805
" />
<path d="M104219 77395
L104219 76805
" />
<path d="M104219 77367
L104162 77395
L104050 77395
L103994 77367
L103965 77339
L103937 77283
L103937 77114
L103965 77058
L103994 77030
L104050 77002
L104162 77002
L104219 77030
" />
<path d="M104500 77339
L104528 77367
L104500 77395
L104472 77367
L104500 77339
L104500 77395
" />
<path d="M104500 77030
L104528 77058
L104500 77086
L104472 77058
L104500 77030
L104500 77086
" />
<path d="M105540 77395
L105203 77395
" />
<path d="M105372 77395
L105372 76805
L105315 76889
L105259 76946
L105203 76974
" />
<path d="M106215 76777
L105709 77536
" />
<path d="M106721 77395
L106384 77395
" />
<path d="M106553 77395
L106553 76805
L106496 76889
L106440 76946
L106384 76974
" />
</g>
<g style="fill:#000000; fill-opacity:0.0; 
stroke:#000000; stroke-width:39.3701; stroke-opacity:1; 
stroke-linecap:round; stroke-linejoin:round;">
</g>
<g style="fill:#000000; fill-opacity:0.0; 
stroke:#000000; stroke-width:59.0551; stroke-opacity:1; 
stroke-linecap:round; stroke-linejoin:round;">
<path d="M69685 73821
L112205 73821
" />
</g>
<g style="fill:#000000; fill-opacity:0.0; 
stroke:#000000; stroke-width:39.3701; stroke-opacity:1; 
stroke-linecap:round; stroke-linejoin:round;">
</g>
<g style="fill:#000000; fill-opacity:0.0; 
stroke:#000000; stroke-width:157.48; stroke-opacity:1; 
stroke-linecap:round; stroke-linejoin:round;">
<path d="M70257 74099
L70707 74099
" />
<path d="M70384 74886
L70482 74099
" />
<path d="M70871 74886
L70937 74361
" />
<path d="M70970 74099
L70927 74136
L70960 74174
L71002 74136
L70970 74099
L70960 74174
" />
<path d="M71199 74361
L71499 74361
" />
<path d="M71345 74099
L71260 74774
L71288 74849
L71359 74886
L71434 74886
" />
<path d="M71809 74886
L71738 74849
L71710 74774
L71795 74099
" />
<path d="M72413 74849
L72334 74886
L72184 74886
L72113 74849
L72085 74774
L72123 74474
L72169 74399
L72249 74361
L72399 74361
L72469 74399
L72498 74474
L72488 74549
L72104 74624
" />
<path d="M72793 74811
L72826 74849
L72783 74886
L72751 74849
L72793 74811
L72783 74886
" />
<path d="M72844 74399
L72877 74436
L72835 74474
L72802 74436
L72844 74399
L72835 74474
" />
<path d="M73758 74886
L73824 74361
" />
<path d="M73857 74099
L73815 74136
L73847 74174
L73890 74136
L73857 74099
L73847 74174
" />
<path d="M74639 74136
L74569 74099
L74457 74099
L74340 74136
L74255 74211
L74208 74286
L74152 74436
L74138 74549
L74157 74699
L74185 74774
L74250 74849
L74358 74886
L74433 74886
L74550 74849
L74593 74811
L74625 74549
L74475 74549
" />
<path d="M74921 74886
L74986 74361
" />
<path d="M74968 74511
L75014 74436
L75057 74399
L75136 74361
L75211 74361
" />
<path d="M75521 74886
L75450 74849
L75418 74811
L75389 74736
L75418 74511
L75464 74436
L75507 74399
L75586 74361
L75699 74361
L75769 74399
L75802 74436
L75830 74511
L75802 74736
L75755 74811
L75713 74849
L75633 74886
L75521 74886
" />
<path d="M76111 74361
L76196 74886
L76392 74511
L76495 74886
L76711 74361
" />
<path d="M77545 74886
L77644 74099
L77995 74886
L78094 74099
" />
<path d="M78483 74886
L78412 74849
L78380 74811
L78352 74736
L78380 74511
L78427 74436
L78469 74399
L78548 74361
L78661 74361
L78731 74399
L78764 74436
L78792 74511
L78764 74736
L78717 74811
L78675 74849
L78595 74886
L78483 74886
" />
<path d="M79083 74886
L79148 74361
" />
<path d="M79130 74511
L79176 74436
L79219 74399
L79298 74361
L79373 74361
" />
<path d="M79908 74886
L80006 74099
" />
<path d="M79912 74849
L79833 74886
L79683 74886
L79612 74849
L79579 74811
L79551 74736
L79579 74511
L79626 74436
L79669 74399
L79748 74361
L79898 74361
L79968 74399
" />
<path d="M80283 74886
L80348 74361
" />
<path d="M80381 74099
L80339 74136
L80372 74174
L80414 74136
L80381 74099
L80372 74174
" />
<path d="M81000 74849
L80920 74886
L80770 74886
L80700 74849
L80667 74811
L80639 74736
L80667 74511
L80714 74436
L80756 74399
L80836 74361
L80986 74361
L81056 74399
" />
<path d="M81998 74361
L81932 74886
" />
<path d="M81989 74436
L82031 74399
L82110 74361
L82223 74361
L82293 74399
L82321 74474
L82270 74886
" />
<path d="M83095 74886
L82879 74511
" />
<path d="M82645 74886
L82743 74099
L83043 74099
L83113 74136
L83146 74174
L83174 74249
L83160 74361
L83113 74436
L83071 74474
L82992 74511
L82692 74511
" />
<path d="M83746 74474
L83484 74474
" />
<path d="M83432 74886
L83531 74099
L83906 74099
" />
<path d="M84580 74099
L84205 74099
L84121 74474
L84163 74436
L84243 74399
L84430 74399
L84501 74436
L84534 74474
L84562 74549
L84538 74736
L84491 74811
L84449 74849
L84370 74886
L84182 74886
L84112 74849
L84079 74811
" />
<path d="M85269 74886
L84819 74886
" />
<path d="M85044 74886
L85143 74099
L85054 74211
L84969 74286
L84890 74324
" />
<path d="M85776 74436
L85705 74399
L85672 74361
L85644 74286
L85649 74249
L85696 74174
L85738 74136
L85818 74099
L85968 74099
L86038 74136
L86071 74174
L86099 74249
L86094 74286
L86047 74361
L86005 74399
L85926 74436
L85776 74436
L85696 74474
L85654 74511
L85607 74586
L85588 74736
L85616 74811
L85649 74849
L85719 74886
L85869 74886
L85949 74849
L85991 74811
L86038 74736
L86057 74586
L86029 74511
L85996 74474
L85926 74436
" />
<path d="M86408 74174
L86450 74136
L86530 74099
L86718 74099
L86788 74136
L86821 74174
L86849 74249
L86840 74324
L86788 74436
L86282 74886
L86769 74886
" />
<path d="M87158 74174
L87200 74136
L87280 74099
L87468 74099
L87538 74136
L87571 74174
L87599 74249
L87589 74324
L87538 74436
L87032 74886
L87519 74886
" />
<path d="M88456 74886
L88555 74099
L88906 74886
L89005 74099
" />
<path d="M89394 74886
L89324 74849
L89291 74811
L89263 74736
L89291 74511
L89338 74436
L89380 74399
L89459 74361
L89572 74361
L89642 74399
L89675 74436
L89703 74511
L89675 74736
L89628 74811
L89586 74849
L89506 74886
L89394 74886
" />
<path d="M90331 74886
L90430 74099
" />
<path d="M90336 74849
L90256 74886
L90106 74886
L90036 74849
L90003 74811
L89975 74736
L90003 74511
L90050 74436
L90092 74399
L90172 74361
L90322 74361
L90392 74399
" />
<path d="M91011 74849
L90931 74886
L90781 74886
L90711 74849
L90683 74774
L90720 74474
L90767 74399
L90847 74361
L90997 74361
L91067 74399
L91095 74474
L91086 74549
L90702 74624
" />
</g>
<g style="fill:#000000; fill-opacity:0.0; 
stroke:#000000; stroke-width:39.3701; stroke-opacity:1; 
stroke-linecap:round; stroke-linejoin:round;">
</g>
<g style="fill:#000000; fill-opacity:0.0; 
stroke:#000000; stroke-width:59.0551; stroke-opacity:1; 
stroke-linecap:round; stroke-linejoin:round;">
<path d="M70417 73070
L70220 73070
" />
<path d="M70220 73380
L70220 72789
L70501 72789
" />
<path d="M70726 73380
L70726 72986
" />
<path d="M70726 72789
L70698 72817
L70726 72845
L70754 72817
L70726 72789
L70726 72845
" />
<path d="M71091 73380
L71035 73352
L71007 73295
L71007 72789
" />
<path d="M71541 73352
L71485 73380
L71373 73380
L71316 73352
L71288 73295
L71288 73070
L71316 73014
L71373 72986
L71485 72986
L71541 73014
L71570 73070
L71570 73127
L71288 73183
" />
<path d="M71823 73323
L71851 73352
L71823 73380
L71795 73352
L71823 73323
L71823 73380
" />
<path d="M71823 73014
L71851 73042
L71823 73070
L71795 73042
L71823 73014
L71823 73070
" />
<path d="M72554 73380
L72554 72986
" />
<path d="M72554 72789
L72526 72817
L72554 72845
L72582 72817
L72554 72789
L72554 72845
" />
<path d="M73088 72986
L73088 73464
L73060 73520
L73032 73548
L72976 73577
L72891 73577
L72835 73548
" />
<path d="M73088 73352
L73032 73380
L72919 73380
L72863 73352
L72835 73323
L72807 73267
L72807 73099
L72835 73042
L72863 73014
L72919 72986
L73032 72986
L73088 73014
" />
<path d="M73369 73380
L73369 72986
" />
<path d="M73369 73099
L73397 73042
L73426 73014
L73482 72986
L73538 72986
" />
<path d="M73819 73380
L73763 73352
L73735 73323
L73707 73267
L73707 73099
L73735 73042
L73763 73014
L73819 72986
L73904 72986
L73960 73014
L73988 73042
L74016 73099
L74016 73267
L73988 73323
L73960 73352
L73904 73380
L73819 73380
" />
<path d="M74213 72986
L74325 73380
L74438 73099
L74550 73380
L74663 72986
" />
<path d="M74888 73155
L75338 73155
" />
<path d="M75928 73380
L75591 73380
" />
<path d="M75760 73380
L75760 72789
L75703 72874
L75647 72930
L75591 72958
" />
<path d="M76294 72789
L76350 72789
L76406 72817
L76435 72845
L76463 72902
L76491 73014
L76491 73155
L76463 73267
L76435 73323
L76406 73352
L76350 73380
L76294 73380
L76238 73352
L76210 73323
L76181 73267
L76153 73155
L76153 73014
L76181 72902
L76210 72845
L76238 72817
L76294 72789
" />
<path d="M77053 73380
L76716 73380
" />
<path d="M76885 73380
L76885 72789
L76828 72874
L76772 72930
L76716 72958
" />
<path d="M77306 73323
L77334 73352
L77306 73380
L77278 73352
L77306 73323
L77306 73380
" />
<path d="M77588 73380
L77588 72789
" />
<path d="M77644 73155
L77813 73380
" />
<path d="M77813 72986
L77588 73211
" />
<path d="M78066 73380
L78066 72986
" />
<path d="M78066 72789
L78037 72817
L78066 72845
L78094 72817
L78066 72789
L78066 72845
" />
<path d="M78600 73352
L78544 73380
L78431 73380
L78375 73352
L78347 73323
L78319 73267
L78319 73099
L78347 73042
L78375 73014
L78431 72986
L78544 72986
L78600 73014
" />
<path d="M79106 73380
L79106 73070
L79078 73014
L79022 72986
L78909 72986
L78853 73014
" />
<path d="M79106 73352
L79050 73380
L78909 73380
L78853 73352
L78825 73295
L78825 73239
L78853 73183
L78909 73155
L79050 73155
L79106 73127
" />
<path d="M79640 73380
L79640 72789
" />
<path d="M79640 73352
L79584 73380
L79472 73380
L79415 73352
L79387 73323
L79359 73267
L79359 73099
L79387 73042
L79415 73014
L79472 72986
L79584 72986
L79640 73014
" />
<path d="M79781 73436
L80231 73436
" />
<path d="M80372 72986
L80372 73577
" />
<path d="M80372 73014
L80428 72986
L80540 72986
L80597 73014
L80625 73042
L80653 73099
L80653 73267
L80625 73323
L80597 73352
L80540 73380
L80428 73380
L80372 73352
" />
<path d="M81159 73352
L81103 73380
L80990 73380
L80934 73352
L80906 73323
L80878 73267
L80878 73099
L80906 73042
L80934 73014
L80990 72986
L81103 72986
L81159 73014
" />
<path d="M81412 73380
L81412 72789
" />
<path d="M81412 73014
L81468 72986
L81581 72986
L81637 73014
L81665 73042
L81693 73099
L81693 73267
L81665 73323
L81637 73352
L81581 73380
L81468 73380
L81412 73352
" />
</g>
<g style="fill:#000000; fill-opacity:0.0; 
stroke:#000000; stroke-width:39.3701; stroke-opacity:1; 
stroke-linecap:round; stroke-linejoin:round;">
</g>
<g style="fill:#000000; fill-opacity:0.0; 
stroke:#000000; stroke-width:59.0551; stroke-opacity:1; 
stroke-linecap:round; stroke-linejoin:round;">
<path d="M69685 71459
L112205 71459
" />
</g>
<g style="fill:#000000; fill-opacity:0.0; 
stroke:#000000; stroke-width:39.3701; stroke-opacity:1; 
stroke-linecap:round; stroke-linejoin:round;">
</g>
<g style="fill:#000000; fill-opacity:0.0; 
stroke:#000000; stroke-width:59.0551; stroke-opacity:1; 
stroke-linecap:round; stroke-linejoin:round;">
<path d="M70192 72289
L70276 72317
L70417 72317
L70473 72289
L70501 72260
L70529 72204
L70529 72148
L70501 72092
L70473 72064
L70417 72036
L70304 72007
L70248 71979
L70220 71951
L70192 71895
L70192 71839
L70220 71782
L70248 71754
L70304 71726
L70445 71726
L70529 71754
" />
<path d="M70782 72317
L70782 71726
" />
<path d="M71035 72317
L71035 72007
L71007 71951
L70951 71923
L70867 71923
L70810 71951
L70782 71979
" />
<path d="M71541 72289
L71485 72317
L71373 72317
L71316 72289
L71288 72232
L71288 72007
L71316 71951
L71373 71923
L71485 71923
L71541 71951
L71570 72007
L71570 72064
L71288 72120
" />
<path d="M72048 72289
L71991 72317
L71879 72317
L71823 72289
L71795 72232
L71795 72007
L71823 71951
L71879 71923
L71991 71923
L72048 71951
L72076 72007
L72076 72064
L71795 72120
" />
<path d="M72244 71923
L72469 71923
" />
<path d="M72329 71726
L72329 72232
L72357 72289
L72413 72317
L72469 72317
" />
<path d="M72666 72260
L72694 72289
L72666 72317
L72638 72289
L72666 72260
L72666 72317
" />
<path d="M72666 71951
L72694 71979
L72666 72007
L72638 71979
L72666 71951
L72666 72007
" />
</g>
<g style="fill:#000000; fill-opacity:0.0; 
stroke:#000000; stroke-width:39.3701; stroke-opacity:1; 
stroke-linecap:round; stroke-linejoin:round;">
</g>
<g style="fill:#000000; fill-opacity:0.0; 
stroke:#000000; stroke-width:118.11; stroke-opacity:1; 
stroke-linecap:round; stroke-linejoin:round;">
<path d="M70192 70967
L70473 70967
" />
<path d="M70135 71136
L70332 70545
L70529 71136
" />
<path d="M70726 71136
L70726 70742
" />
<path d="M70726 70854
L70754 70798
L70782 70770
L70838 70742
L70895 70742
" />
<path d="M71345 70742
L71345 71220
L71316 71276
L71288 71304
L71232 71332
L71148 71332
L71091 71304
" />
<path d="M71345 71108
L71288 71136
L71176 71136
L71120 71108
L71091 71079
L71063 71023
L71063 70854
L71091 70798
L71120 70770
L71176 70742
L71288 70742
L71345 70770
" />
<path d="M71879 70742
L71879 71136
" />
<path d="M71626 70742
L71626 71051
L71654 71108
L71710 71136
L71795 71136
L71851 71108
L71879 71079
" />
<path d="M72132 71108
L72188 71136
L72301 71136
L72357 71108
L72385 71051
L72385 71023
L72357 70967
L72301 70939
L72216 70939
L72160 70911
L72132 70854
L72132 70826
L72160 70770
L72216 70742
L72301 70742
L72357 70770
" />
<path d="M72891 71136
L72891 70826
L72863 70770
L72807 70742
L72694 70742
L72638 70770
" />
<path d="M72891 71108
L72835 71136
L72694 71136
L72638 71108
L72610 71051
L72610 70995
L72638 70939
L72694 70911
L72835 70911
L72891 70883
" />
<path d="M73088 70742
L73313 70742
" />
<path d="M73172 70545
L73172 71051
L73201 71108
L73257 71136
L73313 71136
" />
<path d="M74241 71136
L73960 71136
L73960 70545
" />
<path d="M74438 71136
L74438 70742
" />
<path d="M74438 70545
L74410 70573
L74438 70601
L74466 70573
L74438 70545
L74438 70601
" />
<path d="M74719 71136
L74719 70742
" />
<path d="M74719 70798
L74747 70770
L74804 70742
L74888 70742
L74944 70770
L74972 70826
L74972 71136
" />
<path d="M74972 70826
L75000 70770
L75057 70742
L75141 70742
L75197 70770
L75225 70826
L75225 71136
" />
<path d="M75507 71136
L75507 70742
" />
<path d="M75507 70545
L75478 70573
L75507 70601
L75535 70573
L75507 70545
L75507 70601
" />
<path d="M75703 70742
L75928 70742
" />
<path d="M75788 70545
L75788 71051
L75816 71108
L75872 71136
L75928 71136
" />
<path d="M76350 71108
L76294 71136
L76181 71136
L76125 71108
L76097 71051
L76097 70826
L76125 70770
L76181 70742
L76294 70742
L76350 70770
L76378 70826
L76378 70883
L76097 70939
" />
<path d="M76885 71136
L76885 70545
" />
<path d="M76885 71108
L76828 71136
L76716 71136
L76660 71108
L76631 71079
L76603 71023
L76603 70854
L76631 70798
L76660 70770
L76716 70742
L76828 70742
L76885 70770
" />
</g>
<g style="fill:#000000; fill-opacity:0.0; 
stroke:#000000; stroke-width:39.3701; stroke-opacity:1; 
stroke-linecap:round; stroke-linejoin:round;">
</g>
<g style="fill:#000000; fill-opacity:0.0; 
stroke:#000000; stroke-width:59.0551; stroke-opacity:1; 
stroke-linecap:round; stroke-linejoin:round;">
<path d="M70557 69955
L70360 69673
" />
<path d="M70220 69955
L70220 69364
L70445 69364
L70501 69392
L70529 69420
L70557 69476
L70557 69561
L70529 69617
L70501 69645
L70445 69673
L70220 69673
" />
<path d="M71035 69926
L70979 69955
L70867 69955
L70810 69926
L70782 69870
L70782 69645
L70810 69589
L70867 69561
L70979 69561
L71035 69589
L71063 69645
L71063 69701
L70782 69758
" />
<path d="M71288 69926
L71345 69955
L71457 69955
L71513 69926
L71541 69870
L71541 69842
L71513 69786
L71457 69758
L71373 69758
L71316 69730
L71288 69673
L71288 69645
L71316 69589
L71373 69561
L71457 69561
L71513 69589
" />
<path d="M72019 69926
L71963 69955
L71851 69955
L71795 69926
L71766 69870
L71766 69645
L71795 69589
L71851 69561
L71963 69561
L72019 69589
L72048 69645
L72048 69701
L71766 69758
" />
<path d="M72554 69955
L72554 69645
L72526 69589
L72469 69561
L72357 69561
L72301 69589
" />
<path d="M72554 69926
L72498 69955
L72357 69955
L72301 69926
L72273 69870
L72273 69814
L72301 69758
L72357 69730
L72498 69730
L72554 69701
" />
<path d="M72835 69955
L72835 69561
" />
<path d="M72835 69673
L72863 69617
L72891 69589
L72947 69561
L73004 69561
" />
<path d="M73454 69926
L73397 69955
L73285 69955
L73229 69926
L73201 69898
L73172 69842
L73172 69673
L73201 69617
L73229 69589
L73285 69561
L73397 69561
L73454 69589
" />
<path d="M73707 69955
L73707 69364
" />
<path d="M73960 69955
L73960 69645
L73932 69589
L73876 69561
L73791 69561
L73735 69589
L73707 69617
" />
<path d="M74944 69955
L74944 69645
L74916 69589
L74860 69561
L74747 69561
L74691 69589
" />
<path d="M74944 69926
L74888 69955
L74747 69955
L74691 69926
L74663 69870
L74663 69814
L74691 69758
L74747 69730
L74888 69730
L74944 69701
" />
<path d="M75225 69561
L75225 69955
" />
<path d="M75225 69617
L75253 69589
L75310 69561
L75394 69561
L75450 69589
L75478 69645
L75478 69955
" />
<path d="M76013 69955
L76013 69364
" />
<path d="M76013 69926
L75956 69955
L75844 69955
L75788 69926
L75760 69898
L75732 69842
L75732 69673
L75760 69617
L75788 69589
L75844 69561
L75956 69561
L76013 69589
" />
<path d="M76744 69955
L76744 69364
L76885 69364
L76969 69392
L77025 69448
L77053 69505
L77081 69617
L77081 69701
L77053 69814
L77025 69870
L76969 69926
L76885 69955
L76744 69955
" />
<path d="M77559 69926
L77503 69955
L77391 69955
L77334 69926
L77306 69870
L77306 69645
L77334 69589
L77391 69561
L77503 69561
L77559 69589
L77588 69645
L77588 69701
L77306 69758
" />
<path d="M77784 69561
L77925 69955
L78066 69561
" />
<path d="M78516 69926
L78459 69955
L78347 69955
L78291 69926
L78262 69870
L78262 69645
L78291 69589
L78347 69561
L78459 69561
L78516 69589
L78544 69645
L78544 69701
L78262 69758
" />
<path d="M78881 69955
L78825 69926
L78797 69870
L78797 69364
" />
<path d="M79190 69955
L79134 69926
L79106 69898
L79078 69842
L79078 69673
L79106 69617
L79134 69589
L79190 69561
L79275 69561
L79331 69589
L79359 69617
L79387 69673
L79387 69842
L79359 69898
L79331 69926
L79275 69955
L79190 69955
" />
<path d="M79640 69561
L79640 70151
" />
<path d="M79640 69589
L79697 69561
L79809 69561
L79865 69589
L79894 69617
L79922 69673
L79922 69842
L79894 69898
L79865 69926
L79809 69955
L79697 69955
L79640 69926
" />
<path d="M80175 69955
L80175 69561
" />
<path d="M80175 69617
L80203 69589
L80259 69561
L80343 69561
L80400 69589
L80428 69645
L80428 69955
" />
<path d="M80428 69645
L80456 69589
L80512 69561
L80597 69561
L80653 69589
L80681 69645
L80681 69955
" />
<path d="M81187 69926
L81131 69955
L81018 69955
L80962 69926
L80934 69870
L80934 69645
L80962 69589
L81018 69561
L81131 69561
L81187 69589
L81215 69645
L81215 69701
L80934 69758
" />
<path d="M81468 69561
L81468 69955
" />
<path d="M81468 69617
L81496 69589
L81553 69561
L81637 69561
L81693 69589
L81721 69645
L81721 69955
" />
<path d="M81918 69561
L82143 69561
" />
<path d="M82003 69364
L82003 69870
L82031 69926
L82087 69955
L82143 69955
" />
</g>
<g style="fill:#000000; fill-opacity:0.0; 
stroke:#000000; stroke-width:39.3701; stroke-opacity:1; 
stroke-linecap:round; stroke-linejoin:round;">
</g>
<g style="fill:#000000; fill-opacity:0.0; 
stroke:#000000; stroke-width:59.0551; stroke-opacity:1; 
stroke-linecap:round; stroke-linejoin:round;">
<path d="M77559 75396
L77559 76577
" />
</g>
<g style="fill:#000000; fill-opacity:0.0; 
stroke:#000000; stroke-width:39.3701; stroke-opacity:1; 
stroke-linecap:round; stroke-linejoin:round;">
</g>
<g style="fill:#000000; fill-opacity:0.0; 
stroke:#000000; stroke-width:59.0551; stroke-opacity:1; 
stroke-linecap:round; stroke-linejoin:round;">
<path d="M102756 75396
L102756 77955
" />
</g>
<g style="fill:#C2C200; fill-opacity:0.0; 
stroke:#C2C200; stroke-width:59.0551; stroke-opacity:1; 
stroke-linecap:round; stroke-linejoin:round;">
<circle cx="53000" cy="51000" r="656.168" /> 
<path d="M52015 51000
L53984 51000
" />
<path d="M53000 50015
L53000 51984
" />
<circle cx="70000" cy="51000" r="656.168" /> 
<path d="M69015 51000
L70984 51000
" />
<path d="M70000 50015
L70000 51984
" />
<circle cx="70000" cy="38000" r="656.168" /> 
<path d="M69015 38000
L70984 38000
" />
<path d="M70000 37015
L70000 38984
" />
</g>
<g style="fill:#840000; fill-opacity:0.0; 
stroke:#840000; stroke-width:27.5591; stroke-opacity:1; 
stroke-linecap:round; stroke-linejoin:round;">
<path d="M52487 48723
L52356 48723
" />
<path d="M52290 48723
L52300 48732
L52309 48723
L52300 48713
L52290 48723
L52309 48723
" />
<path d="M52300 48526
L52290 48545
L52290 48573
L52300 48601
L52318 48620
L52337 48629
L52374 48638
L52403 48638
L52440 48629
L52459 48620
L52478 48601
L52487 48573
L52487 48554
L52478 48526
L52468 48517
L52403 48517
L52403 48554
" />
<path d="M52487 48432
L52356 48432
" />
<path d="M52393 48432
L52374 48423
L52365 48413
L52356 48395
L52356 48376
" />
<path d="M52487 48282
L52478 48301
L52468 48310
L52449 48320
L52393 48320
L52374 48310
L52365 48301
L52356 48282
L52356 48254
L52365 48235
L52374 48226
L52393 48217
L52449 48217
L52468 48226
L52478 48235
L52487 48254
L52487 48282
" />
<path d="M52356 48151
L52487 48113
L52393 48076
L52487 48038
L52356 48001
" />
<path d="M52487 47673
L52487 47785
" />
<path d="M52487 47729
L52290 47729
L52318 47748
L52337 47767
L52346 47785
" />
<path d="M52290 47551
L52290 47532
L52300 47514
L52309 47504
L52328 47495
L52365 47485
L52412 47485
L52449 47495
L52468 47504
L52478 47514
L52487 47532
L52487 47551
L52478 47570
L52468 47579
L52449 47589
L52412 47598
L52365 47598
L52328 47589
L52309 47579
L52300 47570
L52290 47551
" />
<path d="M52487 47298
L52487 47410
" />
<path d="M52487 47354
L52290 47354
L52318 47373
L52337 47392
L52346 47410
" />
<path d="M52356 47064
L52487 47064
" />
<path d="M52374 47064
L52365 47054
L52356 47035
L52356 47007
L52365 46989
L52384 46979
L52487 46979
" />
<path d="M52487 46773
L52393 46839
" />
<path d="M52487 46885
L52290 46885
L52290 46810
L52300 46792
L52309 46782
L52328 46773
L52356 46773
L52374 46782
L52384 46792
L52393 46810
L52393 46885
" />
<path d="M52384 46623
L52384 46689
" />
<path d="M52487 46689
L52290 46689
L52290 46595
" />
<path d="M52290 46426
L52290 46520
L52384 46529
L52374 46520
L52365 46501
L52365 46454
L52374 46436
L52384 46426
L52403 46417
L52449 46417
L52468 46426
L52478 46436
L52487 46454
L52487 46501
L52478 46520
L52468 46529
" />
<path d="M52487 46229
L52487 46342
" />
<path d="M52487 46286
L52290 46286
L52318 46304
L52337 46323
L52346 46342
" />
<path d="M52374 46117
L52365 46136
L52356 46145
L52337 46154
L52328 46154
L52309 46145
L52300 46136
L52290 46117
L52290 46079
L52300 46061
L52309 46051
L52328 46042
L52337 46042
L52356 46051
L52365 46061
L52374 46079
L52374 46117
L52384 46136
L52393 46145
L52412 46154
L52449 46154
L52468 46145
L52478 46136
L52487 46117
L52487 46079
L52478 46061
L52468 46051
L52449 46042
L52412 46042
L52393 46051
L52384 46061
L52374 46079
" />
<path d="M52309 45967
L52300 45957
L52290 45939
L52290 45892
L52300 45873
L52309 45864
L52328 45854
L52346 45854
L52374 45864
L52487 45976
L52487 45854
" />
<path d="M52309 45779
L52300 45770
L52290 45751
L52290 45704
L52300 45686
L52309 45676
L52328 45667
L52346 45667
L52374 45676
L52487 45789
L52487 45667
" />
<path d="M52865 48995
L52856 49004
L52828 49023
L52809 49032
L52781 49041
L52734 49051
L52696 49051
L52650 49041
L52621 49032
L52603 49023
L52575 49004
L52565 48995
" />
<path d="M52781 48835
L52790 48854
L52790 48891
L52781 48910
L52771 48920
L52753 48929
L52696 48929
L52678 48920
L52668 48910
L52659 48891
L52659 48854
L52668 48835
" />
<path d="M52865 48770
L52856 48760
L52828 48741
L52809 48732
L52781 48723
L52734 48713
L52696 48713
L52650 48723
L52621 48732
L52603 48741
L52575 48760
L52565 48770
" />
<path d="M52612 48479
L52603 48470
L52593 48451
L52593 48404
L52603 48385
L52612 48376
L52631 48367
L52650 48367
L52678 48376
L52790 48488
L52790 48367
" />
<path d="M52593 48245
L52593 48226
L52603 48207
L52612 48198
L52631 48188
L52668 48179
L52715 48179
L52753 48188
L52771 48198
L52781 48207
L52790 48226
L52790 48245
L52781 48263
L52771 48273
L52753 48282
L52715 48292
L52668 48292
L52631 48282
L52612 48273
L52603 48263
L52593 48245
" />
<path d="M52790 47992
L52790 48104
" />
<path d="M52790 48048
L52593 48048
L52621 48067
L52640 48085
L52650 48104
" />
<path d="M52593 47813
L52593 47907
L52687 47917
L52678 47907
L52668 47888
L52668 47842
L52678 47823
L52687 47813
L52706 47804
L52753 47804
L52771 47813
L52781 47823
L52790 47842
L52790 47888
L52781 47907
L52771 47917
" />
<path d="M52734 47579
L52734 47485
" />
<path d="M52790 47598
L52593 47532
L52790 47467
" />
<path d="M52790 47401
L52659 47401
" />
<path d="M52696 47401
L52678 47392
L52668 47382
L52659 47364
L52659 47345
" />
<path d="M52659 47195
L52818 47195
L52837 47204
L52846 47214
L52856 47232
L52856 47260
L52846 47279
" />
<path d="M52781 47195
L52790 47214
L52790 47251
L52781 47270
L52771 47279
L52753 47289
L52696 47289
L52678 47279
L52668 47270
L52659 47251
L52659 47214
L52668 47195
" />
<path d="M52659 47017
L52790 47017
" />
<path d="M52659 47101
L52762 47101
L52781 47092
L52790 47073
L52790 47045
L52781 47026
L52771 47017
" />
<path d="M52781 46932
L52790 46914
L52790 46876
L52781 46857
L52762 46848
L52753 46848
L52734 46857
L52725 46876
L52725 46904
L52715 46923
L52696 46932
L52687 46932
L52668 46923
L52659 46904
L52659 46876
L52668 46857
" />
<path d="M52790 46679
L52687 46679
L52668 46689
L52659 46707
L52659 46745
L52668 46764
" />
<path d="M52781 46679
L52790 46698
L52790 46745
L52781 46764
L52762 46773
L52743 46773
L52725 46764
L52715 46745
L52715 46698
L52706 46679
" />
<path d="M52659 46614
L52659 46539
" />
<path d="M52593 46586
L52762 46586
L52781 46576
L52790 46557
L52790 46539
" />
<path d="M52790 46229
L52790 46323
L52593 46323
" />
<path d="M52790 46164
L52659 46164
" />
<path d="M52593 46164
L52603 46173
L52612 46164
L52603 46154
L52593 46164
L52612 46164
" />
<path d="M52790 46070
L52659 46070
" />
<path d="M52678 46070
L52668 46061
L52659 46042
L52659 46014
L52668 45995
L52687 45986
L52790 45986
" />
<path d="M52687 45986
L52668 45976
L52659 45957
L52659 45929
L52668 45911
L52687 45901
L52790 45901
" />
<path d="M52790 45807
L52659 45807
" />
<path d="M52593 45807
L52603 45817
L52612 45807
L52603 45798
L52593 45807
L52612 45807
" />
<path d="M52659 45742
L52659 45667
" />
<path d="M52593 45714
L52762 45714
L52781 45704
L52790 45686
L52790 45667
" />
<path d="M52781 45526
L52790 45545
L52790 45583
L52781 45601
L52762 45611
L52687 45611
L52668 45601
L52659 45583
L52659 45545
L52668 45526
L52687 45517
L52706 45517
L52725 45611
" />
<path d="M52790 45348
L52593 45348
" />
<path d="M52781 45348
L52790 45367
L52790 45404
L52781 45423
L52771 45433
L52753 45442
L52696 45442
L52678 45433
L52668 45423
L52659 45404
L52659 45367
L52668 45348
" />
</g>
<g style="fill:#C2C200; fill-opacity:0.0; 
stroke:#C2C200; stroke-width:59.0551; stroke-opacity:1; 
stroke-linecap:round; stroke-linejoin:round;">
<path d="M71300 52250
L51700 52250
" />
<path d="M71300 36700
L71300 52250
" />
<path d="M51700 36700
L71300 36700
" />
<path d="M51700 52250
L51700 36700
" />
<circle cx="53000" cy="38000" r="656.168" /> 
<path d="M52015 38000
L53984 38000
" />
<path d="M53000 37015
L53000 38984
" />
</g>
<g style="fill:#840000; fill-opacity:0.0; 
stroke:#840000; stroke-width:39.3701; stroke-opacity:1; 
stroke-linecap:round; stroke-linejoin:round;">
</g>
<g style="fill:#840000; fill-opacity:1.0; 
stroke:#840000; stroke-width:39.3701; stroke-opacity:1; 
stroke-linecap:round; stroke-linejoin:round;">
<polyline style="fill-rule:evenodd;"
points="57827,42090
57572,42090
57572,41657
57827,41657
57827,42090
" /> 
<polyline style="fill-rule:evenodd;"
points="57827,41342
57572,41342
57572,40909
57827,40909
57827,41342
" /> 
<polyline style="fill-rule:evenodd;"
points="57365,42670
59098,42670
59098,43929
57365,43929
57365,42670
" /> 
<polyline style="fill-rule:evenodd;"
points="53902,42670
55633,42670
55633,43929
53902,43929
53902,42670
" /> 
<polyline style="fill-rule:evenodd;"
points="56983,46470
57416,46470
57416,46903
56983,46903
56983,46470
" /> 
<polyline style="fill-rule:evenodd;"
points="56983,47296
57416,47296
57416,47729
56983,47729
56983,47296
" /> 
<polyline style="fill-rule:evenodd;"
points="57983,46470
58416,46470
58416,46903
57983,46903
57983,46470
" /> 
<polyline style="fill-rule:evenodd;"
points="57983,47296
58416,47296
58416,47729
57983,47729
57983,47296
" /> 
<polyline style="fill-rule:evenodd;"
points="54588,50825
54588,50156
54863,50156
54863,50825
54588,50825
" /> 
<polyline style="fill-rule:evenodd;"
points="55336,50825
55336,50156
55611,50156
55611,50825
55336,50825
" /> 
<polyline style="fill-rule:evenodd;"
points="54962,49643
54962,48974
55237,48974
55237,49643
54962,49643
" /> 
<polyline style="fill-rule:evenodd;"
points="56588,50825
56588,50156
56863,50156
56863,50825
56588,50825
" /> 
<polyline style="fill-rule:evenodd;"
points="57336,50825
57336,50156
57611,50156
57611,50825
57336,50825
" /> 
<polyline style="fill-rule:evenodd;"
points="56962,49643
56962,48974
57237,48974
57237,49643
56962,49643
" /> 
<polyline style="fill-rule:evenodd;"
points="58588,50825
58588,50156
58863,50156
58863,50825
58588,50825
" /> 
<polyline style="fill-rule:evenodd;"
points="59336,50825
59336,50156
59611,50156
59611,50825
59336,50825
" /> 
<polyline style="fill-rule:evenodd;"
points="58962,49643
58962,48974
59237,48974
59237,49643
58962,49643
" /> 
<polyline style="fill-rule:evenodd;"
points="63850,49857
63850,49542
64283,49542
64283,49857
63850,49857
" /> 
<polyline style="fill-rule:evenodd;"
points="64716,49857
64716,49542
65149,49542
65149,49857
64716,49857
" /> 
<polyline style="fill-rule:evenodd;"
points="63850,50557
63850,50242
64283,50242
64283,50557
63850,50557
" /> 
<polyline style="fill-rule:evenodd;"
points="64716,50557
64716,50242
65149,50242
65149,50557
64716,50557
" /> 
<polyline style="fill-rule:evenodd;"
points="63850,51257
63850,50942
64283,50942
64283,51257
63850,51257
" /> 
<polyline style="fill-rule:evenodd;"
points="64716,51257
64716,50942
65149,50942
65149,51257
64716,51257
" /> 
<polyline style="fill-rule:evenodd;"
points="55842,44450
56157,44450
56157,44883
55842,44883
55842,44450
" /> 
<polyline style="fill-rule:evenodd;"
points="55842,45316
56157,45316
56157,45749
55842,45749
55842,45316
" /> 
<polyline style="fill-rule:evenodd;"
points="55842,46450
56157,46450
56157,46883
55842,46883
55842,46450
" /> 
<polyline style="fill-rule:evenodd;"
points="55842,47316
56157,47316
56157,47749
55842,47749
55842,47316
" /> 
<polyline style="fill-rule:evenodd;"
points="57042,38450
57357,38450
57357,38883
57042,38883
57042,38450
" /> 
<polyline style="fill-rule:evenodd;"
points="57042,39316
57357,39316
57357,39749
57042,39749
57042,39316
" /> 
<polyline style="fill-rule:evenodd;"
points="58057,39749
57742,39749
57742,39316
58057,39316
58057,39749
" /> 
<polyline style="fill-rule:evenodd;"
points="58057,38883
57742,38883
57742,38450
58057,38450
58057,38883
" /> 
<polyline style="fill-rule:evenodd;"
points="57042,44500
57357,44500
57357,44933
57042,44933
57042,44500
" /> 
<polyline style="fill-rule:evenodd;"
points="57042,45366
57357,45366
57357,45799
57042,45799
57042,45366
" /> 
<polyline style="fill-rule:evenodd;"
points="58142,44750
58457,44750
58457,45183
58142,45183
58142,44750
" /> 
<polyline style="fill-rule:evenodd;"
points="58142,45616
58457,45616
58457,46049
58142,46049
58142,45616
" /> 
<polyline style="fill-rule:evenodd;"
points="65149,48842
65149,49157
64716,49157
64716,48842
65149,48842
" /> 
<polyline style="fill-rule:evenodd;"
points="64283,48842
64283,49157
63850,49157
63850,48842
64283,48842
" /> 
<polyline style="fill-rule:evenodd;"
points="65149,48142
65149,48457
64716,48457
64716,48142
65149,48142
" /> 
<polyline style="fill-rule:evenodd;"
points="64283,48142
64283,48457
63850,48457
63850,48142
64283,48142
" /> 
<circle cx="62500" cy="51000" r="280.315" /> 
<circle cx="60500" cy="51000" r="280.315" /> 
<circle cx="60500" cy="49000" r="280.315" /> 
<circle cx="62500" cy="49000" r="280.315" /> 
<circle cx="69500" cy="40700" r="177.165" /> 
<circle cx="69500" cy="41200" r="177.165" /> 
<circle cx="69500" cy="41700" r="177.165" /> 
<circle cx="69500" cy="42200" r="177.165" /> 
<circle cx="69500" cy="42700" r="177.165" /> 
<circle cx="69500" cy="43200" r="177.165" /> 
<circle cx="69500" cy="43700" r="177.165" /> 
<circle cx="69500" cy="44200" r="177.165" /> 
<circle cx="69500" cy="44700" r="177.165" /> 
<circle cx="69500" cy="45200" r="177.165" /> 
<circle cx="69500" cy="45700" r="177.165" /> 
<circle cx="69500" cy="46200" r="177.165" /> 
<circle cx="68500" cy="46450" r="177.165" /> 
<circle cx="68000" cy="46450" r="177.165" /> 
<circle cx="67500" cy="46450" r="177.165" /> 
<circle cx="67000" cy="46450" r="177.165" /> 
<circle cx="66500" cy="46450" r="177.165" /> 
<circle cx="66000" cy="46450" r="177.165" /> 
<circle cx="65500" cy="46450" r="177.165" /> 
<circle cx="65000" cy="46450" r="177.165" /> 
<circle cx="64500" cy="46450" r="177.165" /> 
<circle cx="64000" cy="46450" r="177.165" /> 
<circle cx="63500" cy="46450" r="177.165" /> 
<circle cx="63000" cy="46450" r="177.165" /> 
<circle cx="62000" cy="46200" r="177.165" /> 
<circle cx="62000" cy="45700" r="177.165" /> 
<circle cx="62000" cy="45200" r="177.165" /> 
<circle cx="62000" cy="44700" r="177.165" /> 
<circle cx="62000" cy="44200" r="177.165" /> 
<circle cx="62000" cy="43700" r="177.165" /> 
<circle cx="62000" cy="43200" r="177.165" /> 
<circle cx="62000" cy="42700" r="177.165" /> 
<circle cx="62000" cy="42200" r="177.165" /> 
<circle cx="62000" cy="41700" r="177.165" /> 
<circle cx="62000" cy="41200" r="177.165" /> 
<circle cx="62000" cy="40700" r="177.165" /> 
<polyline style="fill-rule:evenodd;"
points="59259,40901
59259,41098
59140,41098
59140,40901
59259,40901
" /> 
<polyline style="fill-rule:evenodd;"
points="58865,40901
58865,41098
58747,41098
58747,40901
58865,40901
" /> 
<polyline style="fill-rule:evenodd;"
points="58471,40901
58471,41098
58353,41098
58353,40901
58471,40901
" /> 
<polyline style="fill-rule:evenodd;"
points="58471,41846
58471,42043
58353,42043
58353,41846
58471,41846
" /> 
<polyline style="fill-rule:evenodd;"
points="58865,41846
58865,42043
58747,42043
58747,41846
58865,41846
" /> 
<polyline style="fill-rule:evenodd;"
points="59259,41846
59259,42043
59140,42043
59140,41846
59259,41846
" /> 
<polyline style="fill-rule:evenodd;"
points="59259,41196
59259,41748
58353,41748
58353,41196
59259,41196
" /> 
<polyline style="fill-rule:evenodd;"
points="56348,40651
56348,40848
55777,40848
55777,40651
56348,40651
" /> 
<polyline style="fill-rule:evenodd;"
points="56348,40151
56348,40348
55777,40348
55777,40151
56348,40151
" /> 
<polyline style="fill-rule:evenodd;"
points="56348,39651
56348,39848
55777,39848
55777,39651
56348,39651
" /> 
<polyline style="fill-rule:evenodd;"
points="56348,39151
56348,39348
55777,39348
55777,39151
56348,39151
" /> 
<polyline style="fill-rule:evenodd;"
points="54222,39151
54222,39348
53651,39348
53651,39151
54222,39151
" /> 
<polyline style="fill-rule:evenodd;"
points="54222,39651
54222,39848
53651,39848
53651,39651
54222,39651
" /> 
<polyline style="fill-rule:evenodd;"
points="54222,40151
54222,40348
53651,40348
53651,40151
54222,40151
" /> 
<polyline style="fill-rule:evenodd;"
points="54222,40651
54222,40848
53651,40848
53651,40651
54222,40651
" /> 
<circle cx="60200" cy="44100" r="280.315" /> 
<circle cx="52200" cy="44100" r="280.315" /> 
<polyline style="fill-rule:evenodd;"
points="54020,47959
53579,47959
53579,47640
54020,47640
54020,47959
" /> 
<polyline style="fill-rule:evenodd;"
points="54020,46669
53579,46669
53579,46350
54020,46350
54020,46669
" /> 
<polyline style="fill-rule:evenodd;"
points="54663,46292
55136,46292
55136,46844
54663,46844
54663,46292
" /> 
<polyline style="fill-rule:evenodd;"
points="54663,47355
55136,47355
55136,47907
54663,47907
54663,47355
" /> 
<polyline style="fill-rule:evenodd;"
points="66597,47925
66597,47674
67502,47674
67502,47925
66597,47925
" /> 
<polyline style="fill-rule:evenodd;"
points="68097,47925
68097,47674
69002,47674
69002,47925
68097,47925
" /> 
<polyline style="fill-rule:evenodd;"
points="66597,48425
66597,48174
67502,48174
67502,48425
66597,48425
" /> 
<polyline style="fill-rule:evenodd;"
points="68097,48425
68097,48174
69002,48174
69002,48425
68097,48425
" /> 
<polyline style="fill-rule:evenodd;"
points="66597,48925
66597,48674
67502,48674
67502,48925
66597,48925
" /> 
<polyline style="fill-rule:evenodd;"
points="68097,48925
68097,48674
69002,48674
69002,48925
68097,48925
" /> 
<polyline style="fill-rule:evenodd;"
points="66597,49425
66597,49174
67502,49174
67502,49425
66597,49425
" /> 
<polyline style="fill-rule:evenodd;"
points="68097,49425
68097,49174
69002,49174
69002,49425
68097,49425
" /> 
<polyline style="fill-rule:evenodd;"
points="66597,49925
66597,49674
67502,49674
67502,49925
66597,49925
" /> 
<polyline style="fill-rule:evenodd;"
points="68097,49925
68097,49674
69002,49674
69002,49925
68097,49925
" /> 
</g>
<g style="fill:#840000; fill-opacity:1.0; 
stroke:#840000; stroke-width:100; stroke-opacity:1; 
stroke-linecap:round; stroke-linejoin:round;">
</g>
<g style="fill:#840000; fill-opacity:0.0; 
stroke:#840000; stroke-width:100; stroke-opacity:1; 
stroke-linecap:round; stroke-linejoin:round;">
<path d="M58806 41000
L58806 40731
" />
<path d="M57700 41125
L57997 41125
" />
<path d="M57997 40977
L58243 40731
" />
<path d="M57997 41125
L57997 40977
" />
<path d="M58243 40731
L58806 40731
" />
<path d="M57379 39146
L57572 38953
" />
<path d="M56621 39146
L57379 39146
" />
<path d="M56518 39250
L56621 39146
" />
<path d="M57766 39146
L57572 38953
" />
<path d="M58160 39146
L57766 39146
" />
<path d="M58243 39229
L58160 39146
" />
<path d="M58243 40731
L58243 39229
" />
<path d="M57572 38953
L57572 38666
" />
<path d="M56062 39250
L56518 39250
" />
<path d="M55381 38260
L54392 39250
" />
<path d="M57452 38260
L55381 38260
" />
<path d="M57572 38380
L57452 38260
" />
<path d="M57572 38666
L57572 38380
" />
<path d="M53937 39250
L54392 39250
" />
<path d="M57900 38666
L57572 38666
" />
<path d="M58232 43300
L58232 44099
" />
<path d="M53481 39750
L53481 39250
" />
<path d="M53937 39250
L53481 39250
" />
<path d="M53937 39750
L53531 39750
" />
<path d="M53531 39750
L53481 39750
" />
<path d="M54725 50490
L54802 50490
" />
<path d="M53481 44100
L53481 44099
" />
<path d="M52200 44100
L53481 44100
" />
<path d="M53481 39750
L53481 44099
" />
<path d="M67050 49800
L66477 49800
" />
<path d="M66477 49800
L66427 49800
" />
<path d="M66427 49800
L66427 48800
" />
<path d="M67050 48800
L66738 48800
" />
<path d="M66738 48800
L66427 48800
" />
<path d="M66427 48521
L66427 48300
" />
<path d="M66705 48800
L66427 48521
" />
<path d="M66738 48800
L66705 48800
" />
<path d="M67050 48300
L66427 48300
" />
<path d="M58725 50490
L58418 50490
" />
<path d="M59033 50798
L59033 50490
" />
<path d="M59235 51000
L59033 50798
" />
<path d="M60500 51000
L59235 51000
" />
<path d="M58725 50490
L59033 50490
" />
<path d="M54802 50577
L54802 50490
" />
<path d="M55897 51672
L54802 50577
" />
<path d="M64993 51672
L55897 51672
" />
<path d="M66427 50237
L64993 51672
" />
<path d="M66427 49800
L66427 50237
" />
<path d="M57913 50995
L58418 50490
" />
<path d="M57230 50995
L57913 50995
" />
<path d="M57033 50798
L57230 50995
" />
<path d="M57033 50490
L57033 50798
" />
<path d="M56725 50490
L57033 50490
" />
<path d="M56725 50490
L56418 50490
" />
<path d="M53481 44099
L55652 44099
" />
<path d="M55652 44099
L58232 44099
" />
<path d="M56327 49572
L55913 49986
" />
<path d="M56327 45231
L56327 49572
" />
<path d="M56149 45053
L56327 45231
" />
<path d="M55745 45053
L56149 45053
" />
<path d="M55652 44960
L55745 45053
" />
<path d="M55652 44099
L55652 44960
" />
<path d="M56418 50490
L55913 49986
" />
<path d="M54802 50427
L54802 50490
" />
<path d="M55244 49986
L54802 50427
" />
<path d="M55913 49986
L55244 49986
" />
<path d="M57777 44966
L57527 44716
" />
<path d="M58300 44966
L57777 44966
" />
<path d="M57363 44716
L57527 44716
" />
<path d="M57363 44716
L57200 44716
" />
<path d="M56377 44716
L56327 44666
" />
<path d="M57200 44716
L56377 44716
" />
<path d="M56000 44666
L56327 44666
" />
<path d="M54767 43300
L54767 42500
" />
<path d="M67050 47800
L67672 47800
" />
<path d="M58806 41944
L58806 42213
" />
<path d="M58262 42213
L58806 42213
" />
<path d="M57997 41948
L58262 42213
" />
<path d="M57997 41874
L57997 41948
" />
<path d="M57700 41874
L57997 41874
" />
<path d="M58897 42213
L58806 42213
" />
<path d="M60200 43515
L58897 42213
" />
<path d="M60200 44100
L60200 43515
" />
<path d="M64933 49000
L64933 48672
" />
<path d="M68850 46622
L68850 46101
" />
<path d="M67672 47800
L68850 46622
" />
<path d="M69251 45700
L69500 45700
" />
<path d="M68850 46101
L69251 45700
" />
<path d="M53937 40750
L54392 40750
" />
<path d="M54767 42500
L55394 41874
" />
<path d="M55394 41874
L57700 41874
" />
<path d="M54392 40871
L54392 40750
" />
<path d="M55394 41874
L54392 40871
" />
<path d="M55987 38666
L57200 38666
" />
<path d="M54392 40262
L55987 38666
" />
<path d="M54392 40750
L54392 40262
" />
<path d="M54392 40750
L54392 40750
" />
<path d="M62508 46450
L62508 46456
" />
<path d="M62857 46101
L62508 46450
" />
<path d="M68850 46101
L62857 46101
" />
<path d="M64646 48672
L64933 48672
" />
<path d="M64453 48479
L64646 48672
" />
<path d="M64453 48045
L64453 48479
" />
<path d="M63916 47508
L64453 48045
" />
<path d="M63560 47508
L63916 47508
" />
<path d="M62508 46456
L63560 47508
" />
<path d="M58300 44966
L58627 44966
" />
<path d="M60200 44966
L58627 44966
" />
<path d="M61796 46563
L60200 44966
" />
<path d="M62402 46563
L61796 46563
" />
<path d="M62508 46456
L62402 46563
" />
<path d="M60200 44966
L60200 44100
" />
<path d="M57200 45583
L57200 46687
" />
<path d="M57200 48704
L57200 47512
" />
<path d="M57100 48804
L57200 48704
" />
<path d="M57100 49309
L57100 48804
" />
<path d="M58218 46300
L58200 46300
" />
<path d="M58300 46219
L58218 46300
" />
<path d="M58300 45833
L58300 46219
" />
<path d="M58200 46687
L58200 46300
" />
<path d="M58792 48491
L58200 47899
" />
<path d="M58792 49309
L58792 48491
" />
<path d="M59100 49309
L58792 49309
" />
<path d="M58200 47512
L58200 47899
" />
<path d="M56000 47533
L55672 47533
" />
<path d="M53800 47800
L53995 47800
" />
<path d="M55100 49309
L55100 48804
" />
<path d="M55574 47631
L54900 47631
" />
<path d="M55672 47533
L55574 47631
" />
<path d="M54900 47631
L54900 48076
" />
<path d="M54900 48076
L54636 48340
" />
<path d="M54582 48286
L54636 48340
" />
<path d="M54481 48286
L54582 48286
" />
<path d="M53995 47800
L54481 48286
" />
<path d="M54636 48340
L55100 48804
" />
<path d="M56000 46666
L55672 46666
" />
<path d="M54435 46510
L54493 46568
" />
<path d="M53800 46510
L54435 46510
" />
<path d="M54900 46568
L54493 46568
" />
<path d="M56000 45533
L56000 45919
" />
<path d="M55574 46345
L56000 45919
" />
<path d="M55574 46568
L55574 46345
" />
<path d="M54900 46568
L55574 46568
" />
<path d="M55574 46568
L55672 46666
" />
<path d="M64867 40332
L62000 43200
" />
<path d="M69636 40332
L64867 40332
" />
<path d="M69855 40552
L69636 40332
" />
<path d="M69855 47117
L69855 40552
" />
<path d="M69172 47800
L69855 47117
" />
<path d="M68550 47800
L69172 47800
" />
<path d="M64567 40132
L62000 42700
" />
<path d="M69724 40132
L64567 40132
" />
<path d="M70063 40471
L69724 40132
" />
<path d="M70063 47409
L70063 40471
" />
<path d="M69172 48300
L70063 47409
" />
<path d="M68550 48300
L69172 48300
" />
<path d="M64066 51100
L64066 51427
" />
<path d="M55474 50490
L55781 50490
" />
<path d="M56752 51462
L55781 50490
" />
<path d="M64032 51462
L56752 51462
" />
<path d="M64066 51427
L64032 51462
" />
<path d="M58458 49813
L57781 50490
" />
<path d="M63566 49813
L58458 49813
" />
<path d="M63680 49700
L63566 49813
" />
<path d="M64066 49700
L63680 49700
" />
<path d="M57474 50490
L57781 50490
" />
<path d="M63589 50490
L59474 50490
" />
<path d="M63680 50400
L63589 50490
" />
<path d="M64066 50400
L63680 50400
" />
<path d="M64933 49700
L64933 49372
" />
<path d="M65219 49372
L64933 49372
" />
<path d="M65319 49272
L65219 49372
" />
<path d="M65319 47269
L65319 49272
" />
<path d="M64500 46450
L65319 47269
" />
<path d="M65219 50072
L64933 50072
" />
<path d="M65524 49767
L65219 50072
" />
<path d="M65524 46974
L65524 49767
" />
<path d="M65000 46450
L65524 46974
" />
<path d="M64933 50400
L64933 50072
" />
<path d="M64933 51100
L64933 50772
" />
<path d="M65725 46675
L65500 46450
" />
<path d="M65725 50265
L65725 46675
" />
<path d="M65217 50772
L65725 50265
" />
<path d="M64933 50772
L65217 50772
" />
<path d="M56518 39887
L56872 39533
" />
<path d="M56518 40250
L56518 39887
" />
<path d="M56062 40250
L56518 40250
" />
<path d="M57200 39533
L56872 39533
" />
<path d="M57900 39533
L57200 39533
" />
<path d="M64066 48300
L64066 49000
" />
<path d="M64353 49327
L64066 49327
" />
<path d="M64453 49427
L64353 49327
" />
<path d="M64453 50650
L64453 49427
" />
<path d="M64331 50772
L64453 50650
" />
<path d="M62727 50772
L64331 50772
" />
<path d="M62500 51000
L62727 50772
" />
<path d="M64066 49000
L64066 49327
" />
<path d="M64933 47383
L64933 48300
" />
<path d="M64000 46450
L64933 47383
" />
<path d="M61255 41944
L62000 41200
" />
<path d="M59200 41944
L61255 41944
" />
<path d="M61968 40731
L62000 40700
" />
<path d="M59200 40731
L61968 40731
" />
<path d="M59200 41000
L59200 40731
" />
</g>
<g style="fill:#840000; fill-opacity:1.0; 
stroke:#840000; stroke-width:100; stroke-opacity:1; 
stroke-linecap:round; stroke-linejoin:round;">
<polyline style="fill-rule:evenodd;"
points="56867,39099
56843,39115
56787,39198
56776,39252
56757,39255
56660,39320
56618,39363
56618,39362
56555,39300
56112,39300
56112,39307
56012,39307
56012,39300
56005,39300
56005,39200
56012,39200
56012,39192
56112,39192
56112,39200
56555,39200
56618,39137
56618,39082
56580,38990
56556,38966
56780,38966
56786,38998
56841,39082
56867,39099
" /> 
<polyline style="fill-rule:evenodd;"
points="56900,48580
56887,48592
56822,48689
56812,48740
56812,48740
56763,48773
56707,48856
56687,48954
56687,49663
56706,49758
56761,49842
56833,49891
56775,49949
56775,50441
56783,50441
56783,50541
56775,50541
56775,50548
56675,50548
56675,50541
56675,50441
56675,49949
56613,49886
56518,49886
56426,49924
56356,49994
56318,50086
56318,50186
56318,50378
56380,50441
56675,50441
56675,50541
56380,50541
56318,50603
56318,50603
55993,50278
55896,50213
55886,50211
55886,50136
55867,50041
55812,49957
55729,49901
55631,49881
55380,49881
55436,49844
55492,49761
55512,49663
55512,48954
55493,48859
55438,48775
55387,48740
55377,48689
55377,48689
55377,48689
55344,48640
55312,48592
55312,48592
55060,48340
55112,48289
55112,48289
55151,48230
55177,48191
55177,48191
55180,48176
55251,48163
55335,48108
55391,48025
55409,47931
55574,47931
55574,47931
55623,47921
55641,47948
55724,48004
55822,48024
56177,48024
56272,48005
56356,47950
56412,47867
56432,47769
56432,47296
56413,47201
56358,47117
56332,47100
56356,47084
56412,47001
56432,46903
56432,46430
56413,46335
56358,46251
56275,46195
56177,46175
56167,46175
56212,46131
56277,46034
56284,45997
56284,45997
56356,45950
56412,45867
56432,45769
56432,45296
56413,45201
56358,45117
56332,45100
56356,45084
56401,45016
56780,45016
56786,45048
56841,45132
56867,45149
56843,45165
56787,45248
56767,45346
56767,45819
56786,45914
56841,45998
56900,46037
56900,46208
56868,46214
56784,46269
56728,46352
56709,46451
56709,46923
56727,47018
56781,47100
56728,47178
56709,47277
56709,47749
56727,47844
56782,47928
56865,47984
56900,47991
56900,48580
" /> 
<polyline style="fill-rule:evenodd;"
points="59990,50790
59945,50918
59956,51136
59966,51162
58675,51162
58675,51033
58675,50541
58380,50541
58318,50603
58318,50795
58318,50895
58356,50987
58426,51057
58518,51095
58613,51095
58675,51033
58675,51162
56877,51162
56775,51061
56775,51033
56838,51095
56933,51095
57025,51057
57095,50987
57101,50973
57135,51024
57218,51080
57316,51100
57631,51100
57726,51081
57810,51026
57866,50943
57886,50845
57886,50770
57896,50768
57896,50768
57993,50703
58318,50378
58318,50378
58380,50441
58675,50441
58675,50433
58775,50433
58775,50441
58783,50441
58783,50541
58775,50541
58775,51033
58838,51095
58933,51095
59025,51057
59095,50987
59101,50973
59135,51024
59218,51080
59316,51100
59631,51100
59726,51081
59810,51026
59866,50943
59886,50845
59886,50790
59990,50790
" /> 
<polyline style="fill-rule:evenodd;"
points="60576,51005
60505,51076
60500,51070
60494,51076
60423,51005
60429,51000
60423,50994
60494,50923
60500,50929
60505,50923
60576,50994
60570,51000
60576,51005
" /> 
<polyline style="fill-rule:evenodd;"
points="69555,45226
69528,45253
69471,45253
69423,45205
69429,45200
69423,45194
69471,45146
69528,45146
69555,45173
69555,45226
" /> 
<polyline style="fill-rule:evenodd;"
points="71020,51970
70742,51970
70742,50853
70629,50580
70420,50371
70148,50258
69853,50257
69580,50370
69371,50579
69258,50851
69257,51146
69370,51419
69579,51628
69851,51741
70146,51742
70419,51629
70628,51420
70741,51148
70742,50853
70742,51970
67777,51970
67777,49445
67777,49154
67758,49059
67751,49047
67772,48995
67772,48912
67772,48687
67772,48604
67749,48550
67772,48495
67772,48412
67709,48350
67100,48350
67100,48466
67100,48633
67100,48750
67709,48750
67772,48687
67772,48912
67709,48850
67100,48850
67100,48857
67000,48857
67000,48850
67000,48750
67000,48633
67000,48466
67000,48350
66390,48350
66327,48412
66327,48495
66350,48550
66327,48604
66327,48687
66390,48750
67000,48750
67000,48850
66390,48850
66327,48912
66327,48995
66348,49046
66342,49056
66322,49154
66322,49445
66341,49540
66348,49552
66327,49604
66327,49687
66390,49750
67000,49750
67000,49742
67100,49742
67100,49750
67709,49750
67772,49687
67772,49604
67751,49553
67757,49543
67777,49445
67777,51970
67772,51970
67772,49995
67772,49912
67709,49850
67100,49850
67100,50133
67162,50195
67572,50195
67664,50157
67734,50087
67772,49995
67772,51970
67000,51970
67000,50133
67000,49850
66390,49850
66327,49912
66327,49995
66365,50087
66435,50157
66527,50195
66937,50195
67000,50133
67000,51970
54675,51970
54675,51033
54675,50541
54675,50441
54675,49949
54613,49886
54518,49886
54426,49924
54356,49994
54318,50086
54318,50186
54318,50378
54380,50441
54675,50441
54675,50541
54380,50541
54318,50603
54318,50795
54318,50895
54356,50987
54426,51057
54518,51095
54613,51095
54675,51033
54675,51970
53742,51970
53742,50853
53629,50580
53420,50371
53148,50258
52853,50257
52580,50370
52371,50579
52258,50851
52257,51146
52370,51419
52579,51628
52851,51741
53146,51742
53419,51629
53628,51420
53741,51148
53742,50853
53742,51970
51979,51970
51979,49361
53103,49361
53103,45038
52754,45038
52754,44181
52743,43963
52681,43812
52585,43784
52270,44100
52585,44415
52681,44387
52754,44181
52754,45038
51979,45038
51979,44605
52118,44654
52336,44643
52487,44581
52515,44485
52200,44170
52194,44176
52123,44105
52129,44100
52123,44094
52194,44023
52200,44029
52515,43714
52487,43618
52281,43545
52063,43556
51979,43590
51979,36979
61350,36979
61350,40431
59200,40431
59085,40454
58987,40519
58922,40616
58919,40631
58908,40631
58845,40694
58845,40922
58766,40922
58766,40694
58704,40631
58677,40631
58609,40660
58589,40646
58491,40626
58333,40626
58238,40645
58154,40700
58098,40783
58090,40823
58059,40748
57989,40677
57897,40639
57812,40639
57750,40702
57750,41075
57757,41075
57757,41175
57750,41175
57750,41183
57650,41183
57650,41175
57650,41075
57650,40702
57587,40639
57502,40639
57410,40677
57340,40748
57302,40840
57302,41013
57364,41075
57650,41075
57650,41175
57364,41175
57302,41238
57302,41411
57340,41503
57340,41504
57317,41539
57310,41574
55518,41574
54692,40747
54692,40386
55516,39562
55502,39631
55502,39868
55521,39963
55545,39999
55522,40033
55502,40131
55502,40368
55521,40463
55545,40499
55522,40533
55502,40631
55502,40868
55521,40963
55576,41047
55659,41103
55757,41123
56368,41123
56463,41104
56547,41049
56603,40966
56623,40868
56623,40631
56604,40536
56602,40533
56633,40527
56730,40462
56795,40364
56818,40250
56818,40011
56865,39964
56924,40004
57022,40024
57377,40024
57472,40005
57550,39954
57624,40004
57722,40024
58077,40024
58172,40005
58256,39950
58312,39867
58332,39769
58332,39296
58313,39201
58258,39117
58233,39100
58289,39044
58327,38952
58327,38779
58327,38554
58327,38380
58289,38289
58218,38218
58126,38180
58027,38180
58012,38180
57950,38243
57950,38616
58264,38616
58327,38554
58327,38779
58264,38716
57950,38716
57950,38724
57850,38724
57850,38716
57842,38716
57842,38616
57850,38616
57850,38243
57787,38180
57772,38180
57673,38180
57581,38218
57552,38247
57475,38195
57377,38175
57022,38175
56927,38194
56843,38249
56787,38332
56780,38366
55987,38366
55873,38389
55775,38454
54492,39738
54492,39699
54429,39699
54492,39637
54492,39582
54458,39500
54492,39417
54492,39362
54492,39137
54492,39082
54454,38990
54383,38919
54291,38881
54049,38881
53987,38944
53987,39200
54429,39200
54492,39137
54492,39362
54429,39300
53987,39300
53987,39444
53987,39555
53987,39700
53994,39700
53994,39800
53987,39800
53987,39807
53887,39807
53887,39800
53887,39700
53887,39555
53887,39444
53887,39300
53887,39200
53887,38944
53824,38881
53742,38881
53742,37853
53629,37580
53420,37371
53148,37258
52853,37257
52580,37370
52371,37579
52258,37851
52257,38146
52370,38419
52579,38628
52851,38741
53146,38742
53419,38629
53628,38420
53741,38148
53742,37853
53742,38881
53582,38881
53490,38919
53419,38990
53381,39082
53381,39137
53444,39200
53887,39200
53887,39300
53444,39300
53381,39362
53381,39417
53415,39500
53381,39582
53381,39637
53444,39700
53887,39700
53887,39800
53444,39800
53381,39862
53381,39917
53417,40003
53396,40033
53376,40131
53376,40368
53395,40463
53419,40499
53396,40533
53376,40631
53376,40868
53395,40963
53450,41047
53533,41103
53631,41123
54219,41123
54970,41874
54555,42288
54490,42385
54488,42395
53882,42395
53787,42414
53703,42469
53647,42552
53627,42650
53627,43949
53646,44044
53701,44128
53784,44184
53882,44204
55653,44204
55748,44185
55832,44130
55888,44047
55908,43949
55908,42650
55889,42555
55834,42471
55751,42415
55653,42395
55297,42395
55518,42174
57309,42174
57315,42205
57370,42289
57454,42345
57552,42365
57847,42365
57942,42346
57960,42335
58025,42400
57395,42400
57296,42400
57204,42438
57134,42508
57096,42600
57096,43187
57158,43250
58182,43250
58182,43242
58282,43242
58282,43250
59305,43250
59368,43187
59368,43108
59891,43632
59888,43633
59734,43788
59650,43990
59649,44208
59733,44411
59888,44565
59900,44570
59900,44666
59368,44666
59368,43999
59368,43412
59305,43350
58282,43350
58282,44137
58344,44199
59068,44199
59167,44199
59259,44161
59329,44091
59368,43999
59368,44666
58719,44666
58713,44635
58658,44551
58575,44495
58477,44475
58182,44475
58182,44137
58182,43350
57158,43350
57096,43412
57096,43999
57134,44091
57204,44161
57296,44199
57395,44199
58119,44199
58182,44137
58182,44475
58122,44475
58027,44494
57943,44549
57887,44632
57884,44649
57739,44504
57642,44439
57623,44436
57613,44385
57558,44301
57475,44245
57377,44225
57022,44225
56927,44244
56843,44299
56787,44382
56780,44416
56482,44416
56442,44389
56423,44386
56413,44335
56358,44251
56275,44195
56177,44175
55822,44175
55727,44194
55643,44249
55587,44332
55567,44430
55567,44903
55586,44998
55641,45082
55667,45099
55643,45115
55587,45198
55567,45296
55567,45769
55586,45864
55603,45891
55362,46132
55337,46094
55254,46038
55155,46018
54644,46018
54548,46036
54464,46091
54408,46174
54401,46210
54259,46210
54221,46151
54138,46095
54040,46075
53559,46075
53464,46094
53380,46149
53324,46232
53304,46330
53304,46689
53323,46784
53378,46868
53461,46924
53559,46944
54040,46944
54135,46925
54219,46870
54260,46810
54325,46810
54379,46845
54389,46847
54389,46863
54407,46959
54462,47042
54545,47098
54549,47099
54548,47099
54464,47154
54408,47237
54389,47336
54389,47769
54295,47675
54295,47620
54276,47525
54221,47441
54138,47385
54040,47365
53559,47365
53464,47384
53380,47439
53324,47522
53304,47620
53304,47979
53323,48074
53378,48158
53461,48214
53559,48234
54004,48234
54269,48498
54366,48563
54451,48580
54715,48844
54707,48856
54687,48954
54687,49663
54706,49758
54761,49842
54833,49891
54775,49949
54775,50441
54783,50441
54783,50541
54775,50541
54775,51033
54838,51095
54933,51095
55025,51057
55095,50987
55101,50973
55135,51024
55218,51080
55316,51100
55631,51100
55726,51081
55810,51026
55843,50977
56540,51674
56638,51739
56638,51739
56752,51762
64032,51762
64032,51762
64146,51739
64146,51739
64244,51674
64279,51639
64279,51639
64344,51542
64347,51523
64398,51513
64482,51458
64499,51432
64515,51456
64598,51512
64696,51532
65169,51532
65264,51513
65348,51458
65404,51375
65424,51277
65424,50988
65429,50984
65937,50477
66002,50380
66002,50380
66025,50265
66025,50265
66025,46896
66088,46896
66250,46830
66410,46896
66588,46896
66750,46830
66910,46896
67088,46896
67250,46830
67410,46896
67588,46896
67750,46830
67910,46896
68088,46896
68195,46852
67625,47422
67620,47419
67522,47399
66577,47399
66482,47417
66398,47472
66342,47556
66322,47654
66322,47945
66341,48040
66348,48052
66327,48104
66327,48187
66390,48250
67000,48250
67000,48242
67100,48242
67100,48250
67709,48250
67772,48187
67772,48104
67763,48081
67763,48081
67787,48077
67787,48077
67841,48041
67846,48049
67842,48056
67822,48154
67822,48445
67841,48540
67846,48549
67842,48556
67822,48654
67822,48945
67841,49040
67846,49049
67842,49056
67822,49154
67822,49445
67841,49540
67846,49549
67842,49556
67822,49654
67822,49945
67841,50040
67896,50124
67979,50180
68077,50200
69022,50200
69117,50182
69201,50127
69257,50043
69277,49945
69277,49654
69258,49559
69253,49550
69257,49543
69277,49445
69277,49154
69258,49059
69253,49050
69257,49043
69277,48945
69277,48654
69263,48581
69287,48577
69287,48577
69384,48512
70275,47621
70340,47524
70363,47409
70363,47409
70363,40471
70359,40450
71020,40450
71020,51970
" /> 
</g>
<g style="fill:#FFFFFF; fill-opacity:1.0; 
stroke:#FFFFFF; stroke-width:39.3701; stroke-opacity:1; 
stroke-linecap:round; stroke-linejoin:round;">
<circle cx="62500" cy="51000" r="130.315" /> 
<circle cx="60500" cy="51000" r="130.315" /> 
<circle cx="60500" cy="49000" r="130.315" /> 
<circle cx="62500" cy="49000" r="130.315" /> 
<circle cx="69500" cy="40700" r="78.7402" /> 
<circle cx="69500" cy="41200" r="78.7402" /> 
<circle cx="69500" cy="41700" r="78.7402" /> 
<circle cx="69500" cy="42200" r="78.7402" /> 
<circle cx="69500" cy="42700" r="78.7402" /> 
<circle cx="69500" cy="43200" r="78.7402" /> 
<circle cx="69500" cy="43700" r="78.7402" /> 
<circle cx="69500" cy="44200" r="78.7402" /> 
<circle cx="69500" cy="44700" r="78.7402" /> 
<circle cx="69500" cy="45200" r="78.7402" /> 
<circle cx="69500" cy="45700" r="78.7402" /> 
<circle cx="69500" cy="46200" r="78.7402" /> 
<circle cx="68500" cy="46450" r="78.7402" /> 
<circle cx="68000" cy="46450" r="78.7402" /> 
<circle cx="67500" cy="46450" r="78.7402" /> 
<circle cx="67000" cy="46450" r="78.7402" /> 
<circle cx="66500" cy="46450" r="78.7402" /> 
<circle cx="66000" cy="46450" r="78.7402" /> 
<circle cx="65500" cy="46450" r="78.7402" /> 
<circle cx="65000" cy="46450" r="78.7402" /> 
<circle cx="64500" cy="46450" r="78.7402" /> 
<circle cx="64000" cy="46450" r="78.7402" /> 
<circle cx="63500" cy="46450" r="78.7402" /> 
<circle cx="63000" cy="46450" r="78.7402" /> 
<circle cx="62000" cy="46200" r="78.7402" /> 
<circle cx="62000" cy="45700" r="78.7402" /> 
<circle cx="62000" cy="45200" r="78.7402" /> 
<circle cx="62000" cy="44700" r="78.7402" /> 
<circle cx="62000" cy="44200" r="78.7402" /> 
<circle cx="62000" cy="43700" r="78.7402" /> 
<circle cx="62000" cy="43200" r="78.7402" /> 
<circle cx="62000" cy="42700" r="78.7402" /> 
<circle cx="62000" cy="42200" r="78.7402" /> 
<circle cx="62000" cy="41700" r="78.7402" /> 
<circle cx="62000" cy="41200" r="78.7402" /> 
<circle cx="62000" cy="40700" r="78.7402" /> 
<circle cx="60200" cy="44100" r="130.315" /> 
<circle cx="52200" cy="44100" r="130.315" /> 
<circle cx="53000" cy="38000" r="472.441" /> 
<circle cx="70000" cy="38000" r="472.441" /> 
<circle cx="70000" cy="51000" r="472.441" /> 
<circle cx="53000" cy="51000" r="472.441" /> 
</g> 
</svg>
