<?xml version="1.0" standalone="no"?>
 <!DOCTYPE svg PUBLIC "-//W3C//DTD SVG 1.1//EN" 
 "http://www.w3.org/Graphics/SVG/1.1/DTD/svg11.dtd"> 
<svg xmlns="http://www.w3.org/2000/svg" version="1.1" 
    width="29.7002cm" height="21.0007cm" viewBox="0 0 116930 82680 ">
<title>SVG Picture created as igrow-101-F.Paste.svg date 2016/09/01 15:46:22 </title>
  <desc>Picture generated by PCBNEW </desc>
<g style="fill:#000000; fill-opacity:1;stroke:#000000; stroke-opacity:1;
stroke-linecap:round; stroke-linejoin:round; "
 transform="translate(0 0) scale(1 1)">
</g>
<g style="fill:#000000; fill-opacity:0.0; 
stroke:#000000; stroke-width:-0.000393701; stroke-opacity:1; 
stroke-linecap:round; stroke-linejoin:round;">
</g>
<g style="fill:#000000; fill-opacity:0.0; 
stroke:#000000; stroke-width:0; stroke-opacity:1; 
stroke-linecap:round; stroke-linejoin:round;">
</g>
<g style="fill:#000000; fill-opacity:1.0; 
stroke:#000000; stroke-width:0; stroke-opacity:1; 
stroke-linecap:round; stroke-linejoin:round;">
<polyline style="fill-rule:evenodd;"
points="58897,39360
58602,39360
58602,38887
58897,38887
58897,39360
" /> 
<polyline style="fill-rule:evenodd;"
points="58897,38612
58602,38612
58602,38139
58897,38139
58897,38612
" /> 
<polyline style="fill-rule:evenodd;"
points="52600,41404
52600,39632
53899,39632
53899,41404
52600,41404
" /> 
<polyline style="fill-rule:evenodd;"
points="52600,44867
52600,43096
53899,43096
53899,44867
52600,44867
" /> 
<polyline style="fill-rule:evenodd;"
points="66322,49330
66677,49330
66677,49803
66322,49803
66322,49330
" /> 
<polyline style="fill-rule:evenodd;"
points="66322,50196
66677,50196
66677,50669
66322,50669
66322,50196
" /> 
<polyline style="fill-rule:evenodd;"
points="65330,51427
65330,51072
65803,51072
65803,51427
65330,51427
" /> 
<polyline style="fill-rule:evenodd;"
points="66196,51427
66196,51072
66669,51072
66669,51427
66196,51427
" /> 
<polyline style="fill-rule:evenodd;"
points="59080,51427
59080,51072
59553,51072
59553,51427
59080,51427
" /> 
<polyline style="fill-rule:evenodd;"
points="59946,51427
59946,51072
60419,51072
60419,51427
59946,51427
" /> 
<polyline style="fill-rule:evenodd;"
points="58822,45830
59177,45830
59177,46303
58822,46303
58822,45830
" /> 
<polyline style="fill-rule:evenodd;"
points="58822,46696
59177,46696
59177,47169
58822,47169
58822,46696
" /> 
<polyline style="fill-rule:evenodd;"
points="57927,44419
57572,44419
57572,43946
57927,43946
57927,44419
" /> 
<polyline style="fill-rule:evenodd;"
points="57927,43553
57572,43553
57572,43080
57927,43080
57927,43553
" /> 
<polyline style="fill-rule:evenodd;"
points="55580,45427
55580,45072
56053,45072
56053,45427
55580,45427
" /> 
<polyline style="fill-rule:evenodd;"
points="56446,45427
56446,45072
56919,45072
56919,45427
56446,45427
" /> 
<polyline style="fill-rule:evenodd;"
points="57927,42169
57572,42169
57572,41696
57927,41696
57927,42169
" /> 
<polyline style="fill-rule:evenodd;"
points="57927,41303
57572,41303
57572,40830
57927,40830
57927,41303
" /> 
<polyline style="fill-rule:evenodd;"
points="57927,39419
57572,39419
57572,38946
57927,38946
57927,39419
" /> 
<polyline style="fill-rule:evenodd;"
points="57927,38553
57572,38553
57572,38080
57927,38080
57927,38553
" /> 
<polyline style="fill-rule:evenodd;"
points="60927,49919
60572,49919
60572,49446
60927,49446
60927,49919
" /> 
<polyline style="fill-rule:evenodd;"
points="60927,49053
60572,49053
60572,48580
60927,48580
60927,49053
" /> 
<polyline style="fill-rule:evenodd;"
points="64080,48927
64080,48572
64553,48572
64553,48927
64080,48927
" /> 
<polyline style="fill-rule:evenodd;"
points="64946,48927
64946,48572
65419,48572
65419,48927
64946,48927
" /> 
<polyline style="fill-rule:evenodd;"
points="65330,47927
65330,47572
65803,47572
65803,47927
65330,47927
" /> 
<polyline style="fill-rule:evenodd;"
points="66196,47927
66196,47572
66669,47572
66669,47927
66196,47927
" /> 
<polyline style="fill-rule:evenodd;"
points="54644,46273
55155,46273
55155,46863
54644,46863
54644,46273
" /> 
<polyline style="fill-rule:evenodd;"
points="54644,47336
55155,47336
55155,47926
54644,47926
54644,47336
" /> 
<polyline style="fill-rule:evenodd;"
points="60972,42354
60972,42645
60027,42645
60027,42354
60972,42354
" /> 
<polyline style="fill-rule:evenodd;"
points="59472,42354
59472,42645
58527,42645
58527,42354
59472,42354
" /> 
<polyline style="fill-rule:evenodd;"
points="60972,41854
60972,42145
60027,42145
60027,41854
60972,41854
" /> 
<polyline style="fill-rule:evenodd;"
points="59472,41854
59472,42145
58527,42145
58527,41854
59472,41854
" /> 
<polyline style="fill-rule:evenodd;"
points="60972,41354
60972,41645
60027,41645
60027,41354
60972,41354
" /> 
<polyline style="fill-rule:evenodd;"
points="59472,41354
59472,41645
58527,41645
58527,41354
59472,41354
" /> 
<polyline style="fill-rule:evenodd;"
points="60972,40854
60972,41145
60027,41145
60027,40854
60972,40854
" /> 
<polyline style="fill-rule:evenodd;"
points="59472,40854
59472,41145
58527,41145
58527,40854
59472,40854
" /> 
<polyline style="fill-rule:evenodd;"
points="60972,40354
60972,40645
60027,40645
60027,40354
60972,40354
" /> 
<polyline style="fill-rule:evenodd;"
points="59472,40354
59472,40645
58527,40645
58527,40354
59472,40354
" /> 
<polyline style="fill-rule:evenodd;"
points="56959,46920
57440,46920
57440,47279
56959,47279
56959,46920
" /> 
<polyline style="fill-rule:evenodd;"
points="56959,48210
57440,48210
57440,48569
56959,48569
56959,48210
" /> 
<polyline style="fill-rule:evenodd;"
points="70322,45330
70677,45330
70677,45803
70322,45803
70322,45330
" /> 
<polyline style="fill-rule:evenodd;"
points="70322,46196
70677,46196
70677,46669
70322,46669
70322,46196
" /> 
<polyline style="fill-rule:evenodd;"
points="58468,49945
58468,49236
58783,49236
58783,49945
58468,49945
" /> 
<polyline style="fill-rule:evenodd;"
points="59216,49945
59216,49236
59531,49236
59531,49945
59216,49945
" /> 
<polyline style="fill-rule:evenodd;"
points="58842,48763
58842,48054
59157,48054
59157,48763
58842,48763
" /> 
<polyline style="fill-rule:evenodd;"
points="62468,49195
62468,48486
62783,48486
62783,49195
62468,49195
" /> 
<polyline style="fill-rule:evenodd;"
points="63216,49195
63216,48486
63531,48486
63531,49195
63216,49195
" /> 
<polyline style="fill-rule:evenodd;"
points="62842,48013
62842,47304
63157,47304
63157,48013
62842,48013
" /> 
<polyline style="fill-rule:evenodd;"
points="62304,50718
63013,50718
63013,51033
62304,51033
62304,50718
" /> 
<polyline style="fill-rule:evenodd;"
points="62304,51466
63013,51466
63013,51781
62304,51781
62304,51466
" /> 
<polyline style="fill-rule:evenodd;"
points="63486,51092
64195,51092
64195,51407
63486,51407
63486,51092
" /> 
<polyline style="fill-rule:evenodd;"
points="60657,37974
60657,38368
60342,38368
60342,37974
60657,37974
" /> 
<polyline style="fill-rule:evenodd;"
points="60263,37974
60263,38368
59948,38368
59948,37974
60263,37974
" /> 
<polyline style="fill-rule:evenodd;"
points="59870,37974
59870,38368
59555,38368
59555,37974
59870,37974
" /> 
<polyline style="fill-rule:evenodd;"
points="59870,39076
59870,39470
59555,39470
59555,39076
59870,39076
" /> 
<polyline style="fill-rule:evenodd;"
points="60263,39076
60263,39470
59948,39470
59948,39076
60263,39076
" /> 
<polyline style="fill-rule:evenodd;"
points="60657,39076
60657,39470
60342,39470
60342,39076
60657,39076
" /> 
<polyline style="fill-rule:evenodd;"
points="60578,38427
60578,39017
59633,39017
59633,38427
60578,38427
" /> 
</g> 
</svg>
