<?xml version="1.0" standalone="no"?>
 <!DOCTYPE svg PUBLIC "-//W3C//DTD SVG 1.1//EN" 
 "http://www.w3.org/Graphics/SVG/1.1/DTD/svg11.dtd"> 
<svg xmlns="http://www.w3.org/2000/svg" version="1.1" 
    width="5.39496cm" height="4.2164cm" viewBox="0 0 21240 16600 ">
<title>SVG Picture created as igrow-101-F.Mask.svg date 2016/06/09 11:48:19 </title>
  <desc>Picture generated by PCBNEW </desc>
<g style="fill:#000000; fill-opacity:1;stroke:#000000; stroke-opacity:1;
stroke-linecap:round; stroke-linejoin:round; "
 transform="translate(0 0) scale(1 1)">
</g>
<g style="fill:#000000; fill-opacity:0.0; 
stroke:#000000; stroke-width:-0.000393701; stroke-opacity:1; 
stroke-linecap:round; stroke-linejoin:round;">
</g>
<g style="fill:#000000; fill-opacity:0.0; 
stroke:#000000; stroke-width:59.0551; stroke-opacity:1; 
stroke-linecap:round; stroke-linejoin:round;">
<circle cx="2214.17" cy="15014.2" r="656.168" /> 
<path d="M1229 15014
L3198 15014
" />
<path d="M2214 14029
L2214 15998
" />
<circle cx="19214.2" cy="15014.2" r="656.168" /> 
<path d="M18229 15014
L20198 15014
" />
<path d="M19214 14029
L19214 15998
" />
<circle cx="19214.2" cy="2014.17" r="656.168" /> 
<path d="M18229 2014
L20198 2014
" />
<path d="M19214 1029
L19214 2998
" />
<path d="M20514 16264
L914 16264
" />
<path d="M20514 714
L20514 16264
" />
<path d="M914 714
L20514 714
" />
<path d="M914 16264
L914 714
" />
<circle cx="2214.17" cy="2014.17" r="656.168" /> 
<path d="M1229 2014
L3198 2014
" />
<path d="M2214 1029
L2214 2998
" />
</g>
<g style="fill:#000000; fill-opacity:0.0; 
stroke:#000000; stroke-width:0; stroke-opacity:1; 
stroke-linecap:round; stroke-linejoin:round;">
</g>
<g style="fill:#000000; fill-opacity:1.0; 
stroke:#000000; stroke-width:0; stroke-opacity:1; 
stroke-linecap:round; stroke-linejoin:round;">
<polyline style="fill-rule:evenodd;"
points="8190,3453
7737,3453
7737,2823
8190,2823
8190,3453
" /> 
<polyline style="fill-rule:evenodd;"
points="8190,2705
7737,2705
7737,2075
8190,2075
8190,2705
" /> 
<polyline style="fill-rule:evenodd;"
points="1735,5496
1735,3567
3192,3567
3192,5496
1735,5496
" /> 
<polyline style="fill-rule:evenodd;"
points="1735,8960
1735,7031
3192,7031
3192,8960
1735,8960
" /> 
<polyline style="fill-rule:evenodd;"
points="15458,13266
15970,13266
15970,13896
15458,13896
15458,13266
" /> 
<polyline style="fill-rule:evenodd;"
points="15458,14132
15970,14132
15970,14762
15458,14762
15458,14132
" /> 
<polyline style="fill-rule:evenodd;"
points="14466,15520
14466,15008
15096,15008
15096,15520
14466,15520
" /> 
<polyline style="fill-rule:evenodd;"
points="15332,15520
15332,15008
15962,15008
15962,15520
15332,15520
" /> 
<polyline style="fill-rule:evenodd;"
points="8216,15520
8216,15008
8846,15008
8846,15520
8216,15520
" /> 
<polyline style="fill-rule:evenodd;"
points="9082,15520
9082,15008
9712,15008
9712,15520
9082,15520
" /> 
<polyline style="fill-rule:evenodd;"
points="7958,9766
8470,9766
8470,10396
7958,10396
7958,9766
" /> 
<polyline style="fill-rule:evenodd;"
points="7958,10632
8470,10632
8470,11262
7958,11262
7958,10632
" /> 
<polyline style="fill-rule:evenodd;"
points="7220,8512
6708,8512
6708,7882
7220,7882
7220,8512
" /> 
<polyline style="fill-rule:evenodd;"
points="7220,7646
6708,7646
6708,7016
7220,7016
7220,7646
" /> 
<polyline style="fill-rule:evenodd;"
points="4716,9520
4716,9008
5346,9008
5346,9520
4716,9520
" /> 
<polyline style="fill-rule:evenodd;"
points="5582,9520
5582,9008
6212,9008
6212,9520
5582,9520
" /> 
<polyline style="fill-rule:evenodd;"
points="7220,6262
6708,6262
6708,5632
7220,5632
7220,6262
" /> 
<polyline style="fill-rule:evenodd;"
points="7220,5396
6708,5396
6708,4766
7220,4766
7220,5396
" /> 
<polyline style="fill-rule:evenodd;"
points="7220,3512
6708,3512
6708,2882
7220,2882
7220,3512
" /> 
<polyline style="fill-rule:evenodd;"
points="7220,2646
6708,2646
6708,2016
7220,2016
7220,2646
" /> 
<polyline style="fill-rule:evenodd;"
points="10220,14012
9708,14012
9708,13382
10220,13382
10220,14012
" /> 
<polyline style="fill-rule:evenodd;"
points="10220,13146
9708,13146
9708,12516
10220,12516
10220,13146
" /> 
<polyline style="fill-rule:evenodd;"
points="13216,13020
13216,12508
13846,12508
13846,13020
13216,13020
" /> 
<polyline style="fill-rule:evenodd;"
points="14082,13020
14082,12508
14712,12508
14712,13020
14082,13020
" /> 
<polyline style="fill-rule:evenodd;"
points="14466,12020
14466,11508
15096,11508
15096,12020
14466,12020
" /> 
<polyline style="fill-rule:evenodd;"
points="15332,12020
15332,11508
15962,11508
15962,12020
15332,12020
" /> 
<circle cx="13214.2" cy="14014.2" r="378.74" /> 
</g>
<g style="fill:#000000; fill-opacity:1.0; 
stroke:#000000; stroke-width:39.3701; stroke-opacity:1; 
stroke-linecap:round; stroke-linejoin:round;">
</g>
<g style="fill:#000000; fill-opacity:1.0; 
stroke:#000000; stroke-width:0; stroke-opacity:1; 
stroke-linecap:round; stroke-linejoin:round;">
<circle cx="11214.2" cy="14014.2" r="378.74" /> 
</g>
<g style="fill:#000000; fill-opacity:1.0; 
stroke:#000000; stroke-width:39.3701; stroke-opacity:1; 
stroke-linecap:round; stroke-linejoin:round;">
</g>
<g style="fill:#000000; fill-opacity:1.0; 
stroke:#000000; stroke-width:0; stroke-opacity:1; 
stroke-linecap:round; stroke-linejoin:round;">
<circle cx="11214.2" cy="12014.2" r="378.74" /> 
</g>
<g style="fill:#000000; fill-opacity:1.0; 
stroke:#000000; stroke-width:39.3701; stroke-opacity:1; 
stroke-linecap:round; stroke-linejoin:round;">
</g>
<g style="fill:#000000; fill-opacity:1.0; 
stroke:#000000; stroke-width:0; stroke-opacity:1; 
stroke-linecap:round; stroke-linejoin:round;">
<circle cx="13214.2" cy="12014.2" r="378.74" /> 
</g>
<g style="fill:#000000; fill-opacity:1.0; 
stroke:#000000; stroke-width:39.3701; stroke-opacity:1; 
stroke-linecap:round; stroke-linejoin:round;">
</g>
<g style="fill:#000000; fill-opacity:1.0; 
stroke:#000000; stroke-width:0; stroke-opacity:1; 
stroke-linecap:round; stroke-linejoin:round;">
<circle cx="18714.2" cy="4714.17" r="275.591" /> 
</g>
<g style="fill:#000000; fill-opacity:1.0; 
stroke:#000000; stroke-width:39.3701; stroke-opacity:1; 
stroke-linecap:round; stroke-linejoin:round;">
</g>
<g style="fill:#000000; fill-opacity:1.0; 
stroke:#000000; stroke-width:0; stroke-opacity:1; 
stroke-linecap:round; stroke-linejoin:round;">
<circle cx="18714.2" cy="5214.17" r="275.591" /> 
</g>
<g style="fill:#000000; fill-opacity:1.0; 
stroke:#000000; stroke-width:39.3701; stroke-opacity:1; 
stroke-linecap:round; stroke-linejoin:round;">
</g>
<g style="fill:#000000; fill-opacity:1.0; 
stroke:#000000; stroke-width:0; stroke-opacity:1; 
stroke-linecap:round; stroke-linejoin:round;">
<circle cx="18714.2" cy="5714.17" r="275.591" /> 
</g>
<g style="fill:#000000; fill-opacity:1.0; 
stroke:#000000; stroke-width:39.3701; stroke-opacity:1; 
stroke-linecap:round; stroke-linejoin:round;">
</g>
<g style="fill:#000000; fill-opacity:1.0; 
stroke:#000000; stroke-width:0; stroke-opacity:1; 
stroke-linecap:round; stroke-linejoin:round;">
<circle cx="18714.2" cy="6214.17" r="275.591" /> 
</g>
<g style="fill:#000000; fill-opacity:1.0; 
stroke:#000000; stroke-width:39.3701; stroke-opacity:1; 
stroke-linecap:round; stroke-linejoin:round;">
</g>
<g style="fill:#000000; fill-opacity:1.0; 
stroke:#000000; stroke-width:0; stroke-opacity:1; 
stroke-linecap:round; stroke-linejoin:round;">
<circle cx="18714.2" cy="6714.17" r="275.591" /> 
</g>
<g style="fill:#000000; fill-opacity:1.0; 
stroke:#000000; stroke-width:39.3701; stroke-opacity:1; 
stroke-linecap:round; stroke-linejoin:round;">
</g>
<g style="fill:#000000; fill-opacity:1.0; 
stroke:#000000; stroke-width:0; stroke-opacity:1; 
stroke-linecap:round; stroke-linejoin:round;">
<circle cx="18714.2" cy="7214.17" r="275.591" /> 
</g>
<g style="fill:#000000; fill-opacity:1.0; 
stroke:#000000; stroke-width:39.3701; stroke-opacity:1; 
stroke-linecap:round; stroke-linejoin:round;">
</g>
<g style="fill:#000000; fill-opacity:1.0; 
stroke:#000000; stroke-width:0; stroke-opacity:1; 
stroke-linecap:round; stroke-linejoin:round;">
<circle cx="18714.2" cy="7714.17" r="275.591" /> 
</g>
<g style="fill:#000000; fill-opacity:1.0; 
stroke:#000000; stroke-width:39.3701; stroke-opacity:1; 
stroke-linecap:round; stroke-linejoin:round;">
</g>
<g style="fill:#000000; fill-opacity:1.0; 
stroke:#000000; stroke-width:0; stroke-opacity:1; 
stroke-linecap:round; stroke-linejoin:round;">
<circle cx="18714.2" cy="8214.17" r="275.591" /> 
</g>
<g style="fill:#000000; fill-opacity:1.0; 
stroke:#000000; stroke-width:39.3701; stroke-opacity:1; 
stroke-linecap:round; stroke-linejoin:round;">
</g>
<g style="fill:#000000; fill-opacity:1.0; 
stroke:#000000; stroke-width:0; stroke-opacity:1; 
stroke-linecap:round; stroke-linejoin:round;">
<circle cx="18714.2" cy="8714.17" r="275.591" /> 
</g>
<g style="fill:#000000; fill-opacity:1.0; 
stroke:#000000; stroke-width:39.3701; stroke-opacity:1; 
stroke-linecap:round; stroke-linejoin:round;">
</g>
<g style="fill:#000000; fill-opacity:1.0; 
stroke:#000000; stroke-width:0; stroke-opacity:1; 
stroke-linecap:round; stroke-linejoin:round;">
<circle cx="18714.2" cy="9214.17" r="275.591" /> 
</g>
<g style="fill:#000000; fill-opacity:1.0; 
stroke:#000000; stroke-width:39.3701; stroke-opacity:1; 
stroke-linecap:round; stroke-linejoin:round;">
</g>
<g style="fill:#000000; fill-opacity:1.0; 
stroke:#000000; stroke-width:0; stroke-opacity:1; 
stroke-linecap:round; stroke-linejoin:round;">
<circle cx="18714.2" cy="9714.17" r="275.591" /> 
</g>
<g style="fill:#000000; fill-opacity:1.0; 
stroke:#000000; stroke-width:39.3701; stroke-opacity:1; 
stroke-linecap:round; stroke-linejoin:round;">
</g>
<g style="fill:#000000; fill-opacity:1.0; 
stroke:#000000; stroke-width:0; stroke-opacity:1; 
stroke-linecap:round; stroke-linejoin:round;">
<circle cx="18714.2" cy="10214.2" r="275.591" /> 
</g>
<g style="fill:#000000; fill-opacity:1.0; 
stroke:#000000; stroke-width:39.3701; stroke-opacity:1; 
stroke-linecap:round; stroke-linejoin:round;">
</g>
<g style="fill:#000000; fill-opacity:1.0; 
stroke:#000000; stroke-width:0; stroke-opacity:1; 
stroke-linecap:round; stroke-linejoin:round;">
<circle cx="17714.2" cy="10464.2" r="275.591" /> 
</g>
<g style="fill:#000000; fill-opacity:1.0; 
stroke:#000000; stroke-width:39.3701; stroke-opacity:1; 
stroke-linecap:round; stroke-linejoin:round;">
</g>
<g style="fill:#000000; fill-opacity:1.0; 
stroke:#000000; stroke-width:0; stroke-opacity:1; 
stroke-linecap:round; stroke-linejoin:round;">
<circle cx="17214.2" cy="10464.2" r="275.591" /> 
</g>
<g style="fill:#000000; fill-opacity:1.0; 
stroke:#000000; stroke-width:39.3701; stroke-opacity:1; 
stroke-linecap:round; stroke-linejoin:round;">
</g>
<g style="fill:#000000; fill-opacity:1.0; 
stroke:#000000; stroke-width:0; stroke-opacity:1; 
stroke-linecap:round; stroke-linejoin:round;">
<circle cx="16714.2" cy="10464.2" r="275.591" /> 
</g>
<g style="fill:#000000; fill-opacity:1.0; 
stroke:#000000; stroke-width:39.3701; stroke-opacity:1; 
stroke-linecap:round; stroke-linejoin:round;">
</g>
<g style="fill:#000000; fill-opacity:1.0; 
stroke:#000000; stroke-width:0; stroke-opacity:1; 
stroke-linecap:round; stroke-linejoin:round;">
<circle cx="16214.2" cy="10464.2" r="275.591" /> 
</g>
<g style="fill:#000000; fill-opacity:1.0; 
stroke:#000000; stroke-width:39.3701; stroke-opacity:1; 
stroke-linecap:round; stroke-linejoin:round;">
</g>
<g style="fill:#000000; fill-opacity:1.0; 
stroke:#000000; stroke-width:0; stroke-opacity:1; 
stroke-linecap:round; stroke-linejoin:round;">
<circle cx="15714.2" cy="10464.2" r="275.591" /> 
</g>
<g style="fill:#000000; fill-opacity:1.0; 
stroke:#000000; stroke-width:39.3701; stroke-opacity:1; 
stroke-linecap:round; stroke-linejoin:round;">
</g>
<g style="fill:#000000; fill-opacity:1.0; 
stroke:#000000; stroke-width:0; stroke-opacity:1; 
stroke-linecap:round; stroke-linejoin:round;">
<circle cx="15214.2" cy="10464.2" r="275.591" /> 
</g>
<g style="fill:#000000; fill-opacity:1.0; 
stroke:#000000; stroke-width:39.3701; stroke-opacity:1; 
stroke-linecap:round; stroke-linejoin:round;">
</g>
<g style="fill:#000000; fill-opacity:1.0; 
stroke:#000000; stroke-width:0; stroke-opacity:1; 
stroke-linecap:round; stroke-linejoin:round;">
<circle cx="14714.2" cy="10464.2" r="275.591" /> 
</g>
<g style="fill:#000000; fill-opacity:1.0; 
stroke:#000000; stroke-width:39.3701; stroke-opacity:1; 
stroke-linecap:round; stroke-linejoin:round;">
</g>
<g style="fill:#000000; fill-opacity:1.0; 
stroke:#000000; stroke-width:0; stroke-opacity:1; 
stroke-linecap:round; stroke-linejoin:round;">
<circle cx="14214.2" cy="10464.2" r="275.591" /> 
</g>
<g style="fill:#000000; fill-opacity:1.0; 
stroke:#000000; stroke-width:39.3701; stroke-opacity:1; 
stroke-linecap:round; stroke-linejoin:round;">
</g>
<g style="fill:#000000; fill-opacity:1.0; 
stroke:#000000; stroke-width:0; stroke-opacity:1; 
stroke-linecap:round; stroke-linejoin:round;">
<circle cx="13714.2" cy="10464.2" r="275.591" /> 
</g>
<g style="fill:#000000; fill-opacity:1.0; 
stroke:#000000; stroke-width:39.3701; stroke-opacity:1; 
stroke-linecap:round; stroke-linejoin:round;">
</g>
<g style="fill:#000000; fill-opacity:1.0; 
stroke:#000000; stroke-width:0; stroke-opacity:1; 
stroke-linecap:round; stroke-linejoin:round;">
<circle cx="13214.2" cy="10464.2" r="275.591" /> 
</g>
<g style="fill:#000000; fill-opacity:1.0; 
stroke:#000000; stroke-width:39.3701; stroke-opacity:1; 
stroke-linecap:round; stroke-linejoin:round;">
</g>
<g style="fill:#000000; fill-opacity:1.0; 
stroke:#000000; stroke-width:0; stroke-opacity:1; 
stroke-linecap:round; stroke-linejoin:round;">
<circle cx="12714.2" cy="10464.2" r="275.591" /> 
</g>
<g style="fill:#000000; fill-opacity:1.0; 
stroke:#000000; stroke-width:39.3701; stroke-opacity:1; 
stroke-linecap:round; stroke-linejoin:round;">
</g>
<g style="fill:#000000; fill-opacity:1.0; 
stroke:#000000; stroke-width:0; stroke-opacity:1; 
stroke-linecap:round; stroke-linejoin:round;">
<circle cx="12214.2" cy="10464.2" r="275.591" /> 
</g>
<g style="fill:#000000; fill-opacity:1.0; 
stroke:#000000; stroke-width:39.3701; stroke-opacity:1; 
stroke-linecap:round; stroke-linejoin:round;">
</g>
<g style="fill:#000000; fill-opacity:1.0; 
stroke:#000000; stroke-width:0; stroke-opacity:1; 
stroke-linecap:round; stroke-linejoin:round;">
<circle cx="11214.2" cy="10214.2" r="275.591" /> 
</g>
<g style="fill:#000000; fill-opacity:1.0; 
stroke:#000000; stroke-width:39.3701; stroke-opacity:1; 
stroke-linecap:round; stroke-linejoin:round;">
</g>
<g style="fill:#000000; fill-opacity:1.0; 
stroke:#000000; stroke-width:0; stroke-opacity:1; 
stroke-linecap:round; stroke-linejoin:round;">
<circle cx="11214.2" cy="9714.17" r="275.591" /> 
</g>
<g style="fill:#000000; fill-opacity:1.0; 
stroke:#000000; stroke-width:39.3701; stroke-opacity:1; 
stroke-linecap:round; stroke-linejoin:round;">
</g>
<g style="fill:#000000; fill-opacity:1.0; 
stroke:#000000; stroke-width:0; stroke-opacity:1; 
stroke-linecap:round; stroke-linejoin:round;">
<circle cx="11214.2" cy="9214.17" r="275.591" /> 
</g>
<g style="fill:#000000; fill-opacity:1.0; 
stroke:#000000; stroke-width:39.3701; stroke-opacity:1; 
stroke-linecap:round; stroke-linejoin:round;">
</g>
<g style="fill:#000000; fill-opacity:1.0; 
stroke:#000000; stroke-width:0; stroke-opacity:1; 
stroke-linecap:round; stroke-linejoin:round;">
<circle cx="11214.2" cy="8714.17" r="275.591" /> 
</g>
<g style="fill:#000000; fill-opacity:1.0; 
stroke:#000000; stroke-width:39.3701; stroke-opacity:1; 
stroke-linecap:round; stroke-linejoin:round;">
</g>
<g style="fill:#000000; fill-opacity:1.0; 
stroke:#000000; stroke-width:0; stroke-opacity:1; 
stroke-linecap:round; stroke-linejoin:round;">
<circle cx="11214.2" cy="8214.17" r="275.591" /> 
</g>
<g style="fill:#000000; fill-opacity:1.0; 
stroke:#000000; stroke-width:39.3701; stroke-opacity:1; 
stroke-linecap:round; stroke-linejoin:round;">
</g>
<g style="fill:#000000; fill-opacity:1.0; 
stroke:#000000; stroke-width:0; stroke-opacity:1; 
stroke-linecap:round; stroke-linejoin:round;">
<circle cx="11214.2" cy="7714.17" r="275.591" /> 
</g>
<g style="fill:#000000; fill-opacity:1.0; 
stroke:#000000; stroke-width:39.3701; stroke-opacity:1; 
stroke-linecap:round; stroke-linejoin:round;">
</g>
<g style="fill:#000000; fill-opacity:1.0; 
stroke:#000000; stroke-width:0; stroke-opacity:1; 
stroke-linecap:round; stroke-linejoin:round;">
<circle cx="11214.2" cy="7214.17" r="275.591" /> 
</g>
<g style="fill:#000000; fill-opacity:1.0; 
stroke:#000000; stroke-width:39.3701; stroke-opacity:1; 
stroke-linecap:round; stroke-linejoin:round;">
</g>
<g style="fill:#000000; fill-opacity:1.0; 
stroke:#000000; stroke-width:0; stroke-opacity:1; 
stroke-linecap:round; stroke-linejoin:round;">
<circle cx="11214.2" cy="6714.17" r="275.591" /> 
</g>
<g style="fill:#000000; fill-opacity:1.0; 
stroke:#000000; stroke-width:39.3701; stroke-opacity:1; 
stroke-linecap:round; stroke-linejoin:round;">
</g>
<g style="fill:#000000; fill-opacity:1.0; 
stroke:#000000; stroke-width:0; stroke-opacity:1; 
stroke-linecap:round; stroke-linejoin:round;">
<circle cx="11214.2" cy="6214.17" r="275.591" /> 
</g>
<g style="fill:#000000; fill-opacity:1.0; 
stroke:#000000; stroke-width:39.3701; stroke-opacity:1; 
stroke-linecap:round; stroke-linejoin:round;">
</g>
<g style="fill:#000000; fill-opacity:1.0; 
stroke:#000000; stroke-width:0; stroke-opacity:1; 
stroke-linecap:round; stroke-linejoin:round;">
<circle cx="11214.2" cy="5714.17" r="275.591" /> 
</g>
<g style="fill:#000000; fill-opacity:1.0; 
stroke:#000000; stroke-width:39.3701; stroke-opacity:1; 
stroke-linecap:round; stroke-linejoin:round;">
</g>
<g style="fill:#000000; fill-opacity:1.0; 
stroke:#000000; stroke-width:0; stroke-opacity:1; 
stroke-linecap:round; stroke-linejoin:round;">
<circle cx="11214.2" cy="5214.17" r="275.591" /> 
</g>
<g style="fill:#000000; fill-opacity:1.0; 
stroke:#000000; stroke-width:39.3701; stroke-opacity:1; 
stroke-linecap:round; stroke-linejoin:round;">
</g>
<g style="fill:#000000; fill-opacity:1.0; 
stroke:#000000; stroke-width:0; stroke-opacity:1; 
stroke-linecap:round; stroke-linejoin:round;">
<circle cx="11214.2" cy="4714.17" r="275.591" /> 
</g>
<g style="fill:#000000; fill-opacity:1.0; 
stroke:#000000; stroke-width:39.3701; stroke-opacity:1; 
stroke-linecap:round; stroke-linejoin:round;">
</g>
<g style="fill:#000000; fill-opacity:1.0; 
stroke:#000000; stroke-width:0; stroke-opacity:1; 
stroke-linecap:round; stroke-linejoin:round;">
<polyline style="fill-rule:evenodd;"
points="9871,2067
9871,2461
9556,2461
9556,2067
9871,2067
" /> 
<polyline style="fill-rule:evenodd;"
points="9477,2067
9477,2461
9162,2461
9162,2067
9477,2067
" /> 
<polyline style="fill-rule:evenodd;"
points="9084,2067
9084,2461
8769,2461
8769,2067
9084,2067
" /> 
<polyline style="fill-rule:evenodd;"
points="9084,3012
9084,3405
8769,3405
8769,3012
9084,3012
" /> 
<polyline style="fill-rule:evenodd;"
points="9477,3012
9477,3405
9162,3405
9162,3012
9477,3012
" /> 
<polyline style="fill-rule:evenodd;"
points="9871,3012
9871,3405
9556,3405
9556,3012
9871,3012
" /> 
<polyline style="fill-rule:evenodd;"
points="9871,2362
9871,3110
8769,3110
8769,2362
9871,2362
" /> 
<circle cx="9464.17" cy="11764.2" r="378.74" /> 
</g>
<g style="fill:#000000; fill-opacity:1.0; 
stroke:#000000; stroke-width:39.3701; stroke-opacity:1; 
stroke-linecap:round; stroke-linejoin:round;">
</g>
<g style="fill:#000000; fill-opacity:1.0; 
stroke:#000000; stroke-width:0; stroke-opacity:1; 
stroke-linecap:round; stroke-linejoin:round;">
<circle cx="1464.17" cy="11764.2" r="378.74" /> 
</g>
<g style="fill:#000000; fill-opacity:1.0; 
stroke:#000000; stroke-width:39.3701; stroke-opacity:1; 
stroke-linecap:round; stroke-linejoin:round;">
</g>
<g style="fill:#000000; fill-opacity:1.0; 
stroke:#000000; stroke-width:0; stroke-opacity:1; 
stroke-linecap:round; stroke-linejoin:round;">
<polyline style="fill-rule:evenodd;"
points="3779,10208
4448,10208
4448,10956
3779,10956
3779,10208
" /> 
<polyline style="fill-rule:evenodd;"
points="3779,11271
4448,11271
4448,12019
3779,12019
3779,11271
" /> 
<polyline style="fill-rule:evenodd;"
points="10265,6289
10265,6738
9162,6738
9162,6289
10265,6289
" /> 
<polyline style="fill-rule:evenodd;"
points="8765,6289
8765,6738
7662,6738
7662,6289
8765,6289
" /> 
<polyline style="fill-rule:evenodd;"
points="10265,5789
10265,6238
9162,6238
9162,5789
10265,5789
" /> 
<polyline style="fill-rule:evenodd;"
points="8765,5789
8765,6238
7662,6238
7662,5789
8765,5789
" /> 
<polyline style="fill-rule:evenodd;"
points="10265,5289
10265,5738
9162,5738
9162,5289
10265,5289
" /> 
<polyline style="fill-rule:evenodd;"
points="8765,5289
8765,5738
7662,5738
7662,5289
8765,5289
" /> 
<polyline style="fill-rule:evenodd;"
points="10265,4789
10265,5238
9162,5238
9162,4789
10265,4789
" /> 
<polyline style="fill-rule:evenodd;"
points="8765,4789
8765,5238
7662,5238
7662,4789
8765,4789
" /> 
<polyline style="fill-rule:evenodd;"
points="10265,4289
10265,4738
9162,4738
9162,4289
10265,4289
" /> 
<polyline style="fill-rule:evenodd;"
points="8765,4289
8765,4738
7662,4738
7662,4289
8765,4289
" /> 
<polyline style="fill-rule:evenodd;"
points="6095,10856
6733,10856
6733,11372
6095,11372
6095,10856
" /> 
<polyline style="fill-rule:evenodd;"
points="6095,12146
6733,12146
6733,12662
6095,12662
6095,12146
" /> 
<polyline style="fill-rule:evenodd;"
points="5916,6986
5011,6986
5011,6041
5916,6041
5916,6986
" /> 
<circle cx="4464.17" cy="6514.17" r="452.756" /> 
</g>
<g style="fill:#000000; fill-opacity:1.0; 
stroke:#000000; stroke-width:39.3701; stroke-opacity:1; 
stroke-linecap:round; stroke-linejoin:round;">
</g>
<g style="fill:#000000; fill-opacity:1.0; 
stroke:#000000; stroke-width:0; stroke-opacity:1; 
stroke-linecap:round; stroke-linejoin:round;">
<polyline style="fill-rule:evenodd;"
points="5916,4736
5011,4736
5011,3791
5916,3791
5916,4736
" /> 
<circle cx="4464.17" cy="4264.17" r="452.756" /> 
</g>
<g style="fill:#000000; fill-opacity:1.0; 
stroke:#000000; stroke-width:39.3701; stroke-opacity:1; 
stroke-linecap:round; stroke-linejoin:round;">
</g>
<g style="fill:#000000; fill-opacity:1.0; 
stroke:#000000; stroke-width:0; stroke-opacity:1; 
stroke-linecap:round; stroke-linejoin:round;">
<polyline style="fill-rule:evenodd;"
points="5916,2486
5011,2486
5011,1541
5916,1541
5916,2486
" /> 
<circle cx="4464.17" cy="2014.17" r="452.756" /> 
</g>
<g style="fill:#000000; fill-opacity:1.0; 
stroke:#000000; stroke-width:39.3701; stroke-opacity:1; 
stroke-linecap:round; stroke-linejoin:round;">
</g>
<g style="fill:#000000; fill-opacity:1.0; 
stroke:#000000; stroke-width:0; stroke-opacity:1; 
stroke-linecap:round; stroke-linejoin:round;">
<polyline style="fill-rule:evenodd;"
points="19458,9266
19970,9266
19970,9896
19458,9896
19458,9266
" /> 
<polyline style="fill-rule:evenodd;"
points="19458,10132
19970,10132
19970,10762
19458,10762
19458,10132
" /> 
<circle cx="2214.17" cy="2014.17" r="964.567" /> 
</g>
<g style="fill:#000000; fill-opacity:1.0; 
stroke:#000000; stroke-width:39.3701; stroke-opacity:1; 
stroke-linecap:round; stroke-linejoin:round;">
</g>
<g style="fill:#000000; fill-opacity:1.0; 
stroke:#000000; stroke-width:0; stroke-opacity:1; 
stroke-linecap:round; stroke-linejoin:round;">
<circle cx="2214.17" cy="15014.2" r="964.567" /> 
</g>
<g style="fill:#000000; fill-opacity:1.0; 
stroke:#000000; stroke-width:39.3701; stroke-opacity:1; 
stroke-linecap:round; stroke-linejoin:round;">
</g>
<g style="fill:#000000; fill-opacity:1.0; 
stroke:#000000; stroke-width:0; stroke-opacity:1; 
stroke-linecap:round; stroke-linejoin:round;">
<circle cx="19214.2" cy="15014.2" r="964.567" /> 
</g>
<g style="fill:#000000; fill-opacity:1.0; 
stroke:#000000; stroke-width:39.3701; stroke-opacity:1; 
stroke-linecap:round; stroke-linejoin:round;">
</g>
<g style="fill:#000000; fill-opacity:1.0; 
stroke:#000000; stroke-width:0; stroke-opacity:1; 
stroke-linecap:round; stroke-linejoin:round;">
<circle cx="19214.2" cy="2014.17" r="964.567" /> 
</g>
<g style="fill:#000000; fill-opacity:1.0; 
stroke:#000000; stroke-width:39.3701; stroke-opacity:1; 
stroke-linecap:round; stroke-linejoin:round;">
</g>
<g style="fill:#000000; fill-opacity:1.0; 
stroke:#000000; stroke-width:0; stroke-opacity:1; 
stroke-linecap:round; stroke-linejoin:round;">
<polyline style="fill-rule:evenodd;"
points="7603,14038
7603,13171
8076,13171
8076,14038
7603,14038
" /> 
<polyline style="fill-rule:evenodd;"
points="8351,14038
8351,13171
8824,13171
8824,14038
8351,14038
" /> 
<polyline style="fill-rule:evenodd;"
points="7977,12856
7977,11989
8450,11989
8450,12856
7977,12856
" /> 
<polyline style="fill-rule:evenodd;"
points="11603,13288
11603,12421
12076,12421
12076,13288
11603,13288
" /> 
<polyline style="fill-rule:evenodd;"
points="12351,13288
12351,12421
12824,12421
12824,13288
12351,13288
" /> 
<polyline style="fill-rule:evenodd;"
points="11977,12106
11977,11239
12450,11239
12450,12106
11977,12106
" /> 
<polyline style="fill-rule:evenodd;"
points="11439,14653
12306,14653
12306,15126
11439,15126
11439,14653
" /> 
<polyline style="fill-rule:evenodd;"
points="11439,15401
12306,15401
12306,15874
11439,15874
11439,15401
" /> 
<polyline style="fill-rule:evenodd;"
points="12621,15027
13488,15027
13488,15500
12621,15500
12621,15027
" /> 
<circle cx="17214.2" cy="15014.2" r="669.291" /> 
</g>
<g style="fill:#000000; fill-opacity:1.0; 
stroke:#000000; stroke-width:39.3701; stroke-opacity:1; 
stroke-linecap:round; stroke-linejoin:round;">
</g> 
</svg>
